<?xml version="1.0" encoding="utf-8"?>
<!-- Generator: Adobe Illustrator 22.1.0, SVG Export Plug-In . SVG Version: 6.00 Build 0)  -->
<svg version="1.1" id="Layer_1" xmlns="http://www.w3.org/2000/svg" xmlns:xlink="http://www.w3.org/1999/xlink" x="0px" y="0px"
	 viewBox="0 0 700 700" style="enable-background:new 0 0 700 700;" xml:space="preserve">
<g>
	<path style="fill:#00CCAE;" d="M350,25.71C171.2,25.71,25.71,171.2,25.71,350S171.2,674.29,350,674.29
		c178.81,0,324.29-145.48,324.29-324.29S528.8,25.71,350,25.71z M350,637.66C191.48,637.66,62.34,508.52,62.34,350
		C62.34,191.48,191.48,62.55,350,62.55c158.52,0,287.45,128.93,287.45,287.45C637.45,508.52,508.52,637.66,350,637.66z"/>
	<path style="fill:#00CCAE;" d="M231.05,261.45c18.57,0,34.16-15.26,34.16-34.16c0-18.9-15.59-34.16-34.16-34.16
		c-18.9,0-34.5,15.26-34.5,34.16C196.56,246.19,212.15,261.45,231.05,261.45z"/>
	<path style="fill:#00CCAE;" d="M469.5,261.45c18.57,0,34.16-15.26,34.16-34.16c0-18.9-15.58-34.16-34.16-34.16
		c-18.91,0-34.49,15.26-34.49,34.16C435.01,246.19,450.6,261.45,469.5,261.45z"/>
	<path style="fill:#00CCAE;" d="M470.45,492.41c-39.95-69.72-79.91-139.06-119.86-208.59L230.72,492.61
		c-1.77,2.94-1.96,3.92-2.15,4.11l-0.39,2.16c-0.2,1.17-0.39,1.96-0.39,2.74c0,18.02,47.98,44.27,123.19,44.27
		c75.02,0,123-26.25,123-44.27c0-1.96-0.78-4.11-2.15-6.46L470.45,492.41z"/>
	<path style="fill:#00CCAE;" d="M470.04,280.99l-7.8,13.53c-9.62,16.52-19.24,33.03-28.94,49.55c-7.73,13.17-7.82,29.42-0.14,42.62
		c13.09,22.48,26.15,45.1,39.15,67.75c7.54,13.15,21.52,21.27,36.68,21.27c32.57,0,52.93-35.22,36.7-63.45
		C520.55,368.5,495.4,324.75,470.04,280.99z"/>
	<path style="fill:#00CCAE;" d="M266.6,344.07c-9.7-16.52-19.32-33.03-28.94-49.55l-7.8-13.53c-25.36,43.76-50.5,87.51-75.65,131.26
		c-16.23,28.23,4.14,63.45,36.7,63.45c15.16,0,29.14-8.12,36.69-21.27c13-22.65,26.07-45.27,39.15-67.75
		C274.42,373.49,274.33,357.24,266.6,344.07z"/>
	<path style="fill:#00CCAE;" d="M347.61,252.25c0.71,0,1.43,0,2-0.14c11.58,0.57,24-4.29,33.29-13
		c10.15-9.29,15.57-22.01,15.72-35.72c0-13.15-5.15-25.58-14.58-35.01c-9.43-9.29-21.86-14.29-34.87-14.29
		c-26.58,0.14-48.58,22.15-48.87,49.01c-0.14,13.72,5.43,26.43,15.43,35.87C324.75,247.39,336.46,252.25,347.61,252.25z"/>
</g>
</svg>
