<?xml version="1.0" encoding="utf-8"?>
<!-- Generator: Adobe Illustrator 22.1.0, SVG Export Plug-In . SVG Version: 6.00 Build 0)  -->
<svg version="1.1" id="Layer_1" xmlns="http://www.w3.org/2000/svg" xmlns:xlink="http://www.w3.org/1999/xlink" x="0px" y="0px"
	 viewBox="0 0 1000 200" style="enable-background:new 0 0 1000 200;" xml:space="preserve">
<g>
	<path style="fill:#2C444E;" d="M810.56,78.73l-6.99-15.99h-11.84l-3.86,8.8l-5.14,11.79l-6.8,15.46l-4.99,11.4l-11.35,25.97h13.16
		l4.99-11.79h-0.1l3.67-8.61l0.05,0.05c5.14,1.91,10.52,2.84,16.14,2.84c3.82,0,7.34-0.44,10.52-1.42c1.91-0.59,3.67-1.32,5.23-2.25
		l1.47,3.57l3.62,8.61l3.77,9h13.55l-13.65-31.26L810.56,78.73z M807.24,104.8c-2.35,1.66-5.48,2.49-9.44,2.49
		c-4.45,0-8.41-0.73-11.93-2.3l2.59-6.07h0.05l5.23-12.23l3.72-8.66l4.74,11.05l6.21,14.38h0.05l0.05,0.2
		C808.17,104.06,807.73,104.45,807.24,104.8z"/>
	<path style="fill:#2C444E;" d="M274.92,101.37c-1.96-1.71-4.4-3.13-7.34-4.35c-2.98-1.17-6.36-2.25-10.17-3.18
		c-3.52-0.88-6.36-1.66-8.66-2.4c-2.25-0.78-4.01-1.61-5.33-2.54c-1.27-0.88-2.15-1.86-2.64-2.89c-0.49-1.08-0.73-2.3-0.73-3.77
		c0-2.45,1.03-4.5,3.13-6.21c2.1-1.66,4.99-2.54,8.76-2.54c3.33,0,6.6,0.64,9.88,1.96c3.28,1.27,6.55,3.13,9.93,5.58l6.85-9.73
		c-3.77-2.98-7.78-5.23-12.03-6.8c-4.25-1.57-9.1-2.35-14.43-2.35c-3.62,0-6.95,0.49-9.98,1.52c-3.08,0.98-5.67,2.45-7.83,4.3
		c-2.2,1.91-3.91,4.11-5.14,6.75c-1.22,2.59-1.86,5.48-1.86,8.66c0,3.42,0.54,6.31,1.61,8.66c1.08,2.4,2.64,4.4,4.7,6.07
		c2.05,1.66,4.6,3.03,7.63,4.16c3.03,1.13,6.51,2.1,10.42,3.03c3.42,0.83,6.16,1.61,8.27,2.4c2.15,0.73,3.82,1.57,5.04,2.45
		c1.22,0.88,2.05,1.81,2.49,2.84c0.44,1.08,0.68,2.25,0.68,3.57c0,2.84-1.17,5.09-3.47,6.75c-2.35,1.66-5.48,2.49-9.44,2.49
		c-4.6,0-8.66-0.78-12.28-2.45c-3.62-1.61-7.19-3.96-10.76-6.99l-7.68,9.15c4.35,3.96,9.1,6.9,14.23,8.8
		c5.19,1.91,10.56,2.84,16.19,2.84c3.81,0,7.29-0.44,10.52-1.42c3.18-0.98,5.92-2.4,8.17-4.3c2.3-1.86,4.06-4.16,5.33-6.85
		c1.27-2.74,1.91-5.82,1.91-9.29c0-3.03-0.49-5.67-1.52-7.97C278.35,105.04,276.88,103.08,274.92,101.37z"/>
	<rect x="294.63" y="63.17" style="fill:#2C444E;" width="12.72" height="72.93"/>
	<path style="fill:#2C444E;" d="M370.45,101.37c-1.96-1.71-4.4-3.13-7.34-4.35c-2.98-1.17-6.36-2.25-10.17-3.18
		c-3.52-0.88-6.36-1.66-8.66-2.4c-2.25-0.78-4.01-1.61-5.28-2.54c-1.32-0.88-2.2-1.86-2.69-2.89c-0.49-1.08-0.73-2.3-0.73-3.77
		c0-2.45,1.03-4.5,3.13-6.21c2.1-1.66,4.99-2.54,8.76-2.54c3.33,0,6.65,0.64,9.88,1.96c3.28,1.27,6.55,3.13,9.93,5.58l6.85-9.73
		c-3.72-2.98-7.73-5.23-12.03-6.8c-4.26-1.57-9.1-2.35-14.43-2.35c-3.62,0-6.95,0.49-9.98,1.52c-3.03,0.98-5.67,2.45-7.83,4.3
		c-2.15,1.91-3.86,4.11-5.14,6.75c-1.22,2.59-1.86,5.48-1.86,8.66c0,3.42,0.54,6.31,1.61,8.66c1.08,2.4,2.69,4.4,4.74,6.07
		c2.05,1.66,4.55,3.03,7.58,4.16c3.03,1.13,6.51,2.1,10.42,3.03c3.42,0.83,6.16,1.61,8.32,2.4c2.1,0.73,3.77,1.57,4.99,2.45
		c1.22,0.88,2.06,1.81,2.49,2.84c0.49,1.08,0.69,2.25,0.69,3.57c0,2.84-1.12,5.09-3.47,6.75c-2.35,1.66-5.48,2.49-9.44,2.49
		c-4.6,0-8.66-0.78-12.28-2.45c-3.62-1.61-7.19-3.96-10.76-6.99l-7.68,9.15c4.35,3.96,9.15,6.9,14.28,8.8
		c5.14,1.91,10.52,2.84,16.14,2.84c3.82,0,7.34-0.44,10.52-1.42c3.18-0.98,5.92-2.4,8.17-4.3c2.3-1.86,4.06-4.16,5.33-6.85
		c1.27-2.74,1.91-5.82,1.91-9.29c0-3.03-0.49-5.67-1.52-7.97C373.92,105.04,372.41,103.08,370.45,101.37z"/>
	<polygon style="fill:#2C444E;" points="441.87,63.17 382.68,63.17 382.68,75.05 405.82,75.05 405.82,136.1 418.73,136.1 
		418.73,75.05 441.87,75.05 	"/>
	<path style="fill:#2C444E;" d="M488.63,78.67l-6.99-15.99H469.8l-3.86,8.8l-5.14,11.79L454,98.73l-4.99,11.4l-11.35,25.97h13.16
		l4.99-11.79h-0.1l3.67-8.61l0.05,0.05c5.14,1.91,10.52,2.84,16.14,2.84c3.82,0,7.34-0.44,10.52-1.42c1.91-0.59,3.67-1.32,5.23-2.25
		l1.47,3.57l3.62,8.61l3.77,9h13.55l-13.65-31.26L488.63,78.67z M485.3,104.74c-2.35,1.66-5.48,2.49-9.44,2.49
		c-4.45,0-8.41-0.73-11.93-2.3l2.59-6.07h0.05l5.23-12.23l3.72-8.66l4.75,11.05l6.21,14.38l0.1,0.2
		C486.23,104.01,485.79,104.4,485.3,104.74z"/>
	<polygon style="fill:#2C444E;" points="522.92,74.52 564.59,74.52 521.55,126.61 521.55,136.1 581.22,136.1 581.22,124.75 
		538.23,124.75 581.22,72.66 581.22,63.17 522.92,63.17 	"/>
	<path style="fill:#2C444E;" d="M670,101.37c-1.96-1.71-4.4-3.13-7.39-4.35c-2.93-1.17-6.36-2.25-10.17-3.18
		c-3.47-0.88-6.36-1.66-8.61-2.4c-2.25-0.78-4.06-1.61-5.33-2.54c-1.27-0.88-2.15-1.86-2.64-2.89c-0.49-1.08-0.73-2.3-0.73-3.77
		c0-2.45,1.03-4.5,3.13-6.21c2.05-1.66,4.99-2.54,8.76-2.54c3.33,0,6.6,0.64,9.88,1.96c3.28,1.27,6.55,3.13,9.88,5.58l6.9-9.73
		c-3.77-2.98-7.78-5.23-12.03-6.8c-4.3-1.57-9.1-2.35-14.43-2.35c-3.62,0-6.95,0.49-9.98,1.52c-3.08,0.98-5.67,2.45-7.88,4.3
		c-2.15,1.91-3.86,4.11-5.09,6.75c-1.22,2.59-1.86,5.48-1.86,8.66c0,3.42,0.54,6.31,1.61,8.66c1.08,2.4,2.64,4.4,4.7,6.07
		c2.05,1.66,4.6,3.03,7.63,4.16c3.03,1.13,6.51,2.1,10.37,3.03c3.42,0.83,6.21,1.61,8.32,2.4c2.15,0.73,3.81,1.57,5.04,2.45
		c1.22,0.88,2.06,1.81,2.49,2.84c0.44,1.08,0.69,2.25,0.69,3.57c0,2.84-1.17,5.09-3.52,6.75c-2.3,1.66-5.43,2.49-9.39,2.49
		c-4.6,0-8.71-0.78-12.33-2.45c-3.57-1.61-7.19-3.96-10.71-6.99l-7.73,9.15c4.4,3.96,9.15,6.9,14.28,8.8
		c5.14,1.91,10.52,2.84,16.14,2.84c3.82,0,7.34-0.44,10.52-1.42c3.18-0.98,5.92-2.4,8.22-4.3c2.25-1.86,4.01-4.16,5.33-6.85
		c1.27-2.74,1.91-5.82,1.91-9.29c0-3.03-0.54-5.67-1.52-7.97C673.42,105.04,671.96,103.08,670,101.37z"/>
	<polygon style="fill:#2C444E;" points="736.72,93.49 701.7,93.49 701.7,63.17 688.98,63.17 688.98,136.1 701.7,136.1 701.7,105.38 
		736.72,105.38 736.72,136.1 749.39,136.1 749.39,63.17 736.72,63.17 	"/>
	<path style="fill:#2C444E;" d="M895.54,105.53c2.1-1.27,3.91-2.84,5.43-4.7c1.57-1.81,2.74-3.96,3.62-6.36
		c0.88-2.4,1.32-5.09,1.32-8.17c0-3.52-0.64-6.75-1.91-9.64c-1.22-2.89-3.03-5.28-5.33-7.29c-2.35-2.01-5.18-3.52-8.56-4.6
		c-3.37-1.08-7.14-1.61-11.3-1.61h-32.53v72.93H859v-25.44h16.09l18,25.44h15.07l-19.66-27.59
		C891.04,107.83,893.39,106.8,895.54,105.53z M859,99.32V74.76h18.68c4.84,0,8.56,1.03,11.2,3.08c2.64,2.05,3.96,5.09,3.96,9.15
		c0,3.77-1.32,6.75-4.06,9c-2.74,2.25-6.36,3.33-10.96,3.33H859z"/>
	<polygon style="fill:#2C444E;" points="932.23,124.55 932.23,105.09 968.81,105.09 968.81,93.49 932.23,93.49 932.23,74.76 
		973.51,74.76 973.51,63.17 919.56,63.17 919.56,136.1 974,136.1 974,124.55 	"/>
	<path style="fill:#2C444E;" d="M102.65,23.35C60.39,23.35,26,57.74,26,100s34.39,76.65,76.65,76.65
		c42.26,0,76.65-34.39,76.65-76.65S144.91,23.35,102.65,23.35z M102.65,167.99c-37.47,0-67.99-30.52-67.99-67.99
		c0-37.47,30.52-67.94,67.99-67.94c37.47,0,67.94,30.47,67.94,67.94C170.59,137.47,140.12,167.99,102.65,167.99z"/>
	<path style="fill:#2C444E;" d="M74.53,79.07c4.39,0,8.07-3.61,8.07-8.07c0-4.47-3.68-8.07-8.07-8.07c-4.47,0-8.15,3.61-8.15,8.07
		C66.38,75.46,70.07,79.07,74.53,79.07z"/>
	<path style="fill:#2C444E;" d="M130.89,79.07c4.39,0,8.07-3.61,8.07-8.07c0-4.47-3.68-8.07-8.07-8.07c-4.47,0-8.15,3.61-8.15,8.07
		C122.74,75.46,126.43,79.07,130.89,79.07z"/>
	<path style="fill:#2C444E;" d="M131.12,133.66c-9.44-16.48-18.89-32.87-28.33-49.3l-28.33,49.35c-0.42,0.69-0.46,0.93-0.51,0.97
		l-0.09,0.51c-0.05,0.28-0.09,0.46-0.09,0.65c0,4.26,11.34,10.46,29.12,10.46c17.73,0,29.07-6.2,29.07-10.46
		c0-0.46-0.19-0.97-0.51-1.53L131.12,133.66z"/>
	<path style="fill:#2C444E;" d="M131.02,83.69l-1.84,3.2c-2.27,3.9-4.55,7.81-6.84,11.71c-1.83,3.11-1.85,6.95-0.03,10.07
		c3.09,5.31,6.18,10.66,9.25,16.01c1.78,3.11,5.09,5.03,8.67,5.03c7.7,0,12.51-8.32,8.67-15
		C142.96,104.37,137.01,94.03,131.02,83.69z"/>
	<path style="fill:#2C444E;" d="M82.94,98.6c-2.29-3.9-4.57-7.81-6.84-11.71l-1.84-3.2c-5.99,10.34-11.94,20.68-17.88,31.03
		c-3.84,6.67,0.98,15,8.67,15c3.58,0,6.89-1.92,8.67-5.03c3.07-5.35,6.16-10.7,9.25-16.01C84.78,105.55,84.76,101.71,82.94,98.6z"/>
	<path style="fill:#2C444E;" d="M102.08,76.89c0.17,0,0.34,0,0.47-0.03c2.74,0.14,5.67-1.01,7.87-3.07c2.4-2.2,3.68-5.2,3.72-8.44
		c0-3.11-1.22-6.05-3.45-8.27c-2.23-2.2-5.17-3.38-8.24-3.38c-6.28,0.03-11.48,5.24-11.55,11.58c-0.03,3.24,1.28,6.25,3.65,8.48
		C96.68,75.75,99.45,76.89,102.08,76.89z"/>
</g>
</svg>
