<?xml version="1.0" encoding="utf-8"?>
<!-- Generator: Adobe Illustrator 22.1.0, SVG Export Plug-In . SVG Version: 6.00 Build 0)  -->
<svg version="1.1" id="Layer_1" xmlns="http://www.w3.org/2000/svg" xmlns:xlink="http://www.w3.org/1999/xlink" x="0px" y="0px"
	 viewBox="0 0 1000 200" style="enable-background:new 0 0 1000 200;" xml:space="preserve">
<g>
	<path style="fill:#FFFFFF;" d="M770.97,74.01l-8.68-19.86h-14.71l-4.79,10.93l-6.39,14.65l-8.45,19.2l-6.2,14.16l-14.1,32.26H724
		l6.2-14.65h-0.12l4.56-10.7l0.06,0.06c6.39,2.37,13.07,3.53,20.05,3.53c4.75,0,9.12-0.55,13.07-1.76c2.37-0.73,4.56-1.64,6.5-2.8
		l1.83,4.43l4.5,10.7l4.68,11.18h16.83l-16.96-38.83L770.97,74.01z M766.85,106.4c-2.92,2.06-6.81,3.09-11.73,3.09
		c-5.53,0-10.45-0.91-14.82-2.86l3.22-7.54h0.06l6.5-15.19l4.62-10.76l5.89,13.73l7.71,17.86h0.06l0.06,0.25
		C768,105.48,767.45,105.96,766.85,106.4z"/>
	<path style="fill:#FFFFFF;" d="M105.58,102.14c-2.43-2.12-5.47-3.89-9.12-5.4c-3.7-1.45-7.9-2.8-12.63-3.95
		c-4.37-1.09-7.9-2.06-10.76-2.98c-2.8-0.97-4.98-2-6.62-3.16c-1.58-1.09-2.67-2.31-3.28-3.59c-0.61-1.34-0.91-2.86-0.91-4.68
		c0-3.04,1.28-5.59,3.89-7.71c2.61-2.06,6.2-3.16,10.88-3.16c4.14,0,8.2,0.8,12.27,2.43c4.07,1.58,8.14,3.89,12.34,6.93l8.51-12.09
		c-4.68-3.7-9.66-6.5-14.94-8.45c-5.28-1.95-11.3-2.92-17.93-2.92c-4.5,0-8.63,0.61-12.4,1.89c-3.83,1.22-7.04,3.04-9.73,5.34
		c-2.73,2.37-4.86,5.11-6.39,8.39c-1.52,3.22-2.31,6.81-2.31,10.76c0,4.25,0.67,7.84,2,10.76c1.34,2.98,3.28,5.47,5.84,7.54
		c2.55,2.06,5.71,3.76,9.48,5.17c3.76,1.4,8.09,2.61,12.94,3.76c4.25,1.03,7.65,2,10.27,2.98c2.67,0.91,4.75,1.95,6.26,3.04
		s2.55,2.25,3.09,3.53c0.55,1.34,0.84,2.8,0.84,4.43c0,3.53-1.45,6.32-4.31,8.39c-2.92,2.06-6.81,3.09-11.73,3.09
		c-5.71,0-10.76-0.97-15.25-3.04c-4.5-2-8.93-4.92-13.37-8.68L43,132.12c5.4,4.92,11.3,8.57,17.68,10.93
		c6.45,2.37,13.12,3.53,20.11,3.53c4.73,0,9.06-0.55,13.07-1.76c3.95-1.22,7.35-2.98,10.15-5.34c2.86-2.31,5.04-5.17,6.62-8.51
		c1.58-3.4,2.37-7.23,2.37-11.54c0-3.76-0.61-7.04-1.89-9.9C109.84,106.7,108.02,104.26,105.58,102.14z"/>
	<rect x="130.07" y="54.68" style="fill:#FFFFFF;" width="15.8" height="90.6"/>
	<path style="fill:#FFFFFF;" d="M224.25,102.14c-2.43-2.12-5.47-3.89-9.12-5.4c-3.7-1.45-7.9-2.8-12.63-3.95
		c-4.37-1.09-7.9-2.06-10.76-2.98c-2.8-0.97-4.98-2-6.56-3.16c-1.64-1.09-2.73-2.31-3.34-3.59c-0.61-1.34-0.91-2.86-0.91-4.68
		c0-3.04,1.28-5.59,3.89-7.71c2.61-2.06,6.2-3.16,10.88-3.16c4.14,0,8.26,0.8,12.27,2.43c4.07,1.58,8.14,3.89,12.34,6.93l8.51-12.09
		c-4.62-3.7-9.6-6.5-14.94-8.45c-5.29-1.95-11.3-2.92-17.93-2.92c-4.5,0-8.63,0.61-12.4,1.89c-3.76,1.22-7.04,3.04-9.73,5.34
		c-2.67,2.37-4.79,5.11-6.39,8.39c-1.52,3.22-2.31,6.81-2.31,10.76c0,4.25,0.67,7.84,2,10.76c1.34,2.98,3.34,5.47,5.89,7.54
		c2.55,2.06,5.65,3.76,9.42,5.17c3.76,1.4,8.09,2.61,12.94,3.76c4.25,1.03,7.65,2,10.34,2.98c2.61,0.91,4.68,1.95,6.2,3.04
		s2.56,2.25,3.09,3.53c0.61,1.34,0.86,2.8,0.86,4.43c0,3.53-1.39,6.32-4.31,8.39c-2.92,2.06-6.81,3.09-11.73,3.09
		c-5.71,0-10.76-0.97-15.25-3.04c-4.5-2-8.93-4.92-13.37-8.68l-9.54,11.37c5.4,4.92,11.37,8.57,17.74,10.93
		c6.39,2.37,13.07,3.53,20.05,3.53c4.75,0,9.12-0.55,13.07-1.76c3.95-1.22,7.35-2.98,10.15-5.34c2.86-2.31,5.04-5.17,6.62-8.51
		c1.58-3.4,2.37-7.23,2.37-11.54c0-3.76-0.61-7.04-1.89-9.9C228.56,106.7,226.69,104.26,224.25,102.14z"/>
	<polygon style="fill:#FFFFFF;" points="312.97,54.68 239.45,54.68 239.45,69.44 268.19,69.44 268.19,145.28 284.23,145.28 
		284.23,69.44 312.97,69.44 	"/>
	<path style="fill:#FFFFFF;" d="M371.06,73.94l-8.68-19.86h-14.71l-4.79,10.93l-6.39,14.65l-8.45,19.2l-6.2,14.16l-14.1,32.26h16.35
		l6.2-14.65h-0.12l4.56-10.7l0.06,0.06c6.39,2.37,13.07,3.53,20.05,3.53c4.75,0,9.12-0.55,13.07-1.76c2.37-0.73,4.56-1.64,6.5-2.8
		l1.83,4.43l4.5,10.7l4.68,11.18h16.83l-16.96-38.83L371.06,73.94z M366.92,106.32c-2.92,2.06-6.81,3.09-11.73,3.09
		c-5.53,0-10.45-0.91-14.82-2.86l3.22-7.54h0.06l6.5-15.19l4.62-10.76l5.9,13.73l7.71,17.86l0.12,0.25
		C368.08,105.42,367.53,105.9,366.92,106.32z"/>
	<polygon style="fill:#FFFFFF;" points="413.66,68.78 465.42,68.78 411.95,133.49 411.95,145.28 486.08,145.28 486.08,131.18 
		432.67,131.18 486.08,66.47 486.08,54.68 413.66,54.68 	"/>
	<path style="fill:#FFFFFF;" d="M596.36,102.14c-2.43-2.12-5.47-3.89-9.18-5.4c-3.64-1.45-7.9-2.8-12.63-3.95
		c-4.31-1.09-7.9-2.06-10.7-2.98c-2.8-0.97-5.04-2-6.62-3.16c-1.58-1.09-2.67-2.31-3.28-3.59c-0.61-1.34-0.91-2.86-0.91-4.68
		c0-3.04,1.28-5.59,3.89-7.71c2.55-2.06,6.2-3.16,10.88-3.16c4.14,0,8.2,0.8,12.27,2.43c4.07,1.58,8.14,3.89,12.27,6.93l8.57-12.09
		c-4.68-3.7-9.66-6.5-14.94-8.45c-5.34-1.95-11.3-2.92-17.93-2.92c-4.5,0-8.63,0.61-12.4,1.89c-3.83,1.22-7.04,3.04-9.79,5.34
		c-2.67,2.37-4.79,5.11-6.32,8.39c-1.52,3.22-2.31,6.81-2.31,10.76c0,4.25,0.67,7.84,2,10.76c1.34,2.98,3.28,5.47,5.84,7.54
		c2.55,2.06,5.71,3.76,9.48,5.17c3.76,1.4,8.09,2.61,12.88,3.76c4.25,1.03,7.71,2,10.34,2.98c2.67,0.91,4.73,1.95,6.26,3.04
		c1.52,1.09,2.56,2.25,3.09,3.53c0.55,1.34,0.86,2.8,0.86,4.43c0,3.53-1.45,6.32-4.37,8.39c-2.86,2.06-6.75,3.09-11.66,3.09
		c-5.71,0-10.82-0.97-15.32-3.04c-4.43-2-8.93-4.92-13.3-8.68l-9.6,11.37c5.47,4.92,11.37,8.57,17.74,10.93
		c6.39,2.37,13.07,3.53,20.05,3.53c4.75,0,9.12-0.55,13.07-1.76c3.95-1.22,7.35-2.98,10.21-5.34c2.79-2.31,4.98-5.17,6.62-8.51
		c1.58-3.4,2.37-7.23,2.37-11.54c0-3.76-0.67-7.04-1.89-9.9C600.61,106.7,598.8,104.26,596.36,102.14z"/>
	<polygon style="fill:#FFFFFF;" points="679.24,92.35 635.74,92.35 635.74,54.68 619.94,54.68 619.94,145.28 635.74,145.28 
		635.74,107.12 679.24,107.12 679.24,145.28 694.98,145.28 694.98,54.68 679.24,54.68 	"/>
	<path style="fill:#FFFFFF;" d="M876.53,107.3c2.61-1.58,4.86-3.53,6.75-5.84c1.95-2.25,3.4-4.92,4.5-7.9
		c1.09-2.98,1.64-6.32,1.64-10.15c0-4.37-0.8-8.39-2.37-11.98c-1.52-3.59-3.76-6.56-6.62-9.06c-2.92-2.5-6.43-4.37-10.63-5.71
		c-4.19-1.34-8.87-2-14.04-2h-40.41v90.6h15.8v-31.6h19.99l22.36,31.6h18.72l-24.42-34.27C870.94,110.16,873.86,108.88,876.53,107.3
		z M831.14,99.59V69.08h23.2c6.01,0,10.63,1.28,13.91,3.83c3.28,2.55,4.92,6.32,4.92,11.37c0,4.68-1.64,8.39-5.04,11.18
		c-3.4,2.8-7.9,4.14-13.61,4.14C854.52,99.59,831.14,99.59,831.14,99.59z"/>
	<polygon style="fill:#FFFFFF;" points="922.11,130.93 922.11,106.76 967.55,106.76 967.55,92.35 922.11,92.35 922.11,69.08 
		973.39,69.08 973.39,54.68 906.37,54.68 906.37,145.28 974,145.28 974,130.93 	"/>
</g>
</svg>
