<?xml version="1.0" encoding="utf-8"?>
<!-- Generator: Adobe Illustrator 22.1.0, SVG Export Plug-In . SVG Version: 6.00 Build 0)  -->
<svg version="1.1" id="Layer_1" xmlns="http://www.w3.org/2000/svg" xmlns:xlink="http://www.w3.org/1999/xlink" x="0px" y="0px"
	 viewBox="0 0 425.2 425.2" style="enable-background:new 0 0 425.2 425.2;" xml:space="preserve">
<path d="M1.2,328.3c0-76.7,0-153.4,0-230.1c0.2-0.9,0.7-1.8,0.8-2.8c6.1-53,51-93.8,104.2-94C177.5,1,248.8,1,320.1,1.4
	c57.4,0.3,104.5,47.4,104.9,104.7c0.3,71.3,0.3,142.6,0,213.9c-0.2,47-32.1,88.3-77.4,100.9c-6.6,1.9-13.5,2.8-20.2,4.1
	c-76.4,0-152.9,0-229.4,0c-0.9-0.2-1.8-0.7-2.8-0.8c-42.5-4.9-78.4-35.2-90-76.4C3.5,341.6,2.5,334.9,1.2,328.3z M273.4,125.7
	c0-15.2,0-29.8,0-44.1c-16.8,0-33.3-0.7-49.8,0.2c-23,1.2-40.3,15.8-45,38.3c-2.3,10.9-1.8,22.4-2.4,33.7c-0.1,1.9,0,3.8,0,6
	c-8.2,0-15.7,0-23.2,0c0,18,0,35.7,0,53.8c8.9,0,17.7,0,26.8,0c0,43.9,0,87.3,0,130.8c16.9,0,33.3,0,50.2,0c0-43.7,0-87.1,0-130.9
	c13.6,0,26.7,0,40.1,0c1.5-18.1,3.1-35.8,4.6-53.8c-14,0-27.5,0-41.4,0c0-6.8-0.1-13.2,0-19.8c0.2-10,4.3-13.9,14.2-13.9
	C256.1,125.7,264.6,125.7,273.4,125.7z"/>
</svg>
