<?xml version="1.0" encoding="utf-8"?>
<!-- Generator: Adobe Illustrator 22.1.0, SVG Export Plug-In . SVG Version: 6.00 Build 0)  -->
<svg version="1.1" xmlns="http://www.w3.org/2000/svg" xmlns:xlink="http://www.w3.org/1999/xlink" x="0px" y="0px"
	 viewBox="0 0 500 500" style="enable-background:new 0 0 500 500;" xml:space="preserve">
<g id="Floor">
	<path id="Floor_16_" style="fill:#F5F5F5;" d="M94.01,432.4c86.15,41.59,225.83,41.59,311.98,0c86.15-41.59,86.15-109.02,0-150.6
		c-86.15-41.59-225.83-41.59-311.98,0C7.86,323.38,7.86,390.81,94.01,432.4z"/>
</g>
<g id="Shadows">
	<ellipse id="Shadow_1_" style="fill:#E0E0E0;" cx="102.66" cy="363.44" rx="52.48" ry="30.3"/>
	<ellipse id="Shadow_2_" style="fill:#E0E0E0;" cx="398.77" cy="363.44" rx="52.48" ry="30.3"/>
</g>
<g id="Plant">
	<g id="Plant_1_">
		<g id="Pot">
			<path id="XMLID_3098_" style="fill:#37474F;" d="M282.81,311.51l-69.37-0.01l7.17,49.28h0.01c0.55,3.6,3.2,7.12,7.98,9.88
				c10.79,6.23,28.28,6.23,39.07,0c5.14-2.97,7.8-6.82,8.04-10.7L282.81,311.51z"/>
			<path id="XMLID_3097_" style="fill:#263238;" d="M275.4,318.69c-15.06,8.69-39.48,8.69-54.54,0c-3.01-1.74-5.41-3.7-7.22-5.78
				l1.75,12.04c1.71,1.93,3.95,3.74,6.75,5.35c14.35,8.28,37.61,8.28,51.97,0c2.8-1.62,5.02-3.44,6.73-5.38l1.76-12
				C280.8,315.01,278.4,316.96,275.4,318.69z"/>
			<path id="XMLID_3096_" style="fill:#263238;" d="M220.61,360.78L220.61,360.78c0.56,3.6,3.21,7.12,7.99,9.88
				c7.71,4.45,18.83,5.7,28.5,3.79c-17.33,1.32-29.23-6.25-31.01-13.23c-1.79-7-4.06-41.22-4.06-41.22l1.92-7.75l-0.54-0.75l-9.96,0
				L220.61,360.78z"/>
			<path id="XMLID_3094_" style="fill:#455A64;" d="M286.42,302.67c-0.36,1.83-1.13,3.65-2.32,5.39c-1.87,2.82-4.78,5.46-8.7,7.73
				c-15.06,8.69-39.48,8.69-54.54,0c-3.93-2.27-6.84-4.91-8.7-7.73c-1.17-1.75-1.95-3.56-2.3-5.39h-0.01
				c-1.34-6.53,2.34-13.35,11.02-18.36c15.06-8.7,39.48-8.7,54.54,0C284.08,289.32,287.76,296.13,286.42,302.67z"/>
			<path id="XMLID_3089_" style="fill:#37474F;" d="M284.1,308.06c-1.87,2.82-4.78,5.46-8.7,7.73c-15.06,8.69-39.48,8.69-54.54,0
				c-3.93-2.27-6.84-4.91-8.7-7.73c-1.17-1.75-1.95-3.56-2.3-5.39h-0.01l1.71,11.76c0.78,4.73,4.31,9.34,10.59,12.97
				c14.35,8.28,37.61,8.28,51.97,0c6.2-3.58,9.72-8.13,10.56-12.8l0.09-0.6l1.66-11.32C286.06,304.5,285.29,306.32,284.1,308.06z"/>
			<path id="XMLID_3088_" style="fill:#37474F;" d="M270.85,286.93c-12.55-7.25-32.9-7.25-45.44,0c-7.1,4.11-10.18,9.64-9.25,14.99
				c0.72,4.11,3.8,8.1,9.25,11.24c12.54,7.25,32.89,7.25,45.44,0c5.44-3.14,8.53-7.14,9.24-11.23
				C281.03,296.57,277.96,291.03,270.85,286.93z"/>
			<path id="XMLID_3087_" style="fill:#E0E0E0;" d="M218.28,306.89c1.57,2.28,3.93,4.43,7.13,6.27c12.54,7.25,32.89,7.25,45.44,0
				c3.2-1.85,5.56-3.99,7.12-6.28c-0.09-4.34-3-8.66-8.73-11.97c-11.66-6.74-30.57-6.74-42.23,0
				C221.28,298.23,218.37,302.55,218.28,306.89z"/>
		</g>
		<path id="XMLID_3206_" style="fill:#27DEBF;" d="M269.35,93.78c0.84-26.51-15.77-40.82-17.79-38.63
			c-2.73,2.94,13.78,11.76,7.29,44c-4.2,20.86-24.55,40.25-34.48,68.14c-9.93,27.9-1.63,51.87,6.37,70.61
			c11.62,27.22,6.23,45.72,4.18,62.82c-0.17,0.62-0.25,1.14-0.25,1.71l0,0l0,0c0,1.99,1.31,3.98,3.94,5.5
			c5.26,3.04,13.78,3.04,19.04,0c2.51-1.45,3.81-3.33,3.92-5.23l0.02,0c0,0,2.53-15.34,0.72-34.7c-1.48-15.83-6.32-26.7-16.97-47.73
			c-9.91-19.57-11.12-42.87,1.44-65.85C259.41,131.29,268.66,115.41,269.35,93.78z"/>
		<path id="XMLID_3053_" style="opacity:0.3;" d="M269.35,93.78c0.84-26.51-15.77-40.82-17.79-38.63c-2.73,2.94,13.78,11.76,7.29,44
			c-4.2,20.86-24.55,40.25-34.48,68.14c-9.93,27.9-1.63,51.87,6.37,70.61c11.62,27.22,6.23,45.72,4.18,62.82
			c-0.17,0.62-0.25,1.14-0.25,1.71l0,0l0,0c0,1.99,1.31,3.98,3.94,5.5c5.26,3.04,13.78,3.04,19.04,0c2.51-1.45,3.81-3.33,3.92-5.23
			l0.02,0c0,0,2.53-15.34,0.72-34.7c-1.48-15.83-6.32-26.7-16.97-47.73c-9.91-19.57-11.12-42.87,1.44-65.85
			C259.41,131.29,268.66,115.41,269.35,93.78z"/>
		<g id="XMLID_3224_">
			<path id="XMLID_3054_" style="fill:#27DEBF;" d="M224.83,242.25c0,0,3.19-10.95-4.92-20.13c-6.91-7.82-17.6-8.87-20.01-7.14
				c-2.41,1.73-3.04,14.24,4.61,20.9C213.12,243.38,221.74,242.73,224.83,242.25z"/>
			<path id="XMLID_143_" style="opacity:0.1;" d="M224.83,242.25c0,0,3.19-10.95-4.92-20.13c-6.91-7.82-17.6-8.87-20.01-7.14
				c-2.41,1.73-3.04,14.24,4.61,20.9C213.12,243.38,221.74,242.73,224.83,242.25z"/>
			<path id="XMLID_3229_" style="opacity:0.1;" d="M199.9,214.98c0,0,16.18,6.51,24.92,27.26l0,0c0,0,3.19-10.95-4.92-20.13
				C213,214.3,202.31,213.25,199.9,214.98z"/>
			
				<path id="XMLID_3207_" style="fill:none;stroke:#FFFFFF;stroke-width:0.5;stroke-linecap:round;stroke-linejoin:round;stroke-miterlimit:10;" d="
				M202.62,216.35c0,0,6.01,3.26,11.5,9.21c3.02,3.28,5.71,7.01,9.31,13.61"/>
		</g>
		<g id="XMLID_3141_">
			<path id="XMLID_3182_" style="fill:#27DEBF;" d="M267.29,131.72c0,0-3.2-9.57,4.44-18.19c6.33-7.14,15.91-8.02,18.09-6.45
				c2.18,1.57,2.75,12.87-4.16,18.89C277.87,132.74,270.08,132.16,267.29,131.72z"/>
			<path id="XMLID_149_" style="opacity:0.1;" d="M267.29,131.72c0,0-3.2-9.57,4.44-18.19c6.33-7.14,15.91-8.02,18.09-6.45
				c2.18,1.57,2.75,12.87-4.16,18.89C277.87,132.74,270.08,132.16,267.29,131.72z"/>
			<path id="XMLID_3225_" style="opacity:0.1;" d="M289.82,107.07L289.82,107.07c-2.18-1.57-11.76-0.69-18.09,6.45
				c-7.64,8.61-4.45,18.17-4.44,18.19l0,0l0,0C275.19,112.95,289.82,107.07,289.82,107.07z"/>
			
				<path id="XMLID_3142_" style="fill:none;stroke:#FFFFFF;stroke-width:0.5;stroke-linecap:round;stroke-linejoin:round;stroke-miterlimit:10;" d="
				M287.36,108.31c0,0-5.44,2.95-10.4,8.33c-2.73,2.96-5.16,6.33-8.41,12.3"/>
		</g>
		<g id="XMLID_2790_">
			<path id="XMLID_3233_" style="fill:#27DEBF;" d="M265.67,64.34c0,0-4.99-4.55-3.33-12.08c1.37-6.23,6.68-9.87,8.46-9.66
				c1.78,0.21,5.8,6.63,3.72,12.39C272.18,61.49,267.44,63.69,265.67,64.34z"/>
			<path id="XMLID_150_" style="opacity:0.1;" d="M265.67,64.34c0,0-4.99-4.55-3.33-12.08c1.37-6.23,6.68-9.87,8.46-9.66
				c1.78,0.21,5.8,6.63,3.72,12.39C272.18,61.49,267.44,63.69,265.67,64.34z"/>
			<path id="XMLID_3230_" style="opacity:0.1;" d="M270.8,42.6C270.8,42.6,270.8,42.6,270.8,42.6c-1.79-0.2-7.09,3.43-8.47,9.66
				c-1.66,7.52,3.32,12.07,3.33,12.08l0,0l0,0C264.17,50.8,270.8,42.6,270.8,42.6z"/>
			
				<path id="XMLID_3184_" style="fill:none;stroke:#FFFFFF;stroke-width:0.5;stroke-linecap:round;stroke-linejoin:round;stroke-miterlimit:10;" d="
				M269.51,44.56c0,0-1.96,3.06-3.1,7.82c-0.63,2.62-0.95,5.06-0.94,9.13"/>
		</g>
		<g id="XMLID_3236_">
			<path id="XMLID_3241_" style="fill:#27DEBF;" d="M268.22,226.74c0,0,1.86-8.49,11.32-11.48c7.83-2.48,15.3,1.1,16.21,3.23
				c0.92,2.12-3.66,10.72-11.42,12.12C275.59,232.17,270.09,228.29,268.22,226.74z"/>
			<path id="XMLID_144_" style="opacity:0.1;" d="M268.22,226.74c0,0,1.86-8.49,11.32-11.48c7.83-2.48,15.3,1.1,16.21,3.23
				c0.92,2.12-3.66,10.72-11.42,12.12C275.59,232.17,270.09,228.29,268.22,226.74z"/>
			<path id="XMLID_3240_" style="opacity:0.1;" d="M295.76,218.48C295.76,218.48,295.76,218.48,295.76,218.48
				c-0.92-2.12-8.38-5.7-16.21-3.23c-9.45,2.99-11.32,11.46-11.32,11.48l0,0l0,0C282.35,216.37,295.76,218.48,295.76,218.48z"/>
			
				<path id="XMLID_3238_" style="fill:none;stroke:#FFFFFF;stroke-width:0.5;stroke-linecap:round;stroke-linejoin:round;stroke-miterlimit:10;" d="
				M292.74,218.31c0,0-4.67-0.22-10.71,1.57c-3.33,0.98-6.25,2.2-10.79,4.82"/>
		</g>
		<g id="XMLID_3137_">
			<path id="XMLID_3140_" style="fill:#27DEBF;" d="M299.39,146c0,0-11.16-12.71-24.05-10.81c-13.14,1.93-22.68,10.72-22.82,14.5
				c-0.15,3.78,11.9,12.92,24.62,10.72C292.83,157.7,297.46,149.48,299.39,146z"/>
			<path id="XMLID_148_" style="opacity:0.1;" d="M299.39,146c0,0-11.16-12.71-24.05-10.81c-13.14,1.93-22.68,10.72-22.82,14.5
				c-0.15,3.78,11.9,12.92,24.62,10.72C292.83,157.7,297.46,149.48,299.39,146z"/>
			<path id="XMLID_3139_" style="opacity:0.1;" d="M275.33,135.19c-13.14,1.93-22.68,10.72-22.82,14.5c0,0,19.2-11.15,46.88-3.69
				C299.39,146,288.23,133.29,275.33,135.19z"/>
			
				<path id="XMLID_3138_" style="fill:none;stroke:#FFFFFF;stroke-width:0.5;stroke-linecap:round;stroke-linejoin:round;stroke-miterlimit:10;" d="
				M256.02,148.03c0,0,7.98-3.49,18.25-4.34c5.65-0.47,11.5-0.25,20.95,1.3"/>
		</g>
		<g id="XMLID_3234_">
			<path id="XMLID_3237_" style="fill:#27DEBF;" d="M244.99,33.84c0,0,6.67-0.27,11.66,5.93c4.43,5.49,3.21,10.41,1.5,13.33
				c-1.76,0.37-9.52-0.6-12.4-6.32C242.67,40.65,244.24,35.67,244.99,33.84z"/>
			<path id="XMLID_151_" style="opacity:0.1;" d="M244.99,33.84c0,0,6.67-0.27,11.66,5.93c4.43,5.49,3.21,10.41,1.5,13.33
				c-1.76,0.37-9.52-0.6-12.4-6.32C242.67,40.65,244.24,35.67,244.99,33.84z"/>
			<path id="XMLID_3239_" style="opacity:0.1;" d="M244.99,33.84c11.5,8.37,13.16,19.25,13.16,19.25c1.71-2.92,2.93-7.83-1.5-13.33
				C251.65,33.57,244.99,33.84,244.99,33.84L244.99,33.84L244.99,33.84z"/>
			
				<path id="XMLID_3235_" style="fill:none;stroke:#FFFFFF;stroke-width:0.5;stroke-linecap:round;stroke-linejoin:round;stroke-miterlimit:10;" d="
				M257.7,51.22c0,0-1.13-4.17-4-8.4c-1.58-2.33-3.48-4.52-7.02-7.68"/>
		</g>
		<g id="XMLID_3105_">
			<path id="XMLID_3114_" style="fill:#27DEBF;" d="M226.5,149.75c0,0-10.8-7.74-20.33-4c-9.71,3.81-15.45,12.23-14.89,15.15
				c0.56,2.92,11.64,8.74,20.9,4.61C222.61,160.84,225.65,152.75,226.5,149.75z"/>
			<path id="XMLID_146_" style="opacity:0.1;" d="M226.5,149.75c0,0-10.8-7.74-20.33-4c-9.71,3.81-15.45,12.23-14.89,15.15
				c0.56,2.92,11.64,8.74,20.9,4.61C222.61,160.84,225.65,152.75,226.5,149.75z"/>
			<path id="XMLID_3113_" style="opacity:0.1;" d="M206.18,145.75c-9.71,3.81-15.45,12.23-14.89,15.15c0,0,12.71-11.95,35.22-11.15
				C226.5,149.75,215.71,142.01,206.18,145.75z"/>
			
				<path id="XMLID_3112_" style="fill:none;stroke:#FFFFFF;stroke-width:0.5;stroke-linecap:round;stroke-linejoin:round;stroke-miterlimit:10;" d="
				M193.68,159.01c0,0,5.48-4.09,13.2-6.56c4.24-1.36,7.86-2.21,15.37-2.7"/>
		</g>
		<g id="XMLID_3222_">
			<path id="XMLID_3205_" style="fill:#27DEBF;" d="M235.06,259.99c0,0-8.38-16.51-28.46-16.56c-20.08-0.05-31.03,14.2-30.47,18.05
				c0.56,3.85,3.06,5.39,11.34,9.97c8.28,4.58,20.36,7.85,32.36,4.03C229.7,272.33,232.95,266.74,235.06,259.99z"/>
			<path id="XMLID_142_" style="opacity:0.1;" d="M235.06,259.99c0,0-8.38-16.51-28.46-16.56c-20.08-0.05-31.03,14.2-30.47,18.05
				c0.56,3.85,3.06,5.39,11.34,9.97c8.28,4.58,20.36,7.85,32.36,4.03C229.7,272.33,232.95,266.74,235.06,259.99z"/>
			<path id="XMLID_3100_" style="opacity:0.1;" d="M235.05,259.98c-0.61-0.42-25.77-17.61-58.78,2.25
				c-0.05-0.24-0.11-0.48-0.14-0.75c-0.55-3.85,10.39-18.1,30.47-18.06C226.37,243.48,234.79,259.48,235.05,259.98z"/>
			
				<path id="XMLID_3204_" style="fill:none;stroke:#FFFFFF;stroke-width:0.5;stroke-linecap:round;stroke-linejoin:round;stroke-miterlimit:10;" d="
				M178.59,260.89c0,0,10.45-8.55,30.97-8.2c13.58,0.23,21.77,5.19,21.77,5.19"/>
		</g>
		<g id="XMLID_3099_">
			<path id="XMLID_3104_" style="fill:#27DEBF;" d="M229.87,144.07c0,0,7.55-10.1,1.52-22.36c-6.03-12.27-18.03-14.65-20.21-13.14
				c-2.18,1.5-1.9,2.91-2.2,9.35c-0.29,6.43-0.38,15.34,5.58,21.5C219.46,144.48,225.12,144.82,229.87,144.07z"/>
			<path id="XMLID_147_" style="opacity:0.1;" d="M229.87,144.07c0,0,7.55-10.1,1.52-22.36c-6.03-12.27-18.03-14.65-20.21-13.14
				c-2.18,1.5-1.9,2.91-2.2,9.35c-0.29,6.43-0.38,15.34,5.58,21.5C219.46,144.48,225.12,144.82,229.87,144.07z"/>
			<path id="XMLID_3103_" style="opacity:0.1;" d="M229.87,144.06c0.07-0.5,2.97-21.04-19.11-35.18c0.13-0.11,0.26-0.21,0.42-0.31
				c2.18-1.5,14.18,0.88,20.21,13.14C237.32,133.79,230.1,143.75,229.87,144.06z"/>
			
				<path id="XMLID_3101_" style="fill:none;stroke:#FFFFFF;stroke-width:0.5;stroke-linecap:round;stroke-linejoin:round;stroke-miterlimit:10;" d="
				M212.28,109.89c0,0,8.37,3.8,14.35,16.42c3.96,8.36,3.4,14.85,3.4,14.85"/>
		</g>
		<g id="XMLID_2686_">
			<path id="XMLID_3223_" style="fill:#27DEBF;" d="M249.11,219.7c0,0-7.23-10.42-1.03-23.05c6.74-13.76,26.2-13.45,27.8-12.21
				c1.66,1.29,3.14,10.42,1.07,18.08C274.97,209.82,265.51,220.52,249.11,219.7z"/>
			<path id="XMLID_145_" style="opacity:0.1;" d="M249.11,219.7c0,0-7.23-10.42-1.03-23.05c6.74-13.76,26.2-13.45,27.8-12.21
				c1.66,1.29,3.14,10.42,1.07,18.08C274.97,209.82,265.51,220.52,249.11,219.7z"/>
			<path id="XMLID_2791_" style="opacity:0.1;" d="M275.87,184.44c-1.6-1.24-21.05-1.55-27.8,12.21
				c-6.19,12.64,1.03,23.05,1.03,23.05s1.92-14.25,7.98-21.37C263.15,191.22,269.82,186.65,275.87,184.44z"/>
			
				<path id="XMLID_3226_" style="fill:none;stroke:#FFFFFF;stroke-width:0.5;stroke-linecap:round;stroke-linejoin:round;stroke-miterlimit:10;" d="
				M273.28,185.52c-8.4,3.57-20.3,12.59-23.64,31.12"/>
		</g>
		<g id="XMLID_2712_">
			<path id="XMLID_880_" style="fill:#F0F0F0;" d="M272.54,236.49c0,0,1.46-0.98,1.09-2.19c-0.37-1.21-2.39-1.19-2.39-1.19
				s0.3-1.22-1.29-2.36c-1.62-1.16-3.37-1.07-6.93,1.39c-1.33,0.92-2.68,2.01-3.83,3.01c1.34-1.94,2.98-4.34,3.52-5.3
				c0.97-1.71,2.55-5.64,0.3-7.33c-2.12-1.59-3.19-0.2-3.19-0.2s-0.49-1.69-1.75-1.71c-1.26-0.02-1.87,1.9-1.87,1.9
				s-1.07-0.66-2.64,0.49c-1.61,1.18-2.06,2.87-0.81,7.02c0.36,1.19,0.81,2.42,1.27,3.57c-1.26-1.64-2.61-3.37-3.24-4.05
				c-1.33-1.45-4.58-4.17-6.88-2.55c-2.17,1.52-1.17,2.97-1.17,2.97s-1.76-0.06-2.17,1.13c-0.41,1.19,1.23,2.37,1.23,2.37
				s-0.96,0.82-0.35,2.67c0.63,1.89,2.1,2.84,6.42,2.94c1.16,0.03,2.38-0.01,3.54-0.09c-1.93,0.68-3.94,1.42-4.77,1.8
				c-1.79,0.82-5.38,3.07-4.55,5.76c0.78,2.53,2.46,2.04,2.46,2.04s-0.6,1.65,0.41,2.41c1.01,0.76,2.63-0.44,2.63-0.44
				s0.48,1.17,2.43,1.15c2-0.01,3.35-1.12,4.79-5.2c0.43-1.22,0.8-2.53,1.11-3.77c0.05,2.08,0.13,4.28,0.24,5.2
				c0.22,1.96,1.25,6.06,4.07,6.11c2.65,0.04,2.7-1.71,2.7-1.71s1.39,1.08,2.42,0.36c1.03-0.73,0.4-2.64,0.4-2.64
				s1.26-0.09,1.85-1.95c0.6-1.9-0.03-3.53-3.47-6.16c-0.71-0.54-1.47-1.07-2.23-1.57c1.8,0.53,3.58,1.03,4.39,1.2
				c1.93,0.39,6.15,0.68,7.07-1.98C274.2,237.08,272.54,236.49,272.54,236.49z"/>
			<g id="XMLID_801_">
				<path id="XMLID_817_" style="fill:#E0E0E0;" d="M268.36,236.53c-1.61-0.98-4.73-0.88-6.51-0.66c-1.29,0.16-3.99,0.54-4.47,2.08
					c-0.05,0.17,0.13,0.36,0.27,0.42c1.47,0.58,3.29-0.51,4.77-0.86c1.95-0.46,3.81-0.19,5.78-0.37
					C268.56,237.1,268.67,236.72,268.36,236.53z"/>
				<path id="XMLID_2750_" style="fill:#E0E0E0;" d="M256.14,238.41c-0.01,0.01-0.01,0.01-0.02,0.02c-0.07,0-0.13,0-0.2,0.01
					c0.14-0.14,0.24-0.3,0.3-0.47c0.22,0.07,0.48,0.05,0.64-0.09c2.98-2.57,2.48-8.93,0.93-12.09c-0.05-0.1-0.46-0.31-0.45-0.08
					c0.05,2.18,0.04,4.29-0.35,6.47c-0.25,1.41-1.01,3.18-1.18,4.68c-0.14-0.18-0.29-0.34-0.46-0.51c-0.7-0.7-1.54-1.32-2.42-1.76
					c-2.22-1.09-5.44-2.38-7.97-1.7c-0.28,0.07,0.07,0.4,0.19,0.43c1.98,0.52,3.79,1.22,5.52,2.32c1.13,0.72,2.6,1.57,3.22,2.83
					c0.15,0.3,0.42,0.44,0.73,0.47c-1.55,0.84-3.35,2.41-3.85,2.87c-1.25,1.17-2.54,2.87-2.65,4.64c-0.02,0.29,0.65,0.54,0.75,0.23
					c0.25-0.77,1.18-1.46,1.7-2.11c0.76-0.92,1.62-1.68,2.55-2.42c0.63-0.5,1.25-0.96,1.95-1.35c0.24-0.14,0.46-0.28,0.69-0.43
					c0.02-0.01,0.02-0.01,0.03-0.02c0.06-0.03,0.14-0.07,0.21-0.11c0.47,0.82,1.31,1.65,1.67,2.09c1.25,1.54,2.62,3.69,3.12,5.61
					c0.05,0.21,0.58,0.43,0.62,0.11c0.28-2.37-0.6-4.47-1.61-6.56C259.29,240.47,257.8,237.26,256.14,238.41z"/>
			</g>
			<g id="XMLID_879_">
				<path id="XMLID_27_" style="fill:#27DEBF;" d="M259.22,238.07c0,1.53-1.24,2.77-2.77,2.77c-1.53,0-2.77-1.24-2.77-2.77
					c0-1.53,1.24-2.77,2.77-2.77C257.98,235.3,259.22,236.54,259.22,238.07z"/>
				<path id="XMLID_2787_" style="opacity:0.05;" d="M255.69,239.62c-1.33-0.83-1.49-2.67-0.78-3.85c-0.74,0.5-1.23,1.34-1.23,2.3
					c0,1.53,1.24,2.77,2.77,2.77c1,0,1.87-0.54,2.36-1.33C257.97,240.03,256.79,240.3,255.69,239.62z"/>
			</g>
		</g>
		<g id="XMLID_3181_">
			<path id="XMLID_3227_" style="fill:#F0F0F0;" d="M269.51,95.63c0,0,1.75-1.18,1.31-2.64c-0.45-1.45-2.87-1.44-2.87-1.44
				s0.36-1.47-1.55-2.84c-1.95-1.4-4.16-1.26-8.66,1.35c-0.47,0.27-0.86,0.55-1.21,0.84c0.74-0.97,1.31-1.99,1.73-3.11
				c0.83-2.22,2.49-6.94-0.21-8.97c-2.55-1.92-3.83-0.24-3.83-0.24s-0.58-2.03-2.1-2.06c-1.52-0.02-2.25,2.29-2.25,2.29
				s-1.29-0.8-3.18,0.6c-1.93,1.42-2.47,3.46-0.98,8.44c0.43,1.43,0.97,2.92,1.52,4.3c-1.52-1.98-3.14-4.05-3.89-4.87
				c-1.6-1.74-5.5-5.01-8.28-3.07c-2.61,1.83-1.41,3.57-1.41,3.57s-2.12-0.07-2.61,1.36c-0.49,1.44,1.48,2.85,1.48,2.85
				s-1.16,0.98-0.42,3.21c0.76,2.28,2.52,3.42,7.73,3.54c1.4,0.03,2.86-0.02,4.26-0.1c-2.32,0.82-4.74,1.71-5.73,2.16
				c-2.15,0.98-6.47,3.69-5.48,6.92c0.93,3.05,2.96,2.45,2.96,2.45s-0.72,1.99,0.49,2.9c1.21,0.91,3.17-0.53,3.17-0.53
				s0.58,1.4,2.92,1.39c2.4-0.02,4.03-1.34,5.76-6.25c0.51-1.46,0.96-3.05,1.33-4.54c0.07,2.5,0.16,5.15,0.29,6.26
				c0.27,2.35,1.51,7.29,4.89,7.35c3.19,0.05,3.24-2.06,3.24-2.06s1.67,1.3,2.91,0.43c1.24-0.87,0.48-3.17,0.48-3.17
				s1.51-0.11,2.22-2.35c0.73-2.29,0.14-4.71-4-7.87c-0.23-0.17-0.46-0.35-0.7-0.51c1.3,0.43,2.62,0.72,3.26,0.78
				c2.6,0.23,7.27,0.57,8.37-2.63C271.51,96.33,269.51,95.63,269.51,95.63z"/>
			<g id="XMLID_3188_">
				<path id="XMLID_3190_" style="fill:#E0E0E0;" d="M264.49,95.68c-1.93-1.18-5.69-1.06-7.83-0.79c-1.56,0.19-4.8,0.64-5.37,2.5
					c-0.06,0.21,0.16,0.43,0.33,0.5c1.77,0.7,3.96-0.62,5.74-1.04c2.34-0.55,4.58-0.23,6.95-0.45
					C264.72,96.36,264.86,95.9,264.49,95.68z"/>
				<path id="XMLID_3189_" style="fill:#E0E0E0;" d="M249.79,97.93c-0.01,0.01-0.02,0.02-0.03,0.03c-0.08,0-0.16,0-0.24,0.02
					c0.17-0.17,0.29-0.36,0.36-0.56c0.27,0.08,0.57,0.06,0.77-0.11c3.59-3.1,2.99-10.74,1.11-14.54c-0.06-0.12-0.55-0.37-0.54-0.09
					c0.07,2.62,0.05,5.16-0.42,7.78c-0.31,1.7-1.22,3.83-1.42,5.63c-0.17-0.21-0.35-0.41-0.55-0.61c-0.84-0.85-1.85-1.59-2.91-2.11
					c-2.67-1.31-6.55-2.86-9.58-2.05c-0.34,0.09,0.08,0.48,0.23,0.52c2.38,0.62,4.56,1.47,6.64,2.79c1.36,0.87,3.13,1.89,3.87,3.4
					c0.18,0.37,0.51,0.53,0.88,0.57c-1.87,1-4.03,2.9-4.63,3.45c-1.51,1.4-3.05,3.45-3.19,5.58c-0.02,0.34,0.78,0.65,0.9,0.27
					c0.3-0.93,1.42-1.76,2.05-2.53c0.91-1.11,1.95-2.02,3.07-2.91c0.76-0.6,1.51-1.15,2.34-1.63c0.29-0.16,0.56-0.33,0.83-0.51
					c0.02-0.01,0.02-0.01,0.04-0.02c0.08-0.04,0.16-0.08,0.25-0.13c0.56,0.99,1.58,1.99,2.01,2.52c1.5,1.85,3.15,4.43,3.76,6.75
					c0.07,0.25,0.7,0.51,0.74,0.14c0.34-2.85-0.72-5.38-1.94-7.89C253.57,100.41,251.78,96.55,249.79,97.93z"/>
			</g>
			<g id="XMLID_3183_">
				<path id="XMLID_3186_" style="fill:#27DEBF;" d="M253.49,97.53c0,1.84-1.49,3.33-3.33,3.33c-1.84,0-3.33-1.49-3.33-3.33
					c0-1.84,1.49-3.33,3.33-3.33C252,94.19,253.49,95.69,253.49,97.53z"/>
				<path id="XMLID_3185_" style="opacity:0.05;" d="M249.24,99.38c-1.6-1-1.79-3.22-0.94-4.62c-0.89,0.6-1.48,1.61-1.48,2.77
					c0,1.84,1.49,3.33,3.33,3.33c1.2,0,2.25-0.65,2.84-1.6C251.98,99.88,250.57,100.21,249.24,99.38z"/>
			</g>
		</g>
		<g id="XMLID_2792_">
			<path id="XMLID_3066_" style="fill:#F0F0F0;" d="M228.02,184.76c0,0,0.27-1.74-0.87-2.29c-1.14-0.55-2.5,0.94-2.5,0.94
				s-0.7-1.05-2.61-0.66c-1.96,0.4-3.07,1.75-3.68,6.03c-0.23,1.6-0.34,3.33-0.4,4.86c-0.51-2.3-1.16-5.14-1.5-6.18
				c-0.6-1.88-2.41-5.7-5.18-5.2c-2.61,0.47-2.31,2.2-2.31,2.2s-1.57-0.79-2.44,0.12c-0.87,0.91,0.12,2.67,0.12,2.67
				s-1.21,0.34-1.43,2.28c-0.22,1.98,0.71,3.46,4.6,5.37c1.12,0.55,2.33,1.05,3.48,1.5c-2.06-0.19-4.25-0.37-5.17-0.38
				c-1.97-0.01-6.17,0.53-6.55,3.32c-0.36,2.63,1.38,2.88,1.38,2.88s-1.24,1.25-0.64,2.36c0.6,1.11,2.57,0.71,2.57,0.71
				s-0.05,1.26,1.72,2.07c1.82,0.83,3.51,0.39,6.52-2.71c0.81-0.83,1.61-1.76,2.34-2.66c-0.81,1.88-1.64,3.86-1.92,4.72
				c-0.62,1.87-1.4,6.03,1.13,7.25c2.39,1.15,3.17-0.42,3.17-0.42s0.81,1.56,2.05,1.34c1.24-0.23,1.47-2.23,1.47-2.23
				s1.18,0.44,2.5-1c1.35-1.47,1.46-3.22-0.56-7.04c-0.6-1.14-1.32-2.31-2.01-3.38c1.56,1.37,3.23,2.81,3.98,3.36
				c1.59,1.16,5.3,3.2,7.25,1.17c1.83-1.91,0.57-3.14,0.57-3.14s1.74-0.28,1.91-1.53c0.17-1.25-1.67-2.08-1.67-2.08
				s0.78-0.99-0.18-2.68c-0.99-1.74-2.61-2.38-6.87-1.64c-0.88,0.15-1.79,0.35-2.67,0.57c1.61-0.96,3.19-1.93,3.86-2.41
				c1.6-1.15,4.68-4.05,3.35-6.53C229.57,183.95,228.02,184.76,228.02,184.76z"/>
			<g id="XMLID_3060_">
				<path id="XMLID_3065_" style="fill:#E0E0E0;" d="M225.21,187.86c-1.81,0.51-3.86,2.87-4.9,4.33c-0.76,1.06-2.32,3.29-1.51,4.69
					c0.09,0.16,0.35,0.15,0.49,0.08c1.42-0.68,1.86-2.77,2.61-4.09c0.99-1.74,2.45-2.93,3.65-4.5
					C225.76,188.1,225.56,187.76,225.21,187.86z"/>
				<path id="XMLID_3064_" style="fill:#E0E0E0;" d="M218.28,198.1c0,0.01,0,0.02,0,0.03c-0.04,0.05-0.09,0.1-0.13,0.16
					c0-0.2-0.05-0.38-0.14-0.54c0.2-0.12,0.36-0.32,0.37-0.53c0.14-3.94-4.87-7.89-8.24-8.89c-0.11-0.03-0.53,0.13-0.36,0.28
					c1.63,1.44,3.18,2.89,4.51,4.65c0.86,1.15,1.65,2.91,2.63,4.05c-0.22-0.02-0.45-0.02-0.69-0.01c-0.99,0.04-2.01,0.23-2.93,0.58
					c-2.31,0.89-5.44,2.38-6.66,4.69c-0.14,0.26,0.33,0.22,0.44,0.15c1.72-1.1,3.47-1.96,5.45-2.47c1.3-0.34,2.92-0.84,4.26-0.44
					c0.32,0.1,0.61-0.01,0.84-0.22c-0.44,1.71-0.51,4.1-0.51,4.77c0.01,1.71,0.38,3.81,1.6,5.1c0.2,0.21,0.84-0.11,0.68-0.39
					c-0.4-0.71-0.27-1.86-0.39-2.68c-0.16-1.18-0.14-2.33-0.04-3.51c0.06-0.8,0.15-1.57,0.33-2.35c0.06-0.27,0.11-0.53,0.16-0.8
					c0-0.02,0-0.02,0.01-0.04c0.02-0.07,0.04-0.15,0.06-0.23c0.92,0.22,2.1,0.16,2.67,0.2c1.97,0.13,4.48,0.58,6.24,1.52
					c0.19,0.1,0.71-0.14,0.5-0.38c-1.55-1.82-3.69-2.6-5.91-3.27C221.93,197.19,218.56,196.1,218.28,198.1z"/>
			</g>
			<g id="XMLID_3055_">
				<path id="XMLID_3059_" style="fill:#27DEBF;" d="M220.13,195.61c1.12,1.04,1.19,2.79,0.15,3.92c-1.04,1.12-2.79,1.19-3.92,0.15
					c-1.12-1.04-1.19-2.79-0.15-3.92C217.25,194.64,219,194.57,220.13,195.61z"/>
				<path id="XMLID_3056_" style="opacity:0.05;" d="M218.86,199.25c-1.51,0.41-2.97-0.72-3.35-2.04c-0.14,0.88,0.15,1.81,0.85,2.47
					c1.12,1.04,2.88,0.97,3.92-0.15c0.68-0.74,0.88-1.74,0.62-2.64C220.71,197.86,220.11,198.91,218.86,199.25z"/>
			</g>
		</g>
		<g id="XMLID_3116_">
			<path id="XMLID_3136_" style="fill:#F0F0F0;" d="M202.75,126.28c0,0,0.18-1.16-0.58-1.53c-0.76-0.37-1.67,0.63-1.67,0.63
				s-0.46-0.7-1.74-0.44c-1.31,0.27-2.05,1.17-2.46,4.03c-0.15,1.07-0.23,2.23-0.26,3.24c-0.34-1.54-0.78-3.43-1-4.13
				c-0.4-1.25-1.61-3.81-3.46-3.47c-1.74,0.31-1.54,1.47-1.54,1.47s-1.05-0.53-1.63,0.08c-0.58,0.61,0.08,1.78,0.08,1.78
				s-0.81,0.22-0.96,1.52c-0.15,1.32,0.48,2.31,3.07,3.58c0.75,0.37,1.55,0.7,2.32,1c-1.38-0.13-2.84-0.25-3.45-0.25
				c-1.31-0.01-4.12,0.35-4.37,2.21c-0.24,1.75,0.92,1.92,0.92,1.92s-0.83,0.83-0.43,1.58c0.4,0.74,1.72,0.47,1.72,0.47
				s-0.04,0.84,1.15,1.38c1.21,0.55,2.34,0.26,4.36-1.81c0.54-0.56,1.07-1.17,1.56-1.77c-0.54,1.26-1.09,2.58-1.28,3.15
				c-0.41,1.25-0.94,4.03,0.76,4.84c1.59,0.77,2.11-0.28,2.11-0.28s0.54,1.04,1.37,0.89c0.83-0.15,0.98-1.49,0.98-1.49
				s0.79,0.29,1.67-0.67c0.9-0.98,0.97-2.15-0.38-4.7c-0.4-0.76-0.88-1.54-1.34-2.25c1.04,0.92,2.16,1.88,2.66,2.24
				c1.06,0.78,3.54,2.14,4.84,0.78c1.22-1.28,0.38-2.1,0.38-2.1s1.16-0.19,1.27-1.02c0.11-0.84-1.11-1.39-1.11-1.39
				s0.52-0.66-0.12-1.79c-0.66-1.16-1.74-1.59-4.59-1.1c-0.59,0.1-1.19,0.24-1.78,0.38c1.07-0.64,2.13-1.29,2.58-1.61
				c1.07-0.77,3.12-2.71,2.24-4.36C203.79,125.73,202.75,126.28,202.75,126.28z"/>
			<g id="XMLID_3120_">
				<path id="XMLID_3135_" style="fill:#E0E0E0;" d="M200.88,128.34c-1.21,0.34-2.58,1.92-3.27,2.89c-0.51,0.71-1.55,2.2-1.01,3.13
					c0.06,0.1,0.23,0.1,0.33,0.05c0.95-0.46,1.24-1.85,1.74-2.73c0.66-1.16,1.63-1.95,2.44-3
					C201.24,128.51,201.11,128.28,200.88,128.34z"/>
				<path id="XMLID_3134_" style="fill:#E0E0E0;" d="M196.25,135.18c0,0.01,0,0.01,0,0.02c-0.03,0.03-0.06,0.07-0.08,0.11
					c0-0.13-0.03-0.26-0.09-0.36c0.13-0.08,0.24-0.21,0.24-0.36c0.09-2.63-3.25-5.27-5.5-5.94c-0.07-0.02-0.36,0.08-0.24,0.19
					c1.09,0.96,2.12,1.93,3.01,3.11c0.58,0.76,1.1,1.94,1.76,2.7c-0.15-0.01-0.3-0.01-0.46-0.01c-0.66,0.03-1.34,0.15-1.96,0.39
					c-1.54,0.59-3.63,1.59-4.45,3.13c-0.09,0.17,0.22,0.15,0.3,0.1c1.15-0.73,2.32-1.31,3.64-1.65c0.87-0.23,1.95-0.56,2.84-0.29
					c0.22,0.07,0.41-0.01,0.56-0.15c-0.3,1.14-0.34,2.73-0.34,3.19c0,1.14,0.25,2.54,1.07,3.4c0.13,0.14,0.56-0.07,0.45-0.26
					c-0.27-0.47-0.18-1.24-0.26-1.79c-0.11-0.79-0.09-1.56-0.03-2.35c0.04-0.53,0.1-1.05,0.22-1.57c0.04-0.18,0.07-0.35,0.11-0.53
					c0-0.01,0-0.01,0-0.02c0.01-0.05,0.03-0.1,0.04-0.15c0.62,0.15,1.4,0.11,1.78,0.13c1.32,0.09,2.99,0.39,4.17,1.02
					c0.13,0.07,0.47-0.09,0.34-0.25c-1.03-1.21-2.46-1.74-3.94-2.19C198.69,134.58,196.44,133.85,196.25,135.18z"/>
			</g>
			<g id="XMLID_3117_">
				<path id="XMLID_3119_" style="fill:#27DEBF;" d="M197.48,133.52c0.75,0.69,0.79,1.87,0.1,2.62c-0.69,0.75-1.87,0.79-2.62,0.1
					c-0.75-0.69-0.79-1.87-0.1-2.62C195.56,132.87,196.73,132.83,197.48,133.52z"/>
				<path id="XMLID_3118_" style="opacity:0.05;" d="M196.64,135.95c-1.01,0.28-1.99-0.48-2.24-1.36c-0.09,0.59,0.1,1.21,0.57,1.65
					c0.75,0.69,1.92,0.65,2.62-0.1c0.45-0.49,0.59-1.16,0.42-1.76C197.87,135.02,197.47,135.72,196.64,135.95z"/>
			</g>
		</g>
	</g>
</g>
<g id="Character_2_1_">
	<g id="Character">
		<g id="Character_1_">
			<path id="XMLID_140_" style="fill:#9A4A4D;" d="M390.85,188.75c0.11,4.84,0.53,8.96-4.33,17.6c-3.4,6.04-6.76,10.32-11.15,16.6
				c-1.08,1.55-1.87,2.75-3.98,5.7c-0.85,1.19-1.74,2.52-2.91,3.4c-1.48,1.12-3.09,2.07-4.84,2.72c-2.19,0.82-4.6,1.14-6.9,0.72
				c-0.94-0.17-1.86-0.47-2.68-0.93c4.09-0.81,7.95-2.43,10.82-4.72c3.5-2.79,4.78-6.01,4.03-8.85h0.02l-0.48-1.89l0.04,0.04
				c0.01-0.02,0.06-0.08,0.15-0.2c0.04-0.07,0.12-0.16,0.2-0.27c0.1-0.14,0.23-0.33,0.38-0.55c0.13-0.18,0.26-0.39,0.4-0.63
				c0.13-0.23,0.3-0.5,0.46-0.78c1.01-1.76,2.24-4.44,2.99-7.83c0.11-0.5,0.2-1.02,0.27-1.57c0.72-1.6,0.02-3.22,0.7-4.77
				c1.86-4.25,2.64-10.25,2.64-10.25s-2.71-26.55-1.79-31.55c1.14-6.23,6.84-7.57,10.98-7.81l1.9,2.26
				C389.77,161.68,390.49,173.1,390.85,188.75z"/>
			<g id="XMLID_110_">
				<g id="XMLID_111_">
					<g id="XMLID_134_">
						<g id="XMLID_138_">
							<path id="XMLID_139_" style="fill:#455A64;" d="M368.48,219.14l-2.47-2.02c0.02-0.03,2.73-3.43,3.93-8.91
								c1.24-5.69-0.44-13.13-3.22-14.22c-2.94-1.15-6.11,1.55-6.14,1.58l-2.12-2.39c0.19-0.17,4.63-4.04,9.42-2.16
								c5.18,2.03,6.5,11.78,5.17,17.87C371.69,215.16,368.61,218.98,368.48,219.14z"/>
						</g>
						<g id="XMLID_135_">
							<path id="XMLID_137_" style="fill:#263238;" d="M368.87,211.77c-1.28,3.35-2.85,5.33-2.86,5.35l2.47,2.02
								c0.06-0.07,0.74-0.92,1.59-2.42C369.74,215.33,369.32,213.62,368.87,211.77z"/>
							<path id="XMLID_136_" style="fill:#263238;" d="M362.2,191.05c-2.14,0.75-3.63,2.05-3.74,2.14l2.12,2.39
								c0.02-0.02,1.61-1.37,3.58-1.76C363.57,192.58,362.83,191.67,362.2,191.05z"/>
						</g>
					</g>
					<path id="XMLID_133_" style="fill:#37474F;" d="M368.92,220.99l0.02,0l-6.69-25.88c-0.01-0.01-0.01-0.01-0.02-0.01
						c-0.53-2.06-2.32-3.9-5.34-5.08c-6.53-2.56-16.28-1.09-21.77,3.29c-2.53,2.02-3.69,4.3-3.59,6.43
						c-0.01,0.01-0.01,0.01-0.02,0.02l1.26,26.7l0.02,0c0.12,2.94,2.31,5.63,6.47,7.26c7.69,3.02,19.17,1.28,25.63-3.87
						C368.38,227.05,369.67,223.83,368.92,220.99z"/>
					<path id="XMLID_132_" style="fill:#263238;" d="M355.91,201.44c-4.15,3.31-11.52,4.43-16.46,2.49
						c-4.94-1.93-5.58-6.19-1.44-9.5c4.15-3.31,11.52-4.42,16.47-2.49C359.41,193.88,360.05,198.14,355.91,201.44z"/>
					<path id="XMLID_131_" style="fill:#263238;" d="M341.14,232.65c2.96-2.65,3.41-7.31,1.77-10.15c0,0,2.51,3.17,1.46,6.34
						C343.28,232.14,341.14,232.65,341.14,232.65z"/>
					<path id="XMLID_128_" style="fill:#455A64;" d="M356.89,190.01c-6.53-2.56-16.28-1.09-21.77,3.29
						c-5.48,4.38-4.63,10.01,1.9,12.57c6.54,2.56,16.29,1.09,21.77-3.29C364.28,198.2,363.43,192.57,356.89,190.01z M355.91,201.44
						c-4.15,3.31-11.52,4.43-16.46,2.49c-4.94-1.93-5.58-6.19-1.44-9.5c4.15-3.31,11.52-4.42,16.47-2.49
						C359.41,193.88,360.05,198.14,355.91,201.44z"/>
					<g id="XMLID_112_">
						<path id="XMLID_127_" style="fill:#455A64;" d="M340.92,220.4c0,0-1.5-1.15-8.42-2.26c-2.12-0.34-5.34-0.66-6.58-1
							c-1.24-0.33-1.65-1.85-2.72-3.05c-1.07-1.2-2.83-2.02-3.92-2.17l-2.66,13.92c0,0,1.87,0.61,4.67-0.48
							c2.6-1.01,3.57-1.45,4.55-0.98c1.02,0.56,2.05,1.23,2.94,2.04c2.79,2.56,6.72,5.8,10.48,7.28
							C344.12,232.13,345.9,223.7,340.92,220.4z"/>
						<path id="XMLID_126_" style="fill:#27DEBF;" d="M320.65,224.29c2.3-2.5,2.88-6.96,1.29-9.97c-1.59-3-4.74-3.41-7.04-0.91
							c-2.3,2.5-2.88,6.96-1.29,9.97C315.2,226.38,318.35,226.79,320.65,224.29z"/>
						<path id="XMLID_125_" style="fill:#37474F;" d="M343.87,226.22c0.03,3.25-1.75,6.56-4.62,7.49
							c-3.76-1.47-7.69-4.72-10.48-7.27c-0.89-0.82-1.91-1.49-2.94-2.05c-0.98-0.46-1.96-0.03-4.55,0.99
							c-2.54,0.99-4.33,0.57-4.63,0.49c1.34,0.26,2.78-0.25,4-1.57c0.81-0.88,1.41-2.01,1.78-3.24c0.99,0.37,1.83,0.46,2.56,0.57
							c2.39,0.36,4.39,2.28,7.18,4.28c2.79,2,5.83,4.33,8.52,3.8C343.14,229.23,343.7,227.54,343.87,226.22z"/>
						<path id="XMLID_124_" style="fill:#37474F;" d="M320.65,224.29c2.3-2.5,2.88-6.96,1.29-9.97c-1.59-3-4.74-3.41-7.04-0.91
							c-2.3,2.5-2.88,6.96-1.29,9.97C315.2,226.38,318.35,226.79,320.65,224.29z"/>
						<g id="XMLID_113_">
							<path id="XMLID_123_" style="fill:#263238;" d="M318.76,215.27c0.33-0.36,0.41-0.99,0.18-1.41c-0.23-0.43-0.67-0.48-1-0.13
								c-0.33,0.35-0.41,0.99-0.18,1.41C317.99,215.57,318.44,215.62,318.76,215.27z"/>
							<path id="XMLID_122_" style="fill:#263238;" d="M318.34,218.18c0.33-0.35,0.41-0.99,0.18-1.41c-0.23-0.43-0.67-0.48-1-0.13
								c-0.33,0.36-0.41,0.99-0.18,1.41C317.57,218.47,318.01,218.53,318.34,218.18z"/>
							<path id="XMLID_121_" style="fill:#263238;" d="M317.92,221.08c0.33-0.35,0.41-0.99,0.18-1.41c-0.23-0.43-0.67-0.48-1-0.13
								c-0.33,0.36-0.41,0.99-0.18,1.41C317.15,221.38,317.59,221.44,317.92,221.08z"/>
							<path id="XMLID_120_" style="fill:#263238;" d="M317.5,223.99c0.33-0.36,0.41-0.99,0.18-1.41c-0.23-0.43-0.67-0.48-1-0.13
								c-0.33,0.36-0.41,0.99-0.18,1.41C316.72,224.29,317.17,224.35,317.5,223.99z"/>
							<path id="XMLID_119_" style="fill:#263238;" d="M320.79,216.96c0.33-0.35,0.41-0.99,0.18-1.41c-0.23-0.43-0.67-0.48-1-0.13
								c-0.33,0.35-0.41,0.99-0.18,1.41C320.01,217.26,320.46,217.32,320.79,216.96z"/>
							<path id="XMLID_118_" style="fill:#263238;" d="M316.36,216.45c0.33-0.36,0.41-0.99,0.18-1.41c-0.23-0.43-0.67-0.48-1-0.13
								c-0.33,0.35-0.41,0.99-0.18,1.41C315.58,216.74,316.03,216.8,316.36,216.45z"/>
							<path id="XMLID_117_" style="fill:#263238;" d="M320.3,219.9c0.33-0.36,0.41-0.99,0.18-1.41c-0.23-0.43-0.67-0.48-1-0.13
								c-0.33,0.36-0.41,0.99-0.18,1.41C319.53,220.19,319.97,220.25,320.3,219.9z"/>
							<path id="XMLID_116_" style="fill:#263238;" d="M315.87,219.38c0.33-0.35,0.41-0.99,0.18-1.41c-0.23-0.43-0.67-0.48-1-0.13
								c-0.33,0.36-0.41,0.99-0.18,1.41C315.1,219.68,315.54,219.73,315.87,219.38z"/>
							<path id="XMLID_115_" style="fill:#263238;" d="M319.81,222.83c0.33-0.35,0.41-0.99,0.18-1.41c-0.23-0.43-0.67-0.48-1-0.13
								c-0.33,0.36-0.41,0.99-0.18,1.41C319.04,223.13,319.49,223.18,319.81,222.83z"/>
							<path id="XMLID_114_" style="fill:#263238;" d="M315.38,222.31c0.33-0.36,0.41-0.99,0.18-1.41c-0.23-0.43-0.67-0.48-1-0.13
								c-0.33,0.35-0.41,0.99-0.18,1.41C314.61,222.61,315.06,222.67,315.38,222.31z"/>
						</g>
					</g>
				</g>
			</g>
			<g id="XMLID_81_">
				<g id="XMLID_102_">
					<polygon id="XMLID_109_" style="fill:#B16668;" points="429.23,354.24 420.64,356.84 418.88,343.47 428.12,340.02 					"/>
					<path id="XMLID_108_" style="fill:#263238;" d="M420.03,352.21l-0.18-1.34c-0.75,0.63-0.92,8.67-3.02,13.26
						c-2.31,5.03-4.75,8.61-5.77,10.87c-1.37,3.02,3.98,4.63,9.89,1.71c2.94-1.45,7.63-5.23,8.38-7.65
						c0.74-2.42,0.49-5.58,1.14-7.38c0.65-1.8,2.68-4.2,2.76-6.09c0.05-1.04-0.95-2.98-1.92-4.58c-0.89-1.47-2.07-3.29-2.57-2.98
						c0.06,0.2,0.12,1.48,0.12,1.48c-0.44,0.92-1.5,2.43-3.4,3.39C424.07,353.6,420.51,353.78,420.03,352.21z"/>
					<path id="XMLID_107_" style="fill:#27DEBF;" d="M417.35,204.09c5.44,6.98,5.02,14.03,5.63,34.45c0.61,20.43-0.3,38.1,0,39.25
						c0.3,1.14,3.93,8.83,5.42,16.43c1.66,8.46,0.53,49.76,0.53,49.76s-3.26,3.96-10.82,2.94c0,0-13.3-60.23-14.82-64.82
						c-1.53-4.59-11.21-52.93-11.21-52.93l1.47-27.29L417.35,204.09z"/>
					<path id="XMLID_141_" style="opacity:0.5;" d="M417.35,204.09c5.44,6.98,5.02,14.03,5.63,34.45c0.61,20.43-0.3,38.1,0,39.25
						c0.3,1.14,3.93,8.83,5.42,16.43c1.66,8.46,0.53,49.76,0.53,49.76s-3.26,3.96-10.82,2.94c0,0-13.3-60.23-14.82-64.82
						c-1.53-4.59-11.21-52.93-11.21-52.93l1.47-27.29L417.35,204.09z"/>
					
						<rect id="XMLID_106_" x="376.81" y="336.62" transform="matrix(0.9999 0.0132 -0.0132 0.9999 4.5663 -5.0053)" style="fill:#B16668;" width="9.41" height="13.7"/>
					<path id="XMLID_105_" style="fill:#27DEBF;" d="M375.81,227.56c0.83-9.42,2.84-25.74,2.84-25.74l24.09-1.41
						c3.9,6.08,2.21,16.2,1.14,25.33l-12.6,54.37c0.28,2.58,1.72,6.72-0.14,22.57c-1.84,15.68-4.49,36.67-4.49,36.67
						s-6.86,3.46-10.25-0.31c0,0-5.73-50.41-4.46-63.82C373.32,260.7,375.24,234,375.81,227.56z"/>
					<path id="XMLID_1_" style="opacity:0.5;" d="M375.81,227.56c0.83-9.42,2.84-25.74,2.84-25.74l24.09-1.41
						c3.9,6.08,2.21,16.2,1.14,25.33l-12.6,54.37c0.28,2.58,1.72,6.72-0.14,22.57c-1.84,15.68-4.49,36.67-4.49,36.67
						s-6.86,3.46-10.25-0.31c0,0-5.73-50.41-4.46-63.82C373.32,260.7,375.24,234,375.81,227.56z"/>
					<path id="XMLID_104_" style="fill:#263238;" d="M376.78,345.62l0.02-1.35c-0.91,0.38-3.5,7.93-6.88,11.69
						c-3.7,4.12-7.1,6.81-8.74,8.66c-2.21,2.48,2.42,5.6,8.93,4.58c3.23-0.51,8.84-2.72,10.27-4.81c1.43-2.08,2.13-5.18,3.29-6.71
						c1.16-1.53,3.81-3.21,4.45-4.99c0.35-0.98-0.02-3.13-0.47-4.95c-0.41-1.67-0.86-3.51-1.43-3.36c0,0.2-0.01,1.03-0.01,1.03
						c-0.69,0.75-2.6,2.04-4.7,2.39C379.96,348.07,376.77,347.26,376.78,345.62z"/>
					<path id="XMLID_103_" style="opacity:0.5;" d="M396.31,250.43l-3.93-19.79c0,0-5.87-2.04-9.83-5.01c0,0,3.24,4.18,6.88,6.34
						L396.31,250.43z"/>
				</g>
				<g id="XMLID_100_">
					<path id="XMLID_101_" style="fill:#F0F0F0;" d="M380.18,186.51c-0.59,5.5-2.81,25.83-2.81,25.83
						c18.16,9.69,40.68,3.27,44.13-0.72c-3.12-10.28-6.48-16.13-9.05-18.86l3.27-12.85c0,0-8.1-11.59-0.31-26.29l-9.63-0.79
						l-14.14-0.41c-3.38,0.19-5.79,0.52-5.79,0.52c-2.17,2.03-5.58,7.6-7.79,13.26C376.62,169.85,375.08,175.69,380.18,186.51z"/>
				</g>
				<g id="XMLID_82_">
					<path id="XMLID_99_" style="fill:#263238;" d="M375.88,150.6h21.28c12.08,0,21.86-9.79,21.86-21.87c0-0.87,0-1.72,0-2.53l0,0
						c0-11.91-9.66-21.57-21.57-21.57l0,0c-11.91,0-21.57,9.66-21.57,21.57l0,0C375.88,136.03,375.88,150.6,375.88,150.6z"/>
					<g id="XMLID_97_">
						<path id="XMLID_98_" style="fill:#B16668;" d="M383.58,114.02c-2.28,1.35-5.09,7.08-4.82,19.09
							c0.24,10.18,3.54,12.7,5.19,13.42c1.66,0.73,4.85,0.28,7.96-0.23v6.11c0,0-4.29,4.99-4.02,7.79c0.27,2.8,6.2,3.46,10.22,0.73
							c4.02-2.74,7.4-8.07,7.4-8.07l-0.07-14.05c0,0,1.83,1.78,4.93-0.93c2.56-2.24,3.42-6.01,1.43-8.04
							c-1.99-2.02-5.68-1.47-7.09,1.41c0,0-4.96,0.18-11.55-3.44C386.56,124.18,384.02,117.97,383.58,114.02z"/>
					</g>
					<g id="XMLID_95_">
						<path id="XMLID_96_" style="fill:#263238;" d="M390.13,130.56c-0.04,0.73,0.51,1.36,1.21,1.39c0.71,0.03,1.31-0.53,1.35-1.27
							c0.04-0.73-0.51-1.36-1.21-1.39C390.77,129.25,390.17,129.82,390.13,130.56z"/>
					</g>
					<g id="XMLID_93_" style="opacity:0.5;">
						<path id="XMLID_94_" style="fill:#9A4A4D;" d="M389.79,139.19l-2.97,0.95c0.25,0.85,1.11,1.33,1.93,1.07
							C389.57,140.94,390.04,140.04,389.79,139.19z"/>
					</g>
					<g id="XMLID_91_">
						<path id="XMLID_92_" style="fill:#263238;" d="M379.64,126.62l2.59-1.8c-0.47-0.74-1.44-0.94-2.15-0.44
							C379.36,124.88,379.16,125.88,379.64,126.62z"/>
					</g>
					<g id="XMLID_89_">
						<path id="XMLID_90_" style="fill:#263238;" d="M380.23,129.63c-0.04,0.73,0.51,1.36,1.21,1.39c0.71,0.03,1.31-0.53,1.35-1.27
							c0.04-0.73-0.51-1.36-1.21-1.39C380.87,128.33,380.27,128.9,380.23,129.63z"/>
					</g>
					<g id="XMLID_87_" style="opacity:0.5;">
						<polygon id="XMLID_88_" style="fill:#9A4A4D;" points="386.27,128.9 386.07,136.6 382.01,135.35 						"/>
					</g>
					<g id="XMLID_85_" style="opacity:0.5;">
						<path id="XMLID_86_" style="fill:#9A4A4D;" d="M391.92,146.3c3.27-0.43,10.01-2.36,11.06-5.03c0,0-0.35,1.67-2.36,3.4
							c-2.01,1.72-8.7,3.67-8.7,3.67V146.3z"/>
					</g>
					<path id="XMLID_84_" style="fill:#263238;" d="M400.57,105.78l0.5-5.65c-1.59-0.19-2.99,0.92-3.12,2.48
						C397.81,104.17,398.98,105.59,400.57,105.78z"/>
					<path id="XMLID_83_" style="fill:#263238;" d="M400.87,106.35l4.58-3.36c-0.9-1.32-2.66-1.64-3.92-0.71
						C400.27,103.21,399.97,105.03,400.87,106.35z"/>
				</g>
			</g>
			<path id="XMLID_80_" style="fill:#B16668;" d="M415.29,192.84c0,0-23.37,7.03-28.12,7.56c-3.99,0.45-7.04,0.33-9.94-1.81
				c-2.87-2.12-4.91-2.18-4.91-2.18c0.19,0.63,0.93,3.27,1.01,5.37c-1.24,1.46-3.07,0.29-3.07,0.29c-0.11-0.89-0.15-1.84-0.45-2.83
				c-3.29,1.22-5.02,2.74-4.44,4.9c0.45,1.67,1.34,7.69,6.58,8.56c4.26,0.7,12.13-1.86,17.49-3.26c5.36-1.4,31.44-2.86,38.09-7.43
				c0,0,0-4.45-4.32-6.94C419.19,192.74,415.29,192.84,415.29,192.84z"/>
			<path id="XMLID_79_" style="fill:#B16668;" d="M415.4,153.62c3.74,0.19,6.5,0.89,9.04,8.25c2.54,7.36,4.86,37.18,3.07,40.12
				l-12.04-7.39l-1.58-14.99C407.21,173.87,409.43,155.69,415.4,153.62z"/>
		</g>
		<g id="XMLID_2_">
			<g id="XMLID_60_">
				<g id="XMLID_77_">
					<path id="XMLID_78_" style="fill:#E0E0E0;" d="M316.42,218.35c-0.18,0-0.36-0.11-0.42-0.3c-0.08-0.23,0.04-0.49,0.27-0.57
						c0.43-0.15,0.85-0.3,1.28-0.43c0.24-0.08,0.49,0.05,0.56,0.29c0.08,0.24-0.05,0.49-0.29,0.56c-0.42,0.14-0.84,0.28-1.26,0.43
						C316.52,218.34,316.47,218.35,316.42,218.35z"/>
				</g>
				<g id="XMLID_63_">
					<path id="XMLID_64_" style="fill:#E0E0E0;" d="M272.18,286.11c-0.06,0-0.12-0.01-0.18-0.04c-0.23-0.1-0.33-0.36-0.23-0.59
						l1.05-2.39c0.1-0.23,0.36-0.33,0.59-0.23c0.23,0.1,0.33,0.36,0.23,0.59l-1.05,2.39C272.52,286.01,272.35,286.11,272.18,286.11z
						 M274.98,279.74c-0.06,0-0.12-0.01-0.18-0.04c-0.23-0.1-0.33-0.36-0.23-0.59l1.05-2.39c0.1-0.23,0.36-0.33,0.59-0.23
						c0.23,0.1,0.33,0.36,0.23,0.59l-1.05,2.39C275.32,279.64,275.15,279.74,274.98,279.74z M277.78,273.36
						c-0.06,0-0.12-0.01-0.18-0.04c-0.23-0.1-0.33-0.36-0.23-0.59l1.05-2.39c0.1-0.23,0.36-0.33,0.59-0.23
						c0.23,0.1,0.33,0.36,0.23,0.59l-1.05,2.39C278.11,273.26,277.95,273.36,277.78,273.36z M280.58,266.99
						c-0.06,0-0.12-0.01-0.18-0.04c-0.23-0.1-0.33-0.36-0.23-0.59l1.05-2.39c0.1-0.23,0.36-0.33,0.59-0.23
						c0.23,0.1,0.33,0.36,0.23,0.59l-1.05,2.39C280.91,266.89,280.75,266.99,280.58,266.99z M283.37,260.62
						c-0.06,0-0.12-0.01-0.18-0.04c-0.23-0.1-0.33-0.36-0.23-0.59l1.05-2.39c0.1-0.23,0.36-0.33,0.59-0.23
						c0.23,0.1,0.33,0.36,0.23,0.59l-1.05,2.39C283.71,260.52,283.54,260.62,283.37,260.62z M286.17,254.25
						c-0.06,0-0.12-0.01-0.18-0.04c-0.23-0.1-0.33-0.36-0.23-0.59l1.05-2.39c0.1-0.23,0.36-0.33,0.59-0.23
						c0.23,0.1,0.33,0.36,0.23,0.59l-1.05,2.39C286.51,254.15,286.34,254.25,286.17,254.25z M288.97,247.87
						c-0.06,0-0.12-0.01-0.18-0.04c-0.23-0.1-0.33-0.36-0.23-0.59l1.05-2.39c0.1-0.23,0.36-0.33,0.59-0.23
						c0.23,0.1,0.33,0.36,0.23,0.59l-1.05,2.39C289.3,247.77,289.14,247.87,288.97,247.87z M291.76,241.5
						c-0.06,0-0.12-0.01-0.18-0.04c-0.23-0.1-0.33-0.36-0.23-0.59l0.15-0.34c0.3-0.69,0.63-1.38,0.96-2.05
						c0.11-0.22,0.38-0.31,0.6-0.2c0.22,0.11,0.31,0.38,0.2,0.6c-0.33,0.66-0.65,1.33-0.95,2.01l-0.15,0.34
						C292.1,241.4,291.94,241.5,291.76,241.5z M295.02,235.36c-0.08,0-0.17-0.02-0.24-0.07c-0.21-0.13-0.27-0.41-0.14-0.62
						c0.47-0.74,0.97-1.47,1.49-2.18c0.15-0.2,0.43-0.24,0.62-0.1c0.2,0.15,0.24,0.43,0.1,0.62c-0.5,0.69-0.99,1.41-1.46,2.13
						C295.31,235.29,295.17,235.36,295.02,235.36z M299.24,229.83c-0.11,0-0.21-0.04-0.3-0.12c-0.18-0.17-0.2-0.45-0.03-0.63
						c0.59-0.65,1.2-1.29,1.83-1.9c0.18-0.17,0.46-0.17,0.63,0.01c0.17,0.18,0.17,0.46-0.01,0.63c-0.61,0.6-1.21,1.22-1.79,1.86
						C299.48,229.79,299.36,229.83,299.24,229.83z M304.31,225.07c-0.13,0-0.26-0.06-0.35-0.17c-0.15-0.19-0.12-0.47,0.07-0.63
						c0.68-0.54,1.39-1.07,2.11-1.58c0.2-0.14,0.48-0.09,0.62,0.11c0.14,0.2,0.09,0.48-0.11,0.62c-0.71,0.5-1.4,1.01-2.07,1.54
						C304.5,225.04,304.4,225.07,304.31,225.07z M310.08,221.21c-0.16,0-0.31-0.08-0.39-0.23c-0.12-0.22-0.04-0.49,0.17-0.61
						c0.77-0.42,1.55-0.83,2.34-1.21c0.22-0.1,0.49-0.01,0.6,0.21c0.11,0.22,0.01,0.49-0.21,0.6c-0.77,0.37-1.55,0.77-2.3,1.18
						C310.23,221.19,310.16,221.21,310.08,221.21z"/>
				</g>
				<g id="XMLID_61_">
					<path id="XMLID_62_" style="fill:#E0E0E0;" d="M269.89,291.34c-0.06,0-0.12-0.01-0.18-0.04c-0.23-0.1-0.33-0.36-0.23-0.59
						l0.54-1.23c0.1-0.23,0.36-0.33,0.59-0.23c0.23,0.1,0.33,0.36,0.23,0.59l-0.54,1.23C270.22,291.24,270.06,291.34,269.89,291.34z
						"/>
				</g>
			</g>
			<g id="XMLID_41_">
				<g id="XMLID_58_">
					<path id="XMLID_59_" style="fill:#E0E0E0;" d="M314.29,216.52c-0.19,0-0.36-0.12-0.42-0.31c-0.08-0.24,0.05-0.49,0.29-0.56
						c0.43-0.14,0.86-0.27,1.29-0.4c0.24-0.07,0.48,0.07,0.56,0.3c0.07,0.24-0.06,0.49-0.3,0.56c-0.43,0.13-0.85,0.26-1.27,0.4
						C314.39,216.51,314.34,216.52,314.29,216.52z"/>
				</g>
				<g id="XMLID_44_">
					<path id="XMLID_45_" style="fill:#E0E0E0;" d="M267.64,283.87c-0.06,0-0.13-0.01-0.19-0.04c-0.22-0.11-0.32-0.37-0.21-0.6
						l1.13-2.39c0.11-0.22,0.38-0.32,0.6-0.21c0.22,0.11,0.32,0.37,0.21,0.6l-1.13,2.39C267.97,283.78,267.81,283.87,267.64,283.87z
						 M270.65,277.5c-0.06,0-0.13-0.01-0.19-0.04c-0.22-0.11-0.32-0.37-0.21-0.6l1.13-2.39c0.11-0.22,0.38-0.32,0.6-0.21
						c0.22,0.11,0.32,0.37,0.21,0.6l-1.13,2.39C270.98,277.41,270.82,277.5,270.65,277.5z M273.66,271.14
						c-0.06,0-0.13-0.01-0.19-0.04c-0.22-0.11-0.32-0.37-0.21-0.6l1.13-2.39c0.11-0.22,0.37-0.32,0.6-0.21
						c0.22,0.11,0.32,0.37,0.21,0.6l-1.13,2.39C273.99,271.04,273.83,271.14,273.66,271.14z M276.67,264.77
						c-0.06,0-0.13-0.01-0.19-0.04c-0.22-0.11-0.32-0.37-0.21-0.6l1.13-2.39c0.11-0.22,0.38-0.32,0.6-0.21
						c0.22,0.11,0.32,0.37,0.21,0.6l-1.13,2.39C277,264.67,276.84,264.77,276.67,264.77z M279.68,258.4c-0.06,0-0.13-0.01-0.19-0.04
						c-0.22-0.11-0.32-0.37-0.21-0.59l1.13-2.39c0.11-0.22,0.38-0.32,0.59-0.21c0.22,0.11,0.32,0.37,0.21,0.6l-1.13,2.39
						C280.01,258.3,279.85,258.4,279.68,258.4z M282.69,252.03c-0.06,0-0.13-0.01-0.19-0.04c-0.22-0.11-0.32-0.37-0.21-0.6
						l1.13-2.39c0.11-0.22,0.38-0.32,0.6-0.21c0.22,0.11,0.32,0.37,0.21,0.6l-1.13,2.39C283.02,251.93,282.86,252.03,282.69,252.03z
						 M285.7,245.66c-0.06,0-0.13-0.01-0.19-0.04c-0.22-0.11-0.32-0.37-0.21-0.6l1.13-2.39c0.11-0.22,0.38-0.32,0.6-0.21
						c0.22,0.11,0.32,0.37,0.21,0.6l-1.13,2.39C286.03,245.56,285.87,245.66,285.7,245.66z M288.71,239.29
						c-0.06,0-0.13-0.01-0.19-0.04c-0.22-0.11-0.32-0.37-0.21-0.6l0.14-0.3c0.33-0.71,0.69-1.4,1.05-2.08
						c0.12-0.22,0.39-0.3,0.61-0.18c0.22,0.12,0.3,0.39,0.18,0.61c-0.36,0.67-0.71,1.35-1.03,2.04l-0.14,0.3
						C289.04,239.19,288.88,239.29,288.71,239.29z M292.18,233.17c-0.09,0-0.17-0.03-0.25-0.08c-0.2-0.14-0.26-0.42-0.12-0.62
						c0.51-0.74,1.03-1.47,1.57-2.16c0.15-0.2,0.43-0.23,0.63-0.08c0.2,0.15,0.23,0.43,0.08,0.63c-0.52,0.68-1.04,1.39-1.54,2.11
						C292.47,233.1,292.32,233.17,292.18,233.17z M296.6,227.69c-0.11,0-0.22-0.04-0.31-0.12c-0.18-0.17-0.19-0.45-0.02-0.63
						c0.61-0.64,1.25-1.27,1.9-1.87c0.18-0.17,0.46-0.16,0.63,0.02c0.17,0.18,0.16,0.46-0.02,0.63c-0.64,0.6-1.27,1.21-1.86,1.84
						C296.84,227.65,296.72,227.69,296.6,227.69z M301.86,223.02c-0.14,0-0.27-0.06-0.36-0.18c-0.15-0.2-0.11-0.48,0.09-0.63
						c0.7-0.53,1.44-1.05,2.18-1.54c0.2-0.13,0.48-0.08,0.62,0.13c0.14,0.21,0.08,0.48-0.13,0.62c-0.73,0.48-1.45,0.99-2.13,1.51
						C302.05,222.99,301.96,223.02,301.86,223.02z M307.81,219.26c-0.16,0-0.32-0.09-0.4-0.24c-0.11-0.22-0.03-0.49,0.19-0.6
						c0.79-0.41,1.6-0.8,2.4-1.16c0.22-0.1,0.49,0,0.59,0.23c0.1,0.23,0,0.49-0.23,0.59c-0.79,0.35-1.58,0.74-2.35,1.14
						C307.95,219.24,307.88,219.26,307.81,219.26z"/>
				</g>
				<g id="XMLID_42_">
					<path id="XMLID_43_" style="fill:#E0E0E0;" d="M265.18,289.08c-0.06,0-0.13-0.01-0.19-0.04c-0.22-0.11-0.32-0.37-0.21-0.6
						l0.57-1.21c0.11-0.22,0.37-0.32,0.6-0.21c0.22,0.11,0.32,0.37,0.21,0.6l-0.57,1.21C265.51,288.99,265.35,289.08,265.18,289.08z
						"/>
				</g>
			</g>
			<g id="XMLID_21_">
				<g id="XMLID_39_">
					<path id="XMLID_40_" style="fill:#E0E0E0;" d="M318.41,220.12c-0.18,0-0.34-0.1-0.41-0.28c-0.09-0.23,0.02-0.49,0.24-0.58
						c0.42-0.17,0.84-0.33,1.26-0.49c0.23-0.09,0.49,0.03,0.57,0.26c0.09,0.23-0.03,0.49-0.26,0.57c-0.42,0.15-0.83,0.31-1.24,0.48
						C318.53,220.11,318.47,220.12,318.41,220.12z"/>
				</g>
				<g id="XMLID_24_">
					<path id="XMLID_25_" style="fill:#E0E0E0;" d="M275.78,289.15c-0.06,0-0.12-0.01-0.17-0.03c-0.23-0.1-0.34-0.36-0.24-0.58
						l1.01-2.41c0.1-0.23,0.35-0.33,0.58-0.24c0.23,0.1,0.34,0.36,0.24,0.58l-1.01,2.41C276.12,289.05,275.95,289.15,275.78,289.15z
						 M278.46,282.73c-0.06,0-0.12-0.01-0.17-0.03c-0.23-0.1-0.34-0.36-0.24-0.58l1.01-2.41c0.1-0.23,0.36-0.33,0.58-0.24
						c0.23,0.1,0.34,0.36,0.24,0.58l-1.01,2.41C278.8,282.63,278.64,282.73,278.46,282.73z M281.15,276.31
						c-0.06,0-0.12-0.01-0.17-0.03c-0.23-0.1-0.34-0.36-0.24-0.58l1.01-2.41c0.1-0.23,0.36-0.33,0.58-0.24
						c0.23,0.1,0.34,0.36,0.24,0.58l-1.01,2.41C281.49,276.2,281.32,276.31,281.15,276.31z M283.84,269.88
						c-0.06,0-0.12-0.01-0.17-0.03c-0.23-0.1-0.34-0.36-0.24-0.58l1.01-2.41c0.1-0.23,0.36-0.34,0.58-0.24
						c0.23,0.1,0.34,0.36,0.24,0.58l-1.01,2.41C284.18,269.78,284.01,269.88,283.84,269.88z M286.52,263.46
						c-0.06,0-0.12-0.01-0.17-0.03c-0.23-0.1-0.34-0.36-0.24-0.58l1.01-2.41c0.1-0.23,0.36-0.34,0.58-0.24
						c0.23,0.1,0.34,0.36,0.24,0.58l-1.01,2.41C286.86,263.36,286.7,263.46,286.52,263.46z M289.21,257.04
						c-0.06,0-0.12-0.01-0.17-0.03c-0.23-0.1-0.34-0.36-0.24-0.58l1.01-2.41c0.1-0.23,0.36-0.34,0.58-0.24
						c0.23,0.1,0.34,0.36,0.24,0.58l-1.01,2.41C289.55,256.93,289.38,257.04,289.21,257.04z M291.89,250.61
						c-0.06,0-0.12-0.01-0.17-0.03c-0.23-0.1-0.33-0.36-0.24-0.59l1.01-2.41c0.1-0.23,0.36-0.33,0.59-0.24
						c0.23,0.1,0.33,0.36,0.24,0.59l-1.01,2.41C292.23,250.51,292.07,250.61,291.89,250.61z M294.58,244.19
						c-0.06,0-0.12-0.01-0.17-0.03c-0.23-0.1-0.34-0.36-0.24-0.58l0.35-0.83c0.22-0.53,0.46-1.06,0.7-1.58
						c0.1-0.22,0.37-0.32,0.59-0.22c0.22,0.1,0.32,0.37,0.22,0.59c-0.24,0.51-0.47,1.03-0.69,1.55l-0.35,0.83
						C294.92,244.09,294.76,244.19,294.58,244.19z M297.65,237.95c-0.08,0-0.16-0.02-0.23-0.06c-0.21-0.13-0.28-0.4-0.16-0.61
						c0.45-0.75,0.92-1.5,1.42-2.22c0.14-0.2,0.42-0.26,0.62-0.12c0.2,0.14,0.26,0.42,0.12,0.62c-0.48,0.71-0.95,1.45-1.39,2.18
						C297.95,237.87,297.8,237.95,297.65,237.95z M301.68,232.29c-0.1,0-0.2-0.03-0.29-0.1c-0.19-0.16-0.21-0.44-0.05-0.63
						c0.56-0.67,1.15-1.33,1.76-1.97c0.17-0.18,0.45-0.19,0.63-0.02c0.18,0.17,0.19,0.45,0.02,0.63c-0.59,0.62-1.17,1.27-1.72,1.93
						C301.94,232.23,301.81,232.29,301.68,232.29z M306.57,227.34c-0.13,0-0.25-0.05-0.34-0.16c-0.16-0.19-0.14-0.47,0.05-0.63
						c0.66-0.57,1.35-1.13,2.05-1.66c0.2-0.15,0.48-0.11,0.63,0.09c0.15,0.2,0.11,0.48-0.09,0.63c-0.69,0.52-1.36,1.07-2.01,1.62
						C306.78,227.31,306.68,227.34,306.57,227.34z M312.2,223.25c-0.15,0-0.3-0.08-0.38-0.21c-0.13-0.21-0.06-0.49,0.15-0.61
						c0.74-0.45,1.51-0.89,2.29-1.3c0.22-0.11,0.49-0.03,0.6,0.19c0.12,0.22,0.03,0.49-0.19,0.6c-0.76,0.4-1.52,0.83-2.25,1.28
						C312.36,223.23,312.28,223.25,312.2,223.25z"/>
				</g>
				<g id="XMLID_22_">
					<path id="XMLID_23_" style="fill:#E0E0E0;" d="M273.57,294.42c-0.06,0-0.12-0.01-0.17-0.03c-0.23-0.1-0.34-0.36-0.24-0.58
						l0.52-1.24c0.1-0.23,0.36-0.33,0.58-0.24c0.23,0.1,0.34,0.36,0.24,0.58l-0.52,1.24C273.91,294.32,273.75,294.42,273.57,294.42z
						"/>
				</g>
			</g>
			<g id="XMLID_3_">
				<g id="XMLID_19_">
					<path id="XMLID_20_" style="fill:#E0E0E0;" d="M318.01,223.24c-0.15,0-0.3-0.08-0.38-0.22c-0.13-0.21-0.06-0.49,0.16-0.61
						c0.39-0.23,0.78-0.45,1.17-0.67c0.22-0.12,0.49-0.04,0.61,0.17c0.12,0.22,0.04,0.49-0.17,0.61c-0.39,0.22-0.77,0.44-1.15,0.66
						C318.16,223.22,318.09,223.24,318.01,223.24z"/>
				</g>
				<g id="XMLID_6_">
					<path id="XMLID_7_" style="fill:#E0E0E0;" d="M279.13,293.21c-0.05,0-0.11-0.01-0.16-0.03c-0.23-0.09-0.34-0.35-0.25-0.58
						l1.01-2.6c0.09-0.23,0.35-0.34,0.58-0.25c0.23,0.09,0.34,0.35,0.25,0.58l-1.01,2.6C279.48,293.1,279.31,293.21,279.13,293.21z
						 M281.83,286.28c-0.05,0-0.11-0.01-0.16-0.03c-0.23-0.09-0.34-0.35-0.25-0.58l1.01-2.6c0.09-0.23,0.35-0.34,0.58-0.25
						c0.23,0.09,0.34,0.35,0.25,0.58l-1.01,2.59C282.18,286.18,282.01,286.28,281.83,286.28z M284.53,279.36
						c-0.05,0-0.11-0.01-0.16-0.03c-0.23-0.09-0.34-0.35-0.25-0.58l1.01-2.6c0.09-0.23,0.35-0.34,0.58-0.25
						c0.23,0.09,0.34,0.35,0.25,0.58l-1.01,2.6C284.88,279.25,284.71,279.36,284.53,279.36z M287.23,272.44
						c-0.05,0-0.11-0.01-0.16-0.03c-0.23-0.09-0.34-0.35-0.25-0.58l1.01-2.59c0.09-0.23,0.35-0.34,0.58-0.25
						c0.23,0.09,0.34,0.35,0.25,0.58l-1.01,2.6C287.58,272.33,287.41,272.44,287.23,272.44z M289.93,265.52
						c-0.05,0-0.11-0.01-0.16-0.03c-0.23-0.09-0.34-0.35-0.25-0.58l1.01-2.6c0.09-0.23,0.35-0.35,0.58-0.25
						c0.23,0.09,0.34,0.35,0.25,0.58l-1.01,2.6C290.28,265.41,290.11,265.52,289.93,265.52z M292.64,258.6
						c-0.05,0-0.11-0.01-0.16-0.03c-0.23-0.09-0.34-0.35-0.25-0.58l1.01-2.6c0.09-0.23,0.35-0.35,0.58-0.25
						c0.23,0.09,0.34,0.35,0.25,0.58l-1.01,2.6C292.98,258.49,292.81,258.6,292.64,258.6z M295.34,251.67
						c-0.05,0-0.11-0.01-0.16-0.03c-0.23-0.09-0.34-0.35-0.25-0.58l1.01-2.6c0.09-0.23,0.35-0.34,0.58-0.25
						c0.23,0.09,0.34,0.35,0.25,0.58l-1.01,2.6C295.68,251.57,295.52,251.67,295.34,251.67z M298.19,244.81
						c-0.07,0-0.13-0.01-0.19-0.04c-0.22-0.11-0.32-0.37-0.21-0.6c0.41-0.84,0.84-1.68,1.29-2.5c0.12-0.22,0.39-0.29,0.61-0.17
						c0.22,0.12,0.29,0.39,0.17,0.61c-0.44,0.8-0.87,1.63-1.27,2.45C298.51,244.72,298.35,244.81,298.19,244.81z M301.9,238.39
						c-0.09,0-0.17-0.03-0.25-0.08c-0.2-0.14-0.26-0.42-0.12-0.62c0.52-0.77,1.07-1.53,1.64-2.28c0.15-0.2,0.43-0.23,0.63-0.08
						c0.2,0.15,0.23,0.43,0.08,0.63c-0.56,0.73-1.1,1.49-1.61,2.24C302.18,238.32,302.04,238.39,301.9,238.39z M306.51,232.57
						c-0.11,0-0.22-0.04-0.3-0.12c-0.18-0.17-0.19-0.45-0.03-0.63c0.63-0.68,1.29-1.36,1.96-2.02c0.18-0.17,0.46-0.17,0.63,0.01
						c0.17,0.18,0.17,0.46-0.01,0.63c-0.66,0.64-1.31,1.31-1.92,1.98C306.75,232.52,306.63,232.57,306.51,232.57z M311.92,227.48
						c-0.13,0-0.26-0.06-0.35-0.17c-0.16-0.19-0.13-0.47,0.07-0.63c0.72-0.58,1.47-1.16,2.23-1.71c0.2-0.14,0.48-0.1,0.62,0.1
						c0.15,0.2,0.1,0.48-0.1,0.62c-0.75,0.54-1.48,1.11-2.19,1.68C312.12,227.45,312.02,227.48,311.92,227.48z"/>
				</g>
				<g id="XMLID_4_">
					<path id="XMLID_5_" style="fill:#E0E0E0;" d="M276.95,298.79c-0.05,0-0.11-0.01-0.16-0.03c-0.23-0.09-0.34-0.35-0.25-0.58
						l0.49-1.25c0.09-0.23,0.35-0.34,0.58-0.25c0.23,0.09,0.34,0.35,0.25,0.58l-0.49,1.25C277.3,298.68,277.13,298.79,276.95,298.79
						z"/>
				</g>
			</g>
		</g>
	</g>
</g>
<g id="Character_1">
	<g id="Character_8_">
		<path id="XMLID_3346_" style="fill:#F28F8F;" d="M105.74,188.75c-0.11,4.84-0.53,8.96,4.33,17.6c3.4,6.04,6.76,10.32,11.15,16.6
			c1.08,1.55,1.87,2.75,3.98,5.7c0.85,1.19,1.74,2.52,2.91,3.4c1.48,1.12,3.09,2.07,4.84,2.72c2.19,0.82,4.6,1.14,6.9,0.72
			c0.94-0.17,1.86-0.47,2.68-0.93c-4.09-0.81-7.95-2.43-10.82-4.72c-3.5-2.79-4.78-6.01-4.03-8.85h-0.02l0.48-1.89l-0.04,0.04
			c-0.01-0.02-0.06-0.08-0.15-0.2c-0.04-0.07-0.12-0.16-0.2-0.27c-0.1-0.14-0.23-0.33-0.38-0.55c-0.13-0.18-0.26-0.39-0.4-0.63
			c-0.13-0.23-0.3-0.5-0.46-0.78c-1.01-1.76-2.24-4.44-2.99-7.83c-0.11-0.5-0.2-1.02-0.27-1.57c-0.72-1.6-0.02-3.22-0.7-4.77
			l-0.81-3.63c0,0-3.22-33.93-4.56-38.83c-2-7.29-6.46-8.92-10.59-9.17l-0.92,3.45C105.68,154.38,106.1,173.1,105.74,188.75z"/>
		<g id="XMLID_3352_">
			<path id="XMLID_3404_" style="fill:#27DEBF;" d="M104.37,150.66c0,0,6.37-0.81,9.9,3.04c3.54,3.84,4.79,11.53,5.57,18.3
				c0.78,6.77,1.6,13.4,1.6,13.4s-7.64,5.44-18.02,2.9L104.37,150.66z"/>
			<g id="Character_Boy_3_">
				<g id="XMLID_3376_">
					<g id="XMLID_3377_">
						
							<ellipse id="XMLID_3403_" transform="matrix(0.9871 -0.1602 0.1602 0.9871 -17.9753 18.5506)" style="fill:#263238;" cx="106.07" cy="120.77" rx="13.17" ry="13.17"/>
						<g id="XMLID_3379_">
							<g id="XMLID_3380_">
								<g id="XMLID_3381_">
									
										<rect id="XMLID_3402_" x="74.54" y="343.59" transform="matrix(-1 -1.224647e-16 1.224647e-16 -1 158.3533 703.0609)" style="fill:#FFA8A7;" width="9.28" height="15.88"/>
									<polygon id="XMLID_3401_" style="fill:#FFA8A7;" points="106.7,348.36 115.97,348.68 116.43,331.87 107.16,331.56 
																			"/>
									<path id="XMLID_3400_" style="fill:#37474F;" d="M75.15,217.72c0,8.86-1.15,62.54-1.15,62.54
										c-0.22,2.55-2.61,7.25-2.09,17.04c0.7,13.3,1.85,47.87,1.85,47.87s4.35,4.31,10.49,0c0,0,8.4-47.82,10.06-61
										c1.45-11.5,3.91-42.75,3.91-42.75l5.15,43.37c0,0-1.51,8.65-1.85,14.75c-0.33,6.1,5.02,37.07,5.02,37.07
										s4.72,3.26,10.09,0.39c0,0,4-47.22,4.96-52.73c0.96-5.51-3.07-66.53-3.07-66.53H75.15z"/>
									<path id="XMLID_3399_" style="fill:#F0F0F0;" d="M84.06,153.64c-4.04,0.72-7.26,3.78-8.15,7.79
										c-0.44,1.99-0.76,4.36-0.76,7.04v18.17v31.07c6.5,7.08,29.18,10.37,43.39,0c0,0-0.28-43.5-1.34-50.64
										c-1.85-12.42-7.79-16.84-13.76-16.38l-14.32,2.05L84.06,153.64z"/>
									<g id="XMLID_3384_">
										<g id="XMLID_3392_">
											<path id="XMLID_3398_" style="fill:#263238;" d="M83.31,130.13c0,0,2.13,10.03,2.99,11.67c0.86,1.65,2.62,2.12,2.62,2.12
												l-0.15-7.05L83.31,130.13z"/>
											<path id="XMLID_3397_" style="fill:#263238;" d="M85.99,115.77c0,0-2.3-0.39-4.09,1.44c-1.76,1.8-0.78,7.42,1.41,12.92
												l4.02,0.46L85.99,115.77z"/>
											<path id="XMLID_3396_" style="fill:#FFA8A7;" d="M88.54,130.6c-0.81,0.48-1.96-1.07-2.95-2.11
												c-0.99-1.04-4.24-2.46-5.86,0.95c-1.65,3.48,1.43,8.07,3.98,8.87c4.4,1.38,5.06-1.44,5.06-1.44l0.34,15.88
												c0,0,2.88,7.05,10.69,8.11c7.81,1.06,6.2-5.38,3.63-8.53l-0.01-4.83c0,0,3.99,0.61,5.93,0.3
												c3.24-0.5,5.27-3.06,6.26-6.56c1.58-5.63,2.18-10.17,0.84-21.24c-1.47-12.13-15.58-12.26-23.2-7.46
												C85.63,117.33,88.54,130.6,88.54,130.6z"/>
											<path id="XMLID_3395_" style="fill:#263238;" d="M88.54,131.95c-0.41,0.01-1.95-2.55-2.95-3.46
												c-1.39-1.26,0.4-12.72,0.4-12.72s-1.34-2.85,1.34-5.79c1.9-2.1,5.09-2.33,10.52-3.18c2.85-0.45,7.17-1.25,10.02-1.78
												c3.4-0.63,6.21-1.3,8.61,0.78c1.87,1.62,2.67,4.49,1.67,6.75c-0.24,0.53-0.58,1.01-0.97,1.44
												c-0.69,0.77-1.47,1.37-2.45,1.69c0,0-1.48,1.32-6.64,1.94c-5.16,0.63-13.19-0.12-14.29-0.27c-1.5-0.2-1.81,1.24-2.62,5.2
												C90.48,126.04,89.9,131.93,88.54,131.95z"/>
											<path id="XMLID_3394_" style="fill:#263238;" d="M86,116.66l-4.87-2.62c0.69-1.4,2.34-1.94,3.69-1.22
												C86.16,113.55,86.69,115.26,86,116.66z"/>
											<path id="XMLID_3393_" style="fill:#F28F8F;" d="M103.42,147.49c0,0-7.23-1.46-9.75-2.8c-1.69-0.9-3.08-2.46-3.49-3.46
												c0,0,0.47,2.14,1.98,4.08c1.85,2.36,11.26,4.1,11.26,4.1L103.42,147.49z"/>
										</g>
										<g id="XMLID_3385_">
											<path id="XMLID_3391_" style="fill:#263238;" d="M101.68,128.79c0,0.83-0.65,1.5-1.45,1.5c-0.8,0-1.45-0.68-1.45-1.51
												c0-0.83,0.65-1.5,1.45-1.5C101.04,127.28,101.68,127.96,101.68,128.79z"/>
											<path id="XMLID_3390_" style="fill:#263238;" d="M100.15,123.32l-3.1,1.71c-0.46-0.89-0.13-1.99,0.72-2.47
												C98.63,122.09,99.69,122.43,100.15,123.32z"/>
											<path id="XMLID_3389_" style="fill:#F28F8F;" d="M102.77,138.79l3.31,1.24c-0.33,0.95-1.33,1.44-2.25,1.1
												C102.91,140.79,102.44,139.74,102.77,138.79z"/>
											<path id="XMLID_3388_" style="fill:#263238;" d="M114.6,124.53l-2.83-2.18c0.58-0.81,1.68-0.98,2.46-0.38
												C115.01,122.58,115.18,123.72,114.6,124.53z"/>
											<path id="XMLID_3387_" style="fill:#263238;" d="M113.73,128.38c0,0.83-0.65,1.5-1.45,1.5c-0.8,0-1.45-0.68-1.45-1.51
												c0-0.83,0.65-1.5,1.45-1.5C113.08,126.87,113.73,127.55,113.73,128.38z"/>
											<polygon id="XMLID_3386_" style="fill:#F28F8F;" points="106.35,127 106.83,135.71 111.37,134.16 											"/>
										</g>
									</g>
									<path id="XMLID_3383_" style="fill:#263238;" d="M83.81,354.89v-1.33c0.89,0.39,2.95,8.25,6.63,11.61
										c2.93,2.67,6.92,5.75,7.93,8.73c1.06,3.09-5.56,4.8-8.29,4.32c-3.18-0.56-8.68-2.8-10.06-4.87
										c-1.38-2.07-2.03-5.13-3.15-6.65c-1.12-1.52-3.71-3.22-4.32-4.97c-0.33-0.97,0.06-3.08,0.53-4.87
										c0.43-1.64,0.9-3.44,1.46-3.29c0,0.2,0,1.01,0,1.01c0.67,0.75,2.54,1.49,4.64,1.57C80.53,356.2,83.83,355.93,83.81,354.89z
										"/>
									<path id="XMLID_3382_" style="fill:#263238;" d="M116.07,345.82c0.48,0.02,0.87,0.7,1.94,1.85
										c1.28,1.39,3.38,2.89,5.46,3.93c3.47,1.74,10.23,4.41,13.28,5.79c1.91,0.86,1.82,3.17-0.15,4.48
										c-1.97,1.31-6.74,2.26-12.46,0.98c-3.12-0.7-7.17-3.58-9.74-3.42c-2.57,0.16-7.37,0.12-9.27-1.19
										c-1.9-1.31-1.14-4.1-0.6-6.5c0.58-2.62,1.42-6.62,2.29-6.44l-0.03,0.82c1.12,1.69,6.79,2.38,9.24,1.14L116.07,345.82z"/>
								</g>
							</g>
						</g>
						<path id="XMLID_3378_" style="fill:#263238;" d="M98.23,241.41c0,0,7.41-2.09,12.92-7.41c0,0-2.49,4.67-9.9,9.01l2.13,41.76
							L98.23,241.41z"/>
					</g>
				</g>
			</g>
		</g>
		<g id="XMLID_3316_">
			<g id="XMLID_3317_">
				<g id="XMLID_3340_">
					<g id="XMLID_3344_">
						<path id="XMLID_3345_" style="fill:#455A64;" d="M128.11,219.14l2.47-2.02c-0.02-0.03-2.73-3.43-3.93-8.91
							c-1.24-5.69,0.44-13.13,3.22-14.22c2.94-1.15,6.11,1.55,6.14,1.58l2.12-2.39c-0.19-0.17-4.63-4.04-9.42-2.16
							c-5.18,2.03-6.5,11.78-5.17,17.87C124.9,215.16,127.98,218.98,128.11,219.14z"/>
					</g>
					<g id="XMLID_3341_">
						<path id="XMLID_3343_" style="fill:#263238;" d="M127.71,211.77c1.28,3.35,2.85,5.33,2.86,5.35l-2.47,2.02
							c-0.06-0.07-0.74-0.92-1.59-2.42C126.85,215.33,127.26,213.62,127.71,211.77z"/>
						<path id="XMLID_3342_" style="fill:#263238;" d="M134.39,191.05c2.14,0.75,3.63,2.05,3.74,2.14l-2.12,2.39
							c-0.02-0.02-1.61-1.37-3.58-1.76C133.02,192.58,133.76,191.67,134.39,191.05z"/>
					</g>
				</g>
				<path id="XMLID_3339_" style="fill:#37474F;" d="M127.67,220.99l-0.02,0l6.69-25.88c0.01-0.01,0.01-0.01,0.02-0.01
					c0.53-2.06,2.32-3.9,5.34-5.08c6.53-2.56,16.28-1.09,21.77,3.29c2.53,2.02,3.69,4.3,3.59,6.43c0.01,0.01,0.01,0.01,0.02,0.02
					l-1.26,26.7l-0.02,0c-0.12,2.94-2.31,5.63-6.47,7.26c-7.69,3.02-19.17,1.28-25.63-3.87
					C128.21,227.05,126.92,223.83,127.67,220.99z"/>
				<path id="XMLID_3338_" style="fill:#263238;" d="M140.68,201.44c4.15,3.31,11.52,4.43,16.46,2.49c4.94-1.93,5.58-6.19,1.44-9.5
					c-4.15-3.31-11.52-4.42-16.46-2.49C137.18,193.88,136.53,198.14,140.68,201.44z"/>
				<path id="XMLID_3337_" style="fill:#263238;" d="M155.45,232.65c-2.96-2.65-3.41-7.31-1.77-10.15c0,0-2.51,3.17-1.46,6.34
					C153.31,232.14,155.45,232.65,155.45,232.65z"/>
				<path id="XMLID_3334_" style="fill:#455A64;" d="M137.8,202.58c5.48,4.38,15.23,5.85,21.77,3.29c6.53-2.56,7.38-8.19,1.9-12.57
					c-5.49-4.38-15.24-5.85-21.77-3.29C133.16,192.57,132.31,198.2,137.8,202.58z M142.12,191.94c4.95-1.93,12.31-0.82,16.46,2.49
					c4.15,3.31,3.5,7.57-1.44,9.5c-4.95,1.94-12.31,0.82-16.46-2.49C136.53,198.14,137.18,193.88,142.12,191.94z"/>
				<g id="XMLID_3318_">
					<path id="XMLID_3333_" style="fill:#455A64;" d="M155.67,220.4c0,0,1.5-1.15,8.42-2.26c2.12-0.34,5.34-0.66,6.58-1
						c1.24-0.33,1.65-1.85,2.72-3.05c1.07-1.2,2.83-2.02,3.92-2.17l2.66,13.92c0,0-1.87,0.61-4.67-0.48
						c-2.6-1.01-3.57-1.45-4.55-0.98c-1.02,0.56-2.05,1.23-2.94,2.04c-2.79,2.56-6.72,5.8-10.48,7.28
						C152.47,232.13,150.68,223.7,155.67,220.4z"/>
					<path id="XMLID_3332_" style="fill:#27DEBF;" d="M175.93,224.29c-2.3-2.5-2.88-6.96-1.29-9.97s4.74-3.41,7.04-0.91
						c2.3,2.5,2.88,6.96,1.29,9.97C181.38,226.38,178.23,226.79,175.93,224.29z"/>
					<path id="XMLID_3331_" style="fill:#37474F;" d="M152.71,226.22c-0.03,3.25,1.75,6.56,4.62,7.49
						c3.76-1.47,7.69-4.72,10.48-7.27c0.89-0.82,1.91-1.49,2.94-2.05c0.98-0.46,1.96-0.03,4.55,0.99c2.54,0.99,4.33,0.57,4.63,0.49
						c-1.34,0.26-2.79-0.25-4-1.57c-0.81-0.88-1.41-2.01-1.78-3.24c-0.99,0.37-1.83,0.46-2.56,0.57c-2.39,0.36-4.39,2.28-7.18,4.28
						c-2.79,2-5.83,4.33-8.52,3.8C153.45,229.23,152.88,227.54,152.71,226.22z"/>
					<path id="XMLID_3330_" style="fill:#37474F;" d="M175.93,224.29c-2.3-2.5-2.88-6.96-1.29-9.97s4.74-3.41,7.04-0.91
						c2.3,2.5,2.88,6.96,1.29,9.97C181.38,226.38,178.23,226.79,175.93,224.29z"/>
					<g id="XMLID_3319_">
						<path id="XMLID_3329_" style="fill:#263238;" d="M177.83,215.27c-0.33-0.36-0.41-0.99-0.18-1.41c0.23-0.43,0.67-0.48,1-0.13
							c0.33,0.35,0.41,0.99,0.18,1.41C178.6,215.57,178.15,215.62,177.83,215.27z"/>
						<path id="XMLID_3328_" style="fill:#263238;" d="M178.25,218.18c-0.33-0.35-0.41-0.99-0.18-1.41c0.23-0.43,0.67-0.48,1-0.13
							c0.33,0.36,0.41,0.99,0.18,1.41C179.02,218.47,178.57,218.53,178.25,218.18z"/>
						<path id="XMLID_3327_" style="fill:#263238;" d="M178.67,221.08c-0.33-0.35-0.41-0.99-0.18-1.41c0.23-0.43,0.67-0.48,1-0.13
							c0.33,0.36,0.41,0.99,0.18,1.41C179.44,221.38,178.99,221.44,178.67,221.08z"/>
						<path id="XMLID_3326_" style="fill:#263238;" d="M179.09,223.99c-0.33-0.36-0.41-0.99-0.18-1.41c0.23-0.43,0.67-0.48,1-0.13
							c0.33,0.36,0.41,0.99,0.18,1.41C179.86,224.29,179.42,224.35,179.09,223.99z"/>
						<path id="XMLID_3325_" style="fill:#263238;" d="M175.8,216.96c-0.33-0.35-0.41-0.99-0.18-1.41c0.23-0.43,0.67-0.48,1-0.13
							c0.33,0.35,0.41,0.99,0.18,1.41C176.57,217.26,176.13,217.32,175.8,216.96z"/>
						<path id="XMLID_3324_" style="fill:#263238;" d="M180.23,216.45c-0.33-0.36-0.41-0.99-0.18-1.41c0.23-0.43,0.67-0.48,1-0.13
							c0.33,0.35,0.41,0.99,0.18,1.41C181,216.74,180.56,216.8,180.23,216.45z"/>
						<path id="XMLID_3323_" style="fill:#263238;" d="M176.29,219.9c-0.33-0.36-0.41-0.99-0.18-1.41c0.23-0.43,0.67-0.48,1-0.13
							c0.33,0.36,0.41,0.99,0.18,1.41C177.06,220.19,176.61,220.25,176.29,219.9z"/>
						<path id="XMLID_3322_" style="fill:#263238;" d="M180.72,219.38c-0.33-0.35-0.41-0.99-0.18-1.41c0.23-0.43,0.67-0.48,1-0.13
							c0.33,0.36,0.41,0.99,0.18,1.41C181.49,219.68,181.04,219.73,180.72,219.38z"/>
						<path id="XMLID_3321_" style="fill:#263238;" d="M176.78,222.83c-0.33-0.35-0.41-0.99-0.18-1.41c0.23-0.43,0.67-0.48,1-0.13
							c0.33,0.36,0.41,0.99,0.18,1.41C177.55,223.13,177.1,223.18,176.78,222.83z"/>
						<path id="XMLID_3320_" style="fill:#263238;" d="M181.21,222.31c-0.33-0.36-0.41-0.99-0.18-1.41c0.23-0.43,0.67-0.48,1-0.13
							c0.33,0.35,0.41,0.99,0.18,1.41C181.98,222.61,181.53,222.67,181.21,222.31z"/>
					</g>
				</g>
			</g>
		</g>
		<path id="XMLID_3248_" style="fill:#FFA8A7;" d="M80.89,195.57c0,0,23.21,5.69,27.97,6.22c3.99,0.45,7.6-1.06,10.5-3.21
			c2.87-2.12,4.91-2.18,4.91-2.18c-0.19,0.63-0.93,3.27-1.01,5.37c1.24,1.46,3.07,0.29,3.07,0.29c0.11-0.89,0.15-1.84,0.45-2.83
			c3.29,1.22,5.02,2.74,4.44,4.9c-0.45,1.67-1.34,7.69-6.58,8.56c-4.26,0.7-12.33-0.5-17.69-1.9c-5.36-1.4-31.87,0.35-38.51-4.22
			c0,0,0-4.45,4.32-6.94C76.76,197.31,80.89,195.57,80.89,195.57z"/>
		<path id="XMLID_3247_" style="fill:#FFA8A7;" d="M81.36,154.58c-3.74,0.19-7.13,1.38-9.21,7.29c-2.59,7.34-5.48,41.75-3.7,44.7
			l12.04-7.39l2.21-19.56C89.38,173.87,87.33,156.65,81.36,154.58z"/>
		<g id="XMLID_3353_">
			<path id="XMLID_3354_" style="fill:#27DEBF;" d="M85.06,153.46c0,0,2.49,2.75,2.7,7.84c0.21,5.09-0.39,14.09-3.08,17.9
				l-2.35,11.84c0,0-10.73,2.62-15.57-3.56c0,0,2.45-25.54,7.14-30.88C77.66,152.33,85.06,153.46,85.06,153.46z"/>
		</g>
	</g>
</g>
</svg>
