<?xml version="1.0" encoding="utf-8"?>
<!-- Generator: Adobe Illustrator 22.1.0, SVG Export Plug-In . SVG Version: 6.00 Build 0)  -->
<svg version="1.1" xmlns="http://www.w3.org/2000/svg" xmlns:xlink="http://www.w3.org/1999/xlink" x="0px" y="0px"
	 viewBox="0 0 500 500" style="enable-background:new 0 0 500 500;" xml:space="preserve">
<style type="text/css">
	.st0{fill:#F5F5F5;}
	.st1{fill:#E0E0E0;}
	.st2{fill:#37474F;}
	.st3{fill:#FFFFFF;}
	.st4{fill:#455A64;}
	.st5{fill:#27DEBF;}
	.st6{opacity:0.81;fill:#E0E0E0;}
	.st7{opacity:0.15;}
	.st8{fill:#263238;}
	.st9{opacity:0.9;fill:#FFFFFF;}
	.st10{opacity:0.4;}
	.st11{fill:#F0F0F0;}
	.st12{opacity:0.5;fill:#455A64;}
	.st13{opacity:0.5;}
	.st14{font-family:'OpenSans-Bold';}
	.st15{font-size:24.2967px;}
	.st16{opacity:0.1;fill:#27DEBF;}
	.st17{opacity:0.15;fill:#27DEBF;}
	.st18{fill:#FFA8A7;}
	.st19{opacity:0.3;}
	.st20{fill:#F28F8F;}
	.st21{fill:#FFBDA7;}
	.st22{opacity:0.2;}
	.st23{opacity:0.6;}
	.st24{fill:#E6E6E6;}
	.st25{fill:#F79776;}
	.st26{opacity:0.25;}
	.st27{opacity:0.1;}
	.st28{fill:#914F4E;}
	.st29{fill:#783736;}
</style>
<g id="Floor">
	<ellipse id="Floor_6_" class="st0" cx="245" cy="349.7" rx="225" ry="129.9"/>
</g>
<g id="Shadows">
	<ellipse id="Shadow_11_" class="st1" cx="283.5" cy="397.2" rx="41.4" ry="23.9"/>
	<ellipse id="Shadow_28_" class="st1" cx="391.2" cy="383.1" rx="41.4" ry="23.9"/>
	<ellipse id="Shadow_29_" class="st1" cx="164.8" cy="433.1" rx="41.4" ry="23.9"/>
</g>
<g id="Plants">
	<g id="Plants_1_">
		<g id="XMLID_3168_">
			<path id="XMLID_3172_" class="st2" d="M97,354.5c0,0-1.1-25.3-11.7-39.3c-10.6-14.1-23.6-16.1-30-12.1c-4.7,2.9-4.1,11.4,4.1,17
				c8.1,5.6,23.8,19.8,26.2,29.1L97,354.5z"/>
			<g id="XMLID_3169_">
				<path id="XMLID_3170_" class="st3" d="M90,350.8c-0.4,0-0.6-0.3-0.6-0.7c1.1-22.9-19-37.2-24.5-39.8c-0.3-0.2-0.5-0.5-0.3-0.9
					c0.2-0.3,0.5-0.5,0.9-0.3c5.6,2.7,26.3,17.4,25.2,41C90.7,350.6,90.4,350.8,90,350.8C90,350.8,90,350.8,90,350.8z"/>
			</g>
		</g>
		<g id="XMLID_3162_">
			<path id="XMLID_3167_" class="st4" d="M92,346.5c-1.5-0.2-2.9-0.5-3.9-1.5c-1.2-1.4-1.1-3.4-1.7-5.2c-0.9-2.9-3.8-4.8-6.7-5.4
				s-6-0.1-8.9,0.6c-5.9,1.4-11.6-2.2-17.5-1.8c-2.1,0.2-4.3,0.7-6,1.9c-1.7,1.2-3,3.2-2.9,5.4c0.1,1.8,1.1,3.4,2.4,4.6
				c1.3,1.2,2.9,2,4.5,2.8c1.7,0.9,3.5,1.8,5.2,2.6c0.9,0.4,1.7,0.9,2.4,1.6c1.3,1.3,2.2,3.8,1.8,5.5c-0.4,2-2,3.5-2.5,5.5
				c-0.6,2.6,0.9,5.3,3.2,6.7c2.3,1.4,5,1.7,7.7,1.5c2.6-0.2,5.3-0.7,7.9-0.7c1.8,0,3.6,0.2,5.2,1.1c1.9,1.1,2.9,3.2,3.6,5.3
				c0.4,1.3,0.8,2.7,1.6,3.9c0.9,1.2,2.2,2,3.5,2.5c2.6,1,5.7,1,8.3,0c2.2-0.8,3.3-3.3,4.1-5.4c0.8-2.1,1.2-4.7,1.2-7
				c-0.2-6-1.5-12.4-4.1-17.7c-1.2-2.6-3-5.1-5.7-6C93.8,346.8,92.9,346.7,92,346.5z"/>
			<g id="XMLID_3165_">
				<path id="XMLID_3166_" class="st3" d="M97.7,374c-0.2,0-0.5-0.2-0.6-0.4c-6.2-17.7-35.4-33.1-46-34.8c-0.3-0.1-0.5-0.4-0.5-0.7
					c0.1-0.3,0.4-0.5,0.7-0.5c10.9,1.8,40.6,17.5,47,35.6c0.1,0.3-0.1,0.6-0.4,0.7C97.8,374,97.7,374,97.7,374z"/>
			</g>
			<g id="XMLID_3163_">
				<path id="XMLID_3164_" class="st3" d="M71.4,364.3c-0.2,0-0.3-0.1-0.5-0.2c-0.2-0.3-0.1-0.6,0.1-0.8c0.3-0.2,6.6-5,16.2-5.2h0
					c0.3,0,0.6,0.3,0.6,0.6c0,0.3-0.2,0.6-0.6,0.6c-9.2,0.2-15.5,4.9-15.5,5C71.7,364.3,71.6,364.3,71.4,364.3z"/>
			</g>
		</g>
	</g>
</g>
<g id="Window">
	<g id="XMLID_3538_">
		<g id="XMLID_4068_">
			<path id="XMLID_4261_" class="st4" d="M98,387.7c-1.2-0.7-2.1-2.4-2.1-3.8l0-208.4c0-1.4,1-3.2,2.3-3.9L343.3,30
				c1.2-0.7,3.2-0.8,4.4-0.1c1.2,0.7,2.1,2.4,2.1,3.8l0,208.4c0,1.4-1,3.2-2.3,3.9L102.4,387.6C101.1,388.3,99.2,388.4,98,387.7z"/>
			<path id="XMLID_4259_" class="st5" d="M101.9,387.8C101.9,387.8,101.9,387.8,101.9,387.8c-0.2,0.1-0.2,0.1-0.3,0.1
				c-0.1,0-0.1,0-0.2,0.1c-0.1,0-0.2,0.1-0.3,0.1c-0.1,0-0.1,0-0.2,0c-0.1,0-0.2,0-0.3,0.1c-0.9,0.1-1.9,0-2.6-0.4
				c-1.2-0.7-2.1-2.4-2.1-3.8l0-181.7l4.2,2.4v181.7c0,1,0.5,1.6,1.3,1.6c0.1,0,0.2,0,0.3,0c0,0,0,0,0.1,0
				C101.8,387.8,101.9,387.8,101.9,387.8z"/>
			<path id="XMLID_2826_" class="st6" d="M101.9,387.8C101.9,387.8,101.9,387.8,101.9,387.8c-0.2,0.1-0.2,0.1-0.3,0.1
				c-0.1,0-0.1,0-0.2,0.1c-0.1,0-0.2,0.1-0.3,0.1c-0.1,0-0.1,0-0.2,0c-0.1,0-0.2,0-0.3,0.1c-0.9,0.1-1.9,0-2.6-0.4
				c-1.2-0.7-2.1-2.4-2.1-3.8l0-181.7l4.2,2.4v181.7c0,1,0.5,1.6,1.3,1.6c0.1,0,0.2,0,0.3,0c0,0,0,0,0.1,0
				C101.8,387.8,101.9,387.8,101.9,387.8z"/>
			<polygon id="XMLID_2360_" class="st5" points="100.1,204.6 95.9,202.2 95.9,242.5 100.1,245 			"/>
			<polygon id="XMLID_2359_" class="st7" points="100.1,204.6 95.9,202.2 95.9,242.5 100.1,245 			"/>
			<path id="XMLID_4258_" class="st8" d="M100.8,175.7c-0.4,0.7-0.7,1.5-0.7,2.2v26.7l-4.2-2.4v-26.7c0-0.1,0-0.2,0-0.3
				c0-0.2,0.1-0.4,0.1-0.6c0.1-0.5,0.3-1,0.6-1.4L100.8,175.7z"/>
			<path id="XMLID_4257_" class="st2" d="M349.8,33.8v12.1L170.1,149.6c-1.2,0.7-2.3,0.1-2.3-1.3v-4.6c0-1.4-1-2-2.3-1.3L110.8,174
				c-1.3,0.7-2.3,2.5-2.3,3.9v4.6c0,1.4-1,3.2-2.3,3.9l-6.2,3.6v-12.1c0-1.4,1-3.2,2.3-3.9L347.5,32.4
				C348.8,31.7,349.8,32.3,349.8,33.8z"/>
			<path id="XMLID_4256_" class="st5" d="M349.8,242.1c0,1.4-1,3.2-2.3,3.9L102.4,387.6c-1.2,0.7-2.3,0.1-2.3-1.3V190l6.2-3.6
				c1.2-0.7,3.3-11.7,4.5-12.4l53.8-31.1c1.3-0.7,4.2,7.4,5.4,6.6L349.8,45.8v14.7L349.8,242.1z"/>
			<path id="XMLID_2824_" class="st9" d="M349.8,242.1c0,1.4-1,3.2-2.3,3.9L102.4,387.6c-1.2,0.7-2.3,0.1-2.3-1.3V190l6.2-3.6
				c1.2-0.7,3.3-11.7,4.5-12.4l53.8-31.1c1.3-0.7,4.2,7.4,5.4,6.6L349.8,45.8v14.7L349.8,242.1z"/>
			<g id="XMLID_3171_" class="st10">
				<path class="st5" d="M348.8,47.5v12.9l0,181.7c0,1.1-0.8,2.5-1.8,3L101.9,386.7c-0.3,0.2-0.4,0.2-0.5,0.2
					c-0.2,0-0.2-0.5-0.2-0.6V190.5l5.7-3.3c0.9-0.5,1.4-2.3,2.7-6.8c0.6-2,1.4-5.1,1.9-5.7l53.4-30.8c0.5,0.5,1.2,1.9,1.7,2.7
					c1.4,2.5,2.2,3.9,3.4,3.9c0.2,0,0.5-0.1,0.7-0.2L348.8,47.5 M349.8,45.8L170.1,149.6c-0.1,0-0.1,0-0.2,0c-1.3,0-3.8-6.7-5.1-6.7
					c-0.1,0-0.1,0-0.2,0L110.8,174c-1.3,0.7-3.3,11.7-4.5,12.4l-6.2,3.6v196.3c0,1,0.5,1.6,1.2,1.6c0.3,0,0.6-0.1,1-0.3l245.2-141.5
					c1.3-0.7,2.3-2.5,2.3-3.9l0-181.7V45.8L349.8,45.8z"/>
			</g>
			<polygon id="XMLID_2357_" class="st5" points="100.1,204.6 100.1,245 349.8,100.9 349.8,60.5 			"/>
			<path id="XMLID_4249_" class="st11" d="M349.8,45.8v14.7L100.1,204.6V190l4.6-2.7c1.2-0.7,1.7-1.8,2.3-3.9l1.6-5.5
				c0.5-1.9,1-3.2,2.3-3.9l53.8-31.1c1.3-0.7,2.2-0.8,3.2,0.8l1.9,3.5c0.7,1.2,1.1,1.9,2.3,1.2L349.8,45.8z"/>
			<g id="XMLID_4245_">
				<path id="XMLID_4248_" class="st5" d="M339.2,41.3c1.6-0.9,2.8-0.2,2.8,1.6s-1.3,4-2.8,4.9c-1.6,0.9-2.8,0.2-2.8-1.6
					C336.4,44.4,337.6,42.2,339.2,41.3z"/>
				<path id="XMLID_4247_" class="st5" d="M329,47.2c1.6-0.9,2.8-0.2,2.8,1.6c0,1.8-1.3,4-2.8,4.9c-1.6,0.9-2.8,0.2-2.8-1.6
					C326.1,50.3,327.4,48.1,329,47.2z"/>
				<path id="XMLID_4246_" class="st5" d="M318.8,53.1c1.6-0.9,2.8-0.2,2.8,1.6c0,1.8-1.3,4-2.8,4.9c-1.6,0.9-2.8,0.2-2.8-1.6
					C315.9,56.2,317.2,54,318.8,53.1z"/>
			</g>
			<path id="XMLID_4244_" class="st12" d="M110.5,191l-3.5,2l1.3-2.6c0.1-0.2,0.1-0.5,0-0.6c-0.1-0.1-0.3,0-0.4,0.2l-1.9,3.7
				c0,0,0,0,0,0c0,0,0,0.1-0.1,0.1c0,0,0,0,0,0c0,0.1,0,0.1,0,0.2c0,0.1,0,0.1,0,0.2c0,0,0,0,0,0c0,0,0,0.1,0.1,0.1c0,0,0,0,0,0
				l1.9,1.5c0.1,0,0.1,0,0.2,0c0.1,0,0.2-0.1,0.2-0.3c0.1-0.2,0.1-0.5,0-0.6l-1.3-1l3.5-2c0.2-0.1,0.3-0.4,0.3-0.6
				C110.7,191,110.6,190.9,110.5,191z"/>
			<path id="XMLID_4223_" class="st12" d="M113.4,189.3l3.5-2l-1.4-1c-0.1-0.1-0.1-0.4,0-0.6c0.1-0.2,0.3-0.4,0.4-0.3l1.9,1.5
				c0,0,0,0,0,0c0,0,0,0,0.1,0.1c0,0,0,0,0,0c0,0,0,0.1,0,0.2c0,0.1,0,0.1,0,0.2c0,0,0,0,0,0c0,0,0,0.1-0.1,0.1c0,0,0,0,0,0
				l-1.9,3.7c-0.1,0.1-0.1,0.2-0.2,0.2c-0.1,0-0.2,0-0.2,0c-0.1-0.1-0.1-0.4,0-0.6l1.4-2.6l-3.5,2c-0.2,0.1-0.3,0-0.3-0.3
				C113.1,189.7,113.3,189.4,113.4,189.3z"/>
			<path id="XMLID_4222_" class="st12" d="M125,179.1c0-0.2-0.2-0.2-0.3,0l-0.5,1.2c-0.8-0.1-1.8,0.7-2.5,2.2
				c-0.9,1.9-0.9,4.1,0,4.9c0.4,0.4,1,0.4,1.6,0.1c0.6-0.3,1.2-1,1.6-1.9c0.1-0.2,0.1-0.5,0-0.6c-0.1-0.1-0.3,0-0.4,0.2
				c-0.7,1.4-1.7,2-2.4,1.4c-0.7-0.6-0.7-2.3,0-3.7c0.5-1,1.1-1.6,1.7-1.6l-0.4,0.9c-0.1,0.2,0,0.4,0.1,0.4l1.4-0.9
				c0.1-0.1,0.2-0.2,0.2-0.4L125,179.1z"/>
			<path id="XMLID_4221_" class="st12" d="M163.1,149.6l1.3-2.7c0.2-0.3,0.2-0.7,0-0.9c-0.2-0.1-0.4,0-0.6,0.3l-1.3,2.7l-1.3-1.2
				c-0.2-0.1-0.4,0-0.6,0.3c-0.2,0.3-0.2,0.7,0,0.9l1.3,1.2l-1.3,2.7c-0.2,0.3-0.2,0.7,0,0.9c0.1,0.1,0.2,0.1,0.3,0
				c0.1-0.1,0.2-0.2,0.3-0.3l1.3-2.7l1.3,1.2c0.1,0.1,0.2,0.1,0.3,0c0.1-0.1,0.2-0.2,0.3-0.3c0.2-0.3,0.2-0.7,0-0.9L163.1,149.6z"/>
			<path id="XMLID_4220_" class="st3" d="M129.7,182.5v-4.6c0-1.4,1-3.2,2.3-3.9L334.8,56.9c1.2-0.7,2.3-0.1,2.3,1.3l0,4.6
				c0,1.4-1,3.2-2.3,3.9L132,183.8C130.7,184.5,129.7,183.9,129.7,182.5z"/>
			<g id="XMLID_4216_">
				<path id="XMLID_4217_" class="st1" d="M331.8,67c-0.1,0-0.1,0-0.2,0c-0.2-0.1-0.3-0.3-0.3-0.6l0.2-1.9c0,0,0,0,0,0l-0.9-0.7
					c-0.1-0.1-0.2-0.2-0.2-0.4c0-0.3,0.1-0.6,0.3-0.7l1.3-1c0,0,0.1-0.1,0.1-0.2l0.6-1.9c0.1-0.3,0.3-0.5,0.6-0.6
					c0.2,0,0.3,0.1,0.4,0.3v0l0.5,1.1l1.2-0.5c0.2-0.1,0.4,0,0.5,0.1c0.2,0.2,0.2,0.5,0,0.8l-1,1.8c0,0.1,0,0.1,0,0.2l0.2,1.6
					c0,0.3-0.1,0.6-0.3,0.7c-0.1,0.1-0.3,0.2-0.4,0.2l-1.2-0.1l-1.2,1.5C332.1,66.9,331.9,67,331.8,67z M331,63.3l0.9,0.7
					c0.2,0.1,0.2,0.3,0.2,0.5l-0.2,1.6l1-1.3c0.1-0.2,0.3-0.3,0.5-0.3l1.2,0.1c0,0,0.1-0.2,0-0.2l-0.2-1.6c0-0.2,0-0.4,0.1-0.5
					l1-1.8l-1.1,0.4c-0.2,0.1-0.5,0-0.6-0.2l-0.5-1c0,0,0,0,0,0l-0.6,1.9c-0.1,0.2-0.2,0.3-0.3,0.4l-1.3,1
					C331.1,63.2,331,63.3,331,63.3z"/>
			</g>
			<g id="XMLID_4071_" class="st13">
				<g id="XMLID_4207_">
					<path id="XMLID_4214_" class="st4" d="M339.7,56.4c-0.3,0-0.5-0.1-0.7-0.4c-0.2-0.4-0.1-0.9,0.3-1.1l6.3-3.7
						c0.4-0.2,0.9-0.1,1.1,0.3c0.2,0.4,0.1,0.9-0.3,1.1l-6.3,3.7C340,56.3,339.9,56.4,339.7,56.4z"/>
				</g>
				<g id="XMLID_4201_">
					<path id="XMLID_4203_" class="st4" d="M339.7,60c-0.3,0-0.5-0.1-0.7-0.4c-0.2-0.4-0.1-0.9,0.3-1.1l6.3-3.7
						c0.4-0.2,0.9-0.1,1.1,0.3c0.2,0.4,0.1,0.9-0.3,1.1l-6.3,3.7C340,60,339.9,60,339.7,60z"/>
				</g>
				<g id="XMLID_4072_">
					<path id="XMLID_4073_" class="st4" d="M339.7,63.7c-0.3,0-0.5-0.1-0.7-0.4c-0.2-0.4-0.1-0.9,0.3-1.1l6.3-3.7
						c0.4-0.2,0.9-0.1,1.1,0.3c0.2,0.4,0.1,0.9-0.3,1.1l-6.3,3.7C340,63.7,339.9,63.7,339.7,63.7z"/>
				</g>
			</g>
			<polygon id="XMLID_4070_" class="st1" points="100.1,190 100.1,204.6 95.9,202.2 95.9,187.5 			"/>
		</g>
		<text id="XMLID_3803_" transform="matrix(0.6495 -0.375 0 1 264.8405 137.6673)" class="st4 st14 st15">About us</text>
		<g id="XMLID_3542_">
			<polygon id="XMLID_3210_" class="st16" points="110.9,254.5 180,214.6 180,327.2 110.7,367 			"/>
			<g id="XMLID_3281_">
				<path id="XMLID_3211_" class="st17" d="M195.2,207.9l83.3-48.1c1.7-1,3-0.2,3,1.6c0,1.9-1.4,4.2-3,5.2l-83.3,48.6
					c-1.7,1-3,0.2-3-1.7l0-0.3C192.2,211.2,193.5,208.9,195.2,207.9z"/>
				<path id="XMLID_3279_" class="st16" d="M194.3,222.5l137.8-79.6c1.2-0.7,2.2-0.2,2.2,1.1c0,1.3-1,2.9-2.2,3.6l-137.8,79.6
					c-1.2,0.7-2.2,0.2-2.2-1.1C192.2,224.8,193.1,223.2,194.3,222.5z"/>
				<path id="XMLID_3283_" class="st16" d="M194.3,231.9l137.8-79.6c1.2-0.7,2.2-0.2,2.2,1.1c0,1.3-1,2.9-2.2,3.6l-137.8,79.6
					c-1.2,0.7-2.2,0.2-2.2-1.1S193.1,232.6,194.3,231.9z"/>
				<path id="XMLID_3291_" class="st16" d="M194.3,241.3l137.8-79.6c1.2-0.7,2.2-0.2,2.2,1.1c0,1.3-1,2.9-2.2,3.6L194.3,246
					c-1.2,0.7-2.2,0.2-2.2-1.1C192.2,243.6,193.1,242,194.3,241.3z"/>
				<path id="XMLID_3292_" class="st16" d="M194.3,250.8l137.8-79.6c1.2-0.7,2.2-0.2,2.2,1.1c0,1.3-1,2.9-2.2,3.6l-137.8,79.6
					c-1.2,0.7-2.2,0.2-2.2-1.1C192.2,253.1,193.1,251.4,194.3,250.8z"/>
				<path id="XMLID_3293_" class="st16" d="M194.3,260.2l96.2-56c1.2-0.7,2.2-0.2,2.2,1.1c0,1.3-1,2.9-2.2,3.6l-96.2,56
					c-1.2,0.7-2.2,0.2-2.2-1.1S193.1,260.9,194.3,260.2z"/>
				<path id="XMLID_3543_" class="st16" d="M194.3,279l137.8-79.6c1.2-0.7,2.2-0.2,2.2,1.1c0,1.3-1,2.9-2.2,3.6l-137.8,79.6
					c-1.2,0.7-2.2,0.2-2.2-1.1S193.1,279.7,194.3,279z"/>
				<path id="XMLID_3544_" class="st16" d="M194.3,288.4l137.8-79.6c1.2-0.7,2.2-0.2,2.2,1.1c0,1.3-1,2.9-2.2,3.6l-137.8,79.6
					c-1.2,0.7-2.2,0.2-2.2-1.1S193.1,289.1,194.3,288.4z"/>
				<path id="XMLID_3553_" class="st16" d="M194.3,297.8l137.8-79.6c1.2-0.7,2.2-0.2,2.2,1.1c0,1.3-1,2.9-2.2,3.6l-137.8,79.6
					c-1.2,0.7-2.2,0.2-2.2-1.1C192.2,300.1,193.1,298.5,194.3,297.8z"/>
				<path id="XMLID_3554_" class="st16" d="M194.3,307.3l50.6-29.6c1.2-0.7,2.2-0.2,2.2,1.1c0,1.3-1,2.9-2.2,3.6l-50.6,29.6
					c-1.2,0.7-2.2,0.2-2.2-1.1S193.1,307.9,194.3,307.3z"/>
			</g>
		</g>
	</g>
</g>
<g id="Character_3">
	<g id="XMLID_3461_">
		<g id="XMLID_3988_">
			<path id="XMLID_3991_" class="st18" d="M378.5,253.2c7.3-23.8,14.5-39.4,7.2-44.3l0,0c-6.8,1.3-9.8,4.6-11.2,13.5
				c-1.5,9.4-4.6,22.4-6.5,29.9c-1.5,6-4.3,13.6-6.8,18.2c-0.4,0.8-1.2,1.4-2,1.8c-2.3,0.9-3.3,2-5.2,3.4c-1.4,1-2.5,1.1-2.4,1.6
				c0.1,0.6,0.7,1.6,2.3,1.4c0.8-0.1,1.8-0.5,3.2-1c0,0-1.3,3.6-3.9,5.8c-3.5,3-3,5.9,2.7,6.3c2,0.1,6.8-1.7,11.2-9.2
				c1.3-2.2,2.7-5.7,3.9-8.6C373.9,264.1,377.1,258,378.5,253.2z"/>
			<path id="XMLID_3990_" class="st5" d="M387,208.6c0,0-5.6-0.3-9.1,3.5c-3.4,3.8-7.4,26.3-7.4,26.3s3.7,5.1,13.6,3L387,208.6z"/>
			<path id="XMLID_3989_" class="st19" d="M387,208.6c0,0-5.6-0.3-9.1,3.5c-3.4,3.8-7.4,26.3-7.4,26.3s3.7,5.1,13.6,3L387,208.6z"/>
		</g>
		<g id="XMLID_3945_">
			<rect id="XMLID_3987_" x="405.8" y="368.4" class="st18" width="7.6" height="13.5"/>
			<polygon id="XMLID_3986_" class="st18" points="387.2,367.7 379.6,367.9 379.2,353.6 387.2,353.4 			"/>
			<path id="XMLID_3985_" class="st2" d="M414.5,251.5c0,7.5-1.1,68.1-1.1,68.1c0.2,2.2,2.1,6.2,1.7,14.5c-0.6,11.3-1.3,41-1.3,41
				s-3.7,2.2-8.4,0.2c0,0-7.2-41.1-8.5-52.4c-1.2-9.8-3.2-42.7-3.2-42.7l-4.1,38.3c0,0,1.4,5.8,0.9,12.5c-0.4,5.2-2.8,32.2-2.8,32.2
				s-3.6,2.5-8.7,0.7c0,0-4.3-40.6-4.4-45.4c-0.1-5.4,2.5-67.1,2.5-67.1L414.5,251.5z"/>
			<path id="XMLID_3984_" class="st8" d="M405.8,378v-1.1c-0.7,0.3-2.4,7-5.4,9.9c-2.4,2.3-5.6,4.9-6.5,7.4
				c-0.9,2.6,4.5,4.1,6.8,3.7c2.6-0.5,7.1-2.4,8.2-4.1c1.1-1.8,1.7-4.4,2.6-5.7c0.9-1.3,3-2.7,3.5-4.2c0.3-0.8-0.1-2.6-0.4-4.1
				c-0.4-1.4-0.7-2.9-1.2-2.8c0,0.2,0,0.9,0,0.9c-0.5,0.6-2.1,1.3-3.8,1.3C408.5,379.1,405.8,378.9,405.8,378z"/>
			<path id="XMLID_3983_" class="st8" d="M379.5,365.5c-0.4,0-0.7,0.6-1.6,1.6c-1,1.2-2.8,2.5-4.5,3.3c-2.8,1.5-8.3,3.8-10.8,4.9
				c-1.6,0.7-1.5,2.7,0.1,3.8c1.6,1.1,5.5,1.9,10.2,0.8c2.5-0.6,5.9-3,8-2.9c2.1,0.1,6,0.1,7.6-1c1.5-1.1,0.9-3.5,0.5-5.5
				c-0.5-2.2-1.1-5.7-1.8-5.5v0.8c-0.9,1.4-5.6,2-7.6,1L379.5,365.5z"/>
			<path id="XMLID_3980_" class="st8" d="M393.6,280.3c0,0-6.1-1.8-10.5-6.3c0,0,2,4,8.1,7.7l-1.3,34.2L393.6,280.3z"/>
		</g>
		<g id="XMLID_3920_">
			<path id="XMLID_3931_" class="st5" d="M410.5,210.4c0,0,5.9,0.5,5.5,11.8l-1.3,18l0,27c-5.6,6.3-30.3,5.8-38.7-0.5
				c0,0,1-31.9,1.5-44.2c0.4-8.7,2.4-13.1,11-14.1l10.6,0.5L410.5,210.4z"/>
			<polygon id="XMLID_3921_" class="st19" points="393.7,216.3 392.4,225.8 389.2,225.8 392.8,226.3 			"/>
		</g>
		<g id="XMLID_3860_">
			<path id="XMLID_3880_" class="st8" d="M401.6,185c0,6.5-5,11.7-11.3,11.7s-11-5.3-11.3-11.7c-0.5-11.5,5-11.7,11.3-11.7
				S401.6,178.5,401.6,185z"/>
			<g id="XMLID_3871_">
				<path id="XMLID_3879_" class="st8" d="M408,190.8c0,0-1.7,8.5-2.4,9.9c-0.7,1.4-2.1,1.8-2.1,1.8l0.1-6L408,190.8z"/>
				<path id="XMLID_3878_" class="st8" d="M405.9,178.7c0,0,1.2-0.3,2.6,1.7c1.1,1.8,1.4,5.7-0.4,10.4l-3.3,0.4L405.9,178.7z"/>
				<path id="XMLID_3877_" class="st18" d="M403.8,191.2c0.7,0.4,1.6-0.9,2.4-1.8c0.8-0.9,3.4-2.1,4.7,0.8c1.3,2.9-1.2,6.8-3.2,7.5
					c-3.6,1.2-4.1-1.2-4.1-1.2l-0.3,13.4c-4.7,7.3-15.5,7.1-11.6-0.4l0-4.1c0,0-3.2,0.5-4.8,0.3c-2.6-0.4-4.3-2.6-5.1-5.5
					c-1.3-4.8-1.8-8.6-0.7-17.9c1.2-10.2,12.6-10.3,18.8-6.3C406.2,180,403.8,191.2,403.8,191.2z"/>
				<path id="XMLID_3876_" class="st8" d="M403.4,206.9c0,0-1.7,3.6-4.6,5.8c-2.7,2-5.6,2.4-5.6,2.4s2.8,1.8,4,4.4
					c1.2,2.6,9.5-4.6,9.4-9.7c0,0-1.3-5.1-3.1-5.4L403.4,206.9z"/>
				<path id="XMLID_3875_" class="st8" d="M393.1,215.1c0,0-2.6-1.3-1.4-5.5l0-4.1l-1.1,0.2c-0.9,0.8-2.3,2.6-2.7,4.7
					c-0.3,1.2-0.9,7.1,0.2,8.3C389.2,219.6,390.8,215.4,393.1,215.1z"/>
				<path id="XMLID_3874_" class="st8" d="M399.4,180c0.3,0,0.6-0.1,0.9,0.1c1,0.4,1.2,3.5,1.3,4.3c0.6,2.9,1,7.9,2.2,7.9
					c0.3,0,1.6-2.2,2.4-2.9c1.1-1.1-0.3-10.7-0.3-10.7s1.1-2.4-1.1-4.9c-2-2.3-5.2-2.8-8.1-3c-3.4-0.2-6.9,0.1-10.3-0.7
					c-1.1-0.2-2.1-0.6-3.2-0.7c-0.1,0-0.2,0-0.3,0c-0.1,0.1-0.1,0.3-0.1,0.4c0.2,1,0.6,2,1.1,2.9c-2-0.2-4-0.6-5.9-1.2
					c-0.1,0-0.2-0.1-0.3,0c-0.2,0.1-0.3,0.4-0.3,0.6c0.1,2.4,1.3,6.1,3.3,7.5c1.5,1.1,4,1.8,5.9,1.8
					C391.7,181.7,395,180.6,399.4,180z"/>
				<path id="XMLID_3873_" class="st8" d="M405.9,179.2l3.9-2.2c-0.6-1.2-1.9-1.6-3-1C405.7,176.6,405.3,178,405.9,179.2z"/>
				<path id="XMLID_3872_" class="st20" d="M391.7,205.5c0,0,5.9-1.2,7.9-2.4c1.4-0.8,2.5-2.1,2.8-2.9c0,0-0.4,1.8-1.6,3.4
					c-1.5,2-9.1,3.5-9.1,3.5L391.7,205.5z"/>
			</g>
			<g id="XMLID_3861_">
				<path id="XMLID_3870_" class="st8" d="M393.1,189.7c0,0.7,0.5,1.3,1.2,1.3c0.6,0,1.2-0.6,1.2-1.3c0-0.7-0.5-1.3-1.2-1.3
					C393.7,188.4,393.1,189,393.1,189.7z"/>
				<path id="XMLID_3869_" class="st8" d="M395,184.6l2.5,1.4c0.4-0.8,0.1-1.7-0.6-2.1C396.3,183.6,395.4,183.9,395,184.6z"/>
				<path id="XMLID_3868_" class="st20" d="M392.3,198.1l-2.7,1c0.3,0.8,1.1,1.2,1.8,0.9C392.1,199.8,392.5,198.9,392.3,198.1z"/>
				<path id="XMLID_3864_" class="st8" d="M382.4,185.7l2.3-1.8c-0.5-0.7-1.4-0.8-2-0.3C382,184,381.9,185,382.4,185.7z"/>
				<path id="XMLID_3863_" class="st8" d="M383.4,189.3c0,0.7,0.5,1.3,1.2,1.3c0.6,0,1.2-0.6,1.2-1.3c0-0.7-0.5-1.3-1.2-1.3
					C383.9,188.1,383.4,188.6,383.4,189.3z"/>
				<polygon id="XMLID_3862_" class="st20" points="389.7,188.3 389.5,195.8 385.3,194.8 				"/>
			</g>
		</g>
		<g id="XMLID_3463_">
			<path id="XMLID_3856_" class="st5" d="M422.1,195.8c1.7-2.2,5.1,2.7,6.7,6.2c1.6,3.4,1.6,5.4,0.3,6.7c-1.3,1.4-3.7,0.5-6.2-2.7
				C420.4,202.7,421.1,197.5,422.1,195.8z"/>
			<path id="XMLID_3854_" class="st13" d="M422.1,195.8c1.7-2.2,5.1,2.7,6.7,6.2c1.6,3.4,1.6,5.4,0.3,6.7c-1.3,1.4-3.7,0.5-6.2-2.7
				C420.4,202.7,421.1,197.5,422.1,195.8z"/>
			<g id="XMLID_3852_">
				<path id="XMLID_3853_" class="st18" d="M434,196.5c-6,14-14.3,21.9-18.1,30.9c-4.9-0.3-8.7-12.2-5.1-17.3
					c0,0,14.4-15.6,15.7-21.7c1.2-5.4,2.7-14.4,2.6-19c0-0.8-0.4-1.5-0.9-2c-1.5-1.6-1.5-2.9-2.5-4.7c-0.8-1.4-1.6-1.9-1.3-2.2
					c0.3-0.4,1.3-0.9,2.4-0.2c0.6,0.4,1,0.8,1.9,1.8c0,0,0.4-2.5-0.8-5.3c-1.7-3.8-1.3-5.7,3.8-4.4c3.2,0.8,5.2,3.5,5.7,11.2
					c0.1,2.2,0.3,6.8,0.1,9.6c-0.6,5.9-0.9,12.1-1.6,17C435.4,192.3,434.8,194.4,434,196.5z"/>
			</g>
			<path id="XMLID_3683_" class="st5" d="M409.3,210.3l12.7-14.5c0,0-1.5,3.5,1.8,8.7c3.3,5.1,5.3,4.3,5.3,4.3s-7.5,10.9-9.5,14.6
				c-2,3.7-4.1,6.7-4.1,6.7s-0.5,1.3-2.4,1.3C411.2,231.3,406.3,223.1,409.3,210.3z"/>
			<path id="XMLID_3464_" class="st19" d="M409.3,210.3l12.7-14.5c0,0-1.5,3.5,1.8,8.7c3.3,5.1,5.3,4.3,5.3,4.3s-7.5,10.9-9.5,14.6
				c-2,3.7-4.1,6.7-4.1,6.7s-0.5,1.3-2.4,1.3C411.2,231.3,406.3,223.1,409.3,210.3z"/>
		</g>
	</g>
</g>
<g id="Character_2">
	<g id="XMLID_3992_">
		<g id="XMLID_4622_">
			<g id="XMLID_4625_">
				<polygon id="XMLID_4626_" class="st20" points="306.4,242.8 312.4,250.8 306,258.2 297.7,248.5 				"/>
			</g>
			<g id="XMLID_4623_">
				<path id="XMLID_4624_" class="st4" d="M286.9,224.8c5.2,0.2,7.7,1,10.4,4.3c2.7,3.1,16.4,22.9,16.4,22.9s-2.4,6.8-7.7,6.2
					l-9.6-9.9L286.9,224.8z"/>
			</g>
		</g>
		<g id="XMLID_4609_">
			<g id="XMLID_4617_">
				<path id="XMLID_4619_" class="st8" d="M261.3,389.9c-0.2,1.3-0.5,2.7-0.6,6.3c-0.1,3.8-0.8,5.2-0.9,8.3c-0.1,3.6,0.5,4.9,2,6.9
					c1.4,2,5.3,3.8,6.9,0.4c1.6-3.4,1.4-5.6,0.9-9.1c-0.5-3.6-0.6-5.6-0.9-8.4c-0.3-2.4-0.6-4.3-0.6-4.3L261.3,389.9z"/>
				<path id="XMLID_4618_" class="st21" d="M272.1,360l-12.5-0.2c0.2,8.4,1.5,22.3,1.7,30.2c0,1.5,0,11.5,0.5,14.5
					c0.8,4.6,6.3,4,6.6,1.2c0.3-2.7-0.3-14.4-0.3-15.6c0-5,2.3-18.2,3.6-27.2C271.7,362.3,272.1,360.4,272.1,360z"/>
			</g>
			<g id="XMLID_4612_">
				<path id="XMLID_4614_" class="st8" d="M290.6,383.4c0,0-0.6,0-0.8,0.6c-0.1,0.6-0.1,1.6-0.4,2.7c-0.4,1.4-0.7,3.8-0.4,5
					c0.2,1.2,2.9,2.9,4.7,3.2c1.8,0.3,4.4,2.1,5.8,3.5c1.8,1.6,5.5,3.2,8.1,3.2c3,0,5.2-1,6.2-2.6c1-1.7-0.9-1.8-4.4-4.1
					c-0.8-0.5-1.7-1.1-2.7-1.8c-5.5-3.6-7.5-5.5-9.1-9.1L290.6,383.4z"/>
				<path id="XMLID_4613_" class="st21" d="M297.6,381.4c-0.1-2.6,1.2-21.7,1.2-21.7l-10.8,1.2c2.6,15.2,2.8,20.4,2.5,22.6l0,0
					c0,0.1-0.1,0.3-0.1,0.6c0,3,3.3,4.6,6,6.5c1,0.8,3.7,3.2,6.8,4.2c2,0.7,5.7,0.9,6.2-0.3c-3.2-2.4-7.5-5.6-10-8.3
					C298.2,385,297.7,384,297.6,381.4z"/>
			</g>
			<path id="XMLID_4611_" class="st5" d="M262.5,273.4c-5.9,12.9,0.2,58.1,0.2,58.1c-0.2,2.1-2.6,6.2-3.5,15.4
				c-1,10.8,1.9,39.9,1.9,39.9s2.9,2.1,7,0.1c0,0,7.6-42.7,9-53.5c1.2-9.4,3.5-30.1,3.5-30.1l6.5,30.1c0,0-1.7,5.3-2.1,9.3
				c-0.6,6.3,5.6,38.2,5.6,38.2s2.9,1.5,7-0.1c0,0,2.7-41.1,3.3-48.8c1-12.8-2.4-52.9-4.8-60.5L262.5,273.4z"/>
			<path id="XMLID_3191_" class="st13" d="M262.5,273.4c-5.9,12.9,0.2,58.1,0.2,58.1c-0.2,2.1-2.6,6.2-3.5,15.4
				c-1,10.8,1.9,39.9,1.9,39.9s2.9,2.1,7,0.1c0,0,7.6-42.7,9-53.5c1.2-9.4,3.5-30.1,3.5-30.1l6.5,30.1c0,0-1.7,5.3-2.1,9.3
				c-0.6,6.3,5.6,38.2,5.6,38.2s2.9,1.5,7-0.1c0,0,2.7-41.1,3.3-48.8c1-12.8-2.4-52.9-4.8-60.5L262.5,273.4z"/>
			<path id="XMLID_4610_" class="st22" d="M280.6,303.3l1.9-11.9c0,0,8.1-1.7,11.8-5.1c0,0-3.8,4.8-9.6,6.4l-2.1,9.2l3.8,27.8
				L280.6,303.3z"/>
		</g>
		<g id="XMLID_4360_">
			<g id="XMLID_4362_">
				<path id="XMLID_4377_" class="st5" d="M265.5,233.4l8,2.1v-16.9l0,0c-4.4-1.2-8,1.4-8,5.7V233.4z"/>
				<path id="XMLID_6_" class="st23" d="M265.5,233.4l8,2.1v-16.9l0,0c-4.4-1.2-8,1.4-8,5.7V233.4z"/>
				<path id="XMLID_4608_" class="st5" d="M281.3,221l-2.9-0.1c-8.8-0.2-15.7-7.8-15.5-16.9l0,0c0-9.9,7.7-18,17.2-18.1l0,0
					c9.5-0.1,17.3,8,17.4,17.9l0,1C297.3,214,290.1,221.2,281.3,221z"/>
				<path id="XMLID_5_" class="st23" d="M281.3,221l-2.9-0.1c-8.8-0.2-15.7-7.8-15.5-16.9l0,0c0-9.9,7.7-18,17.2-18.1l0,0
					c9.5-0.1,17.3,8,17.4,17.9l0,1C297.3,214,290.1,221.2,281.3,221z"/>
				<path id="XMLID_2865_" class="st5" d="M267.9,190.1c-0.3-1.2-1.6-1.9-2.8-1.6l0.8,3c-0.2-0.2-0.4-0.4-0.6-0.5
					c-1.1-0.6-2.4-0.2-3,1l3.9,2.3c0.2-0.4,0.3-0.8,0.3-1.3C267.6,192.5,268.2,191.3,267.9,190.1z"/>
				<path id="XMLID_1_" class="st23" d="M267.9,190.1c-0.3-1.2-1.6-1.9-2.8-1.6l0.8,3c-0.2-0.2-0.4-0.4-0.6-0.5
					c-1.1-0.6-2.4-0.2-3,1l3.9,2.3c0.2-0.4,0.3-0.8,0.3-1.3C267.6,192.5,268.2,191.3,267.9,190.1z"/>
				<g id="XMLID_4372_">
					<path id="XMLID_4374_" class="st2" d="M272.7,225.5c0,0-5.8,0.8-8,1.5c3.1,7.6-1.8,19.3-1.8,19.3l4.6,14.1
						c-3.2,6.5-5.8,9.7-6.9,15c2.9,5.7,23.5,11.1,36.9,0.8c0,0-0.4-14.4-2.1-22.8c4.4-8.6,3.7-11.1,2.8-14.1
						c-2.1-7-6.3-9.6-11.3-14.5l-3-0.3L272.7,225.5z"/>
				</g>
				<path id="XMLID_1928_" class="st8" d="M268,266.1c2.5-2.6,7.8-3.3,7.8-3.3l-4.8-2.8l-5.4-13.1c3.8-7.2,3.3-14.4,3.3-14.4
					l-3.1-0.7c0.4,6.9-2.8,14.5-2.8,14.5l4.6,14.1c-3.2,6.5-5.8,9.7-6.9,15c2,3.9,12.3,7.7,22.9,6.3
					C269.3,280.9,265.6,268.6,268,266.1z"/>
				<g id="XMLID_3196_">
					<path id="XMLID_3198_" class="st24" d="M282.4,281.9c0.2,0,0.4,0,0.6-0.1C282.8,281.9,282.6,281.9,282.4,281.9z"/>
				</g>
				<g id="XMLID_4363_">
					<path id="XMLID_4371_" class="st21" d="M291.1,194.8c1.7,1.6,3.9,5,3.7,15c-0.1,8.5-2.8,10.6-4.1,11.2
						c-1.3,0.6-3.9,0.3-6.4-0.2l0,3.5c0,0,3.3,3.6,3.1,6c-0.2,2.3-4.7,3.3-7.9,1c-3.2-2.3-6-6.1-6-6.1l0-10.7c0,0-1.5,1.5-4-0.8
						c-2.1-1.9-2.8-5-1.2-6.7c1.6-1.7,4.5-1.3,5.7,1.1c0,0,5.7-0.5,10.9-3.2C289.6,202.8,291.5,198.4,291.1,194.8z"/>
					<path id="XMLID_4370_" class="st8" d="M284.3,207.9c0,0.6-0.4,1.1-1,1.2c-0.6,0-1.1-0.4-1.1-1.1c0-0.6,0.4-1.1,1-1.2
						C283.8,206.8,284.3,207.3,284.3,207.9z"/>
					<path id="XMLID_4369_" class="st25" d="M284.7,215l2.7,0.9c-0.2,0.8-1,1.2-1.7,1C284.9,216.7,284.5,215.8,284.7,215z"/>
					<path id="XMLID_4368_" class="st8" d="M294,204.1l-2.4-0.8c0.2-0.7,0.9-1.1,1.5-0.9C293.7,202.6,294.1,203.4,294,204.1z"/>
					<path id="XMLID_4367_" class="st5" d="M274.1,207.4l0,3.6c1,0,1.7-0.7,1.8-1.7C275.8,208.3,275,207.5,274.1,207.4z"/>
					<path id="XMLID_7_" class="st23" d="M274.1,207.4l0,3.6c1,0,1.7-0.7,1.8-1.7C275.8,208.3,275,207.5,274.1,207.4z"/>
					<path id="XMLID_4366_" class="st8" d="M293.1,207.6c0,0.6-0.4,1.1-1,1.2c-0.6,0-1.1-0.4-1.1-1.1c0-0.6,0.4-1.1,1-1.2
						C292.6,206.5,293.1,207,293.1,207.6z"/>
					<polygon id="XMLID_4365_" class="st25" points="287.4,206.1 287.4,213.1 290.6,212 					"/>
					<path id="XMLID_4364_" class="st25" d="M284.3,220.9c-2.6-0.3-8-1.9-8.9-4.1c0,0,0.3,1.4,1.9,2.8c1.6,1.4,7,3,7,3L284.3,220.9z
						"/>
				</g>
			</g>
		</g>
		<g id="XMLID_4067_">
			<path id="XMLID_4359_" class="st21" d="M252.3,261c0,0,6.4,9.1,7.5,10.3c1.1,1.2,1.9,0.8,3,0.3c1.2-0.5,3.5-1.2,4.5-1.5
				c2-0.5,2.4,1.3,0.4,2.6c-1.4,0.9-3,1.3-2.3,2.1c0.7,0.8,2.7,2.1,4.7,2.9c4.7,1.9,4.4,2.8,3.5,4.3c-0.8,1.3-3,4.2-11.4,0.8
				c-3.5-1.4-8.4-5.4-10.7-8c-3.3-3.7-8.6-10.4-8.6-10.4L252.3,261z"/>
			<path id="XMLID_4358_" class="st4" d="M265.9,226.7c-2.3,0.2-6.7,0.7-12.2,9.8c-4.8,8-12.3,18.8-13.6,22.7
				c-0.6,1.6,1.6,4.8,4.4,8.1c3.8-0.2,7.3-2.8,9.1-4.9c-0.8-1.9-1.8-3.2-1.8-3.2l11.2-12.8c0,0,4.3-3.9,5.2-9
				C269.2,231.8,268.9,227.5,265.9,226.7z"/>
		</g>
		<g id="XMLID_3993_">
			<g id="XMLID_4063_">
				<polygon id="XMLID_4065_" class="st5" points="328.8,243.9 301.1,251.2 293.5,282.6 319.8,274.9 				"/>
				<polygon id="XMLID_4064_" class="st26" points="328.8,243.9 301.1,251.2 293.5,282.6 319.8,274.9 				"/>
			</g>
			<g id="XMLID_4061_" class="st27">
				<path id="XMLID_4062_" d="M316.3,266.1c0.3,0.7,2,3.3,5.2,3.1l0.2-0.7L316.3,266.1z"/>
			</g>
			<g id="XMLID_4055_" class="st27">
				<path id="XMLID_4056_" d="M320.5,248.9c0,0,0.1-0.5,0.2-1.1c0.1-0.6-1.5-0.6-3.6-0.1l-4.1,1.1c-2.1,0.6-4,1.5-4.1,2.1l-0.2,1.1
					L320.5,248.9z"/>
			</g>
			<g id="XMLID_4000_">
				<path id="XMLID_4001_" class="st2" d="M322.6,244.9c0.1-0.4-0.6-0.5-1.5-0.2l-1.6,0.4c0,0,0.5-2.3-3.1-1.5
					c-3.6,0.8-4.4,3.4-4.4,3.4s-0.8,0.2-1.7,0.5s-1.8,0.8-1.9,1.1l-0.2,0.7l14.3-3.8C322.4,245.6,322.5,245.3,322.6,244.9z"/>
			</g>
			<g id="XMLID_3998_">
				<path id="XMLID_3999_" class="st2" d="M320.6,246.1c-1.3,0.3-1.9,0.5-2,1.4c-0.2,1-0.3,1.8-0.3,1.8l-6.3,1.7
					c0,0,0.3-1.3,0.4-1.8c0.1-0.5-0.1-0.8-1.1-0.5l-0.1-0.4l9.9-2.5L320.6,246.1z"/>
			</g>
			<g id="XMLID_3996_">
				<path id="XMLID_3997_" class="st2" d="M320.9,249c0,0,0.1-0.5,0.2-1.1c0.1-0.6-1.5-0.6-3.6-0.1l-4.1,1.1c-2.1,0.6-4,1.5-4.1,2.1
					l-0.2,1.1L320.9,249z"/>
			</g>
			<g id="XMLID_3994_">
				<path id="XMLID_3995_" class="st21" d="M325.9,254c0,0-1,3.5-1.3,4.4c-0.2,0.8-3.3,2.4-5.4,2.9c-2,0.6-4.3,1.2-3.3,4.1
					c0.9,2.6,4.2,3.2,5.9,3.2c1.7-0.1,4-1.7,5-4.3c1.2-3.4,0.5-6.9,1-8.9C328.3,253.3,326.9,252.8,325.9,254z"/>
			</g>
		</g>
	</g>
</g>
<g id="Character_1_1_">
	<g id="XMLID_4627_">
		<g id="XMLID_4729_">
			<path id="XMLID_4731_" class="st28" d="M220.9,254.8c-3.8-3.8-5.2-2.3-5.6,1.9c-0.4,3.1-1.3,5.1-1.3,5.1
				c-0.3-1.3-0.4-1.9-0.7-2.5c-0.7-1.3-1.8-1.3-2.3-1.1c-0.4,0.2,0.1,1,0,2.7c-0.1,2.1-0.7,3.2-0.3,5.4c0.2,0.8,0,1.7-0.4,2.4
				c-2.1,3.8-8.6,10.8-13.2,15.9c-4.1-3.7-13.2-11.9-17.6-15.9c-6-5.4-7.9-7.8-13.7-7.4c0,0,2.2,0.7,4.9,3c2.7,2.3,2,15.3,2,15.3
				s19.9,14.3,22,15.6c0.3,0.2,0.6,0.4,0.9,0.5c2,1.1,4.5,0.6,6-1.1c4.3-4.9,10.4-14.4,14-19.4c1.7-2.3,3.3-5.5,4.3-7.5
				C223.7,260.6,223.3,257.2,220.9,254.8z"/>
			<path id="XMLID_4730_" class="st5" d="M166.5,261c0,0,4-1.1,8,2c3.4,2.6,18,16,18,16s0.4,7.1-7,11.3l-17.9-12.6L166.5,261z"/>
			<path id="XMLID_2372_" class="st19" d="M166.5,261c0,0,4-1.1,8,2c3.4,2.6,18,16,18,16s0.4,7.1-7,11.3l-17.9-12.6L166.5,261z"/>
		</g>
		<g id="XMLID_4680_">
			<rect id="XMLID_4728_" x="141.7" y="421" class="st28" width="7.6" height="13.5"/>
			<polygon id="XMLID_4727_" class="st28" points="168,420.2 175.5,420.5 175.9,406.2 168,405.9 			"/>
			<path id="XMLID_4726_" class="st2" d="M140.7,304.1c0,7.5,1.1,68.1,1.1,68.1c-0.2,2.2-2.1,6.2-1.7,14.5c0.6,11.3,1.3,41,1.3,41
				s3.7,2.2,8.4,0.2c0,0,7.2-41.1,8.5-52.4c1.2-9.8,3.2-42.7,3.2-42.7l4.1,38.3c0,0-1.4,5.8-0.9,12.5c0.4,5.2,2.8,32.2,2.8,32.2
				s3.6,2.5,8.7,0.7c0,0,4.3-40.6,4.4-45.4c0.1-5.4-2.5-67.1-2.5-67.1L140.7,304.1z"/>
			<path id="XMLID_4725_" class="st8" d="M149.3,430.6v-1.1c0.7,0.3,2.4,7,5.4,9.9c2.4,2.3,5.6,4.9,6.5,7.4c0.9,2.6-4.5,4.1-6.8,3.7
				c-2.6-0.5-7.1-2.4-8.2-4.1c-1.1-1.8-1.7-4.4-2.6-5.7c-0.9-1.3-3-2.7-3.5-4.2c-0.3-0.8,0.1-2.6,0.4-4.1c0.4-1.4,0.7-2.9,1.2-2.8
				c0,0.2,0,0.9,0,0.9c0.5,0.6,2.1,1.3,3.8,1.3C146.6,431.7,149.3,431.4,149.3,430.6z"/>
			<path id="XMLID_4682_" class="st8" d="M175.6,418.1c0.4,0,0.7,0.6,1.6,1.6c1,1.2,2.8,2.5,4.5,3.3c2.8,1.5,8.3,3.8,10.8,4.9
				c1.6,0.7,1.5,2.7-0.1,3.8c-1.6,1.1-5.5,1.9-10.2,0.8c-2.5-0.6-5.9-3-8-2.9c-2.1,0.1-6,0.1-7.6-1c-1.5-1.1-0.9-3.5-0.5-5.5
				c0.5-2.2,1.1-5.7,1.8-5.5v0.8c0.9,1.4,5.6,2,7.6,1L175.6,418.1z"/>
			<path id="XMLID_4681_" class="st8" d="M161.5,332.8c0,0,6.1-1.8,10.5-6.3c0,0-2,4-8.1,7.7l1.3,34.2L161.5,332.8z"/>
		</g>
		<g id="XMLID_4677_">
			<path id="XMLID_4679_" class="st5" d="M144.6,263c0,0-5.9,0.5-5.5,11.8l1.3,18l-0.1,27c5.6,6.3,30.3,5.8,38.7-0.5
				c0,0-0.9-31.9-1.4-44.2c-0.4-8.7-2.4-13.1-11-14.1l-10.6,0.5L144.6,263z"/>
			<polygon id="XMLID_4678_" class="st19" points="161.4,268.9 162.8,278.4 166,278.3 162.4,278.9 			"/>
		</g>
		<g id="XMLID_4674_">
			<path id="XMLID_4676_" class="st28" d="M125.8,301.8c3.1-24.7,10.1-37,18.8-38.4l-0.6,15.8c0,0-5.8,13.2-8.2,26.1
				c-1.1,6.1-2.4,16.7-2.1,21.8c0.1,0.9,0.5,1.8,1.1,2.4c1.7,1.7,2.2,3.2,3.4,5.2c0.9,1.5,1.8,2.1,1.6,2.4c-0.3,0.5-1.3,1.1-2.6,0.3
				c-0.7-0.4-1.5-1.2-2.5-2.2c0,0-0.3,3.8,1.2,6.9c2,4.2,1.7,6.3-3.9,5.1c-3.5-0.8-6-4.5-7-13.1c-0.3-2.5-0.3-6.5-0.2-9.7
				C125.1,316.3,125.2,306.7,125.8,301.8z"/>
			<path id="XMLID_4675_" class="st5" d="M145.1,262.9c-4.5,0-8.6,0.8-11.8,7c-3.1,6-5.5,18.7-6.7,22.8c0,0,6.5,3.9,12.5,3.8
				l4.2-14.7C143.3,281.9,146.2,275,145.1,262.9z"/>
			<path id="XMLID_2361_" class="st19" d="M145.1,262.9c-4.5,0-8.6,0.8-11.8,7c-3.1,6-5.5,18.7-6.7,22.8c0,0,6.5,3.9,12.5,3.8
				l4.2-14.7C143.3,281.9,146.2,275,145.1,262.9z"/>
		</g>
		<g id="XMLID_4646_">
			<path id="XMLID_4673_" class="st8" d="M154.3,237.5c0,6.5,5,11.7,11.3,11.7s11.3-5.3,11.3-11.7c0-6.5-5-11.7-11.3-11.7
				S154.3,231,154.3,237.5z"/>
			<g id="XMLID_4654_">
				<path id="XMLID_4672_" class="st8" d="M147.1,243.4c0,0,1.7,8.5,2.4,9.9c0.7,1.4,2.1,1.8,2.1,1.8l-0.1-6L147.1,243.4z"/>
				<path id="XMLID_4671_" class="st8" d="M149.3,231.3c0,0-1.2-0.3-2.6,1.7c-1.1,1.8-1.4,5.7,0.4,10.4l3.3,0.4L149.3,231.3z"/>
				<path id="XMLID_4670_" class="st28" d="M151.3,243.8c-0.7,0.4-1.6-0.9-2.4-1.8c-0.8-0.9-3.4-2.1-4.7,0.8
					c-1.3,2.9,1.2,6.8,3.2,7.5c3.6,1.2,4.1-1.2,4.1-1.2l0.3,13.4c4.7,7.3,15.5,7.1,11.6-0.4l0-4.1c0,0,3.2,0.5,4.8,0.3
					c2.6-0.4,4.3-2.6,5.1-5.5c1.3-4.8,1.8-8.6,0.7-17.9c-1.2-10.2-12.6-10.3-18.8-6.3C149,232.6,151.3,243.8,151.3,243.8z"/>
				<path id="XMLID_4659_" class="st8" d="M151.7,259.5c0,0,1.7,3.6,4.6,5.8c2.7,2,5.6,2.4,5.6,2.4s-2.8,1.8-4,4.4
					c-1.2,2.6-9.5-4.6-9.4-9.7c0,0,1.3-5.1,3.1-5.4L151.7,259.5z"/>
				<path id="XMLID_4658_" class="st8" d="M162,267.7c0,0,2.6-1.3,1.4-5.5l0-4.1l1.1,0.2c0.9,0.8,2.3,2.6,2.7,4.7
					c0.3,1.2,0.9,7.1-0.2,8.3C166,272.2,164.3,268,162,267.7z"/>
				<path id="XMLID_4657_" class="st8" d="M151.3,244.9c-0.3,0-1.6-2.2-2.4-2.9c-1.1-1.1,0.3-10.7,0.3-10.7s-1.1-2.4,1.1-4.9
					c1.5-1.8,4.1-2,8.5-2.7c1.7-0.3,3.5-0.5,5.2-0.9c1.8-0.5,3.6-1.7,5.2-2.5c0.6-0.3,1.2-0.6,1.8-0.4c0.6,0.2,1,0.7,1.1,1.3
					c0.1,0.6,0.1,1.2,0,1.8c1-1.1,3-1,4.1,0.1c1,1.1,1.2,2.9,0.6,4.3s-1.7,2.5-3,3.4c-5.5,3.7-12.1,2.7-18.3,2
					c-0.3,0-0.6-0.1-0.9,0.1c-1,0.4-1.2,3.5-1.3,4.3C152.9,239.9,152.4,244.9,151.3,244.9z"/>
				<path id="XMLID_4656_" class="st8" d="M149.3,231.8l-3.9-2.2c0.6-1.2,1.9-1.6,3-1C149.4,229.1,149.8,230.6,149.3,231.8z"/>
				<path id="XMLID_4655_" class="st29" d="M163.4,258c0,0-5.9-1.2-7.9-2.4c-1.4-0.8-2.5-2.1-2.8-2.9c0,0,0.4,1.8,1.6,3.4
					c1.5,2,9.1,3.5,9.1,3.5L163.4,258z"/>
			</g>
			<g id="XMLID_4647_">
				<path id="XMLID_4653_" class="st8" d="M161.3,241.9c0,0.7-0.5,1.3-1.2,1.3c-0.6,0-1.2-0.6-1.2-1.3c0-0.7,0.5-1.3,1.2-1.3
					C160.8,240.6,161.3,241.2,161.3,241.9z"/>
				<path id="XMLID_4652_" class="st8" d="M159.3,236.8l-2.5,1.4c-0.4-0.8-0.1-1.7,0.6-2.1C158,235.8,158.9,236.1,159.3,236.8z"/>
				<path id="XMLID_4651_" class="st29" d="M162.9,250.7l2.7,1c-0.3,0.8-1.1,1.2-1.8,0.9C163,252.4,162.6,251.5,162.9,250.7z"/>
				<path id="XMLID_4650_" class="st8" d="M173,238.2l-2.6-1.3c0.3-0.8,1.1-1.1,1.9-0.7C173,236.5,173.3,237.5,173,238.2z"/>
				<path id="XMLID_4649_" class="st8" d="M171.3,241.9c0,0.7-0.5,1.3-1.2,1.3c-0.6,0-1.2-0.6-1.2-1.3c0-0.7,0.5-1.3,1.2-1.3
					C170.7,240.6,171.3,241.2,171.3,241.9z"/>
				<polygon id="XMLID_4648_" class="st29" points="164.6,241 164.8,248.4 169,247.4 				"/>
			</g>
		</g>
		<g id="XMLID_4628_">
			<g id="XMLID_4638_">
				<path id="XMLID_4642_" class="st8" d="M159.5,238.8c-1.6,0-2.9,1.3-2.9,2.9c0,1.6,1.3,2.9,2.9,2.9h0.5c1.6,0,2.9-1.3,2.9-2.9
					c0-1.6-1.3-2.9-2.9-2.9H159.5z M156,241.8c0-1.9,1.6-3.5,3.5-3.5l0.5,0c1.9,0,3.5,1.6,3.5,3.5c0,1.9-1.6,3.5-3.5,3.5h-0.5
					C157.6,245.3,156,243.7,156,241.8z"/>
			</g>
			<g id="XMLID_4634_">
				<path id="XMLID_4635_" class="st8" d="M170,238.8c-1.6,0-2.9,1.3-2.9,2.9c0,1.6,1.3,2.9,2.9,2.9l0.5,0c1.6,0,2.9-1.3,2.9-2.9
					c0-1.6-1.3-2.9-2.9-2.9H170z M166.6,241.8c0-1.9,1.6-3.5,3.5-3.5h0.5c1.9,0,3.5,1.6,3.5,3.5c0,1.9-1.6,3.5-3.5,3.5H170
					C168.1,245.3,166.6,243.7,166.6,241.8z"/>
			</g>
			<path id="XMLID_4633_" class="st8" d="M163.4,241.1c0.3-0.5,1-0.9,1.8-0.9c0.7,0,1.3,0.2,1.6,0.6l0.5-0.4
				c-0.4-0.6-1.2-0.9-2.1-0.8c-1,0.1-1.9,0.5-2.3,1.2L163.4,241.1z"/>
			<rect id="XMLID_4632_" x="150.4" y="241" class="st8" width="6" height="0.6"/>
		</g>
	</g>
</g>
</svg>
