<?xml version="1.0" encoding="utf-8"?>
<!-- Generator: Adobe Illustrator 22.1.0, SVG Export Plug-In . SVG Version: 6.00 Build 0)  -->
<svg version="1.1" xmlns="http://www.w3.org/2000/svg" xmlns:xlink="http://www.w3.org/1999/xlink" x="0px" y="0px"
	 viewBox="0 0 500 500" style="enable-background:new 0 0 500 500;" xml:space="preserve">
<g id="Floor">
	<ellipse id="Floor_1_" style="fill:#F5F5F5;" cx="250" cy="335.21" rx="222.46" ry="128.44"/>
</g>
<g id="Shadow">
	<path id="Shadow_7_" style="fill:#E0E0E0;" d="M186.04,345.44l22.97,13.26c1.37,0.79,3.59,0.79,4.96,0l92.8-53.63
		c1.37-0.79,1.37-2.07-0.01-2.85l-23.14-13.18c-1.38-0.78-3.6-0.78-4.97,0.01l-92.61,53.53
		C184.67,343.37,184.67,344.65,186.04,345.44z"/>
	<ellipse id="Shadow_6_" style="fill:#E0E0E0;" cx="390.39" cy="351.26" rx="50.29" ry="29.04"/>
	<ellipse id="Shadow_5_" style="fill:#E0E0E0;" cx="110.94" cy="351.26" rx="50.29" ry="29.04"/>
</g>
<g id="Plants">
	<g id="Plants_2_">
		<g id="XMLID_1332_">
			<g id="XMLID_1336_">
				<path id="XMLID_1342_" style="fill:#27DEBF;" d="M93.83,323.69c0,0-1.43-12.6-7.7-22.37c-6.27-9.78-14.88-15.88-22.91-16.51
					c-8.03-0.64-14.52,6.76-5.93,11.83c8.6,5.08,23.87,10.25,30.89,29.24L93.83,323.69z"/>
				<path id="XMLID_1338_" style="opacity:0.15;" d="M93.83,323.69c0,0-1.43-12.6-7.7-22.37c-6.27-9.78-14.88-15.88-22.91-16.51
					c-8.03-0.64-14.52,6.76-5.93,11.83c8.6,5.08,23.87,10.25,30.89,29.24L93.83,323.69z"/>
			</g>
			<g id="XMLID_1334_">
				<path id="XMLID_1335_" style="fill:#FFFFFF;" d="M91.48,320.41c0.03-0.01,0.06-0.01,0.08-0.02c0.22-0.09,0.33-0.34,0.24-0.56
					c-8.48-20.88-24.62-29.6-31.97-31.29c-0.23-0.05-0.46,0.09-0.51,0.32c-0.05,0.23,0.09,0.46,0.32,0.51
					c7.2,1.66,23.02,10.22,31.36,30.77C91.08,320.35,91.28,320.45,91.48,320.41z"/>
			</g>
		</g>
		<g id="XMLID_1312_">
			<g id="XMLID_1318_">
				<g id="XMLID_1319_">
					<path id="XMLID_1320_" style="fill:#27DEBF;" d="M48.57,320.66c0.73,1.64,2.52,2.49,4.18,3.16c1.66,0.66,3.47,1.39,4.37,2.94
						c1.81,3.13-1.16,7.54,0.78,10.58c0.82,1.28,2.34,1.95,3.83,2.22c1.24,0.23,2.5,0.23,3.76,0.34c0.61-0.01,1.2-0.06,1.79-0.14
						c1.73-0.25,3.6-0.33,5.18,0.55c2.49,1.4,3.25,4.54,4.77,6.97c1.81,2.9,5.02,4.8,8.38,5.26c1.12,0.15,3.2,0.35,4.34-0.29
						c0.09-0.05,0.16-0.1,0.24-0.15c0.01,0,0.01-0.01,0.02-0.02c0.16-0.18,0.35-0.4,0.44-0.52c0.02-0.02,0.03-0.05,0.04-0.07
						c0.44-1.62-0.28-3.31-0.31-4.99c0-0.11,0-0.2,0-0.3c0.07-1.95,0.12-3.89,0.17-5.83c0.09-3.58,0.13-7.17,0.11-10.75
						c-0.02-2.33,0.26-4.87-0.73-7.07c-1.09-2.41-3.8-2.46-4.83-4.83c-0.41-0.94-0.63-1.95-1.03-2.91c-1.19-2.8-4.06-4.81-7.1-4.95
						c-4.73-0.24-8.98,3.59-13.7,3.24c-1.22-0.1-2.42-0.47-3.62-0.69c-3.83-0.72-8.26,0.37-10.42,3.62
						C48.35,317.39,47.91,319.17,48.57,320.66z"/>
				</g>
			</g>
			<g id="XMLID_1316_">
				<path id="XMLID_1317_" style="fill:#FFFFFF;" d="M91.08,344.04c0.01,0,0.02,0,0.03-0.01c0.21-0.06,0.34-0.28,0.29-0.49
					c-6.54-24.53-32.38-28.08-38.43-27.64c-0.22,0.02-0.39,0.21-0.37,0.43c0.02,0.22,0.21,0.39,0.43,0.37
					c5.92-0.43,31.2,3.04,37.59,27.04C90.68,343.95,90.88,344.08,91.08,344.04z"/>
			</g>
			<g id="XMLID_1313_">
				<path id="XMLID_1314_" style="fill:#FFFFFF;" d="M62.37,331.61c0.08-0.01,0.15-0.05,0.21-0.11c0.06-0.07,6.66-6.56,17.59-4.95
					c0.22,0.03,0.43-0.12,0.46-0.34c0.03-0.22-0.12-0.43-0.34-0.46c-11.36-1.67-18.21,5.12-18.28,5.19c-0.16,0.16-0.15,0.41,0,0.57
					C62.11,331.59,62.24,331.63,62.37,331.61z"/>
			</g>
		</g>
	</g>
	<g id="Plants_1_">
		<g id="XMLID_670_">
			<g id="XMLID_1310_">
				<path id="XMLID_1311_" style="fill:#27DEBF;" d="M411.27,328.11c-0.16-6,1.51-16.08,7.42-26.13
					c6.33-10.76,14.69-17.96,21.71-15.77c6.54,2.04,5.1,10.92-4.73,20.59c-6.9,6.78-13.89,15.39-17.08,25.23l-5.53,12.67
					L411.27,328.11z"/>
			</g>
			<g id="XMLID_1308_">
				<path id="XMLID_1309_" style="fill:#27DEBF;" d="M411.27,328.11c-0.16-6,1.51-16.08,7.42-26.13
					c6.33-10.76,14.69-17.96,21.71-15.77c6.54,2.04,5.1,10.92-4.73,20.59c-6.9,6.78-13.89,15.39-17.08,25.23l-5.53,12.67
					L411.27,328.11z"/>
			</g>
			<g id="XMLID_1346_" style="opacity:0.15;">
				<path id="XMLID_1347_" d="M411.27,328.11c-0.16-6,1.51-16.08,7.42-26.13c6.33-10.76,14.69-17.96,21.71-15.77
					c6.54,2.04,5.1,10.92-4.73,20.59c-6.9,6.78-13.89,15.39-17.08,25.23l-5.53,12.67L411.27,328.11z"/>
			</g>
			<g id="XMLID_1269_">
				<path id="XMLID_1273_" style="fill:#FFFFFF;" d="M412.36,332.59c0.17-0.02,0.32-0.14,0.37-0.32
					c4.21-17.15,14.89-35.2,24.84-41.98c0.19-0.13,0.24-0.4,0.11-0.59c-0.13-0.2-0.4-0.24-0.59-0.11
					c-10.1,6.89-20.93,25.15-25.19,42.48c-0.06,0.23,0.08,0.46,0.31,0.51C412.26,332.59,412.31,332.59,412.36,332.59z"/>
			</g>
		</g>
		<g id="XMLID_666_">
			<path id="XMLID_669_" style="fill:#27DEBF;" d="M411.21,347.56c0,0,4.2,4.2,11.68,5.85c7.48,1.65,11.03-1.77,11.03-1.77
				s-2.55-7.26-6.72-9.51c0,0,7.19,1.92,12.79,6.16c0,0,4.61,0.35,6.86-6.59c0,0-2.48-4.4-11.51-7.24c0,0,5.66-1.07,13.58,1.46
				c0.59,0.28,3.7-8.67,4.73-12.83c1.03-4.15-0.66-4.21-3.88-5.28c-3.22-1.07-14.34-2.28-16.5-0.61c-2.16,1.68-3.57,7.77-3.57,7.77
				s-1.75-3.6-1.1-6.68c0,0-3.22-1.31-6.98-0.25c-3.75,1.06-3.63,2.87-3.79,5.55c-0.17,2.86,0,4.78,0.63,8.04
				c0,0-2.41-2.35-2.02-10.46c0,0-5.22,3.96-7.44,7.5C406.8,332.22,406.74,341.82,411.21,347.56z"/>
			<g id="XMLID_667_">
				<path id="XMLID_668_" style="fill:#FFFFFF;" d="M411.18,347.98c0.16,0.01,0.31-0.07,0.4-0.22c6.85-12.3,30.39-25.67,38.61-26.76
					c0.23-0.03,0.4-0.25,0.37-0.48c-0.03-0.23-0.25-0.39-0.48-0.37c-8.35,1.11-32.28,14.69-39.24,27.19
					c-0.11,0.21-0.04,0.46,0.16,0.58C411.06,347.96,411.12,347.98,411.18,347.98z"/>
			</g>
		</g>
	</g>
</g>
<g id="Foam_Finger_1_">
	<g id="Foam_Finger">
		<g id="XMLID_473_">
			<path id="XMLID_477_" style="fill:#27DEBF;" d="M305.18,170.03c-1.2-2.51-2.65-3.92-4.03-4.69l0,0l-5.13-2.95
				c-0.35-3.28-1.69-9.21-6.64-12.75c-0.34-0.24-0.68-0.45-1.02-0.64l-18.05-10.39l0,0.01c-4.47-3.01-9.19-1.13-12.19,0.78
				l-6.96-4.01l0,0c-1.21-0.8-2.79-1.34-4.84-1.34v-32.42c0-6.59-2.18-11.23-5.62-13.27l0-0.01l-18.72-10.8l0,0
				c-2.91-1.77-6.74-1.66-10.94,0.76h0c-9.09,5.25-16.47,19.34-16.47,31.46v76.1c0,33.42-8.05,60.68-7.87,88.75
				c0.09,14.46,6.41,33.22,6.41,39.05c0,5.83,0,14.77,0,30.31l18.82,10.86l88.6-51.16c0,0,0-22.54,0-32.64s1.17-18.55,4.66-46.22
				C308.67,197.16,308.67,177.34,305.18,170.03z"/>
			<path id="XMLID_472_" style="opacity:0.15;" d="M305.18,170.03c-1.2-2.51-2.65-3.92-4.03-4.69l0,0l-5.13-2.95
				c-0.35-3.28-1.69-9.21-6.64-12.75c-0.34-0.24-0.68-0.45-1.02-0.64l-18.05-10.39l0,0.01c-4.47-3.01-9.19-1.13-12.19,0.78
				l-6.96-4.01l0,0c-1.21-0.8-2.79-1.34-4.84-1.34v-32.42c0-6.59-2.18-11.23-5.62-13.27l0-0.01l-18.72-10.8l0,0
				c-2.91-1.77-6.74-1.66-10.94,0.76h0c-9.09,5.25-16.47,19.34-16.47,31.46v76.1c0,33.42-8.05,60.68-7.87,88.75
				c0.09,14.46,6.41,33.22,6.41,39.05c0,5.83,0,14.77,0,30.31l18.82,10.86l88.6-51.16c0,0,0-22.54,0-32.64s1.17-18.55,4.66-46.22
				C308.67,197.16,308.67,177.34,305.18,170.03z"/>
			<path id="XMLID_492_" style="opacity:0.15;" d="M300.94,165.23c-2.54-1.3-4.8-0.47-4.8-0.47s0.04-0.93-0.12-2.37L300.94,165.23z"
				/>
			<path id="XMLID_493_" style="opacity:0.15;" d="M254.59,149.32c-4.84,3.85-8.29,8.85-8.29,8.85v-13.63L254.59,149.32z"/>
			<path id="XMLID_476_" style="opacity:0.15;" d="M258.11,139.39l11.51,6.63c1.18,0.71,2.09,1.66,2.8,2.83
				c0.65,1.07,1.12,2.35,1.39,3.86c1.38-1.33,3.11-2.62,5.32-3.68l-18.79-10.85C259.52,138.55,258.77,138.97,258.11,139.39z"/>
		</g>
		<path id="XMLID_462_" style="fill:#27DEBF;" d="M211.91,354.84c0-15.54,0-24.48,0-30.31c0-5.83-6.32-24.59-6.41-39.05
			c-0.18-28.06,7.87-55.32,7.87-88.75v-76.1c0-12.13,7.37-26.21,16.47-31.46l0,0c9.09-5.25,16.47,0.32,16.47,12.45v56.54
			c0,0,8.45-12.26,17.49-13.21c9.04-0.94,10.02,7.75,10.02,7.75s8.19-8.36,15.57-3.07c7.12,5.1,6.76,15.12,6.76,15.12
			s5.54-2.03,9.04,5.28s3.5,27.13,0,54.79c-3.5,27.67-4.66,36.11-4.66,46.22s0,32.64,0,32.64L211.91,354.84z"/>
		<g id="XMLID_267_">
			<g id="XMLID_232_">
				<g id="XMLID_50_">
					<path id="XMLID_541_" style="fill:#FFFFFF;" d="M217.52,345.05c-0.51,0-0.93-0.41-0.93-0.93v-22.83c0-3.03-0.8-6.67-2.32-13.39
						c-1.7-7.5-4.04-17.77-4.09-25.71c-0.08-12.88,1.7-25.81,3.58-39.5c2.11-15.38,4.29-31.27,4.29-49.19v-75.68
						c0-8.24,4.71-17.73,10.73-21.61c3.05-1.96,6.06-2.32,8.48-1c2.77,1.51,4.35,5.03,4.35,9.65l1.57,72.51
						c1.32-5.35,2.92-9.64,5.22-14.25c1.85-3.72,6.99-10.08,12.87-11.35c2.28-0.5,4.63,0.68,5.82,1.43c0.8,0.5,1.48,1.16,2.13,1.79
						c0.58,0.57,1.13,1.1,1.72,1.49c1.75,1.14,4.35,0.32,6.87-0.47c3.03-0.95,5.93-0.75,8.39,0.61c2.02,1.11,3.55,2.99,4.43,5.43
						c0.36,1.01,0.56,2.16,0.74,3.26c0.19,1.14,0.37,2.22,0.72,3.09c0.76,1.91,2.11,3.08,3.79,3.29c2.2,0.28,3.92,1.69,5.11,4.17
						c2.3,4.81,3.4,20.71-0.42,50.91l-0.7,5.52c-3.03,23.91-4.05,31.96-4.05,41.97v25.16c0,0.51-0.41,0.93-0.93,0.93
						c-0.51,0-0.93-0.41-0.93-0.93v-25.16c0-10.13,1.02-18.21,4.06-42.19l0.7-5.54c3.77-29.81,2.77-45.31,0.59-49.88
						c-0.91-1.91-2.11-2.93-3.67-3.13c-2.39-0.31-4.26-1.89-5.28-4.45c-0.42-1.06-0.63-2.28-0.82-3.47
						c-0.17-1.03-0.35-2.08-0.66-2.94c-0.72-2.01-1.96-3.55-3.58-4.44c-2-1.1-4.4-1.26-6.94-0.46c-2.79,0.88-5.96,1.88-8.44,0.26
						c-0.75-0.49-1.39-1.11-2.01-1.72c-0.61-0.59-1.18-1.15-1.82-1.55c-0.77-0.48-2.74-1.55-4.45-1.19
						c-4.97,1.07-9.77,6.7-11.6,10.36c-3.25,6.52-5.07,12.42-6.71,21.79c-0.08,0.47-0.51,0.8-0.98,0.76
						c-0.48-0.04-0.85-0.43-0.86-0.9l-1.75-80.72c0-3.94-1.24-6.87-3.39-8.04c-1.79-0.98-4.13-0.65-6.59,0.93
						c-5.45,3.51-9.88,12.5-9.88,20.05v75.68c0,18.05-2.19,34-4.31,49.42c-1.87,13.64-3.64,26.51-3.56,39.25
						c0.05,7.74,2.36,17.9,4.04,25.32c1.56,6.85,2.37,10.57,2.37,13.8v22.83C218.45,344.63,218.03,345.05,217.52,345.05z"/>
				</g>
				<g id="XMLID_82_">
					<path id="XMLID_540_" style="fill:#FFFFFF;" d="M211.54,270.91c-0.03,0-0.06,0-0.09,0c-0.51-0.05-0.88-0.5-0.83-1.01
						c0.87-9.04,6.32-24.58,10.31-35.93c1.26-3.59,2.35-6.69,3.05-8.92c3.03-9.59,5.77-11.84,13.95-17.52
						c8.19-5.68,20.63-16.92,20.75-17.04c0.29-0.26,0.71-0.31,1.05-0.13c0.28,0.15,6.94,3.82,4.1,16.34
						c-2.64,11.6-15.7,26.36-30.37,34.31c-0.45,0.25-1.01,0.08-1.26-0.37c-0.24-0.45-0.08-1.01,0.37-1.25
						c14.26-7.73,26.92-21.96,29.45-33.1c2.08-9.14-1.29-12.85-2.64-13.93c-2.5,2.24-13.09,11.63-20.4,16.7
						c-8.13,5.63-10.37,7.48-13.24,16.55c-0.71,2.26-1.81,5.37-3.07,8.97c-3.95,11.26-9.36,26.69-10.21,35.5
						C212.41,270.55,212.01,270.91,211.54,270.91z"/>
				</g>
				<g id="XMLID_195_">
					<path id="XMLID_534_" style="fill:#FFFFFF;" d="M234.99,263.79c-0.15,0-0.3-0.04-0.45-0.11c-0.45-0.25-0.61-0.81-0.36-1.26
						c7.45-13.52,6.21-27.33,6.2-27.47c-0.05-0.51,0.32-0.96,0.83-1.01c0.5-0.04,0.96,0.32,1.01,0.83
						c0.06,0.59,1.32,14.51-6.42,28.54C235.63,263.61,235.32,263.79,234.99,263.79z"/>
				</g>
				<g id="XMLID_202_">
					<path id="XMLID_529_" style="fill:#FFFFFF;" d="M240.26,207.92c-0.02,0-0.04,0-0.07,0c-0.51-0.04-0.89-0.48-0.86-0.99
						c0.01-0.09,0.69-9.54,2.18-21.46c0.06-0.51,0.53-0.87,1.03-0.8c0.51,0.06,0.87,0.53,0.8,1.03
						c-1.48,11.87-2.16,21.27-2.17,21.36C241.15,207.55,240.75,207.92,240.26,207.92z"/>
				</g>
				<g id="XMLID_207_">
					<path id="XMLID_527_" style="fill:#FFFFFF;" d="M242.25,248.63c-0.66,0-1.33-0.06-1.99-0.18c-0.5-0.09-0.83-0.58-0.74-1.08
						c0.09-0.5,0.58-0.84,1.08-0.74c5.86,1.09,12.02-3.73,13.74-10.73c0.56-2.26,1.98-9.36,4.24-21.1c0.1-0.5,0.58-0.83,1.08-0.74
						c0.5,0.1,0.83,0.58,0.73,1.08c-2.26,11.77-3.69,18.9-4.26,21.19C254.37,243.51,248.4,248.63,242.25,248.63z"/>
				</g>
				<g id="XMLID_203_">
					<path id="XMLID_517_" style="fill:#FFFFFF;" d="M263.08,197c-0.06,0-0.11-0.01-0.17-0.02c-0.5-0.1-0.83-0.58-0.74-1.08
						c2.37-12.56,4.24-22.64,4.24-22.64c0.09-0.5,0.57-0.84,1.08-0.74c0.5,0.09,0.83,0.58,0.74,1.08c0,0-1.87,10.08-4.24,22.65
						C263.9,196.69,263.52,197,263.08,197z"/>
				</g>
				<g id="XMLID_188_">
					<path id="XMLID_497_" style="fill:#FFFFFF;" d="M259.23,245.25c-1.42,0-2.72-0.48-3.73-1.41c-1.55-1.42-2.2-3.68-1.74-6.05
						c0.1-0.5,0.58-0.84,1.08-0.73c0.5,0.1,0.83,0.58,0.73,1.08c-0.33,1.73,0.1,3.35,1.18,4.34c0.97,0.89,2.34,1.15,3.85,0.72
						c7-1.98,9.48-7.44,10.73-11.37c2.38-7.45,10.8-38.09,13.33-51.17c0.1-0.5,0.59-0.83,1.08-0.73c0.5,0.1,0.83,0.58,0.73,1.09
						c-2.54,13.13-10.99,43.9-13.38,51.38c-2.17,6.8-6.1,10.92-11.99,12.59C260.47,245.16,259.84,245.25,259.23,245.25z"/>
				</g>
				<g id="XMLID_238_">
					<path id="XMLID_482_" style="fill:#FFFFFF;" d="M276.47,239.88c-1.77,0-2.89-0.8-3.54-1.54c-1.59-1.79-2.01-5-1.07-8.18
						c0.15-0.49,0.66-0.77,1.15-0.63c0.49,0.14,0.77,0.66,0.63,1.15c-0.74,2.5-0.45,5.14,0.68,6.43c0.69,0.77,1.67,1.06,2.93,0.85
						c2.97-0.49,6.89-3.16,8.96-8c2.2-5.14,9.3-32.04,9.37-32.31c0.13-0.49,0.64-0.79,1.13-0.66c0.49,0.13,0.79,0.64,0.66,1.13
						c-0.29,1.11-7.21,27.31-9.46,32.57c-2.5,5.86-7.15,8.56-10.36,9.1C277.17,239.85,276.8,239.88,276.47,239.88z"/>
				</g>
			</g>
			<g id="XMLID_265_">
				<g id="XMLID_268_">
					<path id="XMLID_1307_" style="fill:#FFFFFF;" d="M249.79,299.44l-0.66,6.4c-0.06,0.39-0.18,0.76-0.38,1.1
						c-0.19,0.35-0.44,0.61-0.73,0.78l-3.5,2.02c-0.27,0.15-0.49,0.16-0.69,0.01c-0.19-0.14-0.29-0.39-0.29-0.75v-0.12l0.66-6.22
						l-4.47,2.58l-0.66,6.4c-0.06,0.39-0.18,0.76-0.38,1.1c-0.19,0.35-0.44,0.61-0.73,0.78l-3.5,2.02
						c-0.27,0.15-0.49,0.16-0.69,0.01c-0.19-0.14-0.29-0.39-0.29-0.75v-0.12l0.66-6.22l-2.96,1.71c-0.32,0.19-0.6,0.19-0.84,0.01
						c-0.24-0.18-0.35-0.48-0.35-0.92v-3.72c0-0.43,0.12-0.87,0.35-1.32c0.24-0.45,0.52-0.77,0.84-0.96l3.72-2.15l0.93-8.62
						l-3.5,2.02c-0.32,0.19-0.6,0.19-0.84,0.01c-0.24-0.18-0.35-0.48-0.35-0.92v-3.72c0-0.43,0.12-0.87,0.35-1.32
						c0.24-0.45,0.52-0.77,0.84-0.96l4.25-2.45l0.71-6.37c0.06-0.35,0.18-0.7,0.35-1.06c0.18-0.36,0.41-0.62,0.71-0.79l3.54-2.04
						c0.27-0.15,0.49-0.16,0.69-0.01c0.19,0.15,0.29,0.39,0.29,0.75v0.18l-0.66,6.11l4.42-2.55l0.71-6.37
						c0.06-0.35,0.18-0.7,0.35-1.06c0.18-0.36,0.41-0.62,0.71-0.79l3.54-2.04c0.27-0.15,0.49-0.16,0.69-0.01
						c0.19,0.15,0.29,0.39,0.29,0.75v0.18l-0.66,6.11l2.96-1.71c0.32-0.19,0.6-0.19,0.84-0.01c0.24,0.18,0.35,0.48,0.35,0.92v3.72
						c0,0.43-0.12,0.88-0.35,1.33c-0.24,0.45-0.52,0.77-0.84,0.96l-3.76,2.17l-0.89,8.59l3.5-2.02c0.32-0.19,0.6-0.19,0.84-0.01
						c0.24,0.18,0.35,0.48,0.35,0.92v3.72c0,0.43-0.12,0.88-0.35,1.33c-0.24,0.45-0.52,0.77-0.84,0.96L249.79,299.44z
						 M240.54,297.88l4.42-2.55l0.93-8.62l-4.47,2.58L240.54,297.88z"/>
				</g>
				<g id="XMLID_272_">
					<path id="XMLID_671_" style="fill:#FFFFFF;" d="M259.48,275.44c-0.21-0.23-0.29-0.58-0.24-1.04c0.04-0.46,0.2-0.9,0.46-1.33
						l9.6-15.63c0.24-0.37,0.48-0.74,0.73-1.1c0.25-0.36,0.52-0.63,0.82-0.8l3.45-1.99c0.32-0.19,0.6-0.19,0.84-0.01
						c0.24,0.18,0.35,0.48,0.35,0.92v38.11c0,0.43-0.12,0.88-0.35,1.33c-0.24,0.45-0.52,0.77-0.84,0.96l-3.58,2.07
						c-0.33,0.19-0.6,0.19-0.84,0.01c-0.24-0.18-0.35-0.48-0.35-0.92v-29.14l-6.28,10.18c-0.27,0.43-0.55,0.7-0.86,0.82
						c-0.31,0.12-0.58,0.07-0.82-0.15L259.48,275.44z"/>
				</g>
			</g>
		</g>
	</g>
</g>
<g id="Character_2_1_">
	<g id="XMLID_1163_">
		<g id="XMLID_1252_">
			<g id="XMLID_1260_">
				<path id="XMLID_1262_" style="fill:#263238;" d="M412.3,344.58c0.18,1.32,0.56,2.85,0.63,6.57c0.08,3.99,0.81,5.41,0.91,8.68
					c0.11,3.74-0.54,5.14-2.05,7.25c-1.52,2.1-5.5,4.01-7.19,0.46c-1.7-3.6-1.47-5.88-0.93-9.56c0.56-3.79,0.63-5.89,0.95-8.79
					c0.28-2.55,0.62-4.49,0.62-4.49L412.3,344.58z"/>
				<path id="XMLID_1261_" style="fill:#FFA8A7;" d="M400.97,313.2l13.14-0.24c-0.2,8.77-1.59,23.38-1.82,31.62
					c-0.04,1.55,0.04,12.04-0.55,15.23c-0.88,4.79-6.57,4.14-6.87,1.28c-0.3-2.87,0.37-15.12,0.35-16.38
					c0.05-5.28-2.42-19.06-3.72-28.54C401.45,315.7,401.03,313.65,400.97,313.2z"/>
			</g>
			<g id="XMLID_1255_">
				<path id="XMLID_1257_" style="fill:#263238;" d="M381.65,337.75c0,0,0.68,0.04,0.79,0.59c0.13,0.66,0.16,1.7,0.43,2.78
					c0.38,1.5,0.7,3.98,0.47,5.2s-3.03,3.05-4.94,3.37c-1.91,0.32-4.61,2.21-6.11,3.62c-1.84,1.73-5.8,3.36-8.5,3.34
					c-3.19-0.02-5.42-1.06-6.47-2.77c-1.1-1.79,0.96-1.92,4.61-4.28c0.83-0.54,1.77-1.15,2.83-1.84c5.78-3.78,7.9-5.8,9.53-9.58
					L381.65,337.75z"/>
				<path id="XMLID_1256_" style="fill:#FFA8A7;" d="M374.25,335.69c0.1-2.72-1.3-22.73-1.3-22.73l11.31,1.27
					c-2.67,15.96-2.89,21.39-2.59,23.71l0,0c0.02,0.06,0.07,0.28,0.07,0.67c-0.01,3.1-3.51,4.77-6.24,6.84
					c-1.08,0.82-3.85,3.33-7.1,4.44c-2.1,0.72-5.98,0.99-6.48-0.29c3.32-2.54,7.84-5.85,10.48-8.75
					C373.67,339.48,374.15,338.41,374.25,335.69z"/>
			</g>
			<path id="XMLID_1254_" style="fill:#455A64;" d="M411.01,223.62c6.17,13.47-0.17,59.77-0.17,59.77
				c0.19,2.19,2.69,6.49,3.62,16.11c1.1,11.37-2.03,41.81-2.03,41.81s-3,2.25-7.36,0.16c0,0-7.96-44.72-9.38-56.03
				c-1.24-9.87-3.63-31.56-3.63-31.56l-6.79,31.5c0,0,1.74,5.53,2.15,9.74c0.64,6.65-5.83,40.02-5.83,40.02s-3.03,1.6-7.33-0.14
				c0,0-2.87-43.11-3.47-51.12c-1.01-13.45,2.96-54.96,4.66-63.84L411.01,223.62z"/>
			<path id="XMLID_1253_" style="fill:#37474F;" d="M392.05,253.88l-2-12.51c0,0-8.47-1.75-12.31-5.37c0,0,4.03,5.01,10.02,6.66
				l2.25,9.63l-3.93,29.17L392.05,253.88z"/>
		</g>
		<path id="XMLID_1064_" style="fill:#FFA8A7;" d="M329.37,179.01c3.24-4.66,4.92-3.37,6.18,0.9c0.93,3.15,2.25,5.09,2.25,5.09
			c0.04-1.39,0.05-2.03,0.28-2.76c0.45-1.45,1.6-1.68,2.13-1.56c0.41,0.09,0.1,1.1,0.46,2.77c0.46,2.15,1.37,3.22,1.26,5.6
			c-0.04,0.89,0.28,1.76,0.83,2.46c2.82,3.56,10.88,9.64,16.57,14.04c3.55-4.56,11.49-14.75,15.3-19.62
			c5.22-6.68,6.91-9.27,12.98-9.92c0,0-2.31,0.83-4.68,3.67c-2.37,2.84,0.67,16.18,0.67,16.18s-18.03,18.43-19.91,20.21
			c-0.28,0.26-0.56,0.5-0.85,0.73c-1.88,1.47-4.54,1.4-6.39-0.1c-5.29-4.26-13.46-13.04-18.08-17.54c-2.17-2.11-4.43-5.11-5.86-7.02
			C327.55,185.51,327.34,181.93,329.37,179.01z"/>
		<g id="XMLID_616_">
			<path id="XMLID_664_" style="fill:#27DEBF;" d="M400.02,176.36L400.02,176.36c7.99,0.55,8.55,4.41,10.54,8.62
				c1.52,3.21,1.54,6.93,0.38,10.29l-5.56,16.1c0,0,2.61,6.3,5.63,12.25c-13.96,7.79-31.4,3.7-35.6-1.99
				c-0.18-1.21,0.9-10.64,1.57-16.8c-2.46-6.17-3.11-10.08-2.07-14.16c1.93-7.57,9.4-14.95,12.71-14.68L400.02,176.36z"/>
			<path id="XMLID_624_" style="opacity:0.15;" d="M396.45,225.13c4.59-1.09,7.5-5.73,6.29-10.28c-0.05-0.17-0.09-0.32-0.14-0.44
				c-0.9-2.16-2.83-1.88-2.83-1.88l0,0c1.81-1.2,3.07-3.07,3.49-5.2l0.74-2.24c1.68-5.09,1.78-10.58,0.25-15.71
				c-0.01-0.05-0.03-0.1-0.04-0.14l5.94-3.38c0,0,0.4,0.28,1.04,0.72c0.87,2.81,0.74,5.88-0.23,8.7l-5.56,16.1
				c0,0,2.61,6.3,5.63,12.25c-10.29,5.74-22.46,5.03-29.84,1.98C387,226.5,392.4,226.09,396.45,225.13z"/>
		</g>
		<g id="XMLID_1161_">
			<g id="XMLID_619_">
				<path id="XMLID_621_" style="fill:#FFA8A7;" d="M430.32,161.7c-6.62,15.59-15.65,24.86-19.82,34.86
					c-5.46-0.37-9.71-13.54-5.65-19.18c0,0,15.61-17.97,17.05-24.76c1.28-6.03,4.07-15.65,3.91-20.74c-0.03-0.85-0.4-1.64-0.98-2.26
					c-1.68-1.8-1.68-3.25-2.75-5.24c-0.84-1.55-1.76-2.13-1.5-2.48c0.34-0.45,1.4-1.03,2.72-0.2c0.66,0.42,1.1,0.91,2.06,1.98
					c0,0-0.26-2.4-1.63-5.5c-1.86-4.19-1.41-6.33,4.25-4.84c3.55,0.94,5.77,3.89,6.3,12.41c0.15,2.46,0.35,7.54,0.06,10.65
					c-0.61,6.56-1.29,12.84-2.1,18.28C431.9,157.09,431.27,159.45,430.32,161.7z"/>
			</g>
			<g id="XMLID_459_">
				<path id="XMLID_458_" style="fill:#27DEBF;" d="M444.06,113.45c-0.73-2.37-1.89-3.28-1.89-3.28s0.08-2.01-1.41-4.79
					c-1.54-2.89-3.25-3.12-3.25-3.12s-0.2-2.05-2.09-4.04c-1.89-1.98-3.65-1.46-3.65-1.46V84.95c0-2.53-1.54-5.48-3.44-6.58v0
					c-0.88-0.51-1.67-0.53-2.28-0.16l0,0l-3.83,2.21c-0.05,0.03-0.1,0.06-0.15,0.09l-0.01,0l0,0c-0.68,0.44-1.11,1.4-1.11,2.73
					v15.91c0,6.99-1.68,10.74-1.64,16.65c0.02,3.04,1.34,8.49,1.34,9.71s0,3.09,0,6.34l18.52,10.69l3.93-2.27c0,0,0-4.71,0-6.82
					c0-2.11,0.24-3.6,0.97-8.53C444.79,119.97,444.79,115.82,444.06,113.45z"/>
				<g id="XMLID_460_">
					<path id="XMLID_426_" style="opacity:0.15;" d="M444.06,113.45c-0.73-2.37-1.89-3.28-1.89-3.28s0.08-2.01-1.41-4.79
						c-1.54-2.89-3.25-3.12-3.25-3.12s-0.2-2.05-2.09-4.04c-1.89-1.98-3.65-1.46-3.65-1.46V84.95c0-2.53-1.54-5.48-3.44-6.58v0
						c-0.88-0.51-1.67-0.53-2.28-0.16l0,0l-3.83,2.21c-0.05,0.03-0.1,0.06-0.15,0.09l-0.01,0l0,0c-0.68,0.44-1.11,1.4-1.11,2.73
						v15.91c0,6.99-1.68,10.74-1.64,16.65c0.02,3.04,1.34,8.49,1.34,9.71s0,3.09,0,6.34l18.52,10.69l3.93-2.27c0,0,0-4.71,0-6.82
						c0-2.11,0.24-3.6,0.97-8.53C444.79,119.97,444.79,115.82,444.06,113.45z"/>
					<path id="XMLID_1050_" style="opacity:0.15;" d="M435.8,139.55l3.36,2.99l3.93-2.27c0,0,0-4.71,0-6.82
						c0-2.11,0.24-3.6,0.97-8.53c0.73-4.94,0.73-9.08,0-11.45c-0.01-0.02-0.01-0.04-0.02-0.06l-7.28,4.21L435.8,139.55z"/>
					<path id="XMLID_1028_" style="opacity:0.15;" d="M442.18,110.16c0-0.13,0.02-1.79-1.09-4.14l-4.28,2.47l-2.1,2.35l3.55,1.59
						L442.18,110.16L442.18,110.16z"/>
					<path id="XMLID_1027_" style="opacity:0.15;" d="M431.3,102.6l2.28,1.93l3.93-2.27c0,0-0.12-1.2-1.03-2.66L431.3,102.6z"/>
					<polygon id="XMLID_276_" style="opacity:0.15;" points="431.76,96.76 427.83,99.03 427.83,87.22 431.76,84.95 					"/>
				</g>
				<g id="XMLID_405_">
					<path id="XMLID_1020_" style="fill:#27DEBF;" d="M420.64,131.84c0-3.25,0-5.12,0-6.34s-1.32-6.66-1.34-9.71
						c-0.04-5.91,1.64-9.66,1.64-16.65V83.24c0-2.53,1.54-3.7,3.44-2.6l0,0c1.9,1.1,3.44,4.04,3.44,6.58v11.82
						c0,0,1.77-0.52,3.65,1.46c1.89,1.98,2.09,4.04,2.09,4.04s1.71,0.23,3.25,3.12c1.49,2.79,1.41,4.79,1.41,4.79
						s1.16,0.91,1.89,3.28c0.73,2.37,0.73,6.51,0,11.45c-0.73,4.94-0.97,6.42-0.97,8.53c0,2.11,0,6.82,0,6.82L420.64,131.84z"/>
					<g id="XMLID_413_">
						<g id="XMLID_1019_">
							<path id="XMLID_1054_" style="fill:#FAFAFA;" d="M437.99,140.48c-0.11,0-0.19-0.09-0.19-0.19v-5.26
								c0-2.12,0.21-3.56,0.85-7.85l0.15-0.99c0.79-5.32,0.57-8.83,0.11-10.33c-0.21-0.69-0.51-1.28-0.89-1.76
								c-0.44-0.57-0.79-1.27-0.98-1.97c-0.08-0.31-0.13-0.61-0.17-0.89c-0.04-0.26-0.07-0.53-0.14-0.8
								c-0.16-0.64-0.45-1.32-0.82-1.95c-0.45-0.77-0.99-1.43-1.56-1.91c-0.56-0.47-1.19-1-1.64-1.82c-0.14-0.26-0.27-0.53-0.4-0.8
								c-0.13-0.27-0.26-0.55-0.41-0.81c-0.37-0.66-0.75-1.2-1.04-1.47c-1.1-1.03-2.04-0.9-2.3-0.68c-0.65,0.55-1.02,1.33-1.36,2.86
								c-0.02,0.1-0.11,0.16-0.21,0.15c-0.1-0.01-0.17-0.09-0.17-0.19l-0.36-17.29c0-1.66-1.04-3.6-2.28-4.23
								c-0.44-0.23-0.85-0.24-1.18-0.04c-0.44,0.27-0.7,0.9-0.7,1.74v15.82c0,3.77-0.46,6.58-0.9,9.3c-0.39,2.4-0.76,4.66-0.74,7.34
								c0.01,1.63,0.49,4.32,0.85,6.28c0.32,1.8,0.49,2.77,0.49,3.44v4.77c0,0.11-0.09,0.19-0.19,0.19c-0.11,0-0.19-0.09-0.19-0.19
								v-4.77c0-0.64-0.17-1.59-0.49-3.37c-0.36-1.97-0.84-4.68-0.85-6.35c-0.02-2.71,0.35-4.99,0.75-7.4
								c0.44-2.7,0.9-5.49,0.9-9.24V84.01c0-0.97,0.32-1.72,0.88-2.07c0.44-0.27,0.99-0.26,1.55,0.03c1.35,0.69,2.49,2.78,2.49,4.57
								l0.34,15.95c0.28-0.82,0.63-1.35,1.13-1.77c0.42-0.36,1.56-0.49,2.81,0.69c0.43,0.4,0.88,1.15,1.11,1.56
								c0.15,0.27,0.29,0.56,0.42,0.84c0.12,0.26,0.25,0.52,0.38,0.77c0.42,0.77,1,1.25,1.55,1.72c0.6,0.5,1.17,1.2,1.64,2.01
								c0.39,0.66,0.69,1.37,0.86,2.05c0.07,0.29,0.11,0.57,0.15,0.84c0.04,0.29,0.08,0.57,0.16,0.85c0.18,0.66,0.5,1.31,0.91,1.84
								c0.41,0.52,0.72,1.15,0.95,1.88c0.48,1.54,0.7,5.11-0.1,10.5l-0.15,0.99c-0.63,4.26-0.85,5.7-0.85,7.79v5.26
								C438.18,140.4,438.09,140.48,437.99,140.48z"/>
						</g>
						<g id="XMLID_1017_">
							<path id="XMLID_1053_" style="fill:#FAFAFA;" d="M429.23,114.61c-1.19,0-2.71-0.51-4.28-1.48c-0.09-0.06-0.12-0.17-0.06-0.27
								c0.06-0.09,0.18-0.12,0.27-0.06c1.97,1.21,3.9,1.69,5.04,1.26c0.47-0.18,0.78-0.51,0.93-0.98c0.48-1.56-0.49-3.47-0.7-3.85
								c-0.46-0.12-2.74-0.72-4.31-1.45c-1.75-0.81-2.06-0.86-2.59,0.19c-0.15,0.3-0.38,0.69-0.65,1.14
								c-0.82,1.39-1.94,3.3-2.12,4.91c-0.01,0.11-0.11,0.18-0.21,0.17c-0.11-0.01-0.18-0.11-0.17-0.21
								c0.18-1.7,1.33-3.65,2.17-5.07c0.26-0.44,0.49-0.83,0.63-1.12c0.7-1.4,1.41-1.15,3.1-0.37c1.71,0.79,4.3,1.44,4.32,1.44
								c0.05,0.01,0.09,0.04,0.12,0.09c0.06,0.09,1.36,2.33,0.78,4.23c-0.18,0.58-0.58,1.01-1.16,1.23
								C430.01,114.55,429.64,114.61,429.23,114.61z"/>
						</g>
						<g id="XMLID_1013_">
							<path id="XMLID_1022_" style="fill:#FAFAFA;" d="M425.47,118.38c-0.06,0-0.12-0.03-0.16-0.09c-0.06-0.09-0.03-0.21,0.06-0.27
								c1.49-0.98,1.24-4.12,1.23-4.15c-0.01-0.11,0.07-0.2,0.18-0.21c0.11-0.01,0.2,0.07,0.21,0.18c0.01,0.14,0.28,3.4-1.41,4.51
								C425.54,118.37,425.5,118.38,425.47,118.38z"/>
						</g>
						<g id="XMLID_995_">
							<path id="XMLID_793_" style="fill:#FAFAFA;" d="M426.57,107.97c-0.01,0-0.01,0-0.02,0c-0.11-0.01-0.19-0.1-0.18-0.21
								c0-0.02,0.14-1.83,0.46-3.96c0.02-0.11,0.11-0.18,0.22-0.16c0.11,0.02,0.18,0.11,0.16,0.22c-0.31,2.12-0.45,3.92-0.45,3.94
								C426.75,107.9,426.67,107.97,426.57,107.97z"/>
						</g>
						<g id="XMLID_994_">
							<path id="XMLID_792_" style="fill:#FAFAFA;" d="M428.96,118.26c-0.71,0-1.63-0.68-2.51-1.85c-0.06-0.09-0.05-0.21,0.04-0.27
								c0.09-0.06,0.21-0.05,0.27,0.04c1.01,1.35,1.87,1.75,2.3,1.68c0.22-0.03,0.37-0.18,0.46-0.44c0.12-0.33,0.41-1.47,0.88-3.38
								c0.03-0.1,0.13-0.17,0.23-0.14c0.1,0.03,0.17,0.13,0.14,0.23c-0.47,1.92-0.77,3.07-0.89,3.41c-0.17,0.51-0.51,0.66-0.76,0.7
								C429.06,118.25,429.01,118.26,428.96,118.26z"/>
						</g>
						<g id="XMLID_993_">
							<path id="XMLID_791_" style="fill:#FAFAFA;" d="M431.34,111.2c-0.02,0-0.03,0-0.05-0.01c-0.1-0.03-0.17-0.13-0.14-0.23
								c0.5-2.05,0.89-3.71,0.89-3.71c0.02-0.1,0.13-0.17,0.23-0.14c0.1,0.02,0.17,0.13,0.14,0.23c0,0-0.39,1.66-0.89,3.71
								C431.5,111.14,431.42,111.2,431.34,111.2z"/>
						</g>
						<g id="XMLID_707_">
							<path id="XMLID_778_" style="fill:#FAFAFA;" d="M432.44,121.53c-0.46,0-1.02-0.29-1.69-0.88c-0.88-0.77-1.54-2.21-1.35-2.97
								c0.03-0.1,0.13-0.17,0.23-0.14c0.1,0.03,0.17,0.13,0.14,0.23c-0.14,0.56,0.4,1.86,1.23,2.58c0.66,0.57,1.2,0.84,1.56,0.77
								c0.21-0.04,0.37-0.19,0.51-0.47c0.5-0.98,2.25-5.34,2.78-7.45c0.03-0.1,0.13-0.17,0.23-0.14c0.1,0.03,0.17,0.13,0.14,0.23
								c-0.53,2.14-2.31,6.54-2.81,7.53c-0.2,0.39-0.45,0.61-0.78,0.68C432.57,121.52,432.5,121.53,432.44,121.53z"/>
						</g>
						<g id="XMLID_423_">
							<path id="XMLID_770_" style="fill:#FAFAFA;" d="M435.79,124.4c-0.66,0-1.34-0.59-1.6-0.85c-0.98-0.97-1.32-2.42-1.01-3.11
								c0.04-0.1,0.16-0.14,0.26-0.1c0.1,0.04,0.14,0.16,0.1,0.26c-0.23,0.51,0.02,1.77,0.93,2.67c0.48,0.47,1,0.76,1.36,0.74
								c0.15-0.01,0.28-0.07,0.37-0.18c0.37-0.44,1.52-3.36,1.94-4.45c0.04-0.1,0.15-0.15,0.25-0.11c0.1,0.04,0.15,0.15,0.11,0.25
								c-0.15,0.41-1.52,4-2,4.56c-0.17,0.2-0.39,0.31-0.65,0.32C435.83,124.4,435.81,124.4,435.79,124.4z"/>
						</g>
					</g>
					<g id="XMLID_407_">
						<path id="XMLID_410_" style="fill:#FAFAFA;" d="M428.56,129.4l-0.14,1.18c-0.01,0.07-0.04,0.11-0.08,0.14
							c-0.04,0.03-0.09,0.02-0.15-0.01l-0.73-0.42c-0.06-0.03-0.1-0.09-0.14-0.16c-0.04-0.08-0.06-0.15-0.06-0.23v-0.02l0.14-1.14
							l-0.93-0.54l-0.14,1.18c-0.01,0.07-0.04,0.11-0.08,0.14c-0.04,0.03-0.09,0.02-0.15-0.01l-0.73-0.42
							c-0.06-0.03-0.1-0.09-0.14-0.16c-0.04-0.08-0.06-0.15-0.06-0.23v-0.02l0.14-1.14l-0.62-0.36c-0.07-0.04-0.13-0.11-0.18-0.2
							c-0.05-0.09-0.07-0.19-0.07-0.28v-0.78c0-0.09,0.02-0.15,0.07-0.19c0.05-0.04,0.11-0.04,0.18,0l0.78,0.45l0.19-1.58
							l-0.73-0.42c-0.07-0.04-0.13-0.11-0.18-0.2c-0.05-0.09-0.07-0.19-0.07-0.28v-0.78c0-0.09,0.02-0.15,0.07-0.19
							c0.05-0.04,0.11-0.04,0.18,0l0.89,0.51l0.15-1.16c0.01-0.06,0.04-0.1,0.07-0.14c0.04-0.03,0.09-0.03,0.15,0.01l0.74,0.43
							c0.06,0.03,0.1,0.09,0.14,0.16c0.04,0.08,0.06,0.15,0.06,0.23v0.04l-0.14,1.12l0.92,0.53l0.15-1.16
							c0.01-0.06,0.04-0.1,0.07-0.14c0.04-0.03,0.09-0.03,0.15,0.01l0.74,0.43c0.06,0.03,0.1,0.09,0.14,0.16
							c0.04,0.08,0.06,0.15,0.06,0.23v0.04l-0.14,1.12l0.62,0.36c0.07,0.04,0.13,0.11,0.18,0.2c0.05,0.09,0.07,0.19,0.07,0.28v0.78
							c0,0.09-0.02,0.15-0.07,0.19c-0.05,0.04-0.11,0.04-0.18,0l-0.79-0.45l-0.18,1.58l0.73,0.42c0.07,0.04,0.13,0.11,0.18,0.2
							c0.05,0.09,0.07,0.19,0.07,0.28v0.78c0,0.09-0.02,0.15-0.07,0.19c-0.05,0.04-0.11,0.04-0.18,0L428.56,129.4z M426.62,126.84
							l0.92,0.53l0.19-1.58l-0.93-0.54L426.62,126.84z"/>
						<path id="XMLID_408_" style="fill:#FAFAFA;" d="M430.58,126.72c-0.04-0.1-0.06-0.19-0.05-0.28c0.01-0.08,0.04-0.14,0.1-0.17
							l2.01-0.95c0.05-0.02,0.1-0.04,0.15-0.05s0.11,0,0.17,0.03l0.72,0.42c0.07,0.04,0.13,0.11,0.18,0.2
							c0.05,0.09,0.07,0.19,0.07,0.28v7.97c0,0.09-0.02,0.15-0.07,0.19c-0.05,0.04-0.11,0.04-0.18,0l-0.75-0.43
							c-0.07-0.04-0.13-0.11-0.18-0.2c-0.05-0.09-0.07-0.19-0.07-0.28v-6.09l-1.31,0.61c-0.06,0.03-0.12,0.01-0.18-0.04
							c-0.06-0.05-0.12-0.13-0.17-0.23L430.58,126.72z"/>
					</g>
				</g>
			</g>
		</g>
		<g id="XMLID_1162_">
			<g id="XMLID_678_">
				<path id="XMLID_680_" style="fill:#263238;" d="M375.23,173.78h17.53c9.35,0,16.92-7.58,16.92-16.92v-3.53
					c0-9.87-8-17.87-17.87-17.87l0,0c-9.16,0-16.58,7.42-16.58,16.58V173.78z"/>
			</g>
			<g id="XMLID_637_">
				<g id="XMLID_660_">
					<path id="XMLID_662_" style="fill:#FFA8A7;" d="M380.95,145.08c-0.89,0.46-3.28,5.01-3.05,14.97c0.2,8.44,2.93,10.52,4.3,11.12
						c1.37,0.6,4.02,0.24,6.6-0.19v5.06c0,0-3.56,4.13-3.33,6.45c0.22,2.32,5.14,2.87,8.47,0.6c3.33-2.27,5.46-5.72,5.46-5.72
						v-12.24c0,0,1.74,2.32,4.58,0.43c2.84-1.89,2.95-6.56,1.3-8.24c-1.65-1.68-5.21-1.15-5.88,1.17c0,0-4.17,0.74-9.76-2.86
						C383.6,151.76,381.74,148.66,380.95,145.08z"/>
				</g>
				<path id="XMLID_659_" style="fill:#263238;" d="M379.57,154.52l2.36-1.13c-0.29-0.67-1.05-0.96-1.7-0.65
					C379.58,153.05,379.28,153.85,379.57,154.52z"/>
				<path id="XMLID_658_" style="fill:#263238;" d="M389.33,153.77l2.21,1.39c0.41-0.6,0.25-1.4-0.36-1.78
					C390.57,152.99,389.74,153.17,389.33,153.77z"/>
				<path id="XMLID_657_" style="fill:#263238;" d="M399.5,156.18l-0.14,5.16c-1.46,0.01-2.6-1.14-2.56-2.57
					C396.83,157.35,398.04,156.19,399.5,156.18z"/>
				<path id="XMLID_673_" style="fill:#263238;" d="M401.95,139.62l2.23-4.66c1.33,0.58,1.92,2.1,1.3,3.39
					C404.86,139.63,403.28,140.2,401.95,139.62z"/>
				<path id="XMLID_674_" style="fill:#263238;" d="M403.14,139.33l5.15-0.45c0.17,1.44-0.84,2.72-2.26,2.84
					C404.6,141.84,403.31,140.77,403.14,139.33z"/>
				<g id="XMLID_655_">
					<path id="XMLID_656_" style="fill:#263238;" d="M388.27,157.61c-0.03,0.61,0.42,1.12,1,1.15c0.59,0.03,1.08-0.44,1.11-1.05
						c0.03-0.61-0.42-1.12-1-1.15C388.8,156.53,388.3,157,388.27,157.61z"/>
				</g>
				<g id="XMLID_653_">
					<path id="XMLID_654_" style="fill:#F28F8F;" d="M387.04,165.08l-2.46,0.79c0.2,0.71,0.92,1.1,1.6,0.88
						C386.86,166.54,387.24,165.79,387.04,165.08z"/>
				</g>
				<g id="XMLID_651_">
					<path id="XMLID_652_" style="fill:#263238;" d="M380.07,157.16c-0.03,0.61,0.42,1.12,1,1.15c0.59,0.03,1.08-0.44,1.11-1.05
						c0.03-0.61-0.42-1.12-1-1.15C380.6,156.09,380.1,156.56,380.07,157.16z"/>
				</g>
				<g id="XMLID_649_">
					<polygon id="XMLID_650_" style="fill:#F28F8F;" points="385.25,156.56 385.08,162.94 381.72,161.9 					"/>
				</g>
				<g id="XMLID_645_">
					<path id="XMLID_646_" style="fill:#F28F8F;" d="M388.8,170.98c2.71-0.36,8.29-1.96,9.16-4.17c0,0-0.29,1.39-1.96,2.82
						c-1.67,1.43-7.21,3.04-7.21,3.04V170.98z"/>
				</g>
			</g>
		</g>
	</g>
</g>
<g id="Character_1">
	<g id="XMLID_1160_">
		<g id="XMLID_1157_">
			<g id="XMLID_748_">
				<g id="XMLID_753_">
					<path id="XMLID_754_" style="fill:#B16668;" d="M147.65,167.2c2.7-3.91,3.21-10.98,4.42-36.32c0.15-3.04-7.89,2.3-8.54,4.27
						c-0.52,1.58-2.53,23.68-4.21,25.87c-3.51,3.47-16.65,10.68-22.07,11.53c-5.53,0.87-6.19,4.68-6.19,4.68s5.95,13.02,14.09,8.49
						C130.53,182.73,145.8,169.89,147.65,167.2z"/>
				</g>
			</g>
			<path id="XMLID_686_" style="fill:#455A64;" d="M112.63,173.06c2.7-0.81,4.82-1.95,8.48-3.36c4.89-1.87,10.46-4.13,10.46-4.13
				s8.69,4.08,5.82,12.41l-13.24,8.69L112.63,173.06z"/>
			<g id="XMLID_694_">
				<g id="XMLID_975_">
					<path id="XMLID_980_" style="fill:#27DEBF;" d="M158.38,101.15c-0.25-0.53-0.55-0.82-0.84-0.98l0,0l-1.07-0.62
						c-0.07-0.69-0.35-1.92-1.39-2.67c-0.07-0.05-0.14-0.09-0.21-0.13l-3.77-2.17l0,0c-0.93-0.63-1.92-0.24-2.55,0.16l-1.45-0.84
						l0,0c-0.25-0.17-0.58-0.28-1.01-0.28v-6.77c0-1.38-0.46-2.35-1.18-2.77l0,0l-3.91-2.26l0,0c-0.61-0.37-1.41-0.35-2.29,0.16l0,0
						c-1.9,1.1-3.44,4.04-3.44,6.58v15.9c0,6.98-1.68,12.68-1.64,18.55c0.02,3.02,1.34,6.94,1.34,8.16c0,1.22,0,3.09,0,6.33
						l3.93,2.27l18.52-10.69c0,0,0-4.71,0-6.82c0-2.11,0.24-3.88,0.97-9.66C159.11,106.82,159.11,102.68,158.38,101.15z"/>
					<path id="XMLID_979_" style="opacity:0.15;" d="M158.38,101.15c-0.25-0.53-0.55-0.82-0.84-0.98l0,0l-1.07-0.62
						c-0.07-0.69-0.35-1.92-1.39-2.67c-0.07-0.05-0.14-0.09-0.21-0.13l-3.77-2.17l0,0c-0.93-0.63-1.92-0.24-2.55,0.16l-1.45-0.84
						l0,0c-0.25-0.17-0.58-0.28-1.01-0.28v-6.77c0-1.38-0.46-2.35-1.18-2.77l0,0l-3.91-2.26l0,0c-0.61-0.37-1.41-0.35-2.29,0.16l0,0
						c-1.9,1.1-3.44,4.04-3.44,6.58v15.9c0,6.98-1.68,12.68-1.64,18.55c0.02,3.02,1.34,6.94,1.34,8.16c0,1.22,0,3.09,0,6.33
						l3.93,2.27l18.52-10.69c0,0,0-4.71,0-6.82c0-2.11,0.24-3.88,0.97-9.66C159.11,106.82,159.11,102.68,158.38,101.15z"/>
					<path id="XMLID_978_" style="opacity:0.15;" d="M157.49,100.15c-0.53-0.27-1-0.1-1-0.1s0.01-0.19-0.03-0.5L157.49,100.15z"/>
					<path id="XMLID_977_" style="opacity:0.15;" d="M147.81,96.82c-1.01,0.8-1.73,1.85-1.73,1.85v-2.85L147.81,96.82z"/>
					<path id="XMLID_976_" style="opacity:0.15;" d="M148.54,94.75l2.41,1.39c0.25,0.15,0.44,0.35,0.58,0.59
						c0.14,0.22,0.23,0.49,0.29,0.81c0.29-0.28,0.65-0.55,1.11-0.77l-3.93-2.27C148.84,94.57,148.68,94.66,148.54,94.75z"/>
				</g>
				<path id="XMLID_970_" style="fill:#27DEBF;" d="M138.89,139.77c0-3.25,0-5.12,0-6.33c0-1.22-1.32-5.14-1.34-8.16
					c-0.04-5.86,1.64-11.56,1.64-18.55v-15.9c0-2.53,1.54-5.48,3.44-6.58l0,0c1.9-1.1,3.44,0.07,3.44,2.6v11.82
					c0,0,1.77-2.56,3.65-2.76c1.89-0.2,2.09,1.62,2.09,1.62s1.71-1.75,3.25-0.64c1.49,1.07,1.41,3.16,1.41,3.16s1.16-0.42,1.89,1.1
					c0.73,1.53,0.73,5.67,0,11.45c-0.73,5.78-0.97,7.55-0.97,9.66c0,2.11,0,6.82,0,6.82L138.89,139.77z"/>
				<g id="XMLID_695_">
					<g id="XMLID_823_">
						<g id="XMLID_968_">
							<path id="XMLID_969_" style="fill:#FFFFFF;" d="M140.06,137.72c-0.11,0-0.19-0.09-0.19-0.19v-4.77c0-0.63-0.17-1.39-0.49-2.8
								c-0.36-1.57-0.84-3.71-0.85-5.37c-0.02-2.69,0.35-5.39,0.75-8.25c0.44-3.21,0.9-6.53,0.9-10.28V90.24
								c0-1.72,0.99-3.71,2.24-4.51c0.64-0.41,1.27-0.48,1.77-0.21c0.58,0.32,0.91,1.05,0.91,2.02l0.33,15.15
								c0.28-1.12,0.61-2.01,1.09-2.98c0.39-0.78,1.46-2.11,2.69-2.37c0.48-0.1,0.97,0.14,1.22,0.3c0.17,0.1,0.31,0.24,0.45,0.37
								c0.12,0.12,0.24,0.23,0.36,0.31c0.36,0.24,0.91,0.07,1.44-0.1c0.63-0.2,1.24-0.16,1.75,0.13c0.42,0.23,0.74,0.62,0.93,1.14
								c0.08,0.21,0.12,0.45,0.16,0.68c0.04,0.24,0.08,0.46,0.15,0.65c0.16,0.4,0.44,0.64,0.79,0.69c0.46,0.06,0.82,0.35,1.07,0.87
								c0.48,1,0.71,4.33-0.09,10.64l-0.15,1.15c-0.63,5-0.85,6.68-0.85,8.77v5.26c0,0.11-0.09,0.19-0.19,0.19
								c-0.11,0-0.19-0.09-0.19-0.19v-5.26c0-2.12,0.21-3.81,0.85-8.82l0.15-1.16c0.79-6.23,0.58-9.47,0.12-10.42
								c-0.19-0.4-0.44-0.61-0.77-0.65c-0.5-0.06-0.89-0.39-1.1-0.93c-0.09-0.22-0.13-0.48-0.17-0.72
								c-0.04-0.21-0.07-0.44-0.14-0.61c-0.15-0.42-0.41-0.74-0.75-0.93c-0.42-0.23-0.92-0.26-1.45-0.1
								c-0.58,0.18-1.24,0.39-1.76,0.05c-0.16-0.1-0.29-0.23-0.42-0.36c-0.13-0.12-0.25-0.24-0.38-0.32
								c-0.16-0.1-0.57-0.32-0.93-0.25c-1.04,0.22-2.04,1.4-2.42,2.17c-0.68,1.36-1.06,2.6-1.4,4.55c-0.02,0.1-0.11,0.17-0.21,0.16
								c-0.1-0.01-0.18-0.09-0.18-0.19l-0.37-16.87c0-0.82-0.26-1.44-0.71-1.68c-0.38-0.21-0.86-0.14-1.38,0.19
								c-1.14,0.73-2.07,2.61-2.07,4.19v15.82c0,3.77-0.46,7.1-0.9,10.33c-0.39,2.85-0.76,5.54-0.74,8.2
								c0.01,1.62,0.49,3.74,0.84,5.29c0.33,1.43,0.5,2.21,0.5,2.88v4.77C140.26,137.64,140.17,137.72,140.06,137.72z"/>
						</g>
						<g id="XMLID_959_">
							<path id="XMLID_962_" style="fill:#FFFFFF;" d="M138.81,122.23c-0.01,0-0.01,0-0.02,0c-0.11-0.01-0.18-0.1-0.17-0.21
								c0.18-1.89,1.32-5.14,2.15-7.51c0.26-0.75,0.49-1.4,0.64-1.86c0.63-2,1.21-2.47,2.92-3.66c1.71-1.19,4.31-3.54,4.34-3.56
								c0.06-0.05,0.15-0.07,0.22-0.03c0.06,0.03,1.45,0.8,0.86,3.41c-0.55,2.42-3.28,5.51-6.35,7.17
								c-0.09,0.05-0.21,0.02-0.26-0.08c-0.05-0.09-0.02-0.21,0.08-0.26c2.98-1.62,5.63-4.59,6.15-6.92
								c0.43-1.91-0.27-2.69-0.55-2.91c-0.52,0.47-2.74,2.43-4.26,3.49c-1.7,1.18-2.17,1.56-2.77,3.46
								c-0.15,0.47-0.38,1.12-0.64,1.88c-0.83,2.35-1.96,5.58-2.13,7.42C138.99,122.16,138.91,122.23,138.81,122.23z"/>
						</g>
						<g id="XMLID_941_">
							<path id="XMLID_942_" style="fill:#FFFFFF;" d="M143.71,120.74c-0.03,0-0.06-0.01-0.09-0.02c-0.09-0.05-0.13-0.17-0.08-0.26
								c1.56-2.82,1.3-5.71,1.3-5.74c-0.01-0.11,0.07-0.2,0.17-0.21c0.1-0.01,0.2,0.07,0.21,0.17c0.01,0.12,0.28,3.03-1.34,5.97
								C143.85,120.71,143.78,120.74,143.71,120.74z"/>
						</g>
						<g id="XMLID_921_">
							<path id="XMLID_922_" style="fill:#FFFFFF;" d="M144.81,109.07c0,0-0.01,0-0.01,0c-0.11-0.01-0.19-0.1-0.18-0.21
								c0-0.02,0.14-1.99,0.46-4.48c0.01-0.11,0.11-0.18,0.22-0.17c0.11,0.01,0.18,0.11,0.17,0.22c-0.31,2.48-0.45,4.44-0.45,4.46
								C145,108.99,144.92,109.07,144.81,109.07z"/>
						</g>
						<g id="XMLID_915_">
							<path id="XMLID_916_" style="fill:#FFFFFF;" d="M145.23,117.58c-0.14,0-0.28-0.01-0.42-0.04c-0.11-0.02-0.17-0.12-0.15-0.23
								c0.02-0.11,0.12-0.18,0.23-0.16c1.22,0.23,2.51-0.78,2.87-2.24c0.12-0.47,0.41-1.96,0.89-4.41c0.02-0.1,0.12-0.17,0.23-0.15
								c0.1,0.02,0.17,0.12,0.15,0.23c-0.47,2.46-0.77,3.95-0.89,4.43C147.76,116.51,146.51,117.58,145.23,117.58z"/>
						</g>
						<g id="XMLID_895_">
							<path id="XMLID_896_" style="fill:#FFFFFF;" d="M149.58,106.79c-0.01,0-0.02,0-0.04,0c-0.11-0.02-0.17-0.12-0.15-0.23
								c0.5-2.63,0.89-4.73,0.89-4.73c0.02-0.11,0.12-0.18,0.23-0.16c0.11,0.02,0.17,0.12,0.15,0.23c0,0-0.39,2.11-0.89,4.73
								C149.75,106.72,149.67,106.79,149.58,106.79z"/>
						</g>
						<g id="XMLID_853_">
							<path id="XMLID_854_" style="fill:#FFFFFF;" d="M148.78,116.87c-0.3,0-0.57-0.1-0.78-0.29c-0.32-0.3-0.46-0.77-0.36-1.26
								c0.02-0.11,0.12-0.17,0.23-0.15c0.1,0.02,0.17,0.12,0.15,0.23c-0.07,0.36,0.02,0.7,0.25,0.91c0.2,0.19,0.49,0.24,0.8,0.15
								c1.46-0.41,1.98-1.55,2.24-2.38c0.5-1.56,2.26-7.96,2.79-10.69c0.02-0.1,0.12-0.17,0.23-0.15c0.1,0.02,0.17,0.12,0.15,0.23
								c-0.53,2.74-2.3,9.17-2.8,10.74c-0.45,1.42-1.27,2.28-2.51,2.63C149.04,116.85,148.9,116.87,148.78,116.87z"/>
						</g>
						<g id="XMLID_828_">
							<path id="XMLID_829_" style="fill:#FFFFFF;" d="M152.38,115.75c-0.37,0-0.6-0.17-0.74-0.32c-0.33-0.37-0.42-1.05-0.22-1.71
								c0.03-0.1,0.14-0.16,0.24-0.13c0.1,0.03,0.16,0.14,0.13,0.24c-0.15,0.52-0.1,1.07,0.14,1.34c0.14,0.16,0.35,0.22,0.61,0.18
								c0.62-0.1,1.44-0.66,1.87-1.67c0.46-1.07,1.94-6.7,1.96-6.75c0.03-0.1,0.13-0.17,0.24-0.14c0.1,0.03,0.17,0.13,0.14,0.24
								c-0.06,0.23-1.51,5.71-1.98,6.81c-0.52,1.22-1.49,1.79-2.17,1.9C152.53,115.74,152.45,115.75,152.38,115.75z"/>
						</g>
					</g>
					<g id="XMLID_739_">
						<g id="XMLID_819_">
							<path id="XMLID_820_" style="fill:#FFFFFF;" d="M146.8,128.19l-0.14,1.34c-0.01,0.08-0.04,0.16-0.08,0.23
								c-0.04,0.07-0.09,0.13-0.15,0.16l-0.73,0.42c-0.06,0.03-0.1,0.03-0.14,0c-0.04-0.03-0.06-0.08-0.06-0.16v-0.02l0.14-1.3
								l-0.93,0.54l-0.14,1.34c-0.01,0.08-0.04,0.16-0.08,0.23c-0.04,0.07-0.09,0.13-0.15,0.16l-0.73,0.42
								c-0.06,0.03-0.1,0.03-0.14,0c-0.04-0.03-0.06-0.08-0.06-0.16v-0.02l0.14-1.3l-0.62,0.36c-0.07,0.04-0.13,0.04-0.18,0
								c-0.05-0.04-0.07-0.1-0.07-0.19v-0.78c0-0.09,0.02-0.18,0.07-0.28c0.05-0.09,0.11-0.16,0.18-0.2l0.78-0.45l0.19-1.8
								l-0.73,0.42c-0.07,0.04-0.13,0.04-0.18,0c-0.05-0.04-0.07-0.1-0.07-0.19v-0.78c0-0.09,0.02-0.18,0.07-0.28
								c0.05-0.09,0.11-0.16,0.18-0.2l0.89-0.51l0.15-1.33c0.01-0.07,0.04-0.15,0.07-0.22c0.04-0.07,0.09-0.13,0.15-0.17l0.74-0.43
								c0.06-0.03,0.1-0.03,0.14,0c0.04,0.03,0.06,0.08,0.06,0.16v0.04l-0.14,1.28l0.92-0.53l0.15-1.33
								c0.01-0.07,0.04-0.15,0.07-0.22c0.04-0.07,0.09-0.13,0.15-0.17l0.74-0.43c0.06-0.03,0.1-0.03,0.14,0
								c0.04,0.03,0.06,0.08,0.06,0.16v0.04l-0.14,1.28l0.62-0.36c0.07-0.04,0.13-0.04,0.18,0c0.05,0.04,0.07,0.1,0.07,0.19v0.78
								c0,0.09-0.02,0.18-0.07,0.28c-0.05,0.09-0.11,0.16-0.18,0.2l-0.79,0.45l-0.18,1.8l0.73-0.42c0.07-0.04,0.13-0.04,0.18,0
								c0.05,0.04,0.07,0.1,0.07,0.19v0.78c0,0.09-0.02,0.18-0.07,0.28c-0.05,0.09-0.11,0.16-0.18,0.2L146.8,128.19z M144.87,127.87
								l0.92-0.53l0.19-1.8l-0.93,0.54L144.87,127.87z"/>
						</g>
						<g id="XMLID_752_">
							<path id="XMLID_816_" style="fill:#FFFFFF;" d="M148.83,123.18c-0.04-0.05-0.06-0.12-0.05-0.22c0.01-0.1,0.04-0.19,0.1-0.28
								l2.01-3.27c0.05-0.08,0.1-0.15,0.15-0.23s0.11-0.13,0.17-0.17l0.72-0.42c0.07-0.04,0.13-0.04,0.18,0
								c0.05,0.04,0.07,0.1,0.07,0.19v7.96c0,0.09-0.02,0.18-0.07,0.28c-0.05,0.09-0.11,0.16-0.18,0.2l-0.75,0.43
								c-0.07,0.04-0.13,0.04-0.18,0c-0.05-0.04-0.07-0.1-0.07-0.19v-6.09l-1.31,2.13c-0.06,0.09-0.12,0.15-0.18,0.17
								c-0.06,0.02-0.12,0.01-0.17-0.03L148.83,123.18z"/>
						</g>
					</g>
				</g>
			</g>
		</g>
		<g id="XMLID_1156_">
			
				<rect id="XMLID_747_" x="90.61" y="337.91" transform="matrix(-1 -1.224647e-16 1.224647e-16 -1 189.3142 689.682)" style="fill:#B16668;" width="8.1" height="13.86"/>
			<path id="XMLID_698_" style="fill:#263238;" d="M98.71,347.77v-1.16c0.77,0.34,2.57,7.21,5.79,10.14
				c2.55,2.33,6.04,5.02,6.92,7.62c0.92,2.7-4.85,4.19-7.24,3.77c-2.77-0.49-7.58-2.44-8.78-4.25c-1.21-1.81-1.77-4.48-2.75-5.81
				c-0.98-1.33-3.24-2.81-3.77-4.34c-0.29-0.84,0.05-2.69,0.46-4.25c0.38-1.43,0.78-3.01,1.27-2.87c0,0.17,0,0.88,0,0.88
				c0.59,0.65,2.21,1.3,4.05,1.37C95.84,348.91,98.72,348.68,98.71,347.77z"/>
		</g>
		<g id="XMLID_1155_">
			<polygon id="XMLID_746_" style="fill:#B16668;" points="113.01,341.4 121.11,341.68 121.51,327.01 113.01,326.73 			"/>
			<path id="XMLID_697_" style="fill:#263238;" d="M121.19,339.18c0.42,0.01,0.76,0.61,1.69,1.61c1.12,1.21,2.95,2.52,4.76,3.43
				c3.03,1.52,8.93,3.85,11.59,5.05c1.67,0.75,1.59,2.76-0.13,3.91c-1.72,1.15-5.88,1.97-10.88,0.85c-2.72-0.61-6.26-3.12-8.5-2.99
				c-2.24,0.14-6.44,0.1-8.09-1.04c-1.65-1.14-0.99-3.58-0.52-5.67c0.51-2.28,1.15-5.85,1.9-5.69v0.79c0.97,1.47,6,2.07,8.14,0.99
				L121.19,339.18z"/>
		</g>
		<g id="XMLID_1154_">
			<path id="XMLID_745_" style="fill:#37474F;" d="M87.16,234.4c0,7.73,1.37,52.71,1.37,52.71c-0.19,2.23-2.33,6.18-2.5,14.2
				c-0.24,11.62,4.23,43.53,4.23,43.53s3.93,2.3,9.02,0.18c0,0,3.67-43.26,5.12-54.76c1.27-10.04,3.41-37.31,3.41-37.31l3.81,32.78
				c0,0-1.49,5.99-1,12.87c0.38,5.32,1.88,38.27,1.88,38.27s3.81,2.59,9.35,0.72c0,0,5.71-46.97,5.8-51.85
				c0.11-5.57-2.12-62.38-2.12-62.38L87.16,234.4z"/>
			<path id="XMLID_696_" style="fill:#263238;" d="M107.82,252.94c0,0,6.47-1.82,11.28-6.47c0,0-2.18,4.07-8.65,7.86l0.86,28.62
				L107.82,252.94z"/>
		</g>
		<g id="XMLID_1159_">
			<path id="XMLID_665_" style="fill:#37474F;" d="M82.19,163.24c-0.79-0.45-4.6,1.23-7.02,4.33c-2.41,3.1-2.79,7.58-2.1,8.54
				c0.69,0.96,9.97-2.76,9.97-2.76L82.19,163.24z"/>
			<path id="XMLID_738_" style="fill:#27DEBF;" d="M92.48,177.52c-1.78,0.8-3.19,2.25-3.9,4.06c-0.64,1.62-2.56,4.23-2.56,7.32
				l1.37,15.54l-0.23,29.96c11.62,6.13,26.4,6.54,38.8-2.52c0,0-0.69-38.56-0.69-44.87c0-0.29-0.01-0.57-0.02-0.87
				c-0.33-6.6-5.18-11.69-11.19-13.05c-2.19-0.49-14.2,1.99-14.2,1.99L92.48,177.52L92.48,177.52z"/>
			<path id="XMLID_1222_" style="fill:#B16668;" d="M67.08,165.02c1.38,3.13,17.74,25.01,21.67,30.24
				c10.22-4.94,2.7-16.88,2.7-16.88s-11.81-17.24-13.72-20.14c-0.51-0.78-0.76-1.7-0.9-2.43c-0.29-1.58-1.99-20.95-1.31-26.86
				c0.12-1.05,0.65-2,1.43-2.71c2.11-1.89,2.8-3.57,4.25-5.74c1.14-1.7,2.26-2.27,2-2.7c-0.34-0.56-1.5-1.35-3.12-0.53
				c-0.81,0.41-1.81,1.28-3.04,2.4c0,0,0.49-3.07,2.41-6.49c2.61-4.63,2.32-7.15-4.37-6.05c-4.2,0.69-8.16,4.16-9.71,13.94
				c-0.45,2.82-0.38,7.03-0.42,10.64c-0.08,8.23,0.22,21.23,0.64,26.9C65.81,161.47,65.69,161.89,67.08,165.02z"/>
			<path id="XMLID_687_" style="fill:#455A64;" d="M94.03,177.01l-11.85-13.76c0,0,0.65,10.35-9.12,12.87l13.49,18.88
				c1.53,2.85,6.25-0.54,7.56-6.72C95.94,179.64,94.03,177.01,94.03,177.01z"/>
			<path id="XMLID_234_" style="fill:#455A64;" d="M98.93,175.4l-1.37,0.45c0,0,2.36,3.48,6.9,4.54c4.53,1.06,7.87-0.06,8.76-1.59
				c0.89-1.53-0.6-4.15-2.15-5.21L98.93,175.4z"/>
		</g>
		<g id="XMLID_701_">
			<g id="XMLID_715_">
				<path id="XMLID_737_" style="fill:#263238;" d="M102.14,148.01c0,6.15,4.98,11.13,11.13,11.13c6.15,0,11.13-4.98,11.13-11.13
					c0-6.15-4.98-11.13-11.13-11.13C107.12,136.88,102.14,141.87,102.14,148.01z"/>
				<path id="XMLID_736_" style="fill:#263238;" d="M94.03,155.92c0,0,1.8,8.47,2.53,9.86c0.72,1.39,2.22,1.79,2.22,1.79l-0.13-5.96
					L94.03,155.92z"/>
				<path id="XMLID_721_" style="fill:#263238;" d="M96.3,143.79c0,0-1.94-0.33-3.46,1.22c-1.48,1.52-0.66,6.27,1.19,10.92l3.4,0.39
					L96.3,143.79z"/>
				<path id="XMLID_720_" style="fill:#B16668;" d="M98.45,156.32c-0.68,0.41-1.65-0.9-2.49-1.78c-0.84-0.88-3.58-2.08-4.95,0.8
					c-1.39,2.94,1.21,6.82,3.37,7.5c3.72,1.17,4.28-1.22,4.28-1.22l0.27,13.78l0,0c4.63,5.93,17.46,5.48,12.11-0.72l-0.01-4.08
					c0,0,3.37,0.51,5.02,0.26c2.74-0.42,4.46-2.58,5.29-5.54c1.33-4.76,1.84-8.6,0.71-17.95c-1.24-10.25-13.17-10.36-19.61-6.31
					C95.99,145.11,98.45,156.32,98.45,156.32z"/>
				<path id="XMLID_719_" style="fill:#263238;" d="M98.45,157.46c-0.34,0.01-1.64-2.15-2.49-2.93c-1.17-1.07,0.34-10.75,0.34-10.75
					s-1.13-2.41,1.13-4.9c1.61-1.77,3.36-2.89,8-3.14c2.72-0.15,7.06,0.28,9.5,0.45c4.58,0.31,6.27-0.82,8.91-1.56
					c2.01-0.56,2.24,6.71-2.84,9.11c0,0-1.66,1.07-6.01,1.6c-4.36,0.53-11.15-0.1-12.07-0.23c-1.26-0.17-1.53,1.05-2.21,4.4
					C100.1,152.46,99.6,157.44,98.45,157.46z"/>
				<path id="XMLID_718_" style="fill:#263238;" d="M96.3,144.54l-4.12-2.21c0.58-1.18,1.98-1.64,3.12-1.03
					C96.44,141.91,96.89,143.36,96.3,144.54z"/>
				<path id="XMLID_717_" style="fill:#9A4A4D;" d="M111.03,170.6c0,0-6.11-1.23-8.24-2.37c-1.43-0.76-2.61-2.08-2.95-2.92
					c0,0,0.4,1.81,1.68,3.44c1.56,2,9.52,3.47,9.52,3.47L111.03,170.6z"/>
			</g>
			<g id="XMLID_703_">
				<path id="XMLID_712_" style="fill:#263238;" d="M110.73,154.79c0,0.7-0.55,1.27-1.22,1.27c-0.68,0-1.22-0.57-1.22-1.28
					c0-0.7,0.55-1.27,1.22-1.27C110.18,153.52,110.73,154.09,110.73,154.79z"/>
				<path id="XMLID_711_" style="fill:#263238;" d="M109.43,150.17l-2.62,1.44c-0.39-0.75-0.11-1.69,0.61-2.08
					C108.15,149.13,109.05,149.42,109.43,150.17z"/>
				<path id="XMLID_710_" style="fill:#9A4A4D;" d="M110.48,163.24l2.79,1.05c-0.28,0.8-1.13,1.22-1.9,0.93
					C110.6,164.93,110.2,164.05,110.48,163.24z"/>
				<path id="XMLID_706_" style="fill:#263238;" d="M121.29,151.19l-2.39-1.84c0.49-0.68,1.42-0.83,2.08-0.32
					C121.64,149.54,121.78,150.51,121.29,151.19z"/>
				<path id="XMLID_705_" style="fill:#263238;" d="M120.56,154.44c0,0.7-0.55,1.27-1.22,1.27c-0.68,0-1.22-0.57-1.22-1.27
					c0-0.7,0.55-1.27,1.22-1.27C120.01,153.17,120.56,153.74,120.56,154.44z"/>
				<polygon id="XMLID_704_" style="fill:#9A4A4D;" points="114.32,153.28 114.72,160.64 118.56,159.33 				"/>
			</g>
		</g>
	</g>
</g>
</svg>
