<?xml version="1.0" encoding="utf-8"?>
<!-- Generator: Adobe Illustrator 22.1.0, SVG Export Plug-In . SVG Version: 6.00 Build 0)  -->
<svg version="1.1" xmlns="http://www.w3.org/2000/svg" xmlns:xlink="http://www.w3.org/1999/xlink" x="0px" y="0px"
	 viewBox="0 0 500 500" style="enable-background:new 0 0 500 500;" xml:space="preserve">
<g id="Floor">
	<ellipse id="Floor_7_" style="fill:#F5F5F5;" cx="252.3" cy="353.91" rx="233.16" ry="133.64"/>
</g>
<g id="Shadows">
	<ellipse id="Shadow_32_" style="fill:#E0E0E0;" cx="413.54" cy="325.57" rx="50.75" ry="29.3"/>
	<ellipse id="Shadow_33_" style="fill:#E0E0E0;" cx="94.69" cy="394.95" rx="47.89" ry="27.65"/>
	<ellipse id="Shadow_34_" style="fill:#E0E0E0;" cx="250.86" cy="356.32" rx="40.92" ry="23.62"/>
</g>
<g id="Plants">
	<g id="Plants_13_">
		<g id="XMLID_14332_">
			<g id="XMLID_14809_">
				<path id="XMLID_14863_" style="fill:#27DEBF;" d="M184.43,359l5-2.7c0,0,2.68-12.97,1.18-24.21
					c-2.11-15.81-12.7-21.49-16.63-20.02c-3.93,1.47-4.96,6.11,1.86,15.38C179.85,332.92,184.91,344.39,184.43,359z"/>
			</g>
			<g id="XMLID_14335_" style="opacity:0.15;">
				<path id="XMLID_14808_" d="M184.43,359l5-2.7c0,0,2.68-12.97,1.18-24.21c-2.11-15.81-12.7-21.49-16.63-20.02
					c-3.93,1.47-4.96,6.11,1.86,15.38C179.85,332.92,184.91,344.39,184.43,359z"/>
			</g>
			<g id="XMLID_14333_">
				<path id="XMLID_14334_" style="fill:#FFFFFF;" d="M186.36,352.79c-0.02,0-0.03,0-0.05,0c-0.19-0.03-0.32-0.21-0.29-0.4
					c2.39-14.69-3.15-30.98-9.65-37.65c-0.14-0.14-0.13-0.36,0.01-0.5c0.14-0.13,0.36-0.13,0.5,0.01
					c6.62,6.79,12.27,23.35,9.84,38.26C186.69,352.67,186.53,352.79,186.36,352.79z"/>
			</g>
		</g>
		<g id="XMLID_14311_">
			<g id="XMLID_14316_">
				<path id="XMLID_14331_" style="fill:#27DEBF;" d="M170.86,366.41c-0.79,0.43-2.37-0.59-2.98-1.02c-1.04-0.73-1.86-1.75-2.4-2.9
					c-0.63-1.33-0.76-2.75-0.52-4.2c0.13-0.75,0.35-1.48,0.58-2.21c0.22-0.71,0.45-1.43,0.67-2.14c0.22-0.71,0.45-1.43,0.37-2.17
					c-0.15-1.48-1.44-2.55-2.61-3.47c-1.29-1.02-2.63-2.35-2.58-4.13c0.04-1.37,0.78-2.63,1.66-3.68c0.88-1.06,1.91-1.98,2.7-3.1
					c0.57-0.8,1.03-1.76,0.96-2.74c-0.04-0.61-0.28-1.19-0.56-1.74c-0.6-1.17-1.4-2.25-1.81-3.51c-0.4-1.25-0.3-2.8,0.69-3.67
					c0.81-0.71,2-0.78,3.08-0.69c1,0.09,1.96,0.56,2.82,1.07c2.78,1.64,4.32,5.02,7.28,6.3c1.14,0.49,2.41,0.63,3.6,0.97
					c1.2,0.35,2.41,0.99,2.94,2.12c1.05,2.22-1.06,4.88-0.34,7.23c0.63,2.08,2.62,2.92,3.7,4.8c0.47,0.82,0.56,1.77,0.46,2.71
					c-0.17,1.6-0.44,2.77-1.25,4.54c-0.67,1.46-2.6,4.05-2.6,4.05C184.68,358.88,170.98,366.34,170.86,366.41z"/>
			</g>
			<g id="XMLID_14314_">
				<path id="XMLID_14315_" style="fill:#FFFFFF;" d="M178.96,362.34C178.96,362.34,178.95,362.34,178.96,362.34
					c-0.21-0.01-0.35-0.18-0.34-0.37c0.92-13.94-5.29-29.5-9.96-34.09c-0.14-0.14-0.14-0.36,0-0.5c0.14-0.14,0.36-0.14,0.5,0
					c4.77,4.68,11.1,20.5,10.17,34.64C179.31,362.2,179.15,362.34,178.96,362.34z"/>
			</g>
			<g id="XMLID_14312_">
				<path id="XMLID_14313_" style="fill:#FFFFFF;" d="M177.27,345.8c-0.03,0-0.07-0.01-0.1-0.02c-4.45-1.49-10.03-1.87-10.09-1.88
					c-0.19-0.01-0.34-0.18-0.33-0.37c0.01-0.19,0.16-0.34,0.37-0.33c0.06,0,5.73,0.39,10.26,1.91c0.18,0.06,0.28,0.26,0.22,0.44
					C177.56,345.72,177.42,345.81,177.27,345.8z"/>
			</g>
		</g>
	</g>
	<g id="Plants_1_">
		<g id="XMLID_8586_">
			<path id="XMLID_14272_" style="fill:#27DEBF;" d="M312,336.72l-5.39-3.11c0,0-1.32-11.53-0.44-20.47
				c1.23-12.55,9.34-27.66,19.01-24.11c9.67,3.55-4.43,16.33-7.57,26.98C314.47,326.65,312,336.72,312,336.72z"/>
			<path id="XMLID_8512_" style="opacity:0.15;" d="M312,336.72l-5.39-3.11c0,0-1.32-11.53-0.44-20.47
				c1.23-12.55,9.34-27.66,19.01-24.11c9.67,3.55-4.43,16.33-7.57,26.98C314.47,326.65,312,336.72,312,336.72z"/>
			<path id="XMLID_8635_" style="fill:#FFFFFF;" d="M309.17,335.41c0,0,0.01,0,0.01,0c0.18-0.01,0.32-0.16,0.31-0.34
				c-0.95-27.89,12.94-41.92,13.08-42.06c0.13-0.13,0.13-0.33,0-0.46c-0.13-0.13-0.33-0.13-0.46,0
				c-0.14,0.14-14.23,14.37-13.27,42.55C308.85,335.27,309,335.41,309.17,335.41z"/>
		</g>
		<g id="XMLID_8505_">
			<path id="XMLID_8521_" style="fill:#27DEBF;" d="M314.88,338.94l-3.83-2.21c0,0-0.65-7.92,3.23-17.53
				c3.38-8.37,11.76-15.32,15.98-13.86c4.22,1.46,4.11,4.45,2.06,7.58C330.25,316.06,317.75,323.54,314.88,338.94z"/>
			<path id="XMLID_8506_" style="fill:#FFFFFF;" d="M312.86,338.1L312.86,338.1c0.18,0,0.33-0.15,0.33-0.33
				c-0.08-17.64,16.48-29.55,16.65-29.67c0.15-0.1,0.18-0.31,0.08-0.45c-0.1-0.15-0.31-0.18-0.45-0.08
				c-0.17,0.12-17,12.24-16.93,30.21C312.53,337.96,312.68,338.1,312.86,338.1z"/>
		</g>
	</g>
</g>
<g id="Character_3_1_">
	<g id="XMLID_15083_">
		<path id="XMLID_8008_" style="fill:#FFC1A7;" d="M370.89,173.39c16.72-1.51,32.59-4.25,37.75-10.89
			c-4.56-3.58-5.7-4.27-10.45-4.24c-4.23,0.03-22.49,5.27-28.08,4.87c-3.88-1.94-15.79-11.15-20.15-14.29
			c-0.77-0.56-6.73,6.37-3.18,9.46c5,4.35,13.28,10.62,17.98,13.29C366.85,172.79,368.49,173.61,370.89,173.39z"/>
		<g id="XMLID_4736_">
			<path id="XMLID_4811_" style="fill:#455A64;" d="M390.05,105.61L390.05,105.61c-0.21-0.06-0.51-0.07-0.82,0.08l-9.21,4.15
				c-0.65,0.29-1.32-0.03-1.53-0.71c-0.36-1.16-6.67-2.5-7.19-3.5l3.55-8.79L390.05,105.61z"/>
			<path id="XMLID_4774_" style="fill:#263238;" d="M374.84,96.88l0-0.02c-0.21-0.12-0.49-0.14-0.8,0l-6.8-15.74
				c0.32-0.64,0.07-1.45-0.54-1.8l-6.66-3.85c-0.62-0.36-1.44-0.16-1.83,0.43l-7.65,11.51c-0.39,0.59-1.29,1.01-2,0.99
				c-0.87-0.02-1.76,0.02-2.67,0.12v-8.41l-5.11-2.95v0c-0.23-0.12-0.52-0.11-0.84,0.07l-10.35,5.97c-0.62,0.36-1.17,1.22-1.23,1.93
				l-1.04,11.51c-0.06,0.71-0.55,1.67-1.08,2.15c-2.01,1.85-3.94,3.9-5.75,6.08c-0.45,0.55-1.36,0.81-2.03,0.58l-6.64-2.32
				c-0.67-0.24-1.51,0.08-1.86,0.69l-7.61,13.18c-0.36,0.62-0.21,1.5,0.33,1.96l5.33,4.59c0.54,0.47,0.77,1.38,0.52,2.05
				c-0.99,2.66-1.8,5.35-2.4,8.02c-0.16,0.7-0.74,1.6-1.32,2.01l-9.45,6.65c-0.58,0.41-1.06,1.32-1.06,2.03v11.95
				c0,0.37,0.14,0.63,0.37,0.77l0,0l11.98,6.92l-4.37,8.81c-0.32,0.64-0.07,1.45,0.54,1.8l16.29,9.44c0.62,0.36,1.44,0.16,1.83-0.43
				l7.4-7.57c0.03,0.34,0.18,0.59,0.4,0.71l15.17,8.76l0.4-11.88c0,0-3.21-4.14-3.14-4.85l16.54-18.01
				c0.67,0.24,1.51-0.07,1.86-0.69l7.61-13.18c0.36-0.62,0.21-1.5-0.33-1.96l7.33-23.32c0.58-0.41,1.06-1.32,1.06-2.03L374.84,96.88
				z M334.75,147.14c-4.44,2.56-8.11,3.11-10.78,1.87c-3.13-1.46,22.27-45,24.93-42.62c2.16,1.92,3.32,5.49,3.32,10.47
				C352.23,128.01,344.4,141.56,334.75,147.14z"/>
			<path id="XMLID_4773_" style="fill:#455A64;" d="M377.37,86.96l-2.06,4.16l-6.61,7.63l-7.79-4.5l-10.92-6.31
				c0.22-0.15,0.42-0.33,0.55-0.53l7.65-11.5c0.4-0.59,1.2-0.78,1.82-0.44l6.68,3.86l10.13,5.85
				C377.44,85.51,377.69,86.32,377.37,86.96z"/>
			<path id="XMLID_4772_" style="fill:#455A64;" d="M305.49,134.91c-0.21,0.3-0.45,0.56-0.7,0.74l-9.45,6.65
				c-0.25,0.18-0.47,0.45-0.65,0.76l15.9,9.2l12.55-7.14L305.49,134.91z"/>
			<path id="XMLID_4771_" style="fill:#455A64;" d="M311.18,103.08c-0.5,0.05-0.99,0.32-1.24,0.76l-7.61,13.18
				c-0.17,0.3-0.22,0.67-0.17,1.02l16.66,9.64l10.41-14.09L311.18,103.08z"/>
			<path id="XMLID_4770_" style="fill:#455A64;" d="M355.96,85.94v3.79l-9.21,5.32L328.5,84.51c0.22-0.53,0.63-1.04,1.07-1.29
				l10.35-5.97c0.18-0.1,0.36-0.15,0.52-0.15c0.12,0,0.22,0.03,0.32,0.08l4.98,2.87l0.13,0.08l6.88,3.98L355.96,85.94z"/>
			<path id="XMLID_4767_" style="fill:#37474F;" d="M390.42,118.34v-11.95c0-0.71-0.53-1.05-1.18-0.76l-9.21,4.15
				c-0.65,0.29-1.32-0.03-1.53-0.71c-0.54-1.69-1.23-3.22-2.05-4.57c-0.37-0.61-0.46-1.59-0.14-2.23l6.14-12.38
				c0.32-0.64,0.07-1.45-0.54-1.8l-6.66-3.85c-0.62-0.36-1.44-0.16-1.83,0.43l-7.65,11.51c-0.39,0.59-1.29,1.01-2,0.99
				c-1.58-0.04-3.25,0.12-4.98,0.51c-0.7,0.15-1.31-0.26-1.38-0.97l-1.01-10.05c-0.07-0.71-0.63-1-1.25-0.64l-10.35,5.97
				c-0.62,0.36-1.17,1.22-1.23,1.93l-1.04,11.51c-0.06,0.71-0.55,1.67-1.08,2.15c-2.01,1.85-3.94,3.9-5.75,6.08
				c-0.45,0.55-1.36,0.81-2.03,0.58l-6.64-2.32c-0.67-0.24-1.51,0.07-1.86,0.69l-7.61,13.18c-0.36,0.62-0.21,1.5,0.33,1.96
				l5.33,4.59c0.54,0.47,0.77,1.38,0.52,2.05c-0.99,2.66-1.8,5.35-2.39,8.02c-0.16,0.7-0.74,1.6-1.32,2.01l-9.45,6.65
				c-0.58,0.41-1.06,1.32-1.06,2.03v11.95c0,0.71,0.53,1.05,1.18,0.76l9.21-4.15c0.65-0.29,1.32,0.03,1.53,0.71
				c0.54,1.69,1.23,3.22,2.05,4.57c0.37,0.61,0.46,1.59,0.14,2.23l-6.14,12.38c-0.32,0.64-0.07,1.45,0.54,1.8l6.66,3.85
				c0.62,0.36,1.44,0.16,1.83-0.43l7.65-11.51c0.39-0.59,1.29-1.01,2-1c1.58,0.04,3.25-0.12,4.98-0.51c0.7-0.15,1.31,0.26,1.38,0.97
				l1.01,10.05c0.07,0.71,0.63,1,1.25,0.64l10.35-5.98c0.62-0.36,1.17-1.22,1.23-1.93l1.04-11.51c0.06-0.71,0.55-1.67,1.08-2.15
				c2.01-1.85,3.94-3.9,5.75-6.08c0.45-0.55,1.36-0.81,2.03-0.58l6.64,2.32c0.67,0.24,1.51-0.08,1.86-0.69l7.61-13.18
				c0.36-0.62,0.21-1.5-0.33-1.96l-5.33-4.59c-0.54-0.47-0.77-1.38-0.52-2.05c0.99-2.66,1.8-5.35,2.4-8.02
				c0.16-0.7,0.74-1.6,1.32-2.01l9.45-6.65C389.95,119.97,390.42,119.06,390.42,118.34z M349.96,155.92
				c-9.66,5.57-17.48,1.06-17.48-10.09c0-11.15,7.83-24.71,17.48-30.28c9.66-5.57,17.48-1.06,17.48,10.09
				C367.44,136.79,359.61,150.34,349.96,155.92z"/>
		</g>
		<g id="Character_1_">
			<g id="XMLID_2092_">
				<path id="XMLID_2375_" style="fill:#37474F;" d="M408.85,153.85h0.69c9.5,0,17.2-7.7,17.2-17.2v0c0-9.15-7.42-16.58-16.58-16.58
					h-1.93c-9.15,0-16.58,7.42-16.58,16.58l0,0C391.65,146.15,399.35,153.85,408.85,153.85z"/>
			</g>
			<path id="XMLID_1228_" style="fill:#37474F;" d="M435.44,163.53L435.44,163.53c-5.54,0-10.04-4.49-10.04-10.04v-22.07l0,0
				c5.54,0,10.04,4.49,10.04,10.04V163.53z"/>
			<g id="XMLID_6672_">
				<g id="XMLID_15086_">
					<g id="XMLID_15089_">
						<path id="XMLID_15090_" style="fill:#263238;" d="M442.91,309.69c-0.63,1.27-0.34,2.86-0.46,6.32
							c-0.07,2.27-0.06,4.57-0.4,6.82c-0.12,0.81-0.4,1.54-0.58,2.33c-0.15,0.63-0.42,1.17-0.94,1.6c-0.43,0.36-1.02,0.57-1.56,0.41
							c-0.43-0.12-0.77-0.46-0.97-0.86c-0.28-0.54-0.74-1.83-0.85-2.4c-0.76,5.78-6.64,9.53-2.84,11.03c3.3,1.31,5.65,0.26,7.7-0.62
							c1.26-0.54,2.38-1.74,2.65-2.2c1.52-2.54,1.31-4.87,1.37-7.08c0.13-4.89,0.83-6.61,1.27-9.05
							C447.83,313.04,443.85,309.27,442.91,309.69z"/>
					</g>
					<g id="XMLID_15091_">
						<path id="XMLID_15092_" style="fill:#FFC1A7;" d="M435.9,312.57c0,0-4.74-11.89-4.74-11.89l7.87-3.02
							c0.94,1.86,3.38,11.33,3.88,12.03c0.73,1.03,1.24,2.12,1.22,3.35c-0.07,3.94-0.57,7.88-1.47,11.71c-0.42,1.8-1.5,3-3.18,3.77
							c-0.63,0.29-1.32,0.51-2,0.43c-0.23-0.03-0.46-0.09-0.62-0.26c-0.33-0.34-0.01-1.14,0.06-1.54c0.11-0.64,0.18-1.29,0.21-1.95
							c0.06-1.28,0.05-2.85-0.01-4.13C436.97,317.74,436.53,315.02,435.9,312.57z"/>
					</g>
				</g>
				<g id="XMLID_6710_">
					<path id="XMLID_8000_" style="fill:#263238;" d="M400.56,316.17c0,0,0.32,0.05,0.39,0.49c0.1,0.65,0.2,1.87,0.4,2.99
						c0.27,1.48,0.54,3.62,0.28,4.8c-0.26,1.18-3.05,2.86-4.92,3.11c-1.87,0.25-5.09,1.99-6.6,3.31c-1.85,1.62-5.75,2.92-8.38,2.95
						c-3.08,0.04-5.49-0.69-6.19-2.92c-0.29-0.94,0.48-2.08,4.45-3.89c0,0,2.01-1.01,3.15-1.7c5.75-3.47,7.73-5.47,9.45-9.08
						L400.56,316.17z"/>
					<path id="XMLID_6711_" style="fill:#FFC1A7;" d="M390.4,319.19c1.04-1.73,1.58-3.52,1.58-5.06l0.13-4.91h8.48l-0.03,6.95
						l-0.03,1.06c-0.48,3.37-3.65,3.77-6.31,5.63c-1.32,0.93-6.49,4.9-9.96,5.54c-2.83,0.52-3.88-0.59-4.26-1.39
						C383.54,325,388.27,321.38,390.4,319.19z"/>
				</g>
				<path id="XMLID_6708_" style="fill:#455A64;" d="M427.97,265.07c0,0,5.67,4.65,8.62,12.18c2.61,6.66,5.83,29.4,5.83,29.4
					s-3.95,3.61-8.42,2.19c0,0-16.2-30.43-18.63-37.7c-2.47-3.72-5.56-22.02-7.79-34.67l-0.08,0.13l-3.8,26.86
					c0,0,1.73,5.48,2.13,9.65c0.64,6.59-4.92,38.51-4.92,38.51s-3.79,1.98-9.03,0.23c0,0-1.87-39.98-2.47-47.92
					c-1-13.33-0.45-52.53,2-60.43l34.93,1.95l0.03-0.02c2.9,8.37,3.13,13.72,2.75,22.9C428.72,237.82,427.97,265.07,427.97,265.07z"
					/>
				<path id="XMLID_6706_" style="fill:#37474F;" d="M407.5,236.6l-1.99-12.4c0,0-8.4-1.74-12.21-5.32c0,0,4,4.97,9.93,6.6
					l2.23,9.55l-1.52,26.36L407.5,236.6z"/>
			</g>
			<g id="XMLID_5018_">
				<path id="XMLID_6614_" style="fill:#27DEBF;" d="M415.56,159.06L415.56,159.06c2.55,0.18,4.57,0.53,5.86,1.25
					c2.68,1.5,2.91,4.17,2.95,7.35c0.04,3.49-0.84,6.18-1.9,11.92l-2,11.05c0,0,2.95,6.69,5.87,14.81
					c-13.71,7.65-30.82,3.63-34.94-1.95c-0.17-1.18,0.89-10.44,1.54-16.49c-2.41-6.06-3.05-9.89-2.03-13.9
					c1.89-7.43,9.23-14.67,12.48-14.41L415.56,159.06z"/>
				<path id="XMLID_1999_" style="opacity:0.15;" d="M417.75,208.74c2.91-0.68,5.83-1.74,8.6-3.29c-2.92-8.12-5.87-14.81-5.87-14.81
					l2-11.05c1-5.39,1.83-8.1,1.89-11.3l-5.26,1.47c0,0-22.59,12.17-22.67,12.27c-0.04,0.05-2.24,1.23-4.45,2.42
					c0.28,0.81,0.59,1.66,0.95,2.56c-0.14,1.34-0.31,2.85-0.48,4.38c3.09-0.52,8.17-1.53,12.6-3.08c6.92-2.42,14.23-7.67,14.48-7.37
					c0.26,0.3-0.93,9.01-0.93,9.01l-3.17-0.59c0,0,4.94,6.14,6.33,8.81C423.16,200.83,424.54,206.35,417.75,208.74z"/>
				<g id="XMLID_5399_">
					<path id="XMLID_5708_" style="fill:#37474F;" d="M426.32,126.77l-1.13,4.35c1.21,0.36,2.45-0.32,2.76-1.52
						C428.26,128.39,427.53,127.13,426.32,126.77z"/>
					<path id="XMLID_5706_" style="fill:#37474F;" d="M429.35,128.78l-3.75,2.47c0.66,1.08,2.04,1.4,3.07,0.72
						C429.7,131.29,430.01,129.86,429.35,128.78z"/>
					<g id="XMLID_5679_">
						<path id="XMLID_5694_" style="fill:#FFC1A7;" d="M397.77,127.53c-1.85,1.09-4.14,5.76-3.92,15.52
							c0.19,8.28,2.88,10.33,4.22,10.91c1.35,0.59,3.95,0.23,6.47-0.19v4.97c0,0-3.49,4.06-3.27,6.33c0.22,2.28,5.04,2.82,8.31,0.59
							c3.27-2.23,5.36-5.61,5.36-5.61v-12.88c0,0,1.65,1.85,4.44,0c2.79-1.85,2.55-5.49,0.93-7.13c-1.62-1.65-4.71-0.79-5.36,1.49
							c0,0-4.03,0.15-9.4-2.8C400.19,135.79,398.12,130.74,397.77,127.53z"/>
					</g>
					<g id="XMLID_5675_">
						<path id="XMLID_5677_" style="fill:#263238;" d="M404.02,140.98c-0.03,0.6,0.41,1.1,0.99,1.13c0.57,0.03,1.06-0.43,1.09-1.03
							c0.03-0.6-0.41-1.1-0.99-1.13C404.54,139.92,404.05,140.38,404.02,140.98z"/>
					</g>
					<g id="XMLID_5624_">
						<path id="XMLID_5625_" style="fill:#F59F7B;" d="M402.82,147.99l-2.42,0.77c0.2,0.69,0.9,1.08,1.57,0.87
							C402.64,149.42,403.02,148.69,402.82,147.99z"/>
					</g>
					<g id="XMLID_5622_">
						<path id="XMLID_5623_" style="fill:#263238;" d="M395.49,137.78l2.11-1.46c-0.38-0.6-1.17-0.76-1.75-0.36
							C395.26,136.36,395.1,137.18,395.49,137.78z"/>
					</g>
					<g id="XMLID_5487_">
						<path id="XMLID_5488_" style="fill:#263238;" d="M395.97,140.22c-0.03,0.6,0.41,1.1,0.99,1.13c0.57,0.03,1.06-0.43,1.09-1.03
							c0.03-0.6-0.41-1.1-0.99-1.13C396.49,139.17,396,139.63,395.97,140.22z"/>
					</g>
					<g id="XMLID_5478_">
						<polygon id="XMLID_5479_" style="fill:#F59F7B;" points="401.06,139.63 400.89,145.9 397.59,144.87 						"/>
					</g>
					<g id="XMLID_5400_">
						<path id="XMLID_5477_" style="fill:#F59F7B;" d="M404.55,153.78c2.66-0.35,8.14-1.92,8.99-4.09c0,0-0.28,1.36-1.92,2.76
							c-1.64,1.4-7.07,2.98-7.07,2.98V153.78z"/>
					</g>
				</g>
			</g>
			<path id="XMLID_4766_" style="fill:#FFC1A7;" d="M392,190.1c25.66-9.7,34.04-14.22,33.69-24.07c-0.12-3.46-1.85-5.07-4.27-5.71
				c-3.31,0.14-5.81,4.39-9.96,9.47c0,0-15.13,7.75-20.69,10.62c-6.55,0.22-20.39-1.91-25.6-3.25c-0.92-0.24-1.5-1.63-2.03-2.42
				c-1.43-2.13-2.9-2.48-4.66-4.06c-0.63-0.57-1.05-1.1-1.36-1.49l-0.39,4.28c0,0-1.56-0.03-4.98-2.61
				c-3.84-2.89-6.12-2.97-5.97,3.16c0.09,3.85,2.56,6.83,11.13,9.45c2.47,0.75,6.42,1.65,9.6,2.39c4.78,1.11,6.39,1.35,11.05,2.46
				C382.53,189.49,389.75,190.96,392,190.1z"/>
		</g>
	</g>
</g>
<g id="Character_2">
	<g id="XMLID_15084_">
		<g id="XMLID_10410_">
			<path id="XMLID_10886_" style="fill:#B16668;" d="M276.57,140.75c-0.27-0.95-0.9-1.76-1.73-2.29c-2.24-1.43-3.13-2.88-4.8-4.67
				c-1.31-1.4-2.44-1.76-2.26-2.2c0.23-0.57,1.18-1.48,2.8-0.96c0.82,0.26,1.86,0.91,3.17,1.76c0,0-0.91-2.77-3.21-5.64
				c-3.12-3.89-3.23-6.27,3.13-6.27c3.99,0,7.26,1.51,10.18,10.33c0.84,2.54,1.43,6.85,2.01,10.19c1.3,7.61,2.6,17.41,2.2,22.74
				c-0.2,2.7-1.13,4.29-2.43,7.23c-1.3,2.93-15.51,29.3-19.19,34.21c-9.59-4.64-2.53-15.84-2.53-15.84s10.93-22.23,12.72-24.96
				c0.48-0.73,0.71-1.59,0.84-2.28C277.75,160.61,277.2,146.29,276.57,140.75z"/>
			<g id="XMLID_9205_">
				<path id="XMLID_15075_" style="fill:#455A64;" d="M254.94,190.76c2.48-0.64,3.76-0.94,6.47-3.43
					c3.83-3.51,8.18-11.29,8.18-11.29c3.47-0.83,10.69,1.89,10.99,8.38l-13.87,24.86L254.94,190.76z"/>
			</g>
		</g>
		<g id="XMLID_3616_">
			<g id="XMLID_4620_">
				<path id="XMLID_4621_" style="fill:#27DEBF;" d="M280.72,92.6l21.26-4.77c-0.01-0.01-0.03-0.02-0.04-0.03
					c-0.51-0.29-4.86-2.82-9.09-5.26c-4.18-2.42-8.26-4.78-8.44-4.88c-0.16-0.1-0.36-0.16-0.59-0.17l-7.46-0.42
					c-0.76-0.04-1.32-0.59-1.26-1.21c0.22-2.5,0.22-4.92,0.01-7.2c-0.05-0.6,0.3-1.58,0.82-2.2l11.94-0.97
					c0.51-0.62,10.28-10.05,10.28-10.05c-0.02-0.01-0.03-0.02-0.05-0.03c-1.02-0.59-17.44-10.11-17.55-10.17
					c-0.09-0.05-0.22-0.07-0.34-0.07c-5.05-2.92-13.91-8.05-14.12-8.18c-0.22-0.13-0.52-0.2-0.86-0.16l-8.7,0.86
					c-0.81,0.09-1.66,0.68-1.9,1.33l-4.72,12.66c-0.25,0.65-1.1,1.45-1.9,1.84c-0.92,0.43-1.84,0.92-2.77,1.45l-9.13-5.29
					c-0.36-0.24-0.94-0.09-1.41,0.41l-9.56,10.09c-0.58,0.6-0.9,1.54-0.74,2.1l2.66,9.01c0.16,0.56-0.06,1.53-0.49,2.17
					c-1.63,2.47-3.1,5.04-4.39,7.64c-0.33,0.65-1.25,1.34-2.07,1.54l-8.18,1.97c-0.83,0.2-1.66,0.89-1.85,1.54l-4.12,13.85
					c-0.12,0.4,0.01,0.78,0.31,1.01c0.18,0.15,9.26,5.37,9.26,5.37c-0.01,1.27,0.04,2.51,0.15,3.71c0.06,0.59-0.29,1.58-0.81,2.2
					l-8.34,10.09c-0.51,0.63-0.74,1.56-0.5,2.07l3.96,8.76c0.06,0.13,0.15,0.22,0.25,0.28c0.32,0.19,16.95,9.81,17.57,10.17
					c0,0.01,0,0.01,0.01,0.01c0.01,0.01,0.01,0.01,0.01,0.01c0.01,0,0.01,0,0.02,0c0.02-0.01,0.03-0.04,0.05-0.08
					c0.09,0.05,0.17,0.09,0.26,0.16h0.01c4.97,2.88,13.59,7.86,14.13,8.17c0.01,0.01,0.02,0.01,0.03,0.02
					c0.24-0.65,7.41-30.36,7.72-29.89l4.46,6.81c0.04,0.06,0.09,0.11,0.14,0.15l8.5,4.93l9.17,5.31l-0.01-0.02l-6.63-20.7
					C271.52,120.58,284.87,95.4,280.72,92.6z M229.24,106.43l32.31-34.1c0.92,2.04,1.35,4.46,1.33,7.09
					c0.73-0.43,1.47-0.81,2.2-1.12c0.07,0.75,0.1,1.54,0.1,2.38c0,11.16-7.83,24.71-17.48,30.29c-0.71,0.4-1.4,0.77-2.07,1.08
					c-0.1-0.82-0.15-1.66-0.14-2.53C238.6,113.54,232.05,112.62,229.24,106.43z"/>
			</g>
			<g id="XMLID_2429_" style="opacity:0.15;">
				<path id="XMLID_2430_" d="M280.72,92.6l21.26-4.77c-0.01-0.01-0.03-0.02-0.04-0.03c-0.51-0.29-4.86-2.82-9.09-5.26
					c-4.18-2.42-8.26-4.78-8.44-4.88c-0.16-0.1-0.36-0.16-0.59-0.17l-7.46-0.42c-0.76-0.04-1.32-0.59-1.26-1.21
					c0.22-2.5,0.22-4.92,0.01-7.2c-0.05-0.6,0.3-1.58,0.82-2.2l11.94-0.97c0.51-0.62,10.28-10.05,10.28-10.05
					c-0.02-0.01-0.03-0.02-0.05-0.03c-1.02-0.59-17.44-10.11-17.55-10.17c-0.09-0.05-0.22-0.07-0.34-0.07
					c-5.05-2.92-13.91-8.05-14.12-8.18c-0.22-0.13-0.52-0.2-0.86-0.16l-8.7,0.86c-0.81,0.09-1.66,0.68-1.9,1.33l-4.72,12.66
					c-0.25,0.65-1.1,1.45-1.9,1.84c-0.92,0.43-1.84,0.92-2.77,1.45l-9.13-5.29c-0.36-0.24-0.94-0.09-1.41,0.41l-9.56,10.09
					c-0.58,0.6-0.9,1.54-0.74,2.1l2.66,9.01c0.16,0.56-0.06,1.53-0.49,2.17c-1.63,2.47-3.1,5.04-4.39,7.64
					c-0.33,0.65-1.25,1.34-2.07,1.54l-8.18,1.97c-0.83,0.2-1.66,0.89-1.85,1.54l-4.12,13.85c-0.12,0.4,0.01,0.78,0.31,1.01
					c0.18,0.15,9.26,5.37,9.26,5.37c-0.01,1.27,0.04,2.51,0.15,3.71c0.06,0.59-0.29,1.58-0.81,2.2l-8.34,10.09
					c-0.51,0.63-0.74,1.56-0.5,2.07l3.96,8.76c0.06,0.13,0.15,0.22,0.25,0.28c0.32,0.19,16.95,9.81,17.57,10.17
					c0,0.01,0,0.01,0.01,0.01c0.01,0.01,0.01,0.01,0.01,0.01c0.01,0,0.01,0,0.02,0c0.02-0.01,0.03-0.04,0.05-0.08
					c0.09,0.05,0.17,0.09,0.26,0.16h0.01c4.97,2.88,13.59,7.86,14.13,8.17c0.01,0.01,0.02,0.01,0.03,0.02
					c0.24-0.65,7.41-30.36,7.72-29.89l4.46,6.81c0.04,0.06,0.09,0.11,0.14,0.15l8.5,4.93l9.17,5.31l-0.01-0.02l-6.63-20.7
					C271.52,120.58,284.87,95.4,280.72,92.6z M229.24,106.43l32.31-34.1c0.92,2.04,1.35,4.46,1.33,7.09
					c0.73-0.43,1.47-0.81,2.2-1.12c0.07,0.75,0.1,1.54,0.1,2.38c0,11.16-7.83,24.71-17.48,30.29c-0.71,0.4-1.4,0.77-2.07,1.08
					c-0.1-0.82-0.15-1.66-0.14-2.53C238.6,113.54,232.05,112.62,229.24,106.43z"/>
			</g>
			<path id="XMLID_4931_" style="opacity:0.15;" d="M285.86,87.79l-5.11-10.47l-4.4-0.25c-0.76-0.04-1.32-0.59-1.26-1.21
				c0.11-1.31,0.17-2.59,0.16-3.85l-12.29,1.65l-0.69,0.82c0.4,1.52,0.61,3.18,0.6,4.94c0.73-0.43,1.47-0.81,2.2-1.12
				c0.07,0.75,0.1,1.54,0.1,2.38c0,11.16-7.83,24.71-17.48,30.29c-0.71,0.4-1.4,0.77-2.07,1.08c-0.1-0.82-0.15-1.66-0.14-2.53
				c-2.16,1.26-4.28,2.04-6.27,2.32l-0.16,0.46l8.96,16.58l0.08,0.02c1.04-4.06,1.84-6.97,1.94-6.82l4.46,6.81
				c0.04,0.06,0.09,0.11,0.14,0.15l8.5,4.93l9.17,5.31l-0.01-0.02l-6.63-20.7c5.85,2.02,19.21-23.16,15.06-25.96l4.11-0.92
				L285.86,87.79z"/>
			<path id="XMLID_4930_" style="opacity:0.15;" d="M239.06,127.91c0,0-7.01,8.29-12.32,15.15c0.6,0.35,0.99,0.57,1.08,0.62
				c0,0.01,0,0.01,0.01,0.01c0.01,0.01,0.01,0.01,0.01,0.01c0.01,0,0.01,0,0.02,0c0.02-0.01,0.03-0.04,0.05-0.08
				c0.09,0.05,0.17,0.09,0.26,0.16h0.01c4.97,2.88,13.59,7.86,14.13,8.17c0.01,0.01,0.02,0.01,0.03,0.02
				c0.14-0.39,2.7-10.92,4.84-19.37L239.06,127.91z"/>
			<path id="XMLID_4929_" style="opacity:0.15;" d="M215.4,111.39c-0.14,0.33-0.31,0.65-0.53,0.91l-8.34,10.09
				c-0.51,0.63-0.74,1.56-0.5,2.07l3.96,8.76c0.06,0.13,0.15,0.22,0.25,0.28c0.11,0.07,2.31,1.34,5.12,2.96l8.99,3.13l11.68-16.3
				L215.4,111.39z"/>
			<path id="XMLID_4928_" style="opacity:0.05;" d="M229.24,106.43l1.52-1.61c-7.26-1.73-17.26-4.09-17.26-4.09l-0.92,3.95
				c1.63,0.94,2.94,1.7,2.94,1.7c-0.01,1.27,0.04,2.51,0.15,3.71c0.04,0.35-0.08,0.83-0.28,1.29l20.63,11.91
				c0,0,5.88-10.37,5.59-10.85c-0.07-0.11-0.31-0.5-0.63-1.01C235.88,112.86,231.42,111.25,229.24,106.43z"/>
			<path id="XMLID_4927_" style="opacity:0.15;" d="M241.28,93.72L221.2,82.13c-0.35,0.24-0.73,0.43-1.1,0.52l-8.18,1.97
				c-0.83,0.2-1.66,0.89-1.85,1.54l-3,10.1l19.19,8.09l11.36-6.76L241.28,93.72z"/>
			<path id="XMLID_4926_" style="opacity:0.15;" d="M246.51,83.75l5.39-10.1l-3.64-13.12l-20.35-3.28l-2.78,2.94
				c-0.58,0.6-0.9,1.54-0.74,2.1l2.66,9.01c0.09,0.31,0.05,0.75-0.06,1.18L246.51,83.75z"/>
			<path id="XMLID_4925_" style="opacity:0.15;" d="M248.97,52.87l22.02,12.71c0,0,4.14-15.22,6.05-22.24
				c-4.91-2.84-10.78-6.24-10.95-6.34c-0.22-0.13-0.52-0.2-0.86-0.16l-8.7,0.86c-0.81,0.09-1.66,0.68-1.9,1.33l-4.72,12.66
				C249.76,52.06,249.4,52.5,248.97,52.87z"/>
			<path id="XMLID_4616_" style="fill:#27DEBF;" d="M227.83,143.69l-0.84-8.14l-20.97-12.11c-0.1,0.39-0.1,0.76,0.02,1.03l3.96,8.75
				c0.06,0.13,0.15,0.22,0.25,0.28h0l0.04,0.02C211.13,134.02,227.82,143.69,227.83,143.69z"/>
			<path id="XMLID_4615_" style="fill:#27DEBF;" d="M230.48,97.18l-20.12-11.57c-0.14,0.18-0.24,0.36-0.3,0.54l-4.12,13.86
				c-0.12,0.41,0.01,0.78,0.31,1.01c0.01,0.01,0.06,0.04,0.15,0.09l9.06,5.25c0.03,0.02,0.05,0.03,0.05,0.03l0,0l8.43,4.88
				L230.48,97.18z"/>
			<path id="XMLID_4376_" style="fill:#27DEBF;" d="M224.46,61.39l17.59,10.1l11.61-11.64L236.1,49.69l0,0
				c-0.36-0.23-0.93-0.08-1.41,0.42l-9.56,10.09C224.81,60.53,224.58,60.97,224.46,61.39z"/>
			<path id="XMLID_4375_" style="fill:#27DEBF;" d="M266.09,37c-0.22-0.14-0.51-0.2-0.86-0.17l-8.71,0.86
				c-0.53,0.05-1.07,0.33-1.45,0.69l22.88,13.21l5.85-3.38l-0.17-1.06C283.64,47.16,266.38,37.18,266.09,37z"/>
			<path id="XMLID_3603_" style="opacity:0.3;fill:#FFFFFF;" d="M227.83,143.69l-0.84-8.14l-20.97-12.11
				c-0.1,0.39-0.1,0.76,0.02,1.03l3.96,8.75c0.06,0.13,0.15,0.22,0.25,0.28h0l0.04,0.02C211.13,134.02,227.82,143.69,227.83,143.69z
				"/>
			<path id="XMLID_3602_" style="opacity:0.3;fill:#FFFFFF;" d="M230.48,97.18l-20.12-11.57c-0.14,0.18-0.24,0.36-0.3,0.54
				l-4.12,13.86c-0.12,0.41,0.01,0.78,0.31,1.01c0.01,0.01,0.06,0.04,0.15,0.09l9.06,5.25c0.03,0.02,0.05,0.03,0.05,0.03l0,0
				l8.43,4.88L230.48,97.18z"/>
			<path id="XMLID_3600_" style="opacity:0.4;fill:#FFFFFF;" d="M224.46,61.39l17.59,10.1l11.61-11.64L236.1,49.69l0,0
				c-0.36-0.23-0.93-0.08-1.41,0.42l-9.56,10.09C224.81,60.53,224.58,60.97,224.46,61.39z"/>
			<path id="XMLID_2435_" style="opacity:0.4;fill:#FFFFFF;" d="M266.09,37c-0.22-0.14-0.51-0.2-0.86-0.17l-8.71,0.86
				c-0.53,0.05-1.07,0.33-1.45,0.69l22.88,13.21l5.85-3.38l-0.17-1.06C283.64,47.16,266.38,37.18,266.09,37z"/>
			<g id="XMLID_3859_">
				<path id="XMLID_3981_" style="fill:#27DEBF;" d="M301.98,87.83c-0.01-0.01-0.03-0.02-0.04-0.03c-0.15-0.08-0.34-0.13-0.54-0.14
					l-7.46-0.42c-0.76-0.04-1.32-0.59-1.26-1.21c0.1-1.18,0.16-2.35,0.17-3.49c0.01-1.27-0.04-2.51-0.16-3.71
					c-0.05-0.59,0.3-1.58,0.82-2.2l8.33-10.09c0.52-0.63,0.74-1.56,0.51-2.07l-3.96-8.76c-0.05-0.12-0.14-0.22-0.24-0.28
					c-0.02-0.01-0.03-0.02-0.05-0.03c-0.33-0.16-0.82-0.03-1.27,0.4l-8.9,8.13c-0.63,0.58-1.48,0.71-1.95,0.33
					c-1.15-0.95-2.43-1.68-3.81-2.21c-0.61-0.24-1.03-0.91-0.9-1.56l2.75-12.46c0.09-0.38-0.07-0.7-0.38-0.88
					c-0.22-0.12-0.5-0.17-0.83-0.15l-8.7,0.87c-0.81,0.08-1.66,0.67-1.9,1.33l-4.72,12.66c-0.24,0.65-1.1,1.45-1.9,1.83
					c-1.78,0.84-3.58,1.89-5.39,3.12c-0.73,0.49-1.55,0.53-1.87,0.04l-4.45-6.8c-0.32-0.48-1.03-0.38-1.61,0.22l-9.56,10.1
					c-0.58,0.6-0.9,1.54-0.74,2.09l2.66,9.01c0.16,0.55-0.06,1.52-0.48,2.17c-1.64,2.47-3.1,5.03-4.4,7.63
					c-0.33,0.65-1.25,1.35-2.07,1.55l-8.18,1.97c-0.83,0.2-1.65,0.89-1.85,1.53l-4.12,13.86c-0.2,0.65,0.27,1.21,1.02,1.25
					l7.47,0.42c0.76,0.04,1.31,0.59,1.26,1.21c-0.22,2.5-0.23,4.92-0.02,7.2c0.06,0.6-0.29,1.58-0.81,2.2l-8.33,10.1
					c-0.52,0.62-0.74,1.55-0.51,2.07l3.96,8.75c0.05,0.13,0.14,0.22,0.24,0.28c0,0.01,0,0.01,0.01,0.01
					c0.01,0.01,0.02,0.01,0.03,0.01c0.09,0.05,0.2,0.08,0.31,0.08h0.01c0.29,0,0.64-0.16,0.97-0.46l8.89-8.14
					c0.63-0.57,1.48-0.71,1.95-0.33c1.16,0.95,2.44,1.68,3.81,2.21c0.62,0.24,1.04,0.92,0.9,1.56l-2.75,12.47
					c-0.08,0.37,0.07,0.67,0.36,0.85c0.01,0.01,0.02,0.01,0.03,0.02c0.21,0.12,0.49,0.18,0.82,0.15l8.7-0.86
					c0.81-0.09,1.66-0.68,1.9-1.33l4.73-12.66c0.24-0.65,1.1-1.45,1.9-1.84c0.91-0.43,1.84-0.92,2.76-1.45
					c0.87-0.51,1.75-1.07,2.63-1.66c0.72-0.5,1.55-0.53,1.86-0.05l4.46,6.81c0.06,0.09,0.13,0.15,0.22,0.2
					c0.36,0.22,0.92,0.07,1.39-0.42l9.56-10.1c0.57-0.59,0.9-1.54,0.73-2.09l-2.66-9c-0.16-0.56,0.07-1.53,0.49-2.17
					c1.64-2.47,3.1-5.04,4.39-7.64c0.33-0.65,1.25-1.34,2.08-1.54l8.17-1.97c0.84-0.2,1.66-0.89,1.85-1.54l4.12-13.85
					C302.55,88.47,302.37,88.06,301.98,87.83z M258.35,121.68c-0.16,0.04-0.32,0.09-0.48,0.12c-0.12,0.03-0.23,0.05-0.34,0.08
					c-0.26,0.05-0.52,0.09-0.77,0.13c-0.3,0.04-0.6,0.07-0.9,0.09c-0.19,0.01-0.37,0.02-0.56,0.02c-0.09,0-0.17,0-0.26,0
					c-3.57-0.04-6.55-1.85-8.2-5.51c-0.62-1.37-1.02-2.91-1.2-4.56c-0.1-0.82-0.15-1.66-0.14-2.53c0.05-7.89,4.11-17.67,10.8-24.74
					c2.16-2.28,4.39-4.06,6.59-5.35c0.73-0.43,1.47-0.81,2.2-1.12c2.17-0.96,4.26-1.39,6.17-1.31c0.03,0,0.04,0,0.07,0.01
					c0.1,0,0.21,0.01,0.31,0.02c0.11,0.01,0.22,0.02,0.32,0.03c0.11,0.01,0.22,0.02,0.34,0.04c2.97,0.43,5.4,2.22,6.84,5.41
					c3.69,8.17-0.54,22.43-9.46,31.84C265.93,118.28,261.96,120.76,258.35,121.68z"/>
			</g>
			<line id="XMLID_3858_" style="fill:#263238;" x1="280.55" y1="45.25" x2="298.14" y2="55.44"/>
		</g>
		<g id="XMLID_4814_">
			<g id="XMLID_9202_">
				
					<rect id="XMLID_9204_" x="231.36" y="343.36" transform="matrix(-0.9996 -0.0286 0.0286 -0.9996 460.2078 706.3102)" style="fill:#B16668;" width="7.6" height="13"/>
				<path id="XMLID_9203_" style="fill:#263238;" d="M238.87,352.72l0.03-1.09c0.72,0.34,2.22,6.83,5.15,9.66
					c2.33,2.25,5.53,4.87,6.29,7.33c0.79,2.56-4.66,3.8-6.89,3.34c-2.59-0.53-7.04-2.49-8.12-4.22c-1.08-1.73-1.54-4.25-2.42-5.52
					c-0.88-1.27-2.96-2.72-3.42-4.17c-0.25-0.8,0.12-2.52,0.55-3.97c0.39-1.33,0.81-2.8,1.27-2.66c0,0.16-0.02,0.83-0.02,0.83
					c0.53,0.63,2.04,1.28,3.76,1.39C236.16,353.71,238.86,353.57,238.87,352.72z"/>
			</g>
			<g id="XMLID_9192_">
				<polygon id="XMLID_9194_" style="fill:#B16668;" points="252.46,347.13 260.04,347.61 260.82,333.86 252.86,333.38 				"/>
				<path id="XMLID_9193_" style="fill:#263238;" d="M260.19,345.27c0.39,0.02,0.7,0.59,1.54,1.56c1.02,1.17,2.7,2.44,4.37,3.34
					c2.8,1.5,8.27,3.85,10.74,5.05c1.54,0.75,1.42,2.63-0.23,3.66c-1.65,1.03-5.57,1.69-10.22,0.51c-2.53-0.64-5.79-3.09-7.89-3.03
					c-2.11,0.07-6.04-0.08-7.56-1.19c-1.52-1.11-0.83-3.38-0.34-5.33c0.54-2.13,1.23-5.45,1.94-5.28l-0.02,0.74
					c0.87,1.41,5.57,2.11,7.6,1.15L260.19,345.27z"/>
			</g>
			<g id="XMLID_9186_">
				<path id="XMLID_9191_" style="fill:#27DEBF;" d="M231.09,246.12c-0.21,7.25-0.13,49.46-0.13,49.46
					c-0.24,2.08-2.35,5.73-2.72,13.24c-0.54,10.89,2.8,40.93,2.8,40.93s3.62,2.26,8.45,0.41c0,0,4.6-40.46,6.27-51.21
					c1.46-9.38,4.2-34.89,4.2-34.89l2.69,30.83c0,0-1.56,5.57-1.29,12.04c0.21,5,0.73,35.93,0.73,35.93s3.5,2.53,8.75,0.92
					c0,0,6.61-43.89,6.83-48.46c0.25-5.22-0.31-58.55-0.31-58.55L231.09,246.12z"/>
				<path id="XMLID_1236_" style="opacity:0.3;" d="M231.09,246.12c-0.21,7.25-0.13,49.46-0.13,49.46
					c-0.24,2.08-2.35,5.73-2.72,13.24c-0.54,10.89,2.8,40.93,2.8,40.93s3.62,2.26,8.45,0.41c0,0,4.6-40.46,6.27-51.21
					c1.46-9.38,4.2-34.89,4.2-34.89l2.69,30.83c0,0-1.56,5.57-1.29,12.04c0.21,5,0.73,35.93,0.73,35.93s3.5,2.53,8.75,0.92
					c0,0,6.61-43.89,6.83-48.46c0.25-5.22-0.31-58.55-0.31-58.55L231.09,246.12z"/>
				<path id="XMLID_9189_" style="opacity:0.35;" d="M249.96,264.05c0,0,6.12-1.54,10.75-5.76c0,0-2.15,3.76-8.32,7.14l0.04,26.86
					L249.96,264.05z"/>
			</g>
			<g id="XMLID_6612_">
				<path id="XMLID_9183_" style="fill:#37474F;" d="M227.4,178.6c-0.72-0.47-4.38,0.9-6.81,3.67c-2.43,2.77-3.03,6.94-2.44,7.88
					c0.59,0.94,9.49-2.04,9.49-2.04L227.4,178.6z"/>
				<path id="XMLID_8426_" style="fill:#FAFAFA;" d="M236.03,194.95c-1.67,0.75-2.99,2.11-3.66,3.81c-0.6,1.52-2.4,3.97-2.4,6.87
					l1.29,14.58l-0.56,26.08c10.9,5.75,25.42,5.61,37.05-2.88c0,0-0.96-33.63-0.96-39.55c0-0.27-0.01-0.54-0.02-0.81
					c-0.31-6.19-4.86-10.96-10.5-12.24c-2.05-0.46-13.32,1.87-13.32,1.87L236.03,194.95L236.03,194.95z"/>
				<path id="XMLID_8424_" style="fill:#B16668;" d="M212.16,176.19c1.73,5.15,16.69,30.48,20.38,35.4
					c9.59-4.64,2.53-15.84,2.53-15.84s-12.19-23.31-13.52-26.29c-0.83-1.85-0.81-13.4-0.71-18.91c0.03-1.68,0.08-2.79,0.51-4.4
					c0.44-1.64,1.08-2.72,1.18-4.46c0.07-1.13-0.64-3.12-1.04-4.19c-0.77-2.04-1.6-4.55-1.11-6.74c0.08-0.35,0.19-0.7,0.18-1.06
					c-0.02-0.71-0.51-1.3-1-1.82c-0.81-0.87-1.67-1.7-2.57-2.48c-0.54-0.47-1.11-0.92-1.77-1.19c-0.66-0.27-1.44-0.32-2.08,0
					c-0.59,0.3-0.98,0.89-1.27,1.49c-0.87,1.75-1.16,3.75-1.11,5.7c0.03,1.28,0.19,2.54,0.39,3.8c0.19,1.17-0.08,9.09-0.11,11.93
					c-0.08,7.72-0.74,15.93-0.34,21.25C210.9,171.1,211.14,173.15,212.16,176.19z"/>
				<path id="XMLID_8422_" style="fill:#455A64;" d="M237.73,194.52L227.4,178.6c0,0,0.03,9.72-9.25,11.55L230.54,212
					c1.27,2.75,5.39,0.73,6.96-4.98C239.68,199.04,237.73,194.52,237.73,194.52z"/>
			</g>
			<g id="XMLID_4815_">
				<g id="XMLID_4836_">
					<circle id="XMLID_5709_" style="fill:#263238;" cx="255.54" cy="166.09" r="10.44"/>
					<path id="XMLID_5695_" style="fill:#263238;" d="M237.49,173.51c0,0,1.69,7.95,2.37,9.25c0.68,1.31,2.08,1.68,2.08,1.68
						l-0.12-5.59L237.49,173.51z"/>
					<path id="XMLID_5678_" style="fill:#263238;" d="M239.62,162.12c0,0-1.82-0.31-3.24,1.14c-1.39,1.42-0.61,5.88,1.12,10.24
						l3.19,0.37L239.62,162.12z"/>
					<path id="XMLID_5674_" style="fill:#B16668;" d="M241.63,173.88c-0.64,0.38-1.55-0.85-2.34-1.67
						c-0.79-0.82-3.36-1.95-4.64,0.75c-1.31,2.76,1.13,6.4,3.16,7.03c3.49,1.1,4.01-1.14,4.01-1.14l0.26,14.12l0,0
						c4.34,5.56,16.38,5.14,11.36-0.67l-0.01-5.02c0,0,3.16,0.48,4.7,0.24c2.57-0.4,4.18-2.42,4.96-5.2
						c1.25-4.46,1.73-8.06,0.66-16.84c-1.16-9.62-12.35-9.72-18.39-5.92C239.33,163.36,241.63,173.88,241.63,173.88z"/>
					<path id="XMLID_4933_" style="fill:#263238;" d="M241.63,174.95c-0.32,0.01-1.54-2.02-2.34-2.74c-1.1-1,0.32-10.08,0.32-10.08
						s-1.06-2.26,1.06-4.59c1.51-1.66,3.15-2.71,7.51-2.94c2.55-0.14,6.62,0.26,8.91,0.42c4.3,0.29,5.89-0.77,8.35-1.46
						c1.89-0.53,2.1,6.29-2.67,8.55c0,0-1.55,1-5.64,1.5c-4.09,0.5-10.45-0.1-11.33-0.21c-1.19-0.16-1.44,0.99-2.08,4.12
						C243.18,170.26,242.71,174.93,241.63,174.95z"/>
					<path id="XMLID_4905_" style="fill:#263238;" d="M239.62,162.83l-3.86-2.07c0.55-1.11,1.86-1.54,2.92-0.97
						C239.75,160.36,240.17,161.72,239.62,162.83z"/>
					<path id="XMLID_4837_" style="fill:#9A4A4D;" d="M253.43,187.27c0,0-5.73-1.15-7.73-2.22c-1.34-0.71-2.44-1.95-2.77-2.74
						c0,0,0.38,1.7,1.57,3.23c1.46,1.87,8.93,3.25,8.93,3.25L253.43,187.27z"/>
				</g>
				<g id="XMLID_4816_">
					<path id="XMLID_4822_" style="fill:#263238;" d="M253.15,172.44c0,0.66-0.51,1.19-1.15,1.19c-0.63,0-1.15-0.54-1.15-1.2
						c0-0.66,0.51-1.19,1.15-1.19C252.64,171.25,253.15,171.78,253.15,172.44z"/>
					<path id="XMLID_4821_" style="fill:#263238;" d="M251.94,168.11l-2.46,1.36c-0.36-0.71-0.11-1.58,0.57-1.96
						C250.73,167.13,251.58,167.4,251.94,168.11z"/>
					<path id="XMLID_4820_" style="fill:#9A4A4D;" d="M252.92,180.37l2.62,0.98c-0.26,0.75-1.06,1.14-1.78,0.87
						C253.03,181.95,252.66,181.12,252.92,180.37z"/>
					<path id="XMLID_4819_" style="fill:#263238;" d="M263.06,169.06l-2.24-1.72c0.46-0.64,1.33-0.77,1.95-0.3
						C263.38,167.52,263.52,168.42,263.06,169.06z"/>
					<path id="XMLID_4818_" style="fill:#263238;" d="M262.37,172.12c0,0.66-0.51,1.19-1.15,1.19c-0.63,0-1.15-0.54-1.15-1.2
						c0-0.66,0.51-1.19,1.15-1.19C261.86,170.92,262.37,171.46,262.37,172.12z"/>
					<polygon id="XMLID_4817_" style="fill:#9A4A4D;" points="256.52,171.03 256.9,177.93 260.5,176.7 					"/>
				</g>
			</g>
			<path id="XMLID_14270_" style="fill:#B16668;" d="M211.17,140.99c-0.84-2.74-2.05-4.27-3.12-6.58c-1.66-3.59-0.25-6.01,0.1-5.24
				c0.75,1.66,3.35,5.31,4.12,5.31c0.77,0,0.97,4.01,0.97,4.01L211.17,140.99z"/>
		</g>
	</g>
</g>
<g id="Character_1">
	<g id="XMLID_15085_">
		<g id="XMLID_5613_">
			<path id="XMLID_8255_" style="fill:#FFA8A7;" d="M90.94,228.42c0.25-7.39,3.68-11.16,7.16-15.74
				c6.39-8.39,12.68-16.85,12.68-16.85s16.87-35.09,18.33-38.32c1.73-3.84,9.67,0.45,8.16,2.98c0,0-1.7,3.55-3.04,6.91
				c-4.92,12.4-9.42,24.48-14.54,36.59l-20.32,25.7L90.94,228.42z"/>
		</g>
		<g id="XMLID_2383_">
			<path id="XMLID_3615_" style="fill:#455A64;" d="M198.66,105.96L198.66,105.96c-0.21-0.06-0.51-0.07-0.82,0.08l-9.21,4.15
				c-0.65,0.29-1.32-0.03-1.53-0.71c-0.36-1.16-6.67-2.5-7.19-3.5l3.54-8.79L198.66,105.96z"/>
			<path id="XMLID_3612_" style="fill:#263238;" d="M183.45,97.22l0-0.02c-0.21-0.12-0.49-0.14-0.8,0l-6.8-15.74
				c0.32-0.64,0.07-1.45-0.54-1.8l-6.66-3.85c-0.62-0.36-1.44-0.16-1.83,0.43l-7.65,11.51c-0.39,0.59-1.29,1.01-2,0.99
				c-0.87-0.02-1.76,0.02-2.67,0.12v-8.41l-5.11-2.95v0c-0.23-0.12-0.52-0.11-0.84,0.07l-10.35,5.97c-0.62,0.36-1.17,1.22-1.23,1.93
				L135.91,97c-0.06,0.71-0.55,1.67-1.08,2.15c-2.01,1.85-3.94,3.9-5.75,6.08c-0.45,0.55-1.36,0.81-2.03,0.58l-6.64-2.32
				c-0.67-0.24-1.51,0.07-1.86,0.69l-7.61,13.18c-0.36,0.62-0.21,1.5,0.33,1.96l5.33,4.59c0.54,0.47,0.77,1.38,0.52,2.05
				c-0.99,2.66-1.8,5.35-2.4,8.02c-0.16,0.7-0.74,1.6-1.32,2.01l-9.45,6.65c-0.58,0.41-1.06,1.32-1.06,2.03v11.95
				c0,0.37,0.14,0.63,0.37,0.77l0,0l11.98,6.92l-4.37,8.81c-0.32,0.64-0.07,1.45,0.54,1.8l16.29,9.44c0.62,0.36,1.44,0.16,1.83-0.43
				l7.4-7.57c0.03,0.34,0.18,0.59,0.4,0.71l15.17,8.76l0.4-11.88c0,0-3.21-4.14-3.14-4.85l16.54-18.01
				c0.67,0.24,1.51-0.07,1.86-0.69l7.61-13.18c0.36-0.62,0.21-1.5-0.33-1.96l7.33-23.32c0.58-0.41,1.06-1.32,1.06-2.03L183.45,97.22
				z M143.36,147.48c-4.44,2.56-8.11,3.11-10.78,1.87c-3.13-1.46,22.27-45,24.93-42.62c2.16,1.92,3.32,5.49,3.32,10.47
				C160.84,128.35,153.01,141.91,143.36,147.48z"/>
			<path id="XMLID_2428_" style="fill:#455A64;" d="M185.98,87.3l-2.06,4.16l-6.61,7.63l-7.79-4.5l-10.92-6.31
				c0.22-0.15,0.42-0.33,0.55-0.53l7.65-11.5c0.4-0.59,1.2-0.78,1.82-0.44l6.68,3.86l10.13,5.85
				C186.05,85.86,186.3,86.66,185.98,87.3z"/>
			<path id="XMLID_2425_" style="fill:#455A64;" d="M114.1,135.25c-0.21,0.3-0.45,0.56-0.7,0.74l-9.45,6.65
				c-0.25,0.18-0.47,0.45-0.65,0.76l15.9,9.2l12.55-7.14L114.1,135.25z"/>
			<path id="XMLID_2419_" style="fill:#455A64;" d="M119.79,103.42c-0.5,0.05-0.99,0.32-1.24,0.76l-7.61,13.18
				c-0.17,0.3-0.22,0.67-0.17,1.02l16.66,9.64l10.41-14.09L119.79,103.42z"/>
			<path id="XMLID_2415_" style="fill:#455A64;" d="M164.58,86.29v3.79l-9.21,5.32l-18.25-10.55c0.22-0.53,0.63-1.04,1.07-1.29
				l10.35-5.97c0.18-0.1,0.36-0.15,0.52-0.15c0.12,0,0.22,0.03,0.32,0.08l4.98,2.87l0.13,0.08l6.88,3.98L164.58,86.29z"/>
			<path id="XMLID_2411_" style="fill:#37474F;" d="M199.04,118.69v-11.95c0-0.71-0.53-1.05-1.18-0.76l-9.21,4.15
				c-0.65,0.29-1.32-0.03-1.53-0.71c-0.54-1.69-1.23-3.22-2.05-4.57c-0.37-0.61-0.46-1.59-0.14-2.23l6.14-12.38
				c0.32-0.64,0.07-1.45-0.54-1.8l-6.66-3.85c-0.62-0.36-1.44-0.16-1.83,0.43l-7.65,11.51c-0.39,0.59-1.29,1.01-2,0.99
				c-1.58-0.04-3.25,0.12-4.98,0.51c-0.7,0.15-1.31-0.26-1.38-0.97L164.99,87c-0.07-0.71-0.63-1-1.25-0.64l-10.35,5.97
				c-0.62,0.36-1.17,1.22-1.23,1.93l-1.04,11.51c-0.06,0.71-0.55,1.67-1.08,2.15c-2.01,1.85-3.94,3.9-5.75,6.08
				c-0.45,0.55-1.36,0.81-2.03,0.58l-6.64-2.32c-0.67-0.24-1.51,0.07-1.86,0.69l-7.61,13.18c-0.36,0.62-0.21,1.5,0.33,1.96
				l5.33,4.59c0.54,0.47,0.77,1.38,0.52,2.05c-0.99,2.66-1.8,5.35-2.39,8.02c-0.16,0.7-0.74,1.6-1.32,2.01l-9.45,6.65
				c-0.58,0.41-1.06,1.32-1.06,2.03v11.95c0,0.71,0.53,1.05,1.18,0.76l9.21-4.15c0.65-0.29,1.32,0.03,1.53,0.71
				c0.54,1.69,1.23,3.22,2.05,4.57c0.37,0.61,0.46,1.59,0.14,2.23l-6.14,12.38c-0.32,0.64-0.07,1.45,0.54,1.8l6.66,3.85
				c0.62,0.36,1.44,0.16,1.83-0.43l7.65-11.51c0.39-0.59,1.29-1.01,2-0.99c1.58,0.04,3.25-0.12,4.98-0.51
				c0.7-0.15,1.31,0.26,1.38,0.97l1.01,10.05c0.07,0.71,0.63,1,1.25,0.64l10.35-5.98c0.62-0.36,1.17-1.22,1.23-1.93l1.04-11.51
				c0.06-0.71,0.55-1.67,1.08-2.15c2.01-1.85,3.94-3.9,5.75-6.08c0.45-0.55,1.36-0.81,2.03-0.58l6.64,2.32
				c0.67,0.24,1.51-0.07,1.86-0.69l7.61-13.18c0.36-0.62,0.21-1.5-0.33-1.96l-5.33-4.59c-0.54-0.47-0.77-1.38-0.52-2.05
				c0.99-2.66,1.8-5.35,2.4-8.02c0.16-0.7,0.74-1.6,1.32-2.01l9.45-6.65C198.56,120.31,199.04,119.4,199.04,118.69z M158.57,156.26
				c-9.66,5.57-17.48,1.06-17.48-10.09s7.83-24.71,17.48-30.28c9.66-5.57,17.48-1.06,17.48,10.09
				C176.05,137.13,168.23,150.69,158.57,156.26z"/>
		</g>
		<g id="Girl_2_">
			<g id="XMLID_4843_">
				<g id="XMLID_5618_">
					<g id="XMLID_5621_">
						<path id="XMLID_8425_" style="fill:#FFA8A7;" d="M124.32,381.5l-0.7-9.94l-8.36-0.59l0.39,8.5c-0.19,2.01-1.52,2.79-1.76,3.94
							c-0.23,1.14,6.85,11.89,10.45,14.05c3.6,2.16,8.7-1.6,9.11-2.86c0.55-2-5.33-2.04-5.52-2.12c-0.19-0.08-0.39-0.21-0.39-0.21
							C126.2,389.16,124.32,381.5,124.32,381.5z"/>
					</g>
					<g id="XMLID_5620_">
						<path id="XMLID_8423_" style="fill:#263238;" d="M115.1,381.2c1.18,0.79,2.23,2.98,4.03,5.93c1.8,2.96,4,7.1,6.99,7.82
							c2.75,0.66,6.27-1.41,4.21-1.89c-0.72-0.17-2.25-0.34-2.45-0.45c-0.17-0.09-0.33-0.32-0.33-0.32s1.53,0.27,3.91,0.43
							c1.7,0.12,2.83,0.85,3.52,2.24c0.45,0.91-0.17,3.44-6.02,4.43c-4.23,0.71-7.19,0.68-9.08-2.16c-2.3-3.45-6.1-6.97-7.68-8.88
							C110.3,386.04,112.6,382.12,115.1,381.2z"/>
					</g>
				</g>
				<g id="XMLID_5614_">
					<g id="XMLID_5617_">
						<path id="XMLID_8418_" style="fill:#FFA8A7;" d="M69.14,373.56l4.81-10.71l-7.23-3.76l-4.08,8.43
							c-1.28,1.71-3.13,1.15-3.97,2.05c-0.84,0.9-0.32,14.49,1.75,18.42c1.2,2.28,3.95,3.03,6.25,3.08
							c1.67,0.04,1.05-2.52-0.17-4.01c-0.26-0.32-0.43-0.66-0.43-1.02C66.08,383.3,69.14,373.56,69.14,373.56z"/>
					</g>
					<g id="XMLID_5616_">
						<path id="XMLID_8360_" style="fill:#263238;" d="M60.96,368.23c0.63,1.36,1.44,4.61,2.15,8.2c0.78,3.94,1.75,9.23,2.43,10.5
							c0.64,1.2,0.54-0.12,0.52-0.89c-0.01,0.44,0.9,1.38,1.15,1.7c0.86,1.13,1.87,2.07,2.58,3.31c0.42,0.73,1.12,2.02,0.7,2.75
							c-0.36,0.61-1.48,0.86-2.19,0.92c-0.77,0.06-3.8,0.66-8.53-2.24c-0.52-0.32-1.46-1.32-1.8-1.82c-1.8-2.63-1.45-5.03-1.75-7.98
							c-0.41-3.98-1.71-5-2.39-7.71c-0.2-0.8-0.27-2.24-0.1-3.28C54.47,368.93,58.2,367.69,60.96,368.23z"/>
					</g>
					<path id="XMLID_2024_" style="fill:#37474F;" d="M56.22,382.67c0.3,2.95-0.04,5.35,1.75,7.98c0.34,0.5,1.29,1.51,1.8,1.82
						c4.73,2.9,7.76,2.3,8.53,2.24c0.26-0.02,0.59-0.08,0.91-0.16c-5.52-0.19-7.08-5.19-7.75-8.22c-0.67-3.04-1.97-11.69-3.5-13.8
						c-1.52-2.11-4.24-0.84-4.24-0.84c-0.17,1.04-0.1,2.48,0.1,3.28C54.51,377.68,55.81,378.69,56.22,382.67z"/>
				</g>
				<g id="XMLID_5014_">
					<path id="XMLID_6707_" style="fill:#455A64;" d="M117.17,270.04c0,0-17.04,43.95-18.41,48.64c-1.37,4.69-2.89,7.66-5.31,11.33
						c-1.82,2.76-22.33,39.14-22.33,39.14c-5.6-1.68-6.92-5.3-6.92-5.3s6.53-29.27,8.82-33.78c2.78-5.48,8.23-9.44,8.23-9.44
						l5.6-35.49c0.6-5.87-2.55-16.91,6.93-25.3l-0.15,2.5L117.17,270.04z"/>
				</g>
				<g id="XMLID_4935_">
					<path id="XMLID_6705_" style="fill:#455A64;" d="M108.87,267.02c-3.51,6.19-6.87,11.66-7.28,18.42
						c-0.86,14.28,6.99,29.41,8.72,39.83c0,0-2.69,7.12-2.37,12.66c0.24,4.34,7.2,37.97,7.2,37.97s4.96,2.38,8.98-0.07
						c0,0,2.53-48.99,2.25-67.82c-0.28-18.83-2.78-45.28-2.78-45.28L108.87,267.02z"/>
				</g>
				<g id="XMLID_4924_">
					<path id="XMLID_5707_" style="fill:#455A64;" d="M122.95,262.74l-29.18-2.9c-1.71,3.55-6.17,12.26-4.57,17.65
						c1.94,6.53,5.99,10.84,17.28,12.99"/>
				</g>
				<g id="XMLID_4839_">
					<path id="XMLID_5676_" style="fill:#37474F;" d="M104.15,303.95l-4.04-16.3c0,0-7.17-1.94-10.6-5.7c0,0,1.9,4.65,7.8,7.92
						c0.54,0.55,5.51,17.61,5.51,17.61L104.15,303.95z"/>
				</g>
			</g>
			<g id="XMLID_5494_">
				<polygon id="XMLID_8250_" style="fill:#FFA8A7;" points="116.88,217.77 115.67,228.35 105.25,229.55 106.75,215.52 				"/>
				<path id="XMLID_6709_" style="fill:#FFA8A7;" d="M91.21,231.34c0.18,0.91,0.63,2.9,1.47,5.92c1.53,5.54,4.17,13.07,5.16,15.71
					c0.06,0.11,0.08,0.21,0.13,0.29l-4.11,6.69c0,0,2.76,3.42,10.96,5.8c8.22,2.39,18.17-2.45,18.17-2.45l3.39-19.41
					c1.13-2.89,3.19-6.79,5.45-8.15c1.13-0.68,16.16-11.47,19.95-13.78c3.08-1.87,4.3-3.21,4.81-4.68
					c0.53-1.46,5.87-23.57,6.73-25.97c0.86-2.4,1.66-3.14,3.57-5.17c1.9-2.04,2.57-2.5,3.15-4.32c0.59-1.88-0.15-2.27-0.45-3.18
					c-0.4-1.26,0.06-2.13-0.22-3.08c-0.35-1.19-1.07-1.49-1.26-2.02c-0.28-0.84,0.06-1.3-0.49-2.82c-0.18-0.53-0.76-1.67-1.84-2.2
					l-0.31,3.49c-1.05,4.28-5.52,5.82-6.12,5.51c-0.6-0.31-1.48-2.75-2.79-3.82c-1.27-1.05-3.12-0.93-2.45,0.36
					c0.38,0.75,1.24,3.56,1.69,4.8c0.45,1.24,1.77,3.85,1.48,5.84c-0.38,2.66-9.77,26.76-9.77,26.76s-5.07,3.27-16.78,8.93
					c-6.7,3.24-10.55,4.31-10.55,4.31c-0.74-0.13-3.75-0.17-5.15-0.42c-0.39-0.08-0.81-0.15-1.24-0.22
					c-5.51-1.02-13.84-2.55-16.1-2.96c-0.21-0.04-0.4-0.07-0.59-0.11c-0.52-0.06-1.06-0.03-1.59,0.06c-1.65,0.4-2.93,1.84-3.4,2.9
					C91.21,225.94,90.55,227.92,91.21,231.34z"/>
			</g>
			<g id="XMLID_4845_">
				<path id="XMLID_1238_" style="fill:#27DEBF;" d="M120.18,224.69c-0.74-0.13-3.75-0.17-5.15-0.42c-0.39-0.07-0.81-0.14-1.24-0.22
					c-4.81-0.85-10.4-1.86-14.75-2.71c-0.21-0.04-8.46,3.93-7.79,13.72c0.39,5.66,4.31,14.47,5.25,16.97l0,0
					c-3.38,3.94-7,10.41-8.67,15.82c0,0,2.96,7.55,17.73,9.01c15.05,1.5,19.23-5.44,19.23-5.44l-0.74-13.88
					c0.65-3.51,2.04-9.51,2.32-13.66C118.1,240.54,120.18,224.69,120.18,224.69z"/>
				<path id="XMLID_5685_" style="opacity:0.15;" d="M95.37,249.19c0,0,3.06,4.58,10.2,6.26c-3.82-0.19-7.12-0.85-9.07-3.42
					L95.37,249.19z"/>
			</g>
			<g id="XMLID_8305_">
				<path id="XMLID_8306_" style="fill:#FFA8A7;" d="M116.13,192.1c2.53,1.1,7.24,0.31,8.89,12.07c1.3,9.26-0.37,12.43-1.56,13.73
					c-0.8,0.88-5.95,1.68-8.29,1.13c-2.93-0.7-9.36-3.36-12.59-7.94c-3.81-5.4-5.02-12.85-1.25-16.05
					C106.62,190.52,113.98,191.17,116.13,192.1z"/>
				<path id="XMLID_8417_" style="fill:#F28F8F;" d="M124.85,203.72c0,0,2.78,3.64,2.47,4.07c-0.3,0.43-1.88,0.96-1.88,0.96
					L124.85,203.72z"/>
			</g>
			<path id="XMLID_3676_" style="fill:#37474F;" d="M122.37,188.27c-3.59-3.19-11-4.52-17.46-0.39c-1.19,0.31-2.42,0.7-3.67,1.16
				c-1.18,0.44-2.36,1.15-3.44,2.14c0.1-0.42,0.06-0.88-0.12-1.32c-0.49-1.15-1.83-1.69-2.98-1.2l1.16,2.74
				c-0.2-0.15-0.44-0.27-0.7-0.34c-1.21-0.34-2.46,0.36-2.8,1.57l3.39,0.95c-1.5,2.23-2.54,5.19-2.69,8.84
				c-0.07,0.7-0.1,1.4-0.1,2.11l-0.01-0.01v15.23c0,5.13,3.59,9.57,8.62,10.63l15.31,3.25l-0.34-21.39c0,0-1.1,0.14-2.33-0.2
				c-0.75-0.2-1.56-0.59-2.19-1.3c-2-2.2-1.34-6.05,0.63-6.58c1.51-0.42,2.53,0.2,3.15,0.88l0.65,1.02l0.46,2.14l0.17,0.81
				c1.23-0.26,2.01-1.47,1.74-2.69c-0.04-0.2-0.11-0.39-0.2-0.56l0.26-0.37C127.17,201.23,126.08,191.57,122.37,188.27z"/>
		</g>
	</g>
</g>
</svg>
