<?xml version="1.0" encoding="utf-8"?>
<!-- Generator: Adobe Illustrator 22.1.0, SVG Export Plug-In . SVG Version: 6.00 Build 0)  -->
<svg version="1.1" xmlns="http://www.w3.org/2000/svg" xmlns:xlink="http://www.w3.org/1999/xlink" x="0px" y="0px"
	 viewBox="0 0 500 500" style="enable-background:new 0 0 500 500;" xml:space="preserve">
<g id="Floor">
	<path id="Floor_8_" style="fill:#F5F5F5;" d="M90.88,433.26c87.88,45.91,230.37,45.91,318.25,0c87.88-45.91,87.88-120.35,0-166.26
		c-87.88-45.91-230.37-45.91-318.25,0C2.99,312.92,2.99,387.35,90.88,433.26z"/>
</g>
<g id="Shadows">
	<ellipse id="Shadow_3_" style="fill:#E0E0E0;" cx="419.15" cy="344.97" rx="40.39" ry="19.25"/>
	<ellipse id="Shadow_2_" style="fill:#E0E0E0;" cx="94.24" cy="366.16" rx="40.39" ry="19.25"/>
</g>
<g id="Draw_1_">
	<g id="Draw">
		<g id="XMLID_294_">
			<path id="XMLID_279_" style="fill:#EBEBEB;" d="M244.47,441.97l-102.26-59.04c-0.66-0.38-1.2-1.31-1.2-2.07v-1.56
				c0-0.76,0.54-1.69,1.2-2.07l124.68-71.98c0.66-0.38,1.73-0.38,2.39,0l102.26,59.04c0.66,0.38,1.2,1.31,1.2,2.07v1.56
				c0,0.76-0.54,1.69-1.2,2.07l-124.68,71.98C246.2,442.35,245.13,442.35,244.47,441.97z"/>
			<path id="XMLID_280_" style="fill:#FAFAFA;" d="M371.54,365.67l-124.68,71.98c-0.66,0.38-1.73,0.38-2.39,0l-102.26-59.04
				c-0.66-0.38-0.66-1,0-1.38l124.68-71.98c0.66-0.38,1.73-0.38,2.39,0l102.26,59.04C372.2,364.67,372.2,365.29,371.54,365.67z"/>
			<path id="XMLID_293_" style="fill:#FAFAFA;" d="M371.54,365.67l-124.68,71.98c-0.66,0.38-1.73,0.38-2.39,0l-102.26-59.04
				c-0.66-0.38-0.66-1,0-1.38l124.68-71.98c0.66-0.38,1.73-0.38,2.39,0l102.26,59.04C372.2,364.67,372.2,365.29,371.54,365.67z"/>
			<path id="XMLID_343_" style="fill:#E0E0E0;" d="M245.66,438.35v3.91c-0.43,0-0.86-0.1-1.2-0.29l-102.26-59.04
				c-0.66-0.38-1.2-1.31-1.2-2.07v-1.55c0-0.67,0.41-1.48,0.98-1.91c-0.43,0.38-0.36,0.89,0.22,1.22l102.26,59.04
				c0.09,0.06,0.2,0.1,0.31,0.13L245.66,438.35z"/>
		</g>
		<g id="Rocket">
			<g id="XMLID_789_">
				<path id="XMLID_571_" style="fill:#455A64;" d="M184.02,372.65c0,0.05-0.02,0.1-0.04,0.15c-0.03,0.05-0.06,0.1-0.11,0.15
					l-0.56,0.24l-13.3,0.68c-0.37,0.02-0.82,0.31-1.02,0.67c-0.21,0.36-0.1,0.65,0.25,0.67l12.54,0.64l0.29,0.24
					c-0.01,0.05-0.03,0.09-0.06,0.15c-0.12,0.2-0.38,0.35-0.57,0.34l-12.65-0.65c-0.72-0.04-0.95-0.64-0.52-1.38
					c0.43-0.74,1.36-1.35,2.12-1.39l13.41-0.69C183.94,372.46,184.02,372.53,184.02,372.65z"/>
			</g>
			<g id="XMLID_786_">
				<path id="XMLID_798_" style="fill:#455A64;" d="M301.18,364.59c0,0.06-0.03,0.14-0.08,0.21c-0.14,0.2-0.39,0.34-0.58,0.32
					c-0.03,0-3.32-0.39-9.39-0.91c-0.19-0.02-0.23-0.19-0.1-0.39c0.13-0.2,0.39-0.34,0.58-0.33c6.08,0.52,9.37,0.91,9.4,0.91
					C301.12,364.42,301.18,364.5,301.18,364.59z"/>
			</g>
			<g id="XMLID_782_">
				<path id="XMLID_797_" style="fill:#455A64;" d="M290.14,383.76c0,0.04-0.01,0.08-0.03,0.13c-0.09,0.2-0.33,0.37-0.54,0.4
					c-0.04,0-3.79,0.4-10.47,0.94c-0.21,0.02-0.3-0.13-0.2-0.33c0.1-0.2,0.34-0.37,0.55-0.39c6.67-0.54,10.42-0.94,10.45-0.94
					C290.05,383.56,290.14,383.64,290.14,383.76z"/>
			</g>
			<g id="XMLID_779_">
				<path id="XMLID_796_" style="fill:#455A64;" d="M275.97,362.53c0,0.06-0.02,0.12-0.07,0.19c-0.13,0.2-0.38,0.35-0.57,0.34
					c-5.56-0.34-11.37-0.64-17.27-0.88c-26.95-1.1-35.92-0.11-44.11,1.2c-8.87,1.42-31.46,9.64-33.4,11.13
					c0.23,1.48,13.37,9.66,20.63,11.05c6.69,1.29,14.53,2.26,42.79,1.08c6.18-0.26,12.34-0.57,18.31-0.93
					c0.2-0.01,0.29,0.14,0.19,0.34c-0.1,0.2-0.35,0.37-0.55,0.38c-5.98,0.36-12.14,0.67-18.33,0.93
					c-28.34,1.18-36.21,0.21-42.94-1.09c-6.5-1.25-21.89-9.93-20.84-11.76c1.05-1.83,26.47-10.57,34.43-11.84
					c8.23-1.32,17.24-2.32,44.26-1.21c5.91,0.24,11.72,0.54,17.29,0.88C275.91,362.35,275.98,362.43,275.97,362.53z"/>
			</g>
			<g id="XMLID_778_">
				<path id="XMLID_793_" style="fill:#455A64;" d="M225.45,368.51c-0.66-1.55-2.26-2.41-4.48-2.41c-2.24,0.01-4.84,0.87-7.33,2.46
					c-1.24,0.79-2.39,1.71-3.39,2.71c-0.98,1-1.83,2.09-2.47,3.2c-1.01,1.76-1.44,3.44-1.24,4.86c0.31,2.2,2.11,3.51,4.8,3.5
					c2.24,0,4.84-0.87,7.33-2.46c2.49-1.58,4.57-3.69,5.86-5.92c0.82-1.43,1.25-2.79,1.28-4
					C225.82,369.74,225.7,369.09,225.45,368.51z M223.81,374.46c-1.18,2.04-3.08,3.97-5.36,5.41c-2.27,1.44-4.66,2.24-6.7,2.25
					c-2.48,0-4.11-1.2-4.39-3.2c-0.04-0.25-0.06-0.51-0.05-0.77c0.03-1.11,0.43-2.37,1.18-3.67c1.18-2.04,3.08-3.96,5.35-5.41
					c2.28-1.44,4.66-2.24,6.71-2.24c2.03,0,3.49,0.78,4.1,2.2C225.29,370.46,225,372.39,223.81,374.46z"/>
				<path id="XMLID_620_" style="fill:#27DEBF;" d="M224.66,369.02c-0.62-1.42-2.07-2.2-4.1-2.2c-2.04,0-4.43,0.8-6.71,2.24
					c-2.27,1.45-4.18,3.37-5.35,5.41c-0.75,1.3-1.15,2.56-1.18,3.67c-0.01,0.27,0.01,0.52,0.05,0.77c0.28,2.01,1.91,3.2,4.39,3.2
					c2.04-0.01,4.43-0.81,6.7-2.25c2.28-1.44,4.19-3.37,5.36-5.41C225,372.39,225.29,370.46,224.66,369.02z M222.01,374.46
					c-1.87,3.23-6.01,5.87-9.25,5.87c-0.01,0-0.01,0-0.02,0c-3.21,0-4.32-2.63-2.47-5.85c1.86-3.23,6.01-5.86,9.24-5.87
					c2.22,0,3.44,1.23,3.39,3.05C222.89,372.49,222.59,373.44,222.01,374.46z"/>
			</g>
			<g id="XMLID_775_">
				<path id="XMLID_22_" style="fill:#455A64;" d="M201.46,366.16c-0.07-0.04-0.16-0.04-0.28-0.01c-6.34,2-20.52,6.89-21.37,8.37
					c-0.85,1.47,7.71,6.33,11.75,8.32c0.07,0.04,0.17,0.03,0.29-0.01c0.11-0.04,0.22-0.12,0.31-0.21c4.95-5.42,8.1-10.89,9.37-16.25
					c0-0.02,0.01-0.04,0.01-0.06C201.54,366.25,201.51,366.19,201.46,366.16z"/>
				<path id="XMLID_64_" style="fill:#27DEBF;" d="M200.63,366.96c-1.26,4.98-4.19,10.05-8.7,15.08
					c-6.13-3.05-11.24-6.59-11.37-7.52C181.76,373.59,190.97,370.03,200.63,366.96z"/>
			</g>
			<g id="XMLID_771_">
				<path id="XMLID_787_" style="fill:#455A64;" d="M301.3,365.55c-0.02,0.81-0.25,2.15-1.12,4.24c-0.08,0.19-0.32,0.38-0.53,0.41
					c-0.21,0.03-0.32-0.1-0.24-0.3c1.32-3.18,1.08-4.49,0.99-4.8c-0.52-0.06-2.71-0.31-6.39-0.64c-0.13,1.26-0.65,3.31-2.19,6.48
					c-0.1,0.2-0.34,0.37-0.55,0.39c-0.21,0.02-0.3-0.13-0.2-0.32c1.74-3.59,2.11-5.68,2.15-6.78c0,0,0,0,0,0
					c0-0.12,0.09-0.26,0.22-0.37c0.14-0.11,0.3-0.17,0.42-0.16c4.62,0.42,7.11,0.71,7.14,0.71c0.07,0.01,0.12,0.04,0.15,0.09
					C301.17,364.52,301.32,364.82,301.3,365.55z"/>
			</g>
			<g id="XMLID_768_">
				<path id="XMLID_785_" style="fill:#455A64;" d="M295.01,378.71c0,0.07-0.03,0.15-0.09,0.23c-2.93,3.96-5.02,5.21-5.1,5.26
					c-0.08,0.05-0.17,0.08-0.25,0.09c-0.03,0-2.87,0.31-7.97,0.74c-0.14,0.01-0.23-0.05-0.24-0.16c-0.01-0.11,0.07-0.25,0.2-0.37
					c1.26-1.11,3.26-3.18,5.65-6.76c0.13-0.2,0.39-0.34,0.58-0.32c0.19,0.02,0.23,0.19,0.1,0.39c-2.1,3.16-3.94,5.2-5.26,6.46
					c4.07-0.35,6.55-0.6,7.14-0.66c0.45-0.31,2.18-1.61,4.52-4.77c0.14-0.19,0.4-0.33,0.58-0.3
					C294.96,378.54,295.01,378.61,295.01,378.71z"/>
			</g>
			<g id="XMLID_765_">
				<path id="XMLID_780_" style="fill:#455A64;" d="M307.72,392.62l-25.51,1.72l-2.54-9.7c-0.02-0.06-0.06-0.1-0.13-0.11
					c-4.86-1.32-10.71-0.91-17.38,1.21c-0.13,0.04-0.27,0.14-0.37,0.25c-0.09,0.12-0.12,0.24-0.09,0.33l5.82,15.32
					c0.02,0.07,0.09,0.11,0.18,0.11l9.98,0.17c0.04,0,0.08-0.01,0.13-0.02l29.65-8.58c0.21-0.06,0.41-0.24,0.47-0.41
					c0.02-0.04,0.02-0.07,0.03-0.1C307.96,392.69,307.87,392.61,307.72,392.62z M278.04,401.2l-9.76-0.16l-5.63-14.83
					c6.2-1.88,11.66-2.22,16.23-1.01l2.55,9.74c0.02,0.08,0.11,0.13,0.23,0.12l22.91-1.54L278.04,401.2z"/>
				<path id="XMLID_1655_" style="fill:#27DEBF;" d="M304.57,393.52l-26.53,7.68l-9.76-0.16l-5.63-14.83
					c6.2-1.88,11.66-2.22,16.23-1.01l2.55,9.74c0.02,0.08,0.11,0.13,0.23,0.12L304.57,393.52z"/>
			</g>
			<g id="XMLID_762_">
				<path id="XMLID_774_" style="fill:#455A64;" d="M329.35,355.31l-19.81-8.51c-0.03-0.01-0.07-0.02-0.11-0.02l-10.19,0.2
					c-0.09,0-0.21,0.04-0.31,0.11l-23.49,15.36c-0.13,0.09-0.24,0.21-0.28,0.33c-0.04,0.12-0.01,0.21,0.08,0.26
					c4.24,2.1,9.62,2.49,16.01,1.16c0.08-0.02,0.17-0.06,0.26-0.12l13.72-9.72l23.58,1.65c0.17,0.01,0.4-0.11,0.54-0.29
					c0.07-0.09,0.1-0.17,0.1-0.24C329.46,355.4,329.42,355.34,329.35,355.31z M305.51,353.64c-0.11-0.01-0.25,0.04-0.37,0.13
					l-13.79,9.76c-5.97,1.22-11.03,0.9-15.08-0.97L299,347.69l9.97-0.19l17.72,7.61L305.51,353.64z"/>
				<path id="XMLID_1652_" style="fill:#27DEBF;" d="M326.69,355.11l-21.18-1.47c-0.11-0.01-0.25,0.04-0.37,0.13l-13.79,9.76
					c-5.97,1.22-11.03,0.9-15.08-0.97L299,347.69l9.97-0.19L326.69,355.11z"/>
			</g>
			<g id="XMLID_759_">
				<path id="XMLID_769_" style="fill:#455A64;" d="M328.39,373.86l-24.86-4.83c-0.03-0.01-0.07-0.01-0.11,0l-37.05,4.98
					c-0.19,0.03-0.41,0.18-0.51,0.35c-0.11,0.18-0.06,0.33,0.1,0.36l31.31,4.99h0.12l30.6-5.14c0.19-0.03,0.4-0.18,0.5-0.36
					c0.03-0.06,0.05-0.12,0.05-0.17C328.54,373.95,328.49,373.88,328.39,373.86z M297.73,378.99l-29.04-4.63l34.36-4.61l23.06,4.48
					L297.73,378.99z"/>
				<polygon id="XMLID_1657_" style="fill:#27DEBF;" points="326.11,374.23 297.73,378.99 268.69,374.36 303.05,369.75 				"/>
			</g>
			<g id="XMLID_749_">
				<g id="XMLID_750_">
					<g id="XMLID_755_">
						<path id="XMLID_764_" style="fill:#455A64;" d="M296.22,395.93c-0.01,0-0.02,0-0.02,0l-2.87,0.84l-2.9,0.85l-3.24,0.94
							c-2.35,0.69-4.64,2.79-5.21,4.79c-0.56,1.99,0.8,3.17,3.11,2.68l3.06-0.65c0.03,0,0.06,0,0.09-0.01l2.83-0.6
							c0.01,0,0.03-0.01,0.04-0.01l2.78-0.59c1.51-0.38,2.68-2.74,3.22-4.64c0.2-0.7,0.33-1.44,0.35-2.06
							C297.49,396.42,297.17,395.69,296.22,395.93z M296.3,399.73c-0.53,1.9-1.53,3.58-2.2,3.75l-1.99,0.42l-0.95,0.2l-1.98,0.42
							l-0.91,0.2l-2.95,0.62c-1.62,0.34-2.67-0.33-2.64-1.56c0.01-0.2,0.04-0.41,0.11-0.64c0.46-1.63,2.33-3.34,4.25-3.9l3.03-0.89
							l0.93-0.27l2.03-0.59l0.97-0.29l2.03-0.59C296.71,396.45,296.84,397.85,296.3,399.73z"/>
					</g>
					<g id="XMLID_751_">
						<path id="XMLID_760_" style="fill:#455A64;" d="M294,397.2c-0.1-0.21-0.25-0.37-0.45-0.44c-0.06-0.02-0.13-0.01-0.22,0.01
							l-2.9,0.85c-0.17,0.05-0.33,0.17-0.42,0.31c-0.1,0.14-0.1,0.28-0.01,0.34c0.03,0.02,0.05,0.05,0.07,0.08
							c0.34,0.41,0.3,1.57-0.1,2.98c-0.4,1.42-1.06,2.74-1.7,3.39c-0.04,0.05-0.08,0.09-0.13,0.13c-0.14,0.12-0.21,0.28-0.2,0.39
							c0.02,0.09,0.1,0.14,0.21,0.14c0.03,0,0.06,0,0.09-0.01l2.83-0.6c0.01,0,0.03-0.01,0.04-0.01c0.08-0.02,0.15-0.06,0.22-0.11
							c0.28-0.19,0.54-0.45,0.78-0.75c0.79-0.96,1.38-2.36,1.71-3.54c0.2-0.69,0.34-1.42,0.35-2.05
							C294.18,397.87,294.13,397.48,294,397.2z M293.02,400.56c-0.44,1.54-1.2,2.99-1.86,3.54l-1.98,0.42
							c0.73-0.96,1.29-2.31,1.59-3.39c0.31-1.08,0.48-2.33,0.23-3.05l2.03-0.59C293.45,397.77,293.45,399.02,293.02,400.56z"/>
						<path id="XMLID_770_" style="fill:#27DEBF;" d="M293.02,400.56c-0.44,1.54-1.2,2.99-1.86,3.54l-1.98,0.42
							c0.73-0.96,1.29-2.31,1.59-3.39c0.31-1.08,0.48-2.33,0.23-3.05l2.03-0.59C293.45,397.77,293.45,399.02,293.02,400.56z"/>
					</g>
				</g>
			</g>
			<g id="XMLID_612_">
				<g id="XMLID_619_">
					<g id="XMLID_743_">
						<path id="XMLID_754_" style="fill:#455A64;" d="M328.25,344.47l-2.12-0.58l-2.15-0.59l-2.39-0.66
							c-1.74-0.48-4.47,0.71-6.2,2.7c-1.74,2-1.87,4.09-0.3,4.78l2.15,0.93l1.93,0.84l1.91,0.83c0.01,0,0.01,0.01,0.01,0.01
							c0.35,0.12,1.05,0.04,2.39-1.01c0.82-0.65,1.77-1.58,2.66-2.6c0.89-1.03,1.62-2.03,2.05-2.82c0.3-0.57,0.42-0.96,0.43-1.24
							C328.63,344.7,328.46,344.54,328.25,344.47z M327.46,346.32c-0.38,0.71-1.07,1.65-1.89,2.6c-0.82,0.94-1.71,1.81-2.45,2.39
							c-0.68,0.54-1.2,0.8-1.42,0.73l-1.34-0.58l-0.66-0.29l-1.34-0.58h-0.01l-0.61-0.27l-2.02-0.88c-1.28-0.56-1.18-2.27,0.24-3.9
							c1.41-1.63,3.64-2.6,5.07-2.2l2.25,0.62l0.67,0.18l1.51,0.41l0.72,0.2l1.49,0.41C327.89,345.24,327.81,345.66,327.46,346.32z"
							/>
					</g>
					<g id="XMLID_739_">
						<path id="XMLID_744_" style="fill:#455A64;" d="M326.25,344c-0.01-0.05-0.05-0.09-0.12-0.11l-2.15-0.59
							c-0.12-0.04-0.29,0.02-0.44,0.13c-0.15,0.11-0.25,0.26-0.25,0.39c0,0,0,0,0,0.01c0,0.04-0.01,0.08-0.01,0.13
							c-0.13,0.64-0.99,1.96-2.21,3.37c-1.23,1.41-2.53,2.58-3.33,2.99c-0.06,0.03-0.12,0.06-0.17,0.08
							c-0.17,0.07-0.32,0.2-0.39,0.34c-0.07,0.14-0.05,0.26,0.06,0.31l1.93,0.84c0.06,0.03,0.14,0.03,0.22,0.01
							c0.29-0.07,0.62-0.23,0.97-0.44c1.11-0.7,2.43-2,3.45-3.17c1.02-1.17,2.05-2.58,2.37-3.54c0.06-0.19,0.1-0.36,0.1-0.51
							C326.28,344.15,326.28,344.07,326.25,344z M323.24,348.09c-1.34,1.55-2.79,2.8-3.54,3.08l-1.34-0.58
							c1.08-0.73,2.34-1.98,3.28-3.06c0.94-1.08,1.93-2.42,2.31-3.39l1.51,0.41C325.5,345.08,324.57,346.55,323.24,348.09z"/>
						<path id="XMLID_781_" style="fill:#27DEBF;" d="M325.46,344.55c0.04,0.53-0.89,2-2.22,3.54c-1.34,1.55-2.79,2.8-3.54,3.08
							l-1.34-0.58c1.08-0.73,2.34-1.98,3.28-3.06c0.94-1.08,1.93-2.42,2.31-3.39L325.46,344.55z"/>
					</g>
				</g>
			</g>
			<g id="XMLID_374_">
				<g id="XMLID_375_">
					<path id="XMLID_605_" style="fill:#455A64;" d="M219.52,368.6c-3.23,0.01-7.38,2.64-9.24,5.87c-1.86,3.22-0.75,5.85,2.47,5.85
						c0.01,0,0.01,0,0.02,0c3.24,0,7.38-2.64,9.25-5.87c0.58-1.01,0.87-1.97,0.89-2.81C222.96,369.84,221.74,368.6,219.52,368.6z
						 M221.3,374.46c-1.64,2.84-5.27,5.15-8.12,5.15c-2.83,0.01-3.82-2.3-2.18-5.13c1.63-2.83,5.27-5.14,8.11-5.15
						C221.95,369.32,222.93,371.62,221.3,374.46z"/>
				</g>
			</g>
		</g>
	</g>
</g>
<g id="Character_2">
	<g>
		<path id="XMLID_175_" style="fill:#9A4A4D;" d="M398.88,180.99c-4.18,5.55-12.59,15.5-16.77,20.75c-2.19,2.75-3.44,6.17-3.39,9.69
			c0.04,2.61,0.75,4.79,3.3,3.68c1.84-0.8,3.02-1.76,5.71-4.42c2.42-2.39,16.43-20.1,16.43-20.1s1.15-9.92,4.77-11.01
			c3.62-1.1-1.31-4.08-1.31-4.08C406.1,175.7,403.09,175.4,398.88,180.99z"/>
		<g id="Pencil_5_">
			<g id="XMLID_165_">
				<g id="XMLID_166_">
					<path id="XMLID_174_" style="fill:#FFA8A7;" d="M347.66,313.71l-26.14,29.84c-0.76,0.87-2.19,0.28-2.11-0.87l2.61-39.82
						L347.66,313.71z"/>
					<path id="XMLID_173_" style="fill:#263238;" d="M319.41,342.67c-0.08,1.15,1.35,1.74,2.11,0.87l5.1-5.83l0,0
						c-2.49,0.26-4.92-0.9-6.29-3l-0.37-0.57L319.41,342.67z"/>
					<path id="XMLID_172_" style="fill:#27DEBF;" d="M385.97,148.21l-1.4,3.39l-1.71,4.09l-60.85,147.16
						c1.45,4.23,4.83,7.46,8.75,9.55c5.96,3.2,13.19,3.78,16.88,1.29l60.4-146.07l3.24-7.83
						C408.9,164.75,383.65,153.21,385.97,148.21z"/>
					<path id="XMLID_171_" style="fill:#EBEBEB;" d="M380.59,161.11l-3.12,7.58c-0.98,2.17,3.12,5.51,8.33,8.23
						c6.9,3.63,15.75,6.15,17.05,3.28l2.31-5.59l0.79-2.01c-1.3,2.87-10.15,0.36-17.05-3.27c-4.98-2.61-8.97-5.81-8.38-7.97
						l0.01-0.02C380.52,161.26,380.55,161.19,380.59,161.11z"/>
					<path id="XMLID_170_" style="fill:#27DEBF;" d="M379.83,163.01c-2.28,5.03,23.08,16.52,25.36,11.49l3.15-7.58
						c-2.28,5.03-27.64-6.46-25.36-11.49L379.83,163.01z"/>
					<path id="XMLID_169_" style="fill:#EBEBEB;" d="M385.97,148.21l-3.11,7.48c-2.27,4.92,22.1,16.26,25.18,11.93
						c0.06-0.07,0.11-0.17,0.16-0.27l3.07-7.56C408.9,164.75,383.65,153.21,385.97,148.21z"/>
					<path id="XMLID_168_" style="opacity:0.1;" d="M408.04,167.63l3.24-7.83c-1.07,2.24-6.82,1.1-12.58-1.27l0,0l-63.08,155.84
						l-14.09,29.18l26.14-29.84l-0.02-0.01c0,0,0,0,0,0L408.04,167.63z"/>
					<path id="XMLID_167_" style="fill:#FFA8A7;" d="M399.14,116.45l-13.17,31.76c-0.99,2.14,3.05,5.47,8.2,8.19
						c6.89,3.65,15.75,6.23,17.11,3.4c0.02-0.01,0.02-0.01,0.02-0.03l12.66-30.55c3.54-6.88-8.67-15.54-17.44-16.05
						C403.24,112.95,400.46,113.88,399.14,116.45z"/>
					<path style="fill:#F28F8F;" d="M411.28,126.93l-12.58,31.6c5.13,2.11,10.22,3.24,12.04,1.88c0.16-0.13,0.27-0.26,0.36-0.36
						c0.06-0.08,0.13-0.15,0.18-0.25l13.05-31.49C422.67,132.09,411.28,126.93,411.28,126.93z"/>
				</g>
			</g>
		</g>
		<g id="Girl_1_">
			<g id="XMLID_139_">
				<polygon id="XMLID_164_" style="fill:#B16668;" points="450.69,336.26 443.48,338.4 440.36,327.89 447.73,325.37 				"/>
				<path id="XMLID_163_" style="fill:#263238;" d="M442.42,334.84l-0.31-1.03c-0.6,0.51-0.79,6.89-2.47,10.56
					c-1.84,4.02-3.8,6.89-4.61,8.69c-1.09,2.42,3.18,3.7,7.91,1.37c2.35-1.16,6.1-4.18,6.7-6.11c0.6-1.93,0.39-4.46,0.91-5.9
					c0.52-1.44,2.14-3.36,2.21-4.87c0.04-0.83-0.76-2.38-1.54-3.66c-0.71-1.18-1.49-2.47-1.89-2.22c0.05,0.16,0.23,0.79,0.23,0.79
					c-0.35,0.74-1.5,2.18-3.02,2.94C445.43,335.95,442.8,336.09,442.42,334.84z"/>
				<path id="XMLID_162_" style="fill:#37474F;" d="M432.82,216.4c4.35,5.58,5.13,11.34,4.18,27.66
					c-0.95,16.31-1.25,29.96-1.01,30.87c0.24,0.92,5.36,7.47,7.02,13.43c1.66,5.96,6.13,39.79,6.13,39.79s-2.53,3.72-8.2,3.72
					c0,0-18.15-49.42-19.37-53.09c-1.22-3.67-8.96-42.32-8.96-42.32l1.18-21.82L432.82,216.4z"/>
				<path id="XMLID_161_" style="fill:#263238;" d="M413.9,168.35h6.03c7.86,0,14.23-6.37,14.23-14.23l0,0
					c0-9.53-7.72-17.25-17.25-17.25l0,0c-9.53,0-17.25,7.72-17.25,17.25l0,0C399.66,161.98,406.03,168.35,413.9,168.35z"/>
				
					<rect id="XMLID_160_" x="397.28" y="322.37" transform="matrix(0.9999 0.0132 -0.0132 0.9999 4.3614 -5.2639)" style="fill:#B16668;" width="7.52" height="10.96"/>
				<path id="XMLID_159_" style="fill:#37474F;" d="M399.6,235.16c0.66-7.53,2.27-20.58,2.27-20.58l19.26-1.13
					c3.12,4.86,1.76,12.95,0.91,20.25l-11.01,43.13c0.22,2.06,2.12,6.44,0,17.54c-2.37,12.4-5.89,30.17-5.89,30.17
					s-5.49,2.77-8.2-0.24c0,0-1.46-40.3-0.44-51.03C397.62,261.66,399.15,240.32,399.6,235.16z"/>
				<path id="XMLID_158_" style="fill:#263238;" d="M397.26,329.57l0.01-1.08c-0.72,0.3-2.8,6.34-5.5,9.35
					c-2.96,3.29-5.67,5.45-6.99,6.93c-1.76,1.98,1.93,4.48,7.14,3.66c2.59-0.41,7.07-2.18,8.22-3.84c1.14-1.67,1.7-4.14,2.63-5.36
					c0.93-1.22,3.05-2.57,3.56-3.99c0.28-0.78-0.02-2.5-0.38-3.96c-0.33-1.34-0.69-2.8-1.15-2.68c0,0.16-0.01,0.82-0.01,0.82
					c-0.55,0.6-2.08,1.63-3.76,1.91C399.8,331.52,397.25,330.88,397.26,329.57z"/>
				<g id="XMLID_156_">
					<path id="XMLID_157_" style="fill:#F0F0F0;" d="M404.17,199.49c-0.47,4.4-3.31,23.51-3.31,23.51
						c14.52,7.75,32.53,2.61,35.28-0.58c-2.5-8.22-5.18-12.89-7.24-15.08l3.13-12.08c0,0-6.99-7.46-0.76-19.21l-7.7-0.63
						l-11.31-0.33c-2.7,0.15-4.63,0.41-4.63,0.41c-1.36,2.21-3.52,6.22-5.29,10.75C401.19,189.17,399.99,193.44,404.17,199.49z"/>
				</g>
				<g id="XMLID_154_">
					<path id="XMLID_155_" style="fill:#B16668;" d="M405.82,144.38c-1.82,1.08-4.07,5.66-3.85,15.26
						c0.19,8.14,2.83,10.15,4.15,10.73c1.32,0.58,3.88,0.23,6.36-0.19v4.89c0,0-3.43,3.99-3.22,6.23c0.22,2.24,4.96,2.77,8.17,0.58
						s5.92-6.45,5.92-6.45l-0.06-11.23c0,0,1.46,1.42,3.94-0.75c2.05-1.79,2.74-4.81,1.14-6.43c-1.59-1.62-4.54-1.18-5.67,1.13
						c0,0-3.96,0.14-9.24-2.75C408.2,152.5,406.17,147.54,405.82,144.38z"/>
				</g>
				<g id="XMLID_152_">
					<path id="XMLID_153_" style="fill:#263238;" d="M411.06,157.6c-0.03,0.59,0.4,1.08,0.97,1.11c0.56,0.03,1.05-0.43,1.08-1.01
						c0.03-0.59-0.4-1.08-0.97-1.11C411.57,156.56,411.09,157.02,411.06,157.6z"/>
				</g>
				<g id="XMLID_150_">
					<path id="XMLID_151_" style="fill:#9A4A4D;" d="M410.79,164.5l-2.38,0.76c0.2,0.68,0.89,1.06,1.55,0.85
						C410.61,165.91,410.98,165.18,410.79,164.5z"/>
				</g>
				<g id="XMLID_148_">
					<path id="XMLID_149_" style="fill:#263238;" d="M402.67,154.46l2.07-1.44c-0.38-0.59-1.15-0.75-1.72-0.35
						C402.45,153.07,402.29,153.87,402.67,154.46z"/>
				</g>
				<g id="XMLID_146_">
					<path id="XMLID_147_" style="fill:#263238;" d="M403.14,156.86c-0.03,0.59,0.4,1.08,0.97,1.11c0.56,0.03,1.05-0.43,1.08-1.01
						c0.03-0.59-0.4-1.08-0.97-1.11C403.66,155.82,403.17,156.28,403.14,156.86z"/>
				</g>
				<g id="XMLID_144_">
					<polygon id="XMLID_145_" style="fill:#9A4A4D;" points="407.97,156.28 407.81,162.44 404.57,161.43 					"/>
				</g>
				<g id="XMLID_142_">
					<path id="XMLID_143_" style="fill:#9A4A4D;" d="M412.49,170.19c2.62-0.34,8-1.89,8.84-4.02c0,0-0.28,1.34-1.89,2.72
						c-1.61,1.38-6.96,2.93-6.96,2.93V170.19z"/>
				</g>
				<path id="XMLID_141_" style="fill:#263238;" d="M434.03,156.8l3.66-2.68c-0.72-1.06-2.13-1.31-3.14-0.57
					C433.55,154.28,433.31,155.74,434.03,156.8z"/>
				<path id="XMLID_140_" style="fill:#263238;" d="M416,253.46l-3.14-15.82c0,0-4.69-1.63-7.86-4.01c0,0,2.59,3.34,5.5,5.07
					L416,253.46z"/>
			</g>
			<path id="XMLID_138_" style="fill:#263238;" d="M431.98,168.42c-3.35-1.69-2.88-4.85-1.2-8.2c1.69-3.35,3.96-5.6,7.3-3.92
				c3.35,1.69,4.69,5.76,3.01,9.11C439.41,168.76,435.33,170.11,431.98,168.42z"/>
		</g>
		<g id="Arm_3_">
			<path id="XMLID_137_" style="fill:#B16668;" d="M378.12,218.44c1.68,0.43,3.31,0.3,5.62,1.09c2.04,0.7,2.9,0.96,4.9,0.83
				c2.18-0.13,7.87-2.83,12.92-5.89c5.96-3.61,12.14-10.19,14.39-13.38c4.57-6.47,9.63-16.67,12.05-20.58
				c2.42-3.9,3.25-4.47,3.25-4.47c3.16,0.13,6.29,3.02,4.2,10.74c-1.74,6.39-6.41,14.66-12.16,21.61
				c-2.79,3.37-7.7,8.37-15.34,13.04c-5.34,3.26-10.03,4.88-15.96,6.87c-1.62,0.54-2.68,1.34-5.65,2.74
				c-1.19,0.56-2.49,1.22-3.79,1.4c-1.66,0.23-3.35,0.27-5.01,0.02c-2.09-0.32-4.13-1.12-5.76-2.47c-0.9-0.74-1.67-1.65-2.13-2.72
				c-0.46-1.07-0.6-2.29-0.26-3.41c0.07-0.23,0.16-0.45,0.34-0.61c0.31-0.29,0.78-0.29,1.21-0.28c2.38,0.08,4.93,0.52,7.29,0.36
				c2-0.14,3.39-0.52,3.1-0.8c-0.29-0.28-1.45-0.12-3.06-0.81c-1.53-0.66-2.64-2.22-2.21-3.05
				C376.51,217.85,376.44,218.01,378.12,218.44z"/>
		</g>
		<path id="Hand_3_" style="fill:#B16668;" d="M367.08,193.87c0,0,3.22-1.6,7.36-0.92c2,0.33,2.01,7.01-4.43,9.13
			c-4.19,1.37-6.71,0.77-8.06,4.22c0,0-2.71-0.36-2.1-4.22c0.62-3.86,2.3-7.37,5.11-10.69c1.85-2.18,1.97-4.02,2.88-3.4
			c1.02,0.7,0.55,2.73,0.55,2.73L367.08,193.87z"/>
	</g>
</g>
<g id="Character_1">
	<g>
		<g id="Back_Arm">
			<path id="XMLID_300_" style="fill:#F28F8F;" d="M107.47,198.74c4.46,5.33,12.59,15.5,16.77,20.75c2.19,2.75,3.44,6.17,3.39,9.69
				c-0.04,2.61-0.75,4.79-3.3,3.68c-1.84-0.8-3.02-1.76-5.71-4.42c-2.42-2.39-11-12.7-11-12.7s-6.58-17.31-10.2-18.41
				c-3.62-1.1-6.13-0.82-6.13-0.82C95.66,195.02,101.81,191.98,107.47,198.74z"/>
			<path id="XMLID_299_" style="fill:#E0E0E0;" d="M89.13,193.05c4.47-3.36,12.04-2.48,16.22,2.58
				c3.06,3.71,10.36,12.76,10.36,12.76s-2.09,5.81-9.4,8.42L89.13,193.05z"/>
		</g>
		<g id="Brush_1_">
			<g id="XMLID_319_">
				<path id="XMLID_716_" style="fill:#27DEBF;" d="M174.68,312.45L174.68,312.45c0.01,0-12.55-45.53-30.27-88.41
					c-17.56-42.52-44.66-85.64-49.19-92.16c-0.02-0.03-0.04-0.05-0.05-0.08c-0.02-0.03-0.05-0.07-0.07-0.1l-0.01,0
					c-0.63-0.83-1.61-1.38-2.74-1.38c-1.9,0-3.44,1.54-3.44,3.44c0,0.27,0.04,0.53,0.1,0.78l-0.01,0c0,0,12.05,58.88,29.34,100.69
					c17.29,41.81,40.95,83.65,40.95,83.65l0,0c0.57,0.96,1.72,1.65,3.39,1.87c3.74,0.49,8.64-1.54,10.94-4.53
					C174.66,314.86,174.98,313.54,174.68,312.45z"/>
				<path id="XMLID_315_" style="opacity:0.1;" d="M88.91,133.77c0,0.27,0.04,0.53,0.1,0.78l-0.01,0c0,0,12.05,58.88,29.34,100.69
					c11.63,28.12,26.14,56.26,34.4,71.67l9.06-5.74c0,0-72.13-169.53-69.44-170.83C90.45,130.34,88.91,131.87,88.91,133.77z"/>
			</g>
			<g id="XMLID_317_">
				<path id="XMLID_714_" style="fill:#EBEBEB;" d="M159.29,318.89c-1.45,7.35-3.97,16.78,0.62,29.05
					c5.21,13.92,20.95,17.76,28.58,17.77c10.57,0.02,17.26-3.92,17.26-3.92s-5.47-2.1-7.73-10c-0.47-1.65-0.68-3.41-0.83-5.26
					c-0.48-6.39-0.7-13.36-6.29-21.1c-7.14-9.88-16.22-12.97-16.22-12.97L159.29,318.89z"/>
				<path id="XMLID_292_" style="fill:#27DEBF;" d="M198.02,351.79c-0.47-1.65-0.68-3.41-0.82-5.26c-0.01,0.05-1.91,8.34-6.58,7.86
					c-4.68-0.49-6-5.46-12.21-5.46c-7.55,0-10.16,6.34-16.63,2.93c6.48,10.89,19.84,13.85,26.7,13.87
					c10.57,0.02,17.26-3.92,17.26-3.92S200.28,359.69,198.02,351.79z"/>
				<path id="XMLID_50_" style="opacity:0.1;" d="M178.28,354.46c-12.22-8.48-9.92-31.04-9.56-34.68l-9.43-0.89
					c-1.45,7.35-3.97,16.78,0.62,29.05c5.21,13.92,20.95,17.76,28.58,17.77c10.57,0.02,17.26-3.92,17.26-3.92
					S192.59,364.39,178.28,354.46z"/>
			</g>
			<g id="XMLID_318_">
				<path id="XMLID_713_" style="fill:#455A64;" d="M159.29,318.89c0.57,0.96,1.72,1.64,3.39,1.86c3.74,0.49,8.64-1.54,10.94-4.53
					c1.04-1.36,1.37-2.69,1.07-3.77c-1.77-6.32-3.82-13.17-6.05-20.37c0.44,1.39,0.04,3.11-1.32,4.88
					c-2.9,3.78-9.09,6.34-13.81,5.72c-2.26-0.3-3.78-1.27-4.43-2.61C152.98,307.4,156.66,314.25,159.29,318.89z"/>
				<path id="XMLID_316_" style="fill:#37474F;" d="M161.79,301.17c-2.68,1.24-5.7,1.86-8.28,1.52c-2.26-0.3-3.78-1.27-4.43-2.61
					c3.9,7.33,7.58,14.18,10.21,18.83c0.57,0.96,1.72,1.64,3.39,1.86c1.88,0.25,4.05-0.14,6.04-0.97l0.11-0.19L161.79,301.17
					L161.79,301.17z"/>
			</g>
		</g>
		<g id="Boy">
			<g id="XMLID_197_">
				
					<ellipse id="XMLID_261_" transform="matrix(0.9732 -0.2298 0.2298 0.9732 -35.7262 26.3863)" style="fill:#263238;" cx="95.45" cy="166.61" rx="10.85" ry="10.85"/>
				<g id="XMLID_199_">
					<g id="XMLID_200_">
						<g id="XMLID_201_">
							
								<rect id="XMLID_255_" x="69.47" y="350.13" transform="matrix(-1 -1.224647e-16 1.224647e-16 -1 146.5895 713.3478)" style="fill:#FFA8A7;" width="7.64" height="13.08"/>
							<polygon id="XMLID_254_" style="fill:#FFA8A7;" points="95.96,349.44 103.6,349.7 103.98,335.86 96.35,335.6 							"/>
							<path id="XMLID_253_" style="fill:#37474F;" d="M69.98,246.46c0,7.3-0.94,51.51-0.94,51.51c-0.18,2.1-2.15,5.97-1.72,14.03
								c0.58,10.95,1.53,39.43,1.53,39.43s3.58,3.55,8.64,0c0,0,6.92-39.39,8.29-50.24c1.19-9.47,3.22-35.21,3.22-35.21l7.08,30.29
								c0,0-1.25,7.12-1.52,12.15c-0.27,5.03,1.3,31.33,1.3,31.33s3.88,2.68,8.31,0.32c0,0,6.14-39.69,6.93-44.23
								c0.79-4.54-5.37-49.37-5.37-49.37H69.98z"/>
							<path id="XMLID_252_" style="fill:#F0F0F0;" d="M77.32,193.68c-3.33,0.59-5.98,3.11-6.71,6.42c-0.36,1.64-0.63,3.59-0.63,5.8
								v14.97v25.59c5.36,5.83,24.03,8.54,35.73,0c0,0-0.23-35.83-1.11-41.71c-1.52-10.23-6.42-13.87-11.33-13.49l-11.79,1.69
								L77.32,193.68z"/>
							<g id="XMLID_232_">
								<g id="XMLID_242_">
									<path id="XMLID_250_" style="fill:#263238;" d="M76.7,174.32c0,0,1.76,8.26,2.46,9.61c0.7,1.36,2.16,1.74,2.16,1.74
										l-0.12-5.81L76.7,174.32z"/>
									<path id="XMLID_249_" style="fill:#263238;" d="M78.91,162.49c0,0-1.89-0.32-3.37,1.18c-1.45,1.48-0.64,6.11,1.16,10.64
										l3.31,0.38L78.91,162.49z"/>
									<path id="XMLID_248_" style="fill:#FFA8A7;" d="M81,174.71c-0.66,0.4-1.61-0.88-2.43-1.74c-0.82-0.86-3.49-2.03-4.82,0.78
										c-1.36,2.86,1.18,6.65,3.28,7.31c3.63,1.14,4.17-1.19,4.17-1.19l0.28,13.08c0,0,2.37,5.81,8.8,6.68
										c6.43,0.87,5.11-4.43,2.99-7.03l-0.01-3.98c0,0,3.29,0.5,4.89,0.25c2.67-0.41,4.34-2.52,5.15-5.4
										c1.3-4.64,1.79-8.38,0.69-17.5c-1.21-9.99-12.83-10.1-19.11-6.15C78.61,163.78,81,174.71,81,174.71z"/>
									<path id="XMLID_247_" style="fill:#263238;" d="M81,175.82c-0.33,0.01-1.6-2.1-2.43-2.85c-1.15-1.04,0.33-10.48,0.33-10.48
										s-1.1-2.34,1.1-4.77c1.57-1.73,4.19-1.92,8.67-2.62c2.35-0.37,5.91-1.03,8.25-1.46c2.8-0.52,5.12-1.07,7.1,0.65
										c1.54,1.34,2.2,3.7,1.37,5.56c-0.19,0.44-0.48,0.83-0.8,1.19c-0.57,0.63-1.21,1.13-2.02,1.39c0,0-1.22,1.08-5.47,1.6
										c-4.25,0.52-10.86-0.1-11.77-0.22c-1.23-0.17-1.49,1.03-2.16,4.29C82.61,170.95,82.12,175.8,81,175.82z"/>
									<path id="XMLID_244_" style="fill:#263238;" d="M78.91,163.23l-4.01-2.15c0.57-1.15,1.93-1.6,3.04-1.01
										C79.04,160.66,79.48,162.08,78.91,163.23z"/>
									<path id="XMLID_243_" style="fill:#F28F8F;" d="M93.26,188.62c0,0-5.95-1.2-8.03-2.31c-1.39-0.74-2.54-2.02-2.88-2.85
										c0,0,0.39,1.77,1.63,3.36c1.52,1.95,9.28,3.38,9.28,3.38L93.26,188.62z"/>
								</g>
								<g id="XMLID_233_">
									<path id="XMLID_241_" style="fill:#263238;" d="M91.83,173.22c0,0.68-0.53,1.24-1.19,1.24c-0.66,0-1.19-0.56-1.19-1.24
										c0-0.68,0.53-1.24,1.19-1.24C91.3,171.98,91.83,172.53,91.83,173.22z"/>
									<path id="XMLID_240_" style="fill:#263238;" d="M90.57,168.71l-2.55,1.41c-0.38-0.73-0.11-1.64,0.59-2.03
										C89.32,167.7,90.19,167.98,90.57,168.71z"/>
									<path id="XMLID_239_" style="fill:#F28F8F;" d="M92.72,181.46l2.72,1.02c-0.27,0.78-1.1,1.18-1.85,0.9
										C92.85,183.1,92.46,182.24,92.72,181.46z"/>
									<path id="XMLID_238_" style="fill:#263238;" d="M102.47,169.71l-2.33-1.79c0.47-0.67,1.38-0.81,2.02-0.31
										C102.81,168.1,102.94,169.04,102.47,169.71z"/>
									<path id="XMLID_236_" style="fill:#263238;" d="M101.75,172.88c0,0.68-0.53,1.24-1.19,1.24c-0.66,0-1.19-0.56-1.19-1.24
										c0-0.68,0.53-1.24,1.19-1.24C101.22,171.64,101.75,172.19,101.75,172.88z"/>
									<polygon id="XMLID_234_" style="fill:#F28F8F;" points="95.68,171.75 96.07,178.92 99.81,177.64 									"/>
								</g>
							</g>
							<path id="XMLID_231_" style="fill:#263238;" d="M77.11,359.44v-1.09c0.73,0.32,2.43,6.8,5.46,9.56
								c2.41,2.2,5.7,4.74,6.53,7.19c0.87,2.55-4.58,3.96-6.83,3.56c-2.62-0.46-7.15-2.31-8.29-4.01c-1.14-1.71-1.67-4.23-2.6-5.48
								c-0.93-1.25-3.06-2.65-3.56-4.1c-0.27-0.8,0.05-2.54,0.44-4.01c0.35-1.35,0.74-2.84,1.2-2.71c0,0.16,0,0.83,0,0.83
								c0.55,0.61,2.09,1.22,3.82,1.29C74.41,360.52,77.12,360.29,77.11,359.44z"/>
							<path id="XMLID_202_" style="fill:#263238;" d="M103.68,347.34c0.4,0.01,0.72,0.57,1.59,1.52c1.06,1.14,2.79,2.38,4.49,3.23
								c2.86,1.43,8.42,3.63,10.94,4.77c1.57,0.71,1.5,2.61-0.13,3.69c-1.63,1.08-5.55,1.86-10.26,0.81
								c-2.57-0.57-5.91-2.94-8.02-2.82c-2.12,0.13-6.07,0.1-7.63-0.98c-1.56-1.08-0.94-3.37-0.5-5.35
								c0.48-2.16,1.17-5.45,1.88-5.31l-0.02,0.68c0.92,1.39,5.59,1.96,7.61,0.93L103.68,347.34z"/>
						</g>
					</g>
				</g>
				<path id="XMLID_198_" style="fill:#263238;" d="M88.99,265.98c0,0,6.11-1.72,10.64-6.1c0,0-2.05,3.84-8.16,7.42l2.29,19.53
					L88.99,265.98z"/>
			</g>
		</g>
		<g id="Arm">
			<g id="XMLID_194_">
				<path id="XMLID_195_" style="fill:#FFA8A7;" d="M131.75,237.48c-1.68,0.43-3.31,0.3-5.62,1.09c-2.04,0.7-2.9,0.96-4.9,0.83
					c-2.18-0.13-7.87-2.83-12.92-5.89c-5.96-3.61-12.14-10.19-14.39-13.38c-4.57-6.47-9.63-16.67-12.05-20.58
					c-2.42-3.9-4.71-4.31-7.4-4.2c-3.16,0.13-5.18,3.03-2.4,9.03c2.78,6.01,8.77,16.09,14.52,23.04c2.79,3.37,7.7,8.37,15.34,13.04
					c5.34,3.26,10.03,4.88,15.96,6.87c1.62,0.54,2.68,1.34,5.65,2.74c1.19,0.56,2.49,1.22,3.79,1.4c1.66,0.23,3.35,0.27,5.01,0.02
					c2.09-0.32,4.13-1.12,5.76-2.47c0.9-0.74,1.67-1.65,2.13-2.72c0.46-1.07,0.6-2.29,0.26-3.41c-0.07-0.23-0.16-0.45-0.34-0.61
					c-0.31-0.29-0.78-0.29-1.21-0.28c-2.38,0.08-4.93,0.52-7.29,0.36c-2-0.14-3.39-0.52-3.1-0.8c0.29-0.28,1.45-0.12,3.06-0.81
					c1.53-0.66,2.64-2.22,2.21-3.05C133.37,236.88,133.43,237.05,131.75,237.48z"/>
			</g>
			<path id="XMLID_178_" style="fill:#E0E0E0;" d="M75.49,194.24c-2.44,0.12-5.58,1.6-5.52,5.75c0.06,4.15,6.43,16.2,11.35,23.08
				c0,0,7.66-0.49,11.69-6.27c0,0-7.16-11.39-9.11-15.03C82.16,198.51,79.04,194.06,75.49,194.24z"/>
		</g>
		<path id="Hand" style="fill:#FFA8A7;" d="M138.96,211.48c0,0-2.9-1.46-7.04-0.78c-2,0.33-2.01,7.01,4.43,9.13
			c4.19,1.37,6.71,0.77,8.06,4.22c0,0,2.71-0.36,2.1-4.22c-0.62-3.86-2.3-7.37-5.11-10.69c-1.85-2.18-1.97-4.02-2.88-3.4
			c-1.03,0.7-0.88,2.85-0.88,2.85L138.96,211.48z"/>
	</g>
</g>
<g id="Paint_Pot_1_">
	<g id="Paint_Pot_2_">
		<path id="XMLID_94_" style="fill:#37474F;" d="M314.6,239.18l-36.7-0.5l-0.32,29.97l0,0c-0.03,2.71,1.73,5.45,5.29,7.55
			c7.12,4.22,18.74,4.34,25.96,0.28c3.64-2.05,5.46-4.77,5.45-7.51L314.6,239.18z"/>
		<path id="XMLID_93_" style="fill:#455A64;" d="M283.36,231.25c-7.21,4.06-7.28,10.77-0.16,14.99c7.12,4.22,18.74,4.34,25.96,0.28
			c7.21-4.06,7.29-10.77,0.16-14.99C302.19,227.32,290.57,227.19,283.36,231.25z"/>
		<path id="XMLID_92_" style="fill:#263238;" d="M313.02,239.06c0,0.48-0.1,0.96-0.26,1.44c-0.56,1.72-2.06,3.31-4.39,4.63
			c-3.26,1.82-7.59,2.8-12.22,2.76c-4.61-0.06-8.93-1.12-12.14-3.02c-2.26-1.34-3.73-2.96-4.25-4.63c-0.18-0.5-0.26-1.02-0.26-1.54
			c0.04-2.24,1.68-4.39,4.65-6.05c3.24-1.84,7.59-2.82,12.2-2.76c4.63,0.04,8.95,1.12,12.16,3.02
			C311.45,234.65,313.04,236.82,313.02,239.06z"/>
		<path id="XMLID_91_" style="fill:#27DEBF;" d="M312.76,240.5c-0.56,1.72-2.06,3.31-4.39,4.63c-3.26,1.82-7.59,2.8-12.22,2.76
			c-4.61-0.06-8.93-1.12-12.14-3.02c-2.26-1.34-3.73-2.96-4.25-4.63c0.56-1.72,2.06-3.32,4.39-4.61c3.24-1.84,7.59-2.82,12.2-2.78
			c4.63,0.06,8.95,1.14,12.16,3.04C310.77,237.22,312.23,238.82,312.76,240.5z"/>
		<path id="XMLID_90_" style="fill:#263238;" d="M304.07,250.41c0.8-0.45,1.45-0.07,1.44,0.85c-0.01,0.92-0.67,2.04-1.48,2.49
			c-0.81,0.45-1.45,0.07-1.44-0.85C302.61,251.98,303.27,250.87,304.07,250.41z"/>
		<g id="XMLID_41_">
			<path id="XMLID_89_" style="fill:#E0E0E0;" d="M277.84,243.95c-2.02,3.97-6.03,13.44-0.82,17.29c0.22,0.16,0.42,0.3,0.64,0.44
				l-0.02,1.92c-0.52-0.32-1.06-0.68-1.58-1.06c-7.79-5.77,1-20.59,1.38-21.21c0.1-0.18,0.26-0.28,0.44-0.34L277.84,243.95z"/>
			<path id="XMLID_42_" style="fill:#E0E0E0;" d="M304.76,252.46c-0.22,0.46-5.89,11.3-15.22,13.48c-1.08,0.26-2.14,0.38-3.22,0.38
				c-2.9,0-5.79-0.9-8.69-2.72l0.02-1.92c3.85,2.68,7.73,3.59,11.52,2.72c8.61-2.02,14.12-12.58,14.16-12.68
				c0.2-0.4,0.7-0.54,1.08-0.34C304.82,251.58,304.98,252.06,304.76,252.46z"/>
		</g>
	</g>
</g>
<g id="Pencils_1_">
	<g id="Pencil_Can">
		<g id="Can">
			<path id="XMLID_3401_" style="fill:#37474F;" d="M257.27,179.52H173.3l9.39,77.29h0.04c0.43,4.47,3.57,8.88,9.49,12.29
				c12.76,7.37,33.46,7.37,46.22,0c5.92-3.42,9.06-7.82,9.49-12.29h0.03L257.27,179.52z"/>
			<path id="XMLID_3385_" style="fill:#455A64;" d="M185.61,162.36c16.41-9.47,43.01-9.47,59.42,0c16.41,9.47,16.41,24.83,0,34.31
				c-16.41,9.47-43.01,9.47-59.42,0C169.2,187.2,169.2,171.84,185.61,162.36z"/>
			<path id="XMLID_3396_" style="fill:#263238;" d="M215.32,198.9c-10.38,0-20.07-2.29-27.27-6.45c-6.36-3.67-9.87-8.27-9.87-12.93
				c0-4.66,3.5-9.26,9.87-12.93c7.21-4.16,16.89-6.45,27.27-6.45c10.38,0,20.07,2.29,27.27,6.45c6.36,3.67,9.87,8.27,9.87,12.93
				c0,4.67-3.51,9.26-9.87,12.93C235.39,196.61,225.7,198.9,215.32,198.9z"/>
		</g>
		<g id="XMLID_5201_">
			<defs>
				<path id="XMLID_5200_" d="M214.76,198.9c-10.38,0-20.07-2.29-27.27-6.45c-6.36-3.67-9.87-8.27-9.87-12.93
					c0-4.66-15.68-118.17-15.68-118.17l37.59-30.91l74.65,27.1c0,0-21.72,117.32-21.72,121.98c0,4.67-3.93,9.5-10.3,13.17
					C234.96,196.85,225.14,198.9,214.76,198.9z"/>
			</defs>
			<clipPath id="XMLID_3_">
				<use xlink:href="#XMLID_5200_"  style="overflow:visible;"/>
			</clipPath>
			<g id="Pencil_1_" style="clip-path:url(#XMLID_3_);">
				<path id="XMLID_873_" style="fill:#FFA8A7;" d="M238.58,242.97l-15.5,29.5c-0.45,0.86-1.73,0.66-1.9-0.3l-5.68-33.03
					L238.58,242.97z"/>
				<path id="XMLID_1_" style="fill:#FFA8A7;" d="M238.58,242.97l-15.5,29.5c-0.45,0.86-1.73,0.66-1.9-0.3l-5.68-33.03
					L238.58,242.97z"/>
				<path id="XMLID_801_" style="fill:#263238;" d="M221.19,272.17c0.16,0.95,1.45,1.16,1.9,0.3l3.03-5.76l0,0
					c-1.98,0.7-4.19,0.23-5.72-1.21l-0.42-0.39L221.19,272.17z"/>
				<g>
					<path id="XMLID_800_" style="fill:#27DEBF;" d="M237.4,100.27l-0.48,3.05l-0.59,3.68L215.5,239.13
						c2.01,3.17,5.41,5.15,9.02,6.09c5.5,1.45,11.51,0.5,14.04-2.26l20.67-131.17l1.11-7.03
						C259.38,109.28,236.49,104.81,237.4,100.27z"/>
					<g>
						<path id="XMLID_795_" style="fill:#EBEBEB;" d="M235.54,111.86l-1.06,6.81c-0.37,1.96,3.63,3.89,8.42,5.08
							c6.35,1.61,14.07,1.93,14.57-0.67l0.79-5.02l0.25-1.8c-0.5,2.6-8.22,2.28-14.57,0.67c-4.58-1.15-8.46-2.99-8.41-4.87l0-0.02
							C235.51,112,235.52,111.93,235.54,111.86z"/>
						<path id="XMLID_794_" style="fill:#27DEBF;" d="M235.29,113.57c-0.88,4.56,22.09,8.97,22.97,4.41l1.08-6.81
							c-0.88,4.56-23.84,0.15-22.97-4.41L235.29,113.57z"/>
						<path id="XMLID_791_" style="fill:#EBEBEB;" d="M237.4,100.27l-1.07,6.72c-0.89,4.47,21.24,8.94,22.91,4.8
							c0.04-0.07,0.06-0.16,0.08-0.25l1.03-6.78C259.38,109.28,236.49,104.81,237.4,100.27z"/>
					</g>
					<path id="XMLID_790_" style="opacity:0.1;" d="M259.24,111.8l1.11-7.03c-0.44,2.04-5.35,2.24-10.53,1.43l0,0l-20.95,139.67
						l-5.79,26.6l15.5-29.5l-0.02,0l0,0L259.24,111.8z"/>
				</g>
				<path id="XMLID_709_" style="fill:#FFA8A7;" d="M241.93,71.74l-4.53,28.53c-0.39,1.94,3.56,3.87,8.3,5.08
					c6.35,1.63,14.09,2,14.64-0.58c0.01-0.01,0.01-0.01,0.01-0.03l4.35-27.44c1.54-6.32-10.13-10.99-17.4-9.69
					C244.59,68.08,242.51,69.38,241.93,71.74z"/>
			</g>
			<g id="Pencil" style="clip-path:url(#XMLID_3_);">
				<path id="XMLID_883_" style="fill:#27DEBF;" d="M188.54,236.5l-0.43-3.05l-0.53-3.68L169.05,97.27
					c1.71,1.77,6.17,2.71,11.02,2.19c5.65-0.61,10.86-2.93,12.1-5.62l18.4,131.51l0.98,7.05
					C210.67,227.87,187.71,231.94,188.54,236.5z"/>
				<g>
					<path id="XMLID_882_" style="fill:#EBEBEB;" d="M186.88,224.87l-0.94-6.82c-0.34-1.97,3.7-3.82,8.5-4.94
						c6.38-1.5,14.1-1.69,14.55,0.92l0.7,5.03l0.22,1.8c-0.45-2.61-8.18-2.42-14.55-0.93c-4.6,1.07-8.51,2.84-8.49,4.72l0,0.02
						C186.86,224.74,186.86,224.8,186.88,224.87z"/>
					<path id="XMLID_881_" style="fill:#27DEBF;" d="M186.66,223.17c-0.8-4.57,22.25-8.58,23.04-4.01l0.97,6.83
						c-0.8-4.57-23.83-0.56-23.04,4.01L186.66,223.17z"/>
					<path id="XMLID_880_" style="fill:#EBEBEB;" d="M188.54,236.5l-0.95-6.74c-0.81-4.48,21.39-8.57,22.99-4.41
						c0.04,0.07,0.06,0.16,0.08,0.25l0.91,6.8C210.67,227.87,187.71,231.94,188.54,236.5z"/>
				</g>
				<g id="XMLID_322_">
					<path id="XMLID_323_" style="fill:#FFA8A7;" d="M178.52,71.21c-3.36,0.87-4.55,0.17-4.55,0.17l-4.92,25.89
						c2.68,3.85,9.21,4.65,14.74,3.04l-0.17-1.29L178.52,71.21z"/>
					<path id="XMLID_885_" style="fill:#FAFAFA;" d="M192.19,93.84l-0.02,0l0,0l0,0.02C192.19,93.86,192.19,93.85,192.19,93.84
						l-12.06-23.96h0L192.19,93.84z"/>
					<polygon id="XMLID_889_" style="fill:#E0E0E0;" points="180.14,69.88 177.21,64.07 180.13,69.88 					"/>
					<path id="XMLID_966_" style="fill:#455A64;" d="M175.31,64.34l-1.34,7.04c0,0,1.14,0.8,4.55-0.17l-1.31-7.14v0
						c-0.27-0.54-0.88-0.67-1.34-0.46C175.6,63.73,175.38,63.98,175.31,64.34z"/>
					<path id="XMLID_967_" style="opacity:0.1;" d="M210.58,225.35L192.18,93.87c-1.3,3.14-4.61,5.35-8.38,6.45l17.26,130.47l0,0
						c5.18-0.72,10.1-0.43,10.5,1.61L210.58,225.35z"/>
					<path id="XMLID_981_" style="fill:#F28F8F;" d="M192.18,93.87l0-0.02l0,0l0.02,0l-12.06-23.96c-0.37,0.6-0.95,1.09-1.61,1.33
						l5.11,27.81l0.17,1.29C187.57,99.22,190.88,97,192.18,93.87z"/>
					<path id="XMLID_984_" style="fill:#37474F;" d="M178.52,71.21c0.83-0.19,1.54-0.98,1.61-1.33l-2.93-5.81L178.52,71.21z"/>
				</g>
				<path id="XMLID_878_" style="fill:#F28F8F;" d="M192.57,265.1l-4.03-28.6c-0.36-1.95,3.63-3.81,8.39-4.94
					c6.37-1.52,14.12-1.76,14.63,0.84c0.01,0.01,0.01,0.01,0.01,0.03l3.87,27.51c1.43,6.34-10.32,10.82-17.56,9.38
					C195.17,268.8,193.11,267.47,192.57,265.1z"/>
			</g>
			<g id="Brush" style="clip-path:url(#XMLID_3_);">
				<g id="XMLID_911_">
					<path id="XMLID_913_" style="fill:#27DEBF;" d="M207.86,85.31L207.86,85.31c-0.01,0-4.47,35.87-4.51,71.37
						c-0.04,35.2,6.47,73.63,7.77,79.57c0,0.02,0.01,0.05,0.02,0.07c0.01,0.03,0.01,0.07,0.02,0.09l0.01,0
						c0.2,0.77,0.74,1.45,1.53,1.78c1.34,0.56,2.88-0.08,3.44-1.42c0.08-0.19,0.13-0.38,0.16-0.58l0,0c0,0,8.74-45.15,8.77-79.78
						s-4.44-71.14-4.44-71.14l0,0c-0.12-0.84-0.73-1.67-1.85-2.32c-2.5-1.45-6.56-1.45-9.06,0
						C208.58,83.6,207.96,84.45,207.86,85.31z"/>
					<path id="XMLID_912_" style="opacity:0.1;" d="M216.13,236.76c0.08-0.19,0.13-0.38,0.16-0.58l0,0c0,0,8.74-45.15,8.77-79.78
						c0.02-23.29-1.99-47.43-3.31-60.75l-8.09,1.4c0,0,1.31,140.99-0.97,141.12C214.04,238.74,215.58,238.1,216.13,236.76z"/>
				</g>
				<g>
					<path id="XMLID_788_" style="fill:#F0F0F0;" d="M214.23,81.87c1.12-2.09,7.23-13.44,5.27-22.68c-1.12-0.04-2.3-0.23-3.59-0.76
						c-4.38-1.82-3.86-5.72-7.03-7.44c-3.15-1.71-6.92,3.58-6.95,3.63l0,0c-1.53,4.66-3.42,9.65-1.74,16.76
						c2.15,9.08,7.67,13.93,7.67,13.93l12.78-0.04c0.79-1.19,1.68-2.46,2.55-3.84c-0.88,1.38-1.76,2.65-2.55,3.84L214.23,81.87z"/>
					<path id="XMLID_951_" style="opacity:0.1;" d="M228.52,61.23c-2.71-3.27-5.5-1.92-9.02-2.05c1.97,9.24-4.15,20.59-5.27,22.68
						l6.41,3.4c0.79-1.19,1.68-2.46,2.55-3.84c0.22-0.35,0.44-0.7,0.66-1.06c0.44-0.72,0.87-1.48,1.28-2.27
						c0.62-1.19,1.2-2.46,1.71-3.85c0.34-0.92,0.65-1.89,0.91-2.91c0.52-2.04,0.87-4.29,0.96-6.79
						C228.74,63.4,228.67,62.3,228.52,61.23z"/>
				</g>
				<g>
					<path style="fill:#27DEBF;" d="M228.51,61.18c-0.08-0.57-0.19-1.13-0.33-1.67c-0.01-0.06-0.03-0.11-0.04-0.16
						c-0.1-0.41-0.23-0.81-0.36-1.21c-0.05-0.15-0.1-0.31-0.15-0.46c-0.04-0.12-0.09-0.23-0.14-0.35c-0.08-0.21-0.17-0.43-0.25-0.64
						c-0.11-0.25-0.22-0.5-0.33-0.75c-0.27-0.56-0.56-1.11-0.87-1.64c-0.31-0.53-0.64-1.04-0.99-1.54
						c-0.35-0.49-0.71-0.97-1.09-1.43c-2.61-3.17-5.85-5.5-8.51-6.9c-0.24-0.13-0.48-0.25-0.71-0.36c-0.07-0.03-0.13-0.06-0.2-0.09
						c-0.28-0.13-0.56-0.26-0.82-0.37c-1.87-0.78-3.64-1.31-5.24-1.67c-0.8-0.18-1.56-0.32-2.27-0.42c-0.71-0.1-1.37-0.17-1.97-0.22
						c-0.3-0.02-0.59-0.04-0.86-0.05c-0.27-0.01-0.53-0.02-0.76-0.02c-0.48-0.01-0.89,0-1.22,0.02c-0.67,0.03-1.04,0.08-1.04,0.08
						s3.25,3.08,2.53,9.33c-0.15,1.3-0.51,2.61-0.96,3.96c0.03-0.04,3.8-5.34,6.95-3.63c3.17,1.72,2.64,5.62,7.03,7.44
						c1.28,0.53,2.47,0.72,3.59,0.76c3.52,0.13,6.31-1.23,9.02,2.05C228.51,61.22,228.51,61.2,228.51,61.18z"/>
					<path id="XMLID_965_" style="opacity:0.1;" d="M200.35,41.32c0,0,10.07,2.02,17.27,13.23c0.92,1.44,1.52,3.01,1.87,4.64
						c3.52,0.13,6.31-1.23,9.02,2.05c0-0.02-0.01-0.03-0.01-0.05c-0.08-0.57-0.19-1.13-0.33-1.67c-0.01-0.06-0.03-0.11-0.04-0.16
						c-0.1-0.41-0.23-0.81-0.36-1.21c-0.05-0.15-0.1-0.31-0.15-0.46c-0.04-0.12-0.09-0.23-0.14-0.35c-0.08-0.21-0.17-0.43-0.25-0.64
						c-0.11-0.25-0.22-0.5-0.33-0.75c-0.27-0.56-0.56-1.11-0.87-1.64c-0.31-0.53-0.64-1.04-0.99-1.54
						c-0.35-0.49-0.71-0.97-1.09-1.43c-2.61-3.17-5.85-5.5-8.51-6.9c-0.24-0.13-0.48-0.25-0.71-0.36c-0.07-0.03-0.13-0.06-0.2-0.09
						c-0.28-0.13-0.56-0.26-0.82-0.37c-1.87-0.78-3.64-1.31-5.24-1.67c-0.8-0.18-1.56-0.32-2.27-0.42c-0.71-0.1-1.37-0.17-1.97-0.22
						c-0.3-0.02-0.59-0.04-0.86-0.05c-0.27-0.01-0.53-0.02-0.76-0.02c-0.48-0.01-0.89,0-1.22,0.02
						C200.72,41.27,200.35,41.32,200.35,41.32L200.35,41.32z"/>
				</g>
				<g id="XMLID_886_">
					<path id="XMLID_888_" style="fill:#455A64;" d="M220.63,85.26c-0.12-0.84-0.74-1.67-1.85-2.31c-2.5-1.45-6.56-1.45-9.06,0
						c-1.14,0.66-1.76,1.5-1.86,2.35c-0.6,4.99-1.16,10.43-1.69,16.17c0.1-1.11,0.88-2.21,2.36-3.06c3.16-1.82,8.28-1.82,11.44,0
						c1.51,0.87,2.3,2,2.36,3.15C221.72,95.24,221.13,89.32,220.63,85.26z"/>
					<path id="XMLID_887_" style="fill:#37474F;" d="M213.67,97.06c2.26-0.09,4.57,0.36,6.3,1.35c1.51,0.87,2.3,2,2.36,3.15
						c-0.61-6.33-1.2-12.25-1.7-16.3c-0.12-0.84-0.74-1.67-1.85-2.31c-1.26-0.73-2.9-1.09-4.55-1.08l-0.14,0.1L213.67,97.06
						L213.67,97.06z"/>
				</g>
			</g>
		</g>
	</g>
	<path style="fill:#F28F8F;" d="M260.35,104.77c0.01-0.01,0.01-0.01,0.01-0.03l4.35-27.44c0.07-0.29,0.1-0.57,0.12-0.85
		c-1.79,4.73-10.8,2.32-10.8,2.32l-4.21,27.42C255,107,259.91,106.81,260.35,104.77z"/>
</g>
</svg>
