<?xml version="1.0" encoding="utf-8"?>
<!-- Generator: Adobe Illustrator 22.1.0, SVG Export Plug-In . SVG Version: 6.00 Build 0)  -->
<svg version="1.1" xmlns="http://www.w3.org/2000/svg" xmlns:xlink="http://www.w3.org/1999/xlink" x="0px" y="0px"
	 viewBox="0 0 500 500" style="enable-background:new 0 0 500 500;" xml:space="preserve">
<g id="Water">
	<path style="fill:#27DEBF;" d="M116.64,417.5c76.27,39.84,199.92,39.84,276.18,0c76.27-39.84,76.27-104.44,0-144.28
		c-76.27-39.84-199.92-39.84-276.18,0C40.38,313.06,40.38,377.66,116.64,417.5z"/>
	<path style="opacity:0.6;fill:#FFFFFF;" d="M116.64,417.5c76.27,39.84,199.92,39.84,276.18,0c76.27-39.84,76.27-104.44,0-144.28
		c-76.27-39.84-199.92-39.84-276.18,0C40.38,313.06,40.38,377.66,116.64,417.5z"/>
</g>
<g id="Shadows">
	<g id="XMLID_3_" style="opacity:0.1;">
		<path d="M321.28,367.11l-20.63,11.91c-3.38,1.95-6.18,4.79-7.91,8.29c-1.14,2.3-1.63,4.59,0.11,5.6c1.35,0.78,4.06,0.78,7.07,0.43
			c7.15-0.83,14.03-3.24,20.27-6.84l16.76-9.68c0.26-0.15,0.26-0.52,0-0.67L321.28,367.11z"/>
	</g>
	<g id="XMLID_2_" style="opacity:0.1;">
		<path d="M392.82,273.22c-8.97-4.69-18.61-8.82-28.74-12.4L143.03,387.97l-38.34,22.69c3.76,2.35,7.73,4.64,11.96,6.84
			c10.54,5.51,21.98,10.25,34.08,14.23l258.13-149.04C403.94,279.41,398.6,276.24,392.82,273.22z"/>
	</g>
</g>
<g id="Sun">
	<g id="XMLID_18956_">
		<g id="XMLID_18957_">
			<g id="XMLID_18958_">
				
					<ellipse transform="matrix(0.5 -0.866 0.866 0.5 -24.1185 134.5145)" style="fill:#E0E0E0;" cx="104.43" cy="88.14" rx="27.86" ry="16.08"/>
			</g>
		</g>
	</g>
</g>
<g id="Clouds">
	<g id="XMLID_19109_">
		<g id="XMLID_19129_">
			<path style="fill:#F0F0F0;" d="M253.72,67.57l-3.83,1.47V60.6c0-6.7-5.34-8.3-11.14-4.95l0,0c-5.8,3.35-10.5,11.49-10.5,18.19
				v1.23c-1.32-0.52-3.01-0.32-4.87,0.75l0,0c-4.17,2.41-7.56,8.27-7.56,13.09v0.56l-5.35,3.09c-2.75,1.59-4.98,5.45-4.98,8.62
				s2.23,4.46,4.98,2.87l43.25-24.97c2.75-1.59,4.98-5.45,4.98-8.62S256.47,65.98,253.72,67.57z"/>
		</g>
		<g id="XMLID_19111_">
			<path style="fill:#F0F0F0;" d="M210.31,70.37l-6.95,4.01c0.03-0.31,0.06-0.62,0.06-0.92v-2.01c0-3.58-2.52-5.04-5.62-3.24
				c-1.26,0.73-2.41,1.88-3.35,3.22c-0.51-4.51-4.04-6.19-8.34-3.71c-4.64,2.68-8.41,9.2-8.41,14.56v3.01
				c0,1.39,0.26,2.56,0.71,3.49l-5.77,3.33c-1.72,0.99-3.12,3.41-3.12,5.4c0,1.99,1.4,2.79,3.12,1.8l37.67-21.75
				c1.72-0.99,3.12-3.41,3.12-5.4C213.43,70.18,212.03,69.38,210.31,70.37z"/>
		</g>
	</g>
</g>
<g id="Boat">
	<g id="XMLID_19034_">
		<g id="XMLID_19000_">
			<path style="fill:#455A64;" d="M291.29,387.33c2.03,1.17,4.32,1.91,6.6,2.35c6.8,1.31,13.85-0.08,19.85-3.54l17.58-10.15
				c0.4-0.23,0.65-0.66,0.65-1.13v-3.94C335.97,370.92,283.17,382.64,291.29,387.33z"/>
		</g>
		<g id="XMLID_19018_">
			<path style="fill:#37474F;" d="M319.72,361.54l-20.63,11.91c-3.38,1.95-6.18,4.79-7.91,8.29c-1.14,2.3-1.63,4.59,0.11,5.6
				c1.35,0.78,4.06,0.78,7.07,0.43c7.15-0.83,14.03-3.24,20.27-6.84l17.35-10.01L319.72,361.54z"/>
		</g>
		<g id="XMLID_19019_">
			<polygon style="fill:#263238;" points="319.72,361.54 319.72,363.88 333.88,372.12 335.97,370.92 			"/>
		</g>
		<g id="XMLID_19023_">
			<path style="fill:#263238;" d="M291.18,381.73c-1.04,2.11-1.53,4.21-0.25,5.31c-1.3-1.35,0.84-5.05,3.66-7.77
				c3.15-3.04,6.94-4.91,10.73-7.09l14.4-8.3v-2.35l-20.63,11.91C295.72,375.39,292.91,378.24,291.18,381.73z"/>
		</g>
		<g id="XMLID_19051_">
			<path style="fill:#263238;" d="M316.32,344.56c0-0.09-0.07-0.19-0.19-0.26c-0.26-0.15-0.67-0.15-0.93,0
				c-0.13,0.07-0.19,0.17-0.19,0.26h0v0.91v28.86v0.91h0c0,0.09,0.07,0.19,0.19,0.26c0.26,0.15,0.67,0.15,0.93,0
				c0.13-0.07,0.19-0.17,0.19-0.26h0v-0.91v-28.86L316.32,344.56L316.32,344.56z"/>
		</g>
		<g id="XMLID_19049_">
			<polygon style="fill:#FFFFFF;" points="316.96,345.87 316.96,374.29 328.39,367.56 			"/>
		</g>
		<g id="XMLID_19050_">
			<path style="fill:#FFFFFF;" d="M314.36,345.87v29.74c-5.67,0.98-12.08,4.93-19.01,10.9
				C294.44,370.78,300.79,357.23,314.36,345.87z"/>
		</g>
	</g>
</g>
<g id="Plants">
	<g>
		<g>
			<g>
				<g id="XMLID_19225_">
					<path style="fill:#263238;" d="M364.15,283.87c0,0,1.85-8.25,5.05-12.44c3.7-4.83,7.19-5.16,9.67-4.26
						c1.96,0.71,1.92,3.42-1.1,5.09c-4.19,2.31-8.26,6.45-10.59,11.7L364.15,283.87z"/>
				</g>
			</g>
			<g id="XMLID_19224_">
				<path style="fill:#FFFFFF;" d="M365.42,283.85c-0.07-0.03-0.11-0.11-0.08-0.19c3.27-10.9,9.28-14.96,12-15.58
					c0.08-0.02,0.17,0.03,0.18,0.12c0.02,0.08-0.03,0.17-0.12,0.18c-2.66,0.61-8.54,4.61-11.78,15.37c-0.02,0.08-0.11,0.13-0.19,0.1
					C365.43,283.85,365.42,283.85,365.42,283.85z"/>
			</g>
		</g>
		<g id="XMLID_19218_">
			<g id="XMLID_19222_">
				<path style="fill:#455A64;" d="M368.61,295.4c1.53,0.72,3.92,0.25,4.81-1.07c0.9-1.32,0.42-3.67,1.32-4.62
					c0.91-0.95,2.78-0.9,4.55-0.88c2.33,0.03,4.11-1.98,3.15-4.03c-0.95-2.05-1.37-3.56,0.45-5.48c1.81-1.92,3.62-3.83,1.95-5.88
					c-1.68-2.04-5.26-0.17-6.9,1.07c-1.63,1.24-2.62,1.06-3.82-0.28c-1.2-1.35-3.68-0.74-4.27,1.65c-0.59,2.38-0.17,4.5-1.49,5.16
					c-1.32,0.66-2.06-0.19-3.61,0.45c-2.68,1.11-2.46,4.49-1.66,6.93C363.9,290.87,368.61,295.4,368.61,295.4z"/>
			</g>
			<g id="XMLID_19221_">
				<path style="fill:#FFFFFF;" d="M365.94,291.83C365.94,291.83,365.93,291.83,365.94,291.83c-0.08-0.04-0.11-0.14-0.07-0.21
					c4.64-8.92,14.5-16.57,17.59-17.55c0.08-0.03,0.17,0.02,0.19,0.1c0.03,0.08-0.02,0.17-0.1,0.19c-3.06,0.97-12.8,8.55-17.41,17.4
					C366.1,291.84,366.01,291.87,365.94,291.83z"/>
			</g>
			<g id="XMLID_19220_">
				<path style="fill:#FFFFFF;" d="M371.92,283.51c-0.05-0.02-0.08-0.07-0.09-0.12c-0.38-3.19,0.81-7.53,0.82-7.57
					c0.02-0.08,0.11-0.13,0.19-0.11c0.08,0.02,0.13,0.11,0.11,0.19c-0.01,0.04-1.18,4.32-0.81,7.45c0.01,0.08-0.05,0.16-0.14,0.17
					C371.97,283.53,371.94,283.52,371.92,283.51z"/>
			</g>
			<g id="XMLID_19219_">
				<path style="fill:#FFFFFF;" d="M377.16,284.06c-1.13-0.5-2.45-1.2-3.8-2.11c-0.07-0.05-0.09-0.14-0.04-0.21
					c0.05-0.07,0.15-0.09,0.21-0.04c3.44,2.35,6.76,3.19,6.79,3.2c0.08,0.02,0.13,0.1,0.11,0.19c-0.02,0.08-0.1,0.13-0.19,0.11
					C380.24,285.19,378.96,284.86,377.16,284.06z"/>
			</g>
		</g>
	</g>
	<g>
		<g>
			<g>
				<g id="XMLID_19212_">
					<path style="fill:#455A64;" d="M146.74,336.59c0,0,2.22-4.62,1.92-10.05c-0.3-5.43-3.55-13.33-7.97-12.48
						c-4.42,0.85-1.14,7.22,0.37,10.06c1.51,2.84,2.53,6.88,2.27,11.16L146.74,336.59z"/>
				</g>
			</g>
			<g id="XMLID_19214_">
				<path style="fill:#FFFFFF;" d="M145.19,336.08c-0.01,0-0.02,0-0.02,0c-0.08-0.01-0.13-0.09-0.11-0.16
					c1.73-9.83,0.35-17.37-3.77-20.67c-0.06-0.05-0.07-0.14-0.02-0.2c0.05-0.06,0.14-0.07,0.2-0.02c4.21,3.37,5.62,11.01,3.87,20.94
					C145.32,336.03,145.26,336.08,145.19,336.08z"/>
			</g>
		</g>
		<g id="XMLID_19209_">
			<g id="XMLID_19211_">
				<path style="fill:#263238;" d="M143.59,343.76c0,0-2.44,0.84-5.67,0.07c-3.23-0.78-3.97-2.78-3.97-2.78s2.38-2.35,4.43-2.43
					c0,0-3.17-0.62-6.16-0.02c0,0-1.86-0.74-1.43-3.87c0,0,1.8-1.25,5.87-0.64c0,0-2.01-1.49-5.58-2.01c-0.28,0,0.2-4.09,0.59-5.91
					c0.39-1.82,1.06-1.52,2.52-1.32s6.03,1.83,6.55,2.9c0.52,1.06-0.08,3.71-0.08,3.71s1.37-1.07,1.7-2.4c0,0,1.51,0.1,2.77,1.23
					c1.26,1.13,1.02,2.23,0.79,3.37c-0.23,1.14-0.92,3.34-1.91,4.04c0,0,1.75-0.64,2.69-4.04c0,0,1.14,1.37,1.34,3.17
					C148.22,338.61,146.42,342.37,143.59,343.76z"/>
			</g>
			<g id="XMLID_19210_">
				<path style="fill:#FFFFFF;" d="M143.59,343.9c-0.07,0-0.14-0.06-0.14-0.13c-0.34-6.12-7-15.82-10.01-17.81
					c-0.06-0.04-0.08-0.13-0.04-0.19c0.04-0.06,0.13-0.08,0.19-0.04c3.04,2.02,9.79,11.84,10.13,18.03
					C143.73,343.83,143.67,343.9,143.59,343.9C143.59,343.9,143.59,343.9,143.59,343.9z"/>
			</g>
		</g>
	</g>
</g>
<g id="Bridge">
	<g>
		<g id="XMLID_86_">
			<g id="XMLID_92_">
				<polygon style="fill:#27DEBF;" points="359.83,273.95 328.76,256.01 328.76,252.02 359.83,269.97 				"/>
			</g>
			<g id="XMLID_87_">
				<g id="XMLID_91_">
					<path style="fill:#27DEBF;" d="M358.16,289.39c-0.42,0-0.84-0.17-1.13-0.52l-27.67-31.87c-0.54-0.63-0.48-1.57,0.15-2.12
						c0.62-0.54,1.57-0.48,2.12,0.15l27.67,31.87c0.54,0.63,0.48,1.57-0.15,2.12C358.85,289.27,358.5,289.39,358.16,289.39z"/>
				</g>
				<g id="XMLID_90_">
					<path style="fill:#27DEBF;" d="M330.46,273.47c-0.83,0-1.5-0.67-1.5-1.5c0-0.83,0.67-1.5,1.5-1.5l27.69-0.03c0,0,0,0,0,0
						c0.83,0,1.5,0.67,1.5,1.5c0,0.83-0.67,1.5-1.5,1.5L330.46,273.47L330.46,273.47z"/>
				</g>
				<g id="XMLID_89_">
					<path style="fill:#27DEBF;" d="M358.16,270.62c-0.42,0-0.84-0.17-1.13-0.52l-27.67-31.87c-0.54-0.63-0.48-1.57,0.15-2.12
						c0.62-0.54,1.57-0.48,2.12,0.15l27.67,31.87c0.54,0.63,0.48,1.57-0.15,2.12C358.85,270.5,358.5,270.62,358.16,270.62z"/>
				</g>
				<g id="XMLID_88_">
					<path style="fill:#27DEBF;" d="M330.46,254.7c-0.83,0-1.5-0.67-1.5-1.5c0-0.83,0.67-1.5,1.5-1.5l27.69-0.03c0,0,0,0,0,0
						c0.83,0,1.5,0.67,1.5,1.5c0,0.83-0.67,1.5-1.5,1.5L330.46,254.7L330.46,254.7z"/>
				</g>
			</g>
		</g>
		<g id="XMLID_79_" style="opacity:0.3;">
			<g id="XMLID_85_">
				<polygon style="fill:#FFFFFF;" points="359.83,273.95 328.76,256.01 328.76,252.02 359.83,269.97 				"/>
			</g>
			<g id="XMLID_80_">
				<g id="XMLID_84_">
					<path style="fill:#FFFFFF;" d="M358.16,289.39c-0.42,0-0.84-0.17-1.13-0.52l-27.67-31.87c-0.54-0.63-0.48-1.57,0.15-2.12
						c0.62-0.54,1.57-0.48,2.12,0.15l27.67,31.87c0.54,0.63,0.48,1.57-0.15,2.12C358.85,289.27,358.5,289.39,358.16,289.39z"/>
				</g>
				<g id="XMLID_83_">
					<path style="fill:#FFFFFF;" d="M330.46,273.47c-0.83,0-1.5-0.67-1.5-1.5c0-0.83,0.67-1.5,1.5-1.5l27.69-0.03c0,0,0,0,0,0
						c0.83,0,1.5,0.67,1.5,1.5c0,0.83-0.67,1.5-1.5,1.5L330.46,273.47L330.46,273.47z"/>
				</g>
				<g id="XMLID_82_">
					<path style="fill:#FFFFFF;" d="M358.16,270.62c-0.42,0-0.84-0.17-1.13-0.52l-27.67-31.87c-0.54-0.63-0.48-1.57,0.15-2.12
						c0.62-0.54,1.57-0.48,2.12,0.15l27.67,31.87c0.54,0.63,0.48,1.57-0.15,2.12C358.85,270.5,358.5,270.62,358.16,270.62z"/>
				</g>
				<g id="XMLID_81_">
					<path style="fill:#FFFFFF;" d="M330.46,254.7c-0.83,0-1.5-0.67-1.5-1.5c0-0.83,0.67-1.5,1.5-1.5l27.69-0.03c0,0,0,0,0,0
						c0.83,0,1.5,0.67,1.5,1.5c0,0.83-0.67,1.5-1.5,1.5L330.46,254.7L330.46,254.7z"/>
				</g>
			</g>
		</g>
	</g>
	<g>
		<g id="XMLID_163_">
			<path style="fill:#EBEBEB;" d="M318.4,285.06v-6.27c0-0.47,0.33-1.04,0.74-1.27l8.88-5.13c0.41-0.23,1.07-0.23,1.47,0
				l43.42,25.06c0.41,0.23,0.74,0.81,0.74,1.27V305c0,0.47-0.33,1.04-0.74,1.27l-8.89,5.13c-0.41,0.23-1.07,0.23-1.47,0
				l-43.41-25.06C318.73,286.1,318.4,285.53,318.4,285.06z"/>
		</g>
		<g id="XMLID_161_">
			<path style="fill:#F5F5F5;" d="M319.14,277.51l8.88-5.13c0.41-0.23,1.07-0.23,1.47,0l43.42,25.06c0.41,0.23,0.41,0.62,0,0.85
				l-8.89,5.13c-0.41,0.23-1.07,0.23-1.47,0l-43.41-25.06C318.73,278.13,318.73,277.75,319.14,277.51z"/>
		</g>
	</g>
	<g id="XMLID_18985_">
		<path style="fill:#37474F;" d="M389.97,89.26c-12.7,0-23.61-4.68-31.65-9.68c-18.88-11.75-32.99-32.8-32.99-43.77
			c0-0.55,0.45-1,1-1c0.55,0,1,0.45,1,1c0,9.24,12.19,29.71,32.04,42.07c12.4,7.72,31.84,14.63,54.04,3.71
			c0.49-0.24,1.1-0.04,1.34,0.46c0.24,0.5,0.04,1.09-0.46,1.34C405.71,87.61,397.52,89.26,389.97,89.26z"/>
	</g>
	<g>
		<g id="XMLID_156_">
			<g id="XMLID_160_">
				<path style="fill:#F0F0F0;" d="M321.85,277.09v-2.29c0-0.47,0.33-1.04,0.74-1.28l5.43-3.14c0.41-0.23,1.07-0.23,1.47,0
					l8.89,5.13c0.41,0.23,0.74,0.81,0.74,1.28v2.29c0,0.47-0.33,1.04-0.74,1.27l-5.43,3.14c-0.41,0.23-1.07,0.23-1.47,0l-8.88-5.13
					C322.18,278.13,321.85,277.56,321.85,277.09z"/>
			</g>
			<g id="XMLID_159_">
				<path style="fill:#E0E0E0;" d="M339.12,276.8c0-0.47-0.33-1.04-0.74-1.27l-0.99-0.57l-5.18,2.98v5.74
					c0.27,0,0.53-0.06,0.74-0.18l5.43-3.14c0.41-0.23,0.74-0.8,0.74-1.27V276.8z"/>
			</g>
			<g id="XMLID_157_">
				<path style="fill:#FAFAFA;" d="M322.59,273.53l5.43-3.14c0.41-0.23,1.07-0.23,1.47,0l8.89,5.13c0.41,0.23,0.41,0.62,0,0.85
					l-5.43,3.14c-0.41,0.23-1.07,0.23-1.47,0l-8.88-5.13C322.18,274.14,322.18,273.76,322.59,273.53z"/>
			</g>
		</g>
		<g>
			<g id="XMLID_150_">
				<path style="fill:#27DEBF;" d="M329.49,276.37l2.72,1.57l3.45-1.99v-43.01c0-0.47-0.33-1.04-0.74-1.28l-5.43-3.14
					c-0.4-0.23-0.74-0.04-0.74,0.42l-0.01,46.14C328.76,275.56,329.09,276.14,329.49,276.37z"/>
			</g>
			<g id="XMLID_149_" style="opacity:0.4;">
				<path d="M329.49,276.37l2.72,1.57l3.45-1.99v-43.01c0-0.47-0.33-1.04-0.74-1.28l-5.43-3.14c-0.4-0.23-0.74-0.04-0.74,0.42
					l-0.01,46.14C328.76,275.56,329.09,276.14,329.49,276.37z"/>
			</g>
		</g>
		<g id="XMLID_148_">
			<path style="fill:#27DEBF;" d="M325.3,23.63v249.46c0,0.47,0.33,1.04,0.74,1.27l1.98,1.14c0.41,0.23,1.07,0.23,1.47,0l1.98-1.14
				c0.41-0.23,0.74-0.81,0.74-1.28V23.63c0-0.47-0.33-1.04-0.74-1.27l-1.98-1.14c-0.41-0.23-1.07-0.23-1.47,0l-1.98,1.14
				C325.63,22.59,325.3,23.16,325.3,23.63z"/>
		</g>
		<g id="XMLID_147_">
			<path style="fill:#27DEBF;" d="M331.48,22.36l-1.99-1.15c-0.41-0.23-1.06-0.23-1.46,0l-1.99,1.15c-0.4,0.24-0.73,0.8-0.73,1.27
				l0,3.14L332,22.9C331.86,22.67,331.68,22.47,331.48,22.36z"/>
		</g>
		<g id="XMLID_146_">
			<path style="fill:#27DEBF;" d="M328.76,25.62l0,249.46c0,0.47-0.33,0.66-0.74,0.43l-1.98-1.14c-0.41-0.23-0.74-0.81-0.74-1.27
				V23.63c0-0.47,0.33-0.66,0.74-0.42l1.98,1.14C328.43,24.58,328.76,25.15,328.76,25.62z"/>
		</g>
		<g id="XMLID_145_" style="opacity:0.4;">
			<path style="fill:#FFFFFF;" d="M328.76,25.62l0,249.46c0,0.47-0.33,0.66-0.74,0.43l-1.98-1.14c-0.41-0.23-0.74-0.81-0.74-1.27
				V23.63c0-0.47,0.33-0.66,0.74-0.42l1.98,1.14C328.43,24.58,328.76,25.15,328.76,25.62z"/>
		</g>
		<g>
			<g id="XMLID_144_">
				<path style="fill:#27DEBF;" d="M331.47,229.67l-5.43-3.14c-0.4-0.23-0.74-0.04-0.74,0.43l0,46.99l6.91,3.99l0-46.99
					C332.21,230.48,331.88,229.91,331.47,229.67z"/>
			</g>
			<g id="XMLID_143_" style="opacity:0.4;">
				<path style="fill:#FFFFFF;" d="M331.47,229.67l-5.43-3.14c-0.4-0.23-0.74-0.04-0.74,0.43l0,46.99l6.91,3.99l0-46.99
					C332.21,230.48,331.88,229.91,331.47,229.67z"/>
			</g>
		</g>
		<g>
			<g>
				<g id="XMLID_142_">
					<polygon style="fill:#27DEBF;" points="330.43,177.06 333.84,175.04 333.84,139.17 330.43,141.18 					"/>
				</g>
				<g id="XMLID_141_" style="opacity:0.2;">
					<polygon points="330.43,177.06 333.84,175.04 333.84,139.17 330.43,141.18 					"/>
				</g>
			</g>
			<g>
				<g id="XMLID_140_">
					<polygon style="fill:#27DEBF;" points="333.84,143.15 337.35,141.2 337.35,139.25 335.66,140.22 333.84,139.17 					"/>
				</g>
				<g id="XMLID_139_" style="opacity:0.2;">
					<polygon points="333.84,143.15 337.35,141.2 337.35,139.25 335.66,140.22 333.84,139.17 					"/>
				</g>
			</g>
			<g>
				<g id="XMLID_138_">
					<polygon style="fill:#27DEBF;" points="335.66,136.23 335.66,140.22 339.12,138.23 					"/>
				</g>
				<g id="XMLID_137_" style="opacity:0.2;">
					<polygon points="335.66,136.23 335.66,140.22 339.12,138.23 					"/>
				</g>
			</g>
		</g>
		<g>
			<g>
				<g id="XMLID_136_">
					<polygon style="fill:#27DEBF;" points="330.43,129.06 333.84,127.04 333.84,91.17 330.43,93.18 					"/>
				</g>
				<g id="XMLID_135_" style="opacity:0.2;">
					<polygon points="330.43,129.06 333.84,127.04 333.84,91.17 330.43,93.18 					"/>
				</g>
			</g>
			<g>
				<g id="XMLID_134_">
					<polygon style="fill:#27DEBF;" points="333.84,95.15 337.35,93.2 337.35,91.25 335.66,92.22 333.84,91.17 					"/>
				</g>
				<g id="XMLID_133_" style="opacity:0.2;">
					<polygon points="333.84,95.15 337.35,93.2 337.35,91.25 335.66,92.22 333.84,91.17 					"/>
				</g>
			</g>
			<g>
				<g id="XMLID_132_">
					<polygon style="fill:#27DEBF;" points="335.66,88.23 335.66,92.22 339.12,90.23 					"/>
				</g>
				<g id="XMLID_131_" style="opacity:0.2;">
					<polygon points="335.66,88.23 335.66,92.22 339.12,90.23 					"/>
				</g>
			</g>
		</g>
		<g>
			<g>
				<g id="XMLID_130_">
					<polygon style="fill:#27DEBF;" points="330.43,89.06 333.84,87.04 333.84,51.17 330.43,53.18 					"/>
				</g>
				<g id="XMLID_129_" style="opacity:0.2;">
					<polygon points="330.43,89.06 333.84,87.04 333.84,51.17 330.43,53.18 					"/>
				</g>
			</g>
			<g>
				<g id="XMLID_128_">
					<polygon style="fill:#27DEBF;" points="333.84,55.15 337.35,53.2 337.35,51.25 335.66,52.22 333.84,51.17 					"/>
				</g>
				<g id="XMLID_127_" style="opacity:0.2;">
					<polygon points="333.84,55.15 337.35,53.2 337.35,51.25 335.66,52.22 333.84,51.17 					"/>
				</g>
			</g>
			<g>
				<g id="XMLID_126_">
					<polygon style="fill:#27DEBF;" points="335.66,48.23 335.66,52.22 339.12,50.23 					"/>
				</g>
				<g id="XMLID_125_" style="opacity:0.2;">
					<polygon points="335.66,48.23 335.66,52.22 339.12,50.23 					"/>
				</g>
			</g>
		</g>
		<g>
			<g>
				<g>
					<g id="XMLID_124_">
						<polygon style="fill:#27DEBF;" points="330.43,229.06 333.84,227.04 333.84,191.17 330.43,193.18 						"/>
					</g>
					<g id="XMLID_123_" style="opacity:0.3;">
						<polygon points="330.43,229.06 333.84,227.04 333.84,191.17 330.43,193.18 						"/>
					</g>
				</g>
				<g>
					<g id="XMLID_122_">
						<polygon style="fill:#27DEBF;" points="333.84,195.15 337.35,193.2 337.35,191.25 335.66,192.22 333.84,191.17 						"/>
					</g>
					<g id="XMLID_121_" style="opacity:0.3;">
						<polygon points="333.84,195.15 337.35,193.2 337.35,191.25 335.66,192.22 333.84,191.17 						"/>
					</g>
				</g>
				<g>
					<g id="XMLID_120_">
						<polygon style="fill:#27DEBF;" points="335.66,188.23 335.66,192.22 339.12,190.23 						"/>
					</g>
					<g id="XMLID_119_" style="opacity:0.3;">
						<polygon points="335.66,188.23 335.66,192.22 339.12,190.23 						"/>
					</g>
				</g>
			</g>
			<g id="XMLID_118_">
				<polygon style="fill:#27DEBF;" points="328.76,168.3 332.21,166.31 359.83,182.25 359.83,186.24 				"/>
			</g>
			<g>
				<g id="XMLID_117_">
					<polygon style="fill:#27DEBF;" points="328.76,228.1 330.43,229.06 330.43,193.18 333.84,195.15 333.84,191.17 335.66,192.22 
						335.66,188.23 352.93,198.2 352.93,202.19 354.78,203.26 354.78,207.25 358.15,209.19 358.15,245.07 359.83,246.04 
						359.83,186.24 328.76,168.3 					"/>
				</g>
				<g id="XMLID_116_" style="opacity:0.4;">
					<polygon style="fill:#FFFFFF;" points="328.76,228.1 330.43,229.06 330.43,193.18 333.84,195.15 333.84,191.17 335.66,192.22 
						335.66,188.23 352.93,198.2 352.93,202.19 354.78,203.26 354.78,207.25 358.15,209.19 358.15,245.07 359.83,246.04 
						359.83,186.24 328.76,168.3 					"/>
				</g>
			</g>
			<g>
				<g id="XMLID_115_">
					<path style="fill:#27DEBF;" d="M356.38,197.56c-0.08,0-0.17-0.02-0.25-0.07l-24.17-13.95c-0.24-0.14-0.32-0.44-0.18-0.68
						c0.14-0.24,0.44-0.32,0.68-0.18l24.17,13.95c0.24,0.14,0.32,0.44,0.18,0.68C356.72,197.47,356.55,197.56,356.38,197.56z"/>
				</g>
				<g id="XMLID_114_" style="opacity:0.6;">
					<path style="fill:#FFFFFF;" d="M356.38,197.56c-0.08,0-0.17-0.02-0.25-0.07l-24.17-13.95c-0.24-0.14-0.32-0.44-0.18-0.68
						c0.14-0.24,0.44-0.32,0.68-0.18l24.17,13.95c0.24,0.14,0.32,0.44,0.18,0.68C356.72,197.47,356.55,197.56,356.38,197.56z"/>
				</g>
			</g>
			<g>
				<g id="XMLID_111_">
					<g id="XMLID_113_">
						<path style="fill:#27DEBF;" d="M332.21,180.63c-0.21,0-0.38-0.17-0.38-0.38v-5.98c0-0.21,0.17-0.38,0.38-0.38
							c0.21,0,0.38,0.17,0.38,0.38v5.98C332.59,180.47,332.42,180.63,332.21,180.63z"/>
					</g>
					<g>
						<path style="fill:#27DEBF;" d="M334.9,182.19c-0.21,0-0.38-0.17-0.38-0.38v-5.98c0-0.21,0.17-0.38,0.38-0.38
							s0.38,0.17,0.38,0.38v5.98C335.27,182.02,335.1,182.19,334.9,182.19z"/>
					</g>
					<g>
						<path style="fill:#27DEBF;" d="M337.58,183.74c-0.21,0-0.38-0.17-0.38-0.38v-5.98c0-0.21,0.17-0.38,0.38-0.38
							c0.21,0,0.38,0.17,0.38,0.38v5.98C337.96,183.57,337.79,183.74,337.58,183.74z"/>
					</g>
					<g>
						<path style="fill:#27DEBF;" d="M340.27,185.29c-0.21,0-0.38-0.17-0.38-0.38v-5.98c0-0.21,0.17-0.38,0.38-0.38
							s0.38,0.17,0.38,0.38v5.98C340.64,185.12,340.47,185.29,340.27,185.29z"/>
					</g>
					<g>
						<path style="fill:#27DEBF;" d="M342.95,186.84c-0.21,0-0.38-0.17-0.38-0.38v-5.98c0-0.21,0.17-0.38,0.38-0.38
							c0.21,0,0.38,0.17,0.38,0.38v5.98C343.33,186.67,343.16,186.84,342.95,186.84z"/>
					</g>
					<g>
						<path style="fill:#27DEBF;" d="M345.64,188.39c-0.21,0-0.38-0.17-0.38-0.38v-5.98c0-0.21,0.17-0.38,0.38-0.38
							s0.38,0.17,0.38,0.38v5.98C346.01,188.22,345.84,188.39,345.64,188.39z"/>
					</g>
					<g>
						<path style="fill:#27DEBF;" d="M348.32,189.94c-0.21,0-0.38-0.17-0.38-0.38v-5.98c0-0.21,0.17-0.38,0.38-0.38
							c0.21,0,0.38,0.17,0.38,0.38v5.98C348.7,189.77,348.53,189.94,348.32,189.94z"/>
					</g>
					<g>
						<path style="fill:#27DEBF;" d="M351.01,191.49c-0.21,0-0.38-0.17-0.38-0.38v-5.98c0-0.21,0.17-0.38,0.38-0.38
							s0.38,0.17,0.38,0.38v5.98C351.38,191.32,351.22,191.49,351.01,191.49z"/>
					</g>
					<g>
						<path style="fill:#27DEBF;" d="M353.69,193.04c-0.21,0-0.38-0.17-0.38-0.38v-5.98c0-0.21,0.17-0.38,0.38-0.38
							c0.21,0,0.38,0.17,0.38,0.38v5.98C354.07,192.87,353.9,193.04,353.69,193.04z"/>
					</g>
					<g id="XMLID_112_">
						<path style="fill:#27DEBF;" d="M356.38,194.59c-0.21,0-0.38-0.17-0.38-0.38v-5.98c0-0.21,0.17-0.38,0.38-0.38
							s0.38,0.17,0.38,0.38v5.98C356.75,194.42,356.59,194.59,356.38,194.59z"/>
					</g>
				</g>
				<g id="XMLID_108_" style="opacity:0.2;">
					<g id="XMLID_110_">
						<path d="M332.21,180.63c-0.21,0-0.38-0.17-0.38-0.38v-5.98c0-0.21,0.17-0.38,0.38-0.38c0.21,0,0.38,0.17,0.38,0.38v5.98
							C332.59,180.47,332.42,180.63,332.21,180.63z"/>
					</g>
					<g>
						<path d="M334.9,182.19c-0.21,0-0.38-0.17-0.38-0.38v-5.98c0-0.21,0.17-0.38,0.38-0.38s0.38,0.17,0.38,0.38v5.98
							C335.27,182.02,335.1,182.19,334.9,182.19z"/>
					</g>
					<g>
						<path d="M337.58,183.74c-0.21,0-0.38-0.17-0.38-0.38v-5.98c0-0.21,0.17-0.38,0.38-0.38c0.21,0,0.38,0.17,0.38,0.38v5.98
							C337.96,183.57,337.79,183.74,337.58,183.74z"/>
					</g>
					<g>
						<path d="M340.27,185.29c-0.21,0-0.38-0.17-0.38-0.38v-5.98c0-0.21,0.17-0.38,0.38-0.38s0.38,0.17,0.38,0.38v5.98
							C340.64,185.12,340.47,185.29,340.27,185.29z"/>
					</g>
					<g>
						<path d="M342.95,186.84c-0.21,0-0.38-0.17-0.38-0.38v-5.98c0-0.21,0.17-0.38,0.38-0.38c0.21,0,0.38,0.17,0.38,0.38v5.98
							C343.33,186.67,343.16,186.84,342.95,186.84z"/>
					</g>
					<g>
						<path d="M345.64,188.39c-0.21,0-0.38-0.17-0.38-0.38v-5.98c0-0.21,0.17-0.38,0.38-0.38s0.38,0.17,0.38,0.38v5.98
							C346.01,188.22,345.84,188.39,345.64,188.39z"/>
					</g>
					<g>
						<path d="M348.32,189.94c-0.21,0-0.38-0.17-0.38-0.38v-5.98c0-0.21,0.17-0.38,0.38-0.38c0.21,0,0.38,0.17,0.38,0.38v5.98
							C348.7,189.77,348.53,189.94,348.32,189.94z"/>
					</g>
					<g>
						<path d="M351.01,191.49c-0.21,0-0.38-0.17-0.38-0.38v-5.98c0-0.21,0.17-0.38,0.38-0.38s0.38,0.17,0.38,0.38v5.98
							C351.38,191.32,351.22,191.49,351.01,191.49z"/>
					</g>
					<g>
						<path d="M353.69,193.04c-0.21,0-0.38-0.17-0.38-0.38v-5.98c0-0.21,0.17-0.38,0.38-0.38c0.21,0,0.38,0.17,0.38,0.38v5.98
							C354.07,192.87,353.9,193.04,353.69,193.04z"/>
					</g>
					<g id="XMLID_109_">
						<path d="M356.38,194.59c-0.21,0-0.38-0.17-0.38-0.38v-5.98c0-0.21,0.17-0.38,0.38-0.38s0.38,0.17,0.38,0.38v5.98
							C356.75,194.42,356.59,194.59,356.38,194.59z"/>
					</g>
				</g>
			</g>
		</g>
		<polygon style="fill:#27DEBF;" points="328.76,116.47 332.21,114.48 359.83,130.42 359.83,134.41 		"/>
		<g>
			<polygon style="fill:#27DEBF;" points="328.76,168.3 330.43,169.26 330.43,141.35 333.84,143.32 333.84,139.34 335.66,140.39 
				335.66,136.4 352.93,146.37 352.93,150.36 354.78,151.43 354.78,155.42 358.15,157.36 358.15,185.27 359.83,186.24 
				359.83,134.41 328.76,116.47 			"/>
			<polygon style="opacity:0.4;fill:#FFFFFF;" points="328.76,168.3 330.43,169.26 330.43,141.35 333.84,143.32 333.84,139.34 
				335.66,140.39 335.66,136.4 352.93,146.37 352.93,150.36 354.78,151.43 354.78,155.42 358.15,157.36 358.15,185.27 
				359.83,186.24 359.83,134.41 328.76,116.47 			"/>
		</g>
		<g>
			<path style="fill:#27DEBF;" d="M356.38,145.73c-0.08,0-0.17-0.02-0.25-0.07l-24.17-13.95c-0.24-0.14-0.32-0.44-0.18-0.68
				c0.14-0.24,0.44-0.32,0.68-0.18l24.17,13.95c0.24,0.14,0.32,0.44,0.18,0.68C356.72,145.64,356.55,145.73,356.38,145.73z"/>
			<path style="opacity:0.6;fill:#FFFFFF;" d="M356.38,145.73c-0.08,0-0.17-0.02-0.25-0.07l-24.17-13.95
				c-0.24-0.14-0.32-0.44-0.18-0.68c0.14-0.24,0.44-0.32,0.68-0.18l24.17,13.95c0.24,0.14,0.32,0.44,0.18,0.68
				C356.72,145.64,356.55,145.73,356.38,145.73z"/>
		</g>
		<g>
			<g id="XMLID_107_">
				<path style="fill:#27DEBF;" d="M332.21,128.81c-0.21,0-0.38-0.17-0.38-0.38v-5.98c0-0.21,0.17-0.38,0.38-0.38
					c0.21,0,0.38,0.17,0.38,0.38v5.98C332.59,128.64,332.42,128.81,332.21,128.81z"/>
			</g>
			<g>
				<path style="fill:#27DEBF;" d="M334.9,130.36c-0.21,0-0.38-0.17-0.38-0.38V124c0-0.21,0.17-0.38,0.38-0.38s0.38,0.17,0.38,0.38
					v5.98C335.27,130.19,335.1,130.36,334.9,130.36z"/>
			</g>
			<g>
				<path style="fill:#27DEBF;" d="M337.58,131.91c-0.21,0-0.38-0.17-0.38-0.38v-5.98c0-0.21,0.17-0.38,0.38-0.38
					c0.21,0,0.38,0.17,0.38,0.38v5.98C337.96,131.74,337.79,131.91,337.58,131.91z"/>
			</g>
			<g>
				<path style="fill:#27DEBF;" d="M340.27,133.46c-0.21,0-0.38-0.17-0.38-0.38v-5.98c0-0.21,0.17-0.38,0.38-0.38
					s0.38,0.17,0.38,0.38v5.98C340.64,133.29,340.47,133.46,340.27,133.46z"/>
			</g>
			<g>
				<path style="fill:#27DEBF;" d="M342.95,135.01c-0.21,0-0.38-0.17-0.38-0.38v-5.98c0-0.21,0.17-0.38,0.38-0.38
					c0.21,0,0.38,0.17,0.38,0.38v5.98C343.33,134.84,343.16,135.01,342.95,135.01z"/>
			</g>
			<g>
				<path style="fill:#27DEBF;" d="M345.64,136.56c-0.21,0-0.38-0.17-0.38-0.38v-5.98c0-0.21,0.17-0.38,0.38-0.38
					s0.38,0.17,0.38,0.38v5.98C346.01,136.39,345.84,136.56,345.64,136.56z"/>
			</g>
			<g>
				<path style="fill:#27DEBF;" d="M348.32,138.11c-0.21,0-0.38-0.17-0.38-0.38v-5.98c0-0.21,0.17-0.38,0.38-0.38
					c0.21,0,0.38,0.17,0.38,0.38v5.98C348.7,137.94,348.53,138.11,348.32,138.11z"/>
			</g>
			<g>
				<path style="fill:#27DEBF;" d="M351.01,139.66c-0.21,0-0.38-0.17-0.38-0.38v-5.98c0-0.21,0.17-0.38,0.38-0.38
					s0.38,0.17,0.38,0.38v5.98C351.38,139.49,351.22,139.66,351.01,139.66z"/>
			</g>
			<g>
				<path style="fill:#27DEBF;" d="M353.69,141.21c-0.21,0-0.38-0.17-0.38-0.38v-5.98c0-0.21,0.17-0.38,0.38-0.38
					c0.21,0,0.38,0.17,0.38,0.38v5.98C354.07,141.04,353.9,141.21,353.69,141.21z"/>
			</g>
			<g id="XMLID_106_">
				<path style="fill:#27DEBF;" d="M356.38,142.76c-0.21,0-0.38-0.17-0.38-0.38v-5.98c0-0.21,0.17-0.38,0.38-0.38
					s0.38,0.17,0.38,0.38v5.98C356.75,142.59,356.59,142.76,356.38,142.76z"/>
			</g>
			<g id="XMLID_105_" style="opacity:0.2;">
				<path d="M332.21,128.81c-0.21,0-0.38-0.17-0.38-0.38v-5.98c0-0.21,0.17-0.38,0.38-0.38c0.21,0,0.38,0.17,0.38,0.38v5.98
					C332.59,128.64,332.42,128.81,332.21,128.81z"/>
			</g>
			<g style="opacity:0.2;">
				<path d="M334.9,130.36c-0.21,0-0.38-0.17-0.38-0.38V124c0-0.21,0.17-0.38,0.38-0.38s0.38,0.17,0.38,0.38v5.98
					C335.27,130.19,335.1,130.36,334.9,130.36z"/>
			</g>
			<g style="opacity:0.2;">
				<path d="M337.58,131.91c-0.21,0-0.38-0.17-0.38-0.38v-5.98c0-0.21,0.17-0.38,0.38-0.38c0.21,0,0.38,0.17,0.38,0.38v5.98
					C337.96,131.74,337.79,131.91,337.58,131.91z"/>
			</g>
			<g style="opacity:0.2;">
				<path d="M340.27,133.46c-0.21,0-0.38-0.17-0.38-0.38v-5.98c0-0.21,0.17-0.38,0.38-0.38s0.38,0.17,0.38,0.38v5.98
					C340.64,133.29,340.47,133.46,340.27,133.46z"/>
			</g>
			<g style="opacity:0.2;">
				<path d="M342.95,135.01c-0.21,0-0.38-0.17-0.38-0.38v-5.98c0-0.21,0.17-0.38,0.38-0.38c0.21,0,0.38,0.17,0.38,0.38v5.98
					C343.33,134.84,343.16,135.01,342.95,135.01z"/>
			</g>
			<g style="opacity:0.2;">
				<path d="M345.64,136.56c-0.21,0-0.38-0.17-0.38-0.38v-5.98c0-0.21,0.17-0.38,0.38-0.38s0.38,0.17,0.38,0.38v5.98
					C346.01,136.39,345.84,136.56,345.64,136.56z"/>
			</g>
			<g style="opacity:0.2;">
				<path d="M348.32,138.11c-0.21,0-0.38-0.17-0.38-0.38v-5.98c0-0.21,0.17-0.38,0.38-0.38c0.21,0,0.38,0.17,0.38,0.38v5.98
					C348.7,137.94,348.53,138.11,348.32,138.11z"/>
			</g>
			<g style="opacity:0.2;">
				<path d="M351.01,139.66c-0.21,0-0.38-0.17-0.38-0.38v-5.98c0-0.21,0.17-0.38,0.38-0.38s0.38,0.17,0.38,0.38v5.98
					C351.38,139.49,351.22,139.66,351.01,139.66z"/>
			</g>
			<g style="opacity:0.2;">
				<path d="M353.69,141.21c-0.21,0-0.38-0.17-0.38-0.38v-5.98c0-0.21,0.17-0.38,0.38-0.38c0.21,0,0.38,0.17,0.38,0.38v5.98
					C354.07,141.04,353.9,141.21,353.69,141.21z"/>
			</g>
			<g id="XMLID_104_" style="opacity:0.2;">
				<path d="M356.38,142.76c-0.21,0-0.38-0.17-0.38-0.38v-5.98c0-0.21,0.17-0.38,0.38-0.38s0.38,0.17,0.38,0.38v5.98
					C356.75,142.59,356.59,142.76,356.38,142.76z"/>
			</g>
		</g>
		<g id="XMLID_103_">
			<polygon style="fill:#27DEBF;" points="328.76,68.63 332.21,66.64 359.83,82.58 359.83,86.57 			"/>
		</g>
		<g>
			<polygon style="fill:#27DEBF;" points="328.76,116.47 330.43,117.43 330.43,93.51 333.84,95.48 333.84,91.5 335.66,92.55 
				335.66,88.56 352.93,98.53 352.93,102.52 354.78,103.59 354.78,107.58 358.15,109.52 358.15,133.44 359.83,134.41 359.83,86.57 
				328.76,68.63 			"/>
			<g id="XMLID_102_" style="opacity:0.4;">
				<polygon style="fill:#FFFFFF;" points="328.76,116.47 330.43,117.43 330.43,93.51 333.84,95.48 333.84,91.5 335.66,92.55 
					335.66,88.56 352.93,98.53 352.93,102.52 354.78,103.59 354.78,107.58 358.15,109.52 358.15,133.44 359.83,134.41 359.83,86.57 
					328.76,68.63 				"/>
			</g>
		</g>
		<g>
			<g id="XMLID_101_">
				<path style="fill:#27DEBF;" d="M356.38,97.89c-0.08,0-0.17-0.02-0.25-0.07l-24.17-13.95c-0.24-0.14-0.32-0.44-0.18-0.68
					c0.14-0.24,0.44-0.32,0.68-0.18l24.17,13.95c0.24,0.14,0.32,0.44,0.18,0.68C356.72,97.8,356.55,97.89,356.38,97.89z"/>
			</g>
			<g id="XMLID_100_" style="opacity:0.6;">
				<path style="fill:#FFFFFF;" d="M356.38,97.89c-0.08,0-0.17-0.02-0.25-0.07l-24.17-13.95c-0.24-0.14-0.32-0.44-0.18-0.68
					c0.14-0.24,0.44-0.32,0.68-0.18l24.17,13.95c0.24,0.14,0.32,0.44,0.18,0.68C356.72,97.8,356.55,97.89,356.38,97.89z"/>
			</g>
		</g>
		<g id="XMLID_99_">
			<polygon style="fill:#27DEBF;" points="328.76,28.76 332.21,26.77 360.57,43.14 359.83,46.7 			"/>
		</g>
		<g id="XMLID_98_">
			<polygon style="fill:#27DEBF;" points="328.76,68.63 330.43,69.59 330.43,53.64 333.84,55.61 333.84,51.63 335.66,52.68 
				335.66,48.69 352.93,58.66 352.93,62.65 354.78,63.72 354.78,67.71 358.15,69.65 358.15,85.6 359.83,86.57 359.83,46.7 
				328.76,28.76 			"/>
		</g>
		<g id="XMLID_97_" style="opacity:0.4;">
			<polygon style="fill:#FFFFFF;" points="328.76,68.63 330.43,69.59 330.43,53.64 333.84,55.61 333.84,51.63 335.66,52.68 
				335.66,48.69 352.93,58.66 352.93,62.65 354.78,63.72 354.78,67.71 358.15,69.65 358.15,85.6 359.83,86.57 359.83,46.7 
				328.76,28.76 			"/>
		</g>
		<g>
			<g id="XMLID_96_">
				<path style="fill:#27DEBF;" d="M356.38,58.02c-0.08,0-0.17-0.02-0.25-0.07L331.96,44c-0.24-0.14-0.32-0.44-0.18-0.68
					c0.14-0.24,0.44-0.32,0.68-0.18l24.17,13.95c0.24,0.14,0.32,0.44,0.18,0.68C356.72,57.93,356.55,58.02,356.38,58.02z"/>
			</g>
			<g id="XMLID_95_" style="opacity:0.6;">
				<path style="fill:#FFFFFF;" d="M356.38,58.02c-0.08,0-0.17-0.02-0.25-0.07L331.96,44c-0.24-0.14-0.32-0.44-0.18-0.68
					c0.14-0.24,0.44-0.32,0.68-0.18l24.17,13.95c0.24,0.14,0.32,0.44,0.18,0.68C356.72,57.93,356.55,58.02,356.38,58.02z"/>
			</g>
		</g>
		<g>
			<g id="XMLID_78_">
				<path style="fill:#27DEBF;" d="M332.21,80.81c-0.21,0-0.38-0.17-0.38-0.38v-5.98c0-0.21,0.17-0.38,0.38-0.38
					c0.21,0,0.38,0.17,0.38,0.38v5.98C332.59,80.64,332.42,80.81,332.21,80.81z"/>
			</g>
			<g>
				<path style="fill:#27DEBF;" d="M334.9,82.36c-0.21,0-0.38-0.17-0.38-0.38V76c0-0.21,0.17-0.38,0.38-0.38s0.38,0.17,0.38,0.38
					v5.98C335.27,82.19,335.1,82.36,334.9,82.36z"/>
			</g>
			<g>
				<path style="fill:#27DEBF;" d="M337.58,83.91c-0.21,0-0.38-0.17-0.38-0.38v-5.98c0-0.21,0.17-0.38,0.38-0.38
					c0.21,0,0.38,0.17,0.38,0.38v5.98C337.96,83.74,337.79,83.91,337.58,83.91z"/>
			</g>
			<g>
				<path style="fill:#27DEBF;" d="M340.27,85.46c-0.21,0-0.38-0.17-0.38-0.38V79.1c0-0.21,0.17-0.38,0.38-0.38s0.38,0.17,0.38,0.38
					v5.98C340.64,85.29,340.47,85.46,340.27,85.46z"/>
			</g>
			<g>
				<path style="fill:#27DEBF;" d="M342.95,87.01c-0.21,0-0.38-0.17-0.38-0.38v-5.98c0-0.21,0.17-0.38,0.38-0.38
					c0.21,0,0.38,0.17,0.38,0.38v5.98C343.33,86.84,343.16,87.01,342.95,87.01z"/>
			</g>
			<g>
				<path style="fill:#27DEBF;" d="M345.64,88.56c-0.21,0-0.38-0.17-0.38-0.38V82.2c0-0.21,0.17-0.38,0.38-0.38s0.38,0.17,0.38,0.38
					v5.98C346.01,88.39,345.84,88.56,345.64,88.56z"/>
			</g>
			<g>
				<path style="fill:#27DEBF;" d="M348.32,90.11c-0.21,0-0.38-0.17-0.38-0.38v-5.98c0-0.21,0.17-0.38,0.38-0.38
					c0.21,0,0.38,0.17,0.38,0.38v5.98C348.7,89.94,348.53,90.11,348.32,90.11z"/>
			</g>
			<g>
				<path style="fill:#27DEBF;" d="M351.01,91.66c-0.21,0-0.38-0.17-0.38-0.38V85.3c0-0.21,0.17-0.38,0.38-0.38s0.38,0.17,0.38,0.38
					v5.98C351.38,91.49,351.22,91.66,351.01,91.66z"/>
			</g>
			<g>
				<path style="fill:#27DEBF;" d="M353.69,93.21c-0.21,0-0.38-0.17-0.38-0.38v-5.98c0-0.21,0.17-0.38,0.38-0.38
					c0.21,0,0.38,0.17,0.38,0.38v5.98C354.07,93.04,353.9,93.21,353.69,93.21z"/>
			</g>
			<g id="XMLID_77_">
				<path style="fill:#27DEBF;" d="M356.38,94.76c-0.21,0-0.38-0.17-0.38-0.38V88.4c0-0.21,0.17-0.38,0.38-0.38s0.38,0.17,0.38,0.38
					v5.98C356.75,94.59,356.59,94.76,356.38,94.76z"/>
			</g>
			<g id="XMLID_76_" style="opacity:0.2;">
				<path d="M332.21,80.81c-0.21,0-0.38-0.17-0.38-0.38v-5.98c0-0.21,0.17-0.38,0.38-0.38c0.21,0,0.38,0.17,0.38,0.38v5.98
					C332.59,80.64,332.42,80.81,332.21,80.81z"/>
			</g>
			<g style="opacity:0.2;">
				<path d="M334.9,82.36c-0.21,0-0.38-0.17-0.38-0.38V76c0-0.21,0.17-0.38,0.38-0.38s0.38,0.17,0.38,0.38v5.98
					C335.27,82.19,335.1,82.36,334.9,82.36z"/>
			</g>
			<g style="opacity:0.2;">
				<path d="M337.58,83.91c-0.21,0-0.38-0.17-0.38-0.38v-5.98c0-0.21,0.17-0.38,0.38-0.38c0.21,0,0.38,0.17,0.38,0.38v5.98
					C337.96,83.74,337.79,83.91,337.58,83.91z"/>
			</g>
			<g style="opacity:0.2;">
				<path d="M340.27,85.46c-0.21,0-0.38-0.17-0.38-0.38V79.1c0-0.21,0.17-0.38,0.38-0.38s0.38,0.17,0.38,0.38v5.98
					C340.64,85.29,340.47,85.46,340.27,85.46z"/>
			</g>
			<g style="opacity:0.2;">
				<path d="M342.95,87.01c-0.21,0-0.38-0.17-0.38-0.38v-5.98c0-0.21,0.17-0.38,0.38-0.38c0.21,0,0.38,0.17,0.38,0.38v5.98
					C343.33,86.84,343.16,87.01,342.95,87.01z"/>
			</g>
			<g style="opacity:0.2;">
				<path d="M345.64,88.56c-0.21,0-0.38-0.17-0.38-0.38V82.2c0-0.21,0.17-0.38,0.38-0.38s0.38,0.17,0.38,0.38v5.98
					C346.01,88.39,345.84,88.56,345.64,88.56z"/>
			</g>
			<g style="opacity:0.2;">
				<path d="M348.32,90.11c-0.21,0-0.38-0.17-0.38-0.38v-5.98c0-0.21,0.17-0.38,0.38-0.38c0.21,0,0.38,0.17,0.38,0.38v5.98
					C348.7,89.94,348.53,90.11,348.32,90.11z"/>
			</g>
			<g style="opacity:0.2;">
				<path d="M351.01,91.66c-0.21,0-0.38-0.17-0.38-0.38V85.3c0-0.21,0.17-0.38,0.38-0.38s0.38,0.17,0.38,0.38v5.98
					C351.38,91.49,351.22,91.66,351.01,91.66z"/>
			</g>
			<g style="opacity:0.2;">
				<path d="M353.69,93.21c-0.21,0-0.38-0.17-0.38-0.38v-5.98c0-0.21,0.17-0.38,0.38-0.38c0.21,0,0.38,0.17,0.38,0.38v5.98
					C354.07,93.04,353.9,93.21,353.69,93.21z"/>
			</g>
			<g id="XMLID_75_" style="opacity:0.2;">
				<path d="M356.38,94.76c-0.21,0-0.38-0.17-0.38-0.38V88.4c0-0.21,0.17-0.38,0.38-0.38s0.38,0.17,0.38,0.38v5.98
					C356.75,94.59,356.59,94.76,356.38,94.76z"/>
			</g>
		</g>
		<g>
			<g id="XMLID_74_">
				<path style="fill:#27DEBF;" d="M332.21,40.81c-0.21,0-0.38-0.17-0.38-0.38v-5.98c0-0.21,0.17-0.38,0.38-0.38
					c0.21,0,0.38,0.17,0.38,0.38v5.98C332.59,40.64,332.42,40.81,332.21,40.81z"/>
			</g>
			<g>
				<path style="fill:#27DEBF;" d="M334.9,42.36c-0.21,0-0.38-0.17-0.38-0.38V36c0-0.21,0.17-0.38,0.38-0.38s0.38,0.17,0.38,0.38
					v5.98C335.27,42.19,335.1,42.36,334.9,42.36z"/>
			</g>
			<g>
				<path style="fill:#27DEBF;" d="M337.58,43.91c-0.21,0-0.38-0.17-0.38-0.38v-5.98c0-0.21,0.17-0.38,0.38-0.38
					c0.21,0,0.38,0.17,0.38,0.38v5.98C337.96,43.74,337.79,43.91,337.58,43.91z"/>
			</g>
			<g>
				<path style="fill:#27DEBF;" d="M340.27,45.46c-0.21,0-0.38-0.17-0.38-0.38V39.1c0-0.21,0.17-0.38,0.38-0.38s0.38,0.17,0.38,0.38
					v5.98C340.64,45.29,340.47,45.46,340.27,45.46z"/>
			</g>
			<g>
				<path style="fill:#27DEBF;" d="M342.95,47.01c-0.21,0-0.38-0.17-0.38-0.38v-5.98c0-0.21,0.17-0.38,0.38-0.38
					c0.21,0,0.38,0.17,0.38,0.38v5.98C343.33,46.84,343.16,47.01,342.95,47.01z"/>
			</g>
			<g>
				<path style="fill:#27DEBF;" d="M345.64,48.56c-0.21,0-0.38-0.17-0.38-0.38V42.2c0-0.21,0.17-0.38,0.38-0.38s0.38,0.17,0.38,0.38
					v5.98C346.01,48.39,345.84,48.56,345.64,48.56z"/>
			</g>
			<g>
				<path style="fill:#27DEBF;" d="M348.32,50.11c-0.21,0-0.38-0.17-0.38-0.38v-5.98c0-0.21,0.17-0.38,0.38-0.38
					c0.21,0,0.38,0.17,0.38,0.38v5.98C348.7,49.94,348.53,50.11,348.32,50.11z"/>
			</g>
			<g>
				<path style="fill:#27DEBF;" d="M351.01,51.66c-0.21,0-0.38-0.17-0.38-0.38V45.3c0-0.21,0.17-0.38,0.38-0.38s0.38,0.17,0.38,0.38
					v5.98C351.38,51.49,351.22,51.66,351.01,51.66z"/>
			</g>
			<g>
				<path style="fill:#27DEBF;" d="M353.69,53.21c-0.21,0-0.38-0.17-0.38-0.38v-5.98c0-0.21,0.17-0.38,0.38-0.38
					c0.21,0,0.38,0.17,0.38,0.38v5.98C354.07,53.04,353.9,53.21,353.69,53.21z"/>
			</g>
			<g id="XMLID_73_">
				<path style="fill:#27DEBF;" d="M356.38,54.76c-0.21,0-0.38-0.17-0.38-0.38V48.4c0-0.21,0.17-0.38,0.38-0.38s0.38,0.17,0.38,0.38
					v5.98C356.75,54.59,356.59,54.76,356.38,54.76z"/>
			</g>
			<g id="XMLID_72_" style="opacity:0.2;">
				<path d="M332.21,40.81c-0.21,0-0.38-0.17-0.38-0.38v-5.98c0-0.21,0.17-0.38,0.38-0.38c0.21,0,0.38,0.17,0.38,0.38v5.98
					C332.59,40.64,332.42,40.81,332.21,40.81z"/>
			</g>
			<g style="opacity:0.2;">
				<path d="M334.9,42.36c-0.21,0-0.38-0.17-0.38-0.38V36c0-0.21,0.17-0.38,0.38-0.38s0.38,0.17,0.38,0.38v5.98
					C335.27,42.19,335.1,42.36,334.9,42.36z"/>
			</g>
			<g style="opacity:0.2;">
				<path d="M337.58,43.91c-0.21,0-0.38-0.17-0.38-0.38v-5.98c0-0.21,0.17-0.38,0.38-0.38c0.21,0,0.38,0.17,0.38,0.38v5.98
					C337.96,43.74,337.79,43.91,337.58,43.91z"/>
			</g>
			<g style="opacity:0.2;">
				<path d="M340.27,45.46c-0.21,0-0.38-0.17-0.38-0.38V39.1c0-0.21,0.17-0.38,0.38-0.38s0.38,0.17,0.38,0.38v5.98
					C340.64,45.29,340.47,45.46,340.27,45.46z"/>
			</g>
			<g style="opacity:0.2;">
				<path d="M342.95,47.01c-0.21,0-0.38-0.17-0.38-0.38v-5.98c0-0.21,0.17-0.38,0.38-0.38c0.21,0,0.38,0.17,0.38,0.38v5.98
					C343.33,46.84,343.16,47.01,342.95,47.01z"/>
			</g>
			<g style="opacity:0.2;">
				<path d="M345.64,48.56c-0.21,0-0.38-0.17-0.38-0.38V42.2c0-0.21,0.17-0.38,0.38-0.38s0.38,0.17,0.38,0.38v5.98
					C346.01,48.39,345.84,48.56,345.64,48.56z"/>
			</g>
			<g style="opacity:0.2;">
				<path d="M348.32,50.11c-0.21,0-0.38-0.17-0.38-0.38v-5.98c0-0.21,0.17-0.38,0.38-0.38c0.21,0,0.38,0.17,0.38,0.38v5.98
					C348.7,49.94,348.53,50.11,348.32,50.11z"/>
			</g>
			<g style="opacity:0.2;">
				<path d="M351.01,51.66c-0.21,0-0.38-0.17-0.38-0.38V45.3c0-0.21,0.17-0.38,0.38-0.38s0.38,0.17,0.38,0.38v5.98
					C351.38,51.49,351.22,51.66,351.01,51.66z"/>
			</g>
			<g style="opacity:0.2;">
				<path d="M353.69,53.21c-0.21,0-0.38-0.17-0.38-0.38v-5.98c0-0.21,0.17-0.38,0.38-0.38c0.21,0,0.38,0.17,0.38,0.38v5.98
					C354.07,53.04,353.9,53.21,353.69,53.21z"/>
			</g>
			<g id="XMLID_71_" style="opacity:0.2;">
				<path d="M356.38,54.76c-0.21,0-0.38-0.17-0.38-0.38V48.4c0-0.21,0.17-0.38,0.38-0.38s0.38,0.17,0.38,0.38v5.98
					C356.75,54.59,356.59,54.76,356.38,54.76z"/>
			</g>
		</g>
		<g id="XMLID_18797_">
			<polygon style="fill:#263238;" points="178.15,349.08 357.7,245.41 357.7,249.4 178.15,352.98 			"/>
		</g>
	</g>
	<g id="XMLID_18986_">
		<path style="fill:#37474F;" d="M428.37,99.3c-13.47,0-27.19-5.19-39.58-15.14c-15.8-12.69-25.24-29.42-25.24-38.26
			c0-0.55,0.45-1,1-1c0.55,0,1,0.45,1,1c0,8.19,9.36,24.55,24.49,36.7c10.85,8.72,28.16,18.14,49.01,13.54
			c0.54-0.12,1.07,0.22,1.19,0.76c0.12,0.54-0.22,1.07-0.76,1.19C435.82,98.9,432.1,99.3,428.37,99.3z"/>
	</g>
	<g id="XMLID_18982_">
		<path style="fill:#37474F;" d="M226.24,282.57c-4.53,0-9.12-1.34-13.74-4c-37.26-21.51-66.46-124.36-66.46-140.17
			c0-0.55,0.45-1,1-1c0.55,0,1,0.45,1,1c0,7.44,7.42,37.19,19.04,66.86c10.34,26.39,26.78,60.24,46.43,71.58
			c8.33,4.81,16.54,4.95,24.39,0.42c25.23-14.57,47.43-76.03,61.6-125.02c15.82-54.66,25.85-108.82,25.85-117.04c0-0.55,0.45-1,1-1
			c0.55,0,1,0.45,1,1c0,8.55-9.79,61.85-25.92,117.6c-14.28,49.35-36.71,111.3-62.52,126.2
			C234.74,281.37,230.52,282.57,226.24,282.57z"/>
	</g>
	<g id="XMLID_18952_">
		<g id="XMLID_18951_">
			<polygon style="fill:#455A64;" points="399.04,221.44 357.7,245.41 329.97,229.34 371.35,205.46 			"/>
		</g>
		<g id="XMLID_18924_">
			<polygon style="fill:#263238;" points="366.28,240.44 366.28,244.39 399.04,225.43 399.04,221.44 			"/>
		</g>
	</g>
	<g id="XMLID_18669_">
		<path style="fill:#EBEBEB;" d="M138.4,389.06v-6.27c0-0.47,0.33-1.04,0.74-1.27l8.88-5.13c0.41-0.23,1.07-0.23,1.47,0l43.42,25.06
			c0.41,0.23,0.74,0.81,0.74,1.27V409c0,0.47-0.33,1.04-0.74,1.27l-8.89,5.13c-0.41,0.23-1.07,0.23-1.47,0l-43.41-25.06
			C138.73,390.1,138.4,389.53,138.4,389.06z"/>
	</g>
	<g id="XMLID_18673_">
		<path style="fill:#E0E0E0;" d="M193.64,402.72c0-0.47-0.33-1.04-0.74-1.27l-2.72-1.57l-6.91,3.99l0,11.71
			c0.27,0,0.53-0.06,0.74-0.18l8.89-5.13c0.41-0.23,0.74-0.81,0.74-1.27V402.72z"/>
	</g>
	<g id="XMLID_18554_">
		<path style="fill:#F5F5F5;" d="M139.14,381.51l8.88-5.13c0.41-0.23,1.07-0.23,1.47,0l43.42,25.06c0.41,0.23,0.41,0.62,0,0.85
			l-8.89,5.13c-0.41,0.23-1.07,0.23-1.47,0l-43.41-25.06C138.73,382.13,138.73,381.75,139.14,381.51z"/>
	</g>
	<g id="XMLID_18641_">
		<g id="XMLID_18668_">
			<path style="fill:#F0F0F0;" d="M172.93,399.04v-2.29c0-0.47,0.33-1.04,0.74-1.28l5.43-3.14c0.41-0.23,1.07-0.24,1.47,0l8.89,5.13
				c0.41,0.23,0.74,0.81,0.74,1.28v2.29c0,0.47-0.33,1.04-0.74,1.27l-5.43,3.14c-0.41,0.23-1.07,0.23-1.47,0l-8.88-5.13
				C173.26,400.08,172.93,399.51,172.93,399.04z"/>
		</g>
		<g id="XMLID_18667_">
			<path style="fill:#E0E0E0;" d="M190.19,398.74c0-0.47-0.33-1.04-0.74-1.27l-0.99-0.57l-5.18,2.98v5.74
				c0.27,0,0.53-0.06,0.74-0.18l5.43-3.14c0.41-0.23,0.74-0.8,0.74-1.27V398.74z"/>
		</g>
		<g id="XMLID_18652_">
			<path style="fill:#FAFAFA;" d="M173.67,395.47l5.43-3.14c0.41-0.23,1.07-0.24,1.47,0l8.89,5.13c0.41,0.23,0.41,0.62,0,0.85
				l-5.43,3.14c-0.41,0.23-1.07,0.23-1.47,0l-8.88-5.13C173.26,396.09,173.26,395.71,173.67,395.47z"/>
		</g>
	</g>
	<path style="fill:#27DEBF;" d="M186.01,146.31l-1.99-1.15c-0.41-0.23-1.06-0.23-1.46,0l-1.99,1.15c-0.4,0.24-0.73,0.8-0.73,1.27
		l0,3.14l6.69-3.86C186.39,146.62,186.21,146.42,186.01,146.31z"/>
	<g id="XMLID_162_">
		<path style="fill:#E0E0E0;" d="M373.64,298.72c0-0.47-0.33-1.04-0.74-1.27l-2.72-1.57l-6.91,3.99l0,11.71
			c0.27,0,0.53-0.06,0.74-0.18l8.89-5.13c0.41-0.23,0.74-0.81,0.74-1.27V298.72z"/>
	</g>
	<g id="XMLID_151_">
		<g id="XMLID_155_">
			<path style="fill:#F0F0F0;" d="M352.93,295.04v-2.29c0-0.47,0.33-1.04,0.74-1.28l5.43-3.14c0.41-0.23,1.07-0.24,1.47,0l8.89,5.13
				c0.41,0.23,0.74,0.81,0.74,1.28v2.29c0,0.47-0.33,1.04-0.74,1.27l-5.43,3.14c-0.41,0.23-1.07,0.23-1.47,0l-8.88-5.13
				C353.26,296.08,352.93,295.51,352.93,295.04z"/>
		</g>
		<g id="XMLID_154_">
			<path style="fill:#E0E0E0;" d="M370.19,294.74c0-0.47-0.33-1.04-0.74-1.27l-0.99-0.57l-5.18,2.98v5.74
				c0.27,0,0.53-0.06,0.74-0.18l5.43-3.14c0.41-0.23,0.74-0.8,0.74-1.27V294.74z"/>
		</g>
		<g id="XMLID_152_">
			<path style="fill:#FAFAFA;" d="M353.67,291.47l5.43-3.14c0.41-0.23,1.07-0.24,1.47,0l8.89,5.13c0.41,0.23,0.41,0.62,0,0.85
				l-5.43,3.14c-0.41,0.23-1.07,0.23-1.47,0l-8.88-5.13C353.26,292.09,353.26,291.71,353.67,291.47z"/>
		</g>
	</g>
	<g id="XMLID_94_">
		<path style="fill:#27DEBF;" d="M359.83,43.58v249.46c0,0.47,0.33,1.04,0.74,1.27l2.72,1.57l3.45-1.99V43.58
			c0-0.47-0.33-1.04-0.74-1.27l-1.98-1.14c-0.4-0.23-1.07-0.23-1.47,0l-1.98,1.14C360.16,42.54,359.83,43.11,359.83,43.58z"/>
	</g>
	<g id="XMLID_93_" style="opacity:0.2;">
		<path d="M359.83,43.58v249.46c0,0.47,0.33,1.04,0.74,1.27l2.72,1.57l3.45-1.99V43.58c0-0.47-0.33-1.04-0.74-1.27l-1.98-1.14
			c-0.4-0.23-1.07-0.23-1.47,0l-1.98,1.14C360.16,42.54,359.83,43.11,359.83,43.58z"/>
	</g>
	<path style="fill:#27DEBF;" d="M366.01,42.31l-1.99-1.15c-0.41-0.23-1.06-0.23-1.46,0l-1.99,1.15c-0.4,0.24-0.73,0.8-0.73,1.27
		l0,3.14l6.69-3.86C366.39,42.62,366.21,42.42,366.01,42.31z"/>
	<path style="fill:#27DEBF;" d="M363.29,45.56l0,249.46c0,0.47-0.33,0.66-0.74,0.43l-1.98-1.14c-0.41-0.23-0.74-0.81-0.74-1.27
		V43.57c0-0.47,0.33-0.66,0.74-0.42l1.98,1.14C362.96,44.52,363.29,45.09,363.29,45.56z"/>
	<path style="opacity:0.3;fill:#FFFFFF;" d="M363.29,45.56l0,249.46c0,0.47-0.33,0.66-0.74,0.43l-1.98-1.14
		c-0.41-0.23-0.74-0.81-0.74-1.27V43.57c0-0.47,0.33-0.66,0.74-0.42l1.98,1.14C362.96,44.52,363.29,45.09,363.29,45.56z"/>
	<g>
		<path style="fill:#27DEBF;" d="M362.55,247.61l-5.43-3.14c-0.4-0.23-0.74-0.04-0.74,0.43l0,46.99l6.91,3.99l0-46.99
			C363.29,248.42,362.96,247.85,362.55,247.61z"/>
		<path style="opacity:0.3;fill:#FFFFFF;" d="M362.55,247.61l-5.43-3.14c-0.4-0.23-0.74-0.04-0.74,0.43l0,46.99l6.91,3.99l0-46.99
			C363.29,248.42,362.96,247.85,362.55,247.61z"/>
	</g>
	<g id="XMLID_18950_">
		<polygon style="fill:#455A64;" points="333.38,227.38 178.15,316.67 178.15,349.08 357.7,245.41 357.7,241.43 		"/>
	</g>
	<g>
		<g id="XMLID_18548_">
			<g id="XMLID_18549_">
				<path style="fill:#F0F0F0;" d="M141.85,381.09v-2.29c0-0.47,0.33-1.04,0.74-1.28l5.43-3.14c0.41-0.23,1.07-0.23,1.47,0
					l8.89,5.13c0.41,0.23,0.74,0.81,0.74,1.28v2.29c0,0.47-0.33,1.04-0.74,1.27l-5.43,3.14c-0.41,0.23-1.07,0.23-1.47,0l-8.88-5.13
					C142.18,382.13,141.85,381.56,141.85,381.09z"/>
			</g>
			<g id="XMLID_18651_">
				<path style="fill:#E0E0E0;" d="M159.12,380.8c0-0.47-0.33-1.04-0.74-1.27l-0.99-0.57l-5.18,2.98v5.74
					c0.27,0,0.53-0.06,0.74-0.18l5.43-3.14c0.41-0.23,0.74-0.8,0.74-1.27V380.8z"/>
			</g>
			<g id="XMLID_18545_">
				<path style="fill:#FAFAFA;" d="M142.59,377.53l5.43-3.14c0.41-0.23,1.07-0.23,1.47,0l8.89,5.13c0.41,0.23,0.41,0.62,0,0.85
					l-5.43,3.14c-0.41,0.23-1.07,0.23-1.47,0l-8.88-5.13C142.18,378.14,142.18,377.76,142.59,377.53z"/>
			</g>
		</g>
		<g>
			<g id="XMLID_18541_">
				<path style="fill:#27DEBF;" d="M149.49,380.37l2.72,1.57l3.45-1.99v-43.01c0-0.47-0.33-1.04-0.74-1.28l-5.43-3.14
					c-0.4-0.23-0.74-0.04-0.74,0.42l-0.01,46.14C148.76,379.56,149.09,380.14,149.49,380.37z"/>
			</g>
			<g id="XMLID_19_" style="opacity:0.4;">
				<path d="M149.49,380.37l2.72,1.57l3.45-1.99v-43.01c0-0.47-0.33-1.04-0.74-1.28l-5.43-3.14c-0.4-0.23-0.74-0.04-0.74,0.42
					l-0.01,46.14C148.76,379.56,149.09,380.14,149.49,380.37z"/>
			</g>
		</g>
		<g id="XMLID_18761_">
			<path style="fill:#27DEBF;" d="M145.3,127.63v249.46c0,0.47,0.33,1.04,0.74,1.27l1.98,1.14c0.41,0.23,1.07,0.23,1.47,0l1.98-1.14
				c0.41-0.23,0.74-0.81,0.74-1.28V127.63c0-0.47-0.33-1.04-0.74-1.27l-1.98-1.14c-0.41-0.23-1.07-0.23-1.47,0l-1.98,1.14
				C145.63,126.59,145.3,127.16,145.3,127.63z"/>
		</g>
		<g id="XMLID_18543_">
			<path style="fill:#27DEBF;" d="M151.48,126.36l-1.99-1.15c-0.41-0.23-1.06-0.23-1.46,0l-1.99,1.15c-0.4,0.24-0.73,0.8-0.73,1.27
				l0,3.14l6.69-3.86C151.86,126.67,151.68,126.47,151.48,126.36z"/>
		</g>
		<g id="XMLID_18760_">
			<path style="fill:#27DEBF;" d="M148.76,129.62l0,249.46c0,0.47-0.33,0.66-0.74,0.43l-1.98-1.14c-0.41-0.23-0.74-0.81-0.74-1.27
				V127.63c0-0.47,0.33-0.66,0.74-0.42l1.98,1.14C148.43,128.58,148.76,129.15,148.76,129.62z"/>
		</g>
		<g id="XMLID_20_" style="opacity:0.4;">
			<path style="fill:#FFFFFF;" d="M148.76,129.62l0,249.46c0,0.47-0.33,0.66-0.74,0.43l-1.98-1.14c-0.41-0.23-0.74-0.81-0.74-1.27
				V127.63c0-0.47,0.33-0.66,0.74-0.42l1.98,1.14C148.43,128.58,148.76,129.15,148.76,129.62z"/>
		</g>
		<g>
			<g id="XMLID_18539_">
				<path style="fill:#27DEBF;" d="M151.47,333.67l-5.43-3.14c-0.4-0.23-0.74-0.04-0.74,0.43l0,46.99l6.91,3.99l0-46.99
					C152.21,334.48,151.88,333.91,151.47,333.67z"/>
			</g>
			<g id="XMLID_21_" style="opacity:0.4;">
				<path style="fill:#FFFFFF;" d="M151.47,333.67l-5.43-3.14c-0.4-0.23-0.74-0.04-0.74,0.43l0,46.99l6.91,3.99l0-46.99
					C152.21,334.48,151.88,333.91,151.47,333.67z"/>
			</g>
		</g>
		<g>
			<g>
				<g id="XMLID_18_">
					<polygon style="fill:#27DEBF;" points="150.43,281.06 153.84,279.04 153.84,243.17 150.43,245.18 					"/>
				</g>
				<g id="XMLID_17_" style="opacity:0.2;">
					<polygon points="150.43,281.06 153.84,279.04 153.84,243.17 150.43,245.18 					"/>
				</g>
			</g>
			<g>
				<g id="XMLID_16_">
					<polygon style="fill:#27DEBF;" points="153.84,247.15 157.35,245.2 157.35,243.25 155.66,244.22 153.84,243.17 					"/>
				</g>
				<g id="XMLID_15_" style="opacity:0.2;">
					<polygon points="153.84,247.15 157.35,245.2 157.35,243.25 155.66,244.22 153.84,243.17 					"/>
				</g>
			</g>
			<g>
				<g id="XMLID_14_">
					<polygon style="fill:#27DEBF;" points="155.66,240.23 155.66,244.22 159.12,242.23 					"/>
				</g>
				<g id="XMLID_13_" style="opacity:0.2;">
					<polygon points="155.66,240.23 155.66,244.22 159.12,242.23 					"/>
				</g>
			</g>
		</g>
		<g>
			<g>
				<g id="XMLID_57_">
					<polygon style="fill:#27DEBF;" points="150.43,233.06 153.84,231.04 153.84,195.17 150.43,197.18 					"/>
				</g>
				<g id="XMLID_56_" style="opacity:0.2;">
					<polygon points="150.43,233.06 153.84,231.04 153.84,195.17 150.43,197.18 					"/>
				</g>
			</g>
			<g>
				<g id="XMLID_55_">
					<polygon style="fill:#27DEBF;" points="153.84,199.15 157.35,197.2 157.35,195.25 155.66,196.22 153.84,195.17 					"/>
				</g>
				<g id="XMLID_54_" style="opacity:0.2;">
					<polygon points="153.84,199.15 157.35,197.2 157.35,195.25 155.66,196.22 153.84,195.17 					"/>
				</g>
			</g>
			<g>
				<g id="XMLID_53_">
					<polygon style="fill:#27DEBF;" points="155.66,192.23 155.66,196.22 159.12,194.23 					"/>
				</g>
				<g id="XMLID_52_" style="opacity:0.2;">
					<polygon points="155.66,192.23 155.66,196.22 159.12,194.23 					"/>
				</g>
			</g>
		</g>
		<g>
			<g>
				<g id="XMLID_67_">
					<polygon style="fill:#27DEBF;" points="150.43,193.06 153.84,191.04 153.84,155.17 150.43,157.18 					"/>
				</g>
				<g id="XMLID_66_" style="opacity:0.2;">
					<polygon points="150.43,193.06 153.84,191.04 153.84,155.17 150.43,157.18 					"/>
				</g>
			</g>
			<g>
				<g id="XMLID_65_">
					<polygon style="fill:#27DEBF;" points="153.84,159.15 157.35,157.2 157.35,155.25 155.66,156.22 153.84,155.17 					"/>
				</g>
				<g id="XMLID_64_" style="opacity:0.2;">
					<polygon points="153.84,159.15 157.35,157.2 157.35,155.25 155.66,156.22 153.84,155.17 					"/>
				</g>
			</g>
			<g>
				<g id="XMLID_63_">
					<polygon style="fill:#27DEBF;" points="155.66,152.23 155.66,156.22 159.12,154.23 					"/>
				</g>
				<g id="XMLID_62_" style="opacity:0.2;">
					<polygon points="155.66,152.23 155.66,156.22 159.12,154.23 					"/>
				</g>
			</g>
		</g>
		<polygon style="fill:#27DEBF;" points="148.76,220.47 152.21,218.48 179.83,234.42 179.83,238.41 		"/>
		<g>
			<polygon style="fill:#27DEBF;" points="148.76,272.3 150.43,273.26 150.43,245.35 153.84,247.32 153.84,243.34 155.66,244.39 
				155.66,240.4 172.93,250.37 172.93,254.36 174.78,255.43 174.78,259.42 178.15,261.36 178.15,289.27 179.83,290.24 
				179.83,238.41 148.76,220.47 			"/>
			<polygon style="opacity:0.4;fill:#FFFFFF;" points="148.76,272.3 150.43,273.26 150.43,245.35 153.84,247.32 153.84,243.34 
				155.66,244.39 155.66,240.4 172.93,250.37 172.93,254.36 174.78,255.43 174.78,259.42 178.15,261.36 178.15,289.27 
				179.83,290.24 179.83,238.41 148.76,220.47 			"/>
		</g>
		<g>
			<path style="fill:#27DEBF;" d="M176.38,249.73c-0.09,0-0.17-0.02-0.25-0.07l-24.17-13.95c-0.24-0.14-0.32-0.44-0.18-0.68
				c0.14-0.24,0.44-0.32,0.68-0.18l24.17,13.95c0.24,0.14,0.32,0.44,0.18,0.68C176.72,249.64,176.55,249.73,176.38,249.73z"/>
			<path style="opacity:0.6;fill:#FFFFFF;" d="M176.38,249.73c-0.09,0-0.17-0.02-0.25-0.07l-24.17-13.95
				c-0.24-0.14-0.32-0.44-0.18-0.68c0.14-0.24,0.44-0.32,0.68-0.18l24.17,13.95c0.24,0.14,0.32,0.44,0.18,0.68
				C176.72,249.64,176.55,249.73,176.38,249.73z"/>
		</g>
		<g>
			<g id="XMLID_33_">
				<path style="fill:#27DEBF;" d="M152.21,232.81c-0.21,0-0.38-0.17-0.38-0.38v-5.98c0-0.21,0.17-0.38,0.38-0.38
					c0.21,0,0.38,0.17,0.38,0.38v5.98C152.59,232.64,152.42,232.81,152.21,232.81z"/>
			</g>
			<g>
				<path style="fill:#27DEBF;" d="M154.9,234.36c-0.21,0-0.38-0.17-0.38-0.38V228c0-0.21,0.17-0.38,0.38-0.38s0.38,0.17,0.38,0.38
					v5.98C155.27,234.19,155.1,234.36,154.9,234.36z"/>
			</g>
			<g>
				<path style="fill:#27DEBF;" d="M157.58,235.91c-0.21,0-0.38-0.17-0.38-0.38v-5.98c0-0.21,0.17-0.38,0.38-0.38
					c0.21,0,0.38,0.17,0.38,0.38v5.98C157.96,235.74,157.79,235.91,157.58,235.91z"/>
			</g>
			<g>
				<path style="fill:#27DEBF;" d="M160.27,237.46c-0.21,0-0.38-0.17-0.38-0.38v-5.98c0-0.21,0.17-0.38,0.38-0.38
					s0.38,0.17,0.38,0.38v5.98C160.64,237.29,160.47,237.46,160.27,237.46z"/>
			</g>
			<g>
				<path style="fill:#27DEBF;" d="M162.95,239.01c-0.21,0-0.38-0.17-0.38-0.38v-5.98c0-0.21,0.17-0.38,0.38-0.38
					c0.21,0,0.38,0.17,0.38,0.38v5.98C163.33,238.84,163.16,239.01,162.95,239.01z"/>
			</g>
			<g>
				<path style="fill:#27DEBF;" d="M165.64,240.56c-0.21,0-0.38-0.17-0.38-0.38v-5.98c0-0.21,0.17-0.38,0.38-0.38
					s0.38,0.17,0.38,0.38v5.98C166.01,240.39,165.84,240.56,165.64,240.56z"/>
			</g>
			<g>
				<path style="fill:#27DEBF;" d="M168.32,242.11c-0.21,0-0.38-0.17-0.38-0.38v-5.98c0-0.21,0.17-0.38,0.38-0.38
					c0.21,0,0.38,0.17,0.38,0.38v5.98C168.7,241.94,168.53,242.11,168.32,242.11z"/>
			</g>
			<g>
				<path style="fill:#27DEBF;" d="M171.01,243.66c-0.21,0-0.38-0.17-0.38-0.38v-5.98c0-0.21,0.17-0.38,0.38-0.38
					s0.38,0.17,0.38,0.38v5.98C171.38,243.49,171.22,243.66,171.01,243.66z"/>
			</g>
			<g>
				<path style="fill:#27DEBF;" d="M173.69,245.21c-0.21,0-0.38-0.17-0.38-0.38v-5.98c0-0.21,0.17-0.38,0.38-0.38
					c0.21,0,0.38,0.17,0.38,0.38v5.98C174.07,245.04,173.9,245.21,173.69,245.21z"/>
			</g>
			<g id="XMLID_32_">
				<path style="fill:#27DEBF;" d="M176.38,246.76c-0.21,0-0.38-0.17-0.38-0.38v-5.98c0-0.21,0.17-0.38,0.38-0.38
					s0.38,0.17,0.38,0.38v5.98C176.75,246.59,176.59,246.76,176.38,246.76z"/>
			</g>
			<g id="XMLID_50_" style="opacity:0.2;">
				<path d="M152.21,232.81c-0.21,0-0.38-0.17-0.38-0.38v-5.98c0-0.21,0.17-0.38,0.38-0.38c0.21,0,0.38,0.17,0.38,0.38v5.98
					C152.59,232.64,152.42,232.81,152.21,232.81z"/>
			</g>
			<g style="opacity:0.2;">
				<path d="M154.9,234.36c-0.21,0-0.38-0.17-0.38-0.38V228c0-0.21,0.17-0.38,0.38-0.38s0.38,0.17,0.38,0.38v5.98
					C155.27,234.19,155.1,234.36,154.9,234.36z"/>
			</g>
			<g style="opacity:0.2;">
				<path d="M157.58,235.91c-0.21,0-0.38-0.17-0.38-0.38v-5.98c0-0.21,0.17-0.38,0.38-0.38c0.21,0,0.38,0.17,0.38,0.38v5.98
					C157.96,235.74,157.79,235.91,157.58,235.91z"/>
			</g>
			<g style="opacity:0.2;">
				<path d="M160.27,237.46c-0.21,0-0.38-0.17-0.38-0.38v-5.98c0-0.21,0.17-0.38,0.38-0.38s0.38,0.17,0.38,0.38v5.98
					C160.64,237.29,160.47,237.46,160.27,237.46z"/>
			</g>
			<g style="opacity:0.2;">
				<path d="M162.95,239.01c-0.21,0-0.38-0.17-0.38-0.38v-5.98c0-0.21,0.17-0.38,0.38-0.38c0.21,0,0.38,0.17,0.38,0.38v5.98
					C163.33,238.84,163.16,239.01,162.95,239.01z"/>
			</g>
			<g style="opacity:0.2;">
				<path d="M165.64,240.56c-0.21,0-0.38-0.17-0.38-0.38v-5.98c0-0.21,0.17-0.38,0.38-0.38s0.38,0.17,0.38,0.38v5.98
					C166.01,240.39,165.84,240.56,165.64,240.56z"/>
			</g>
			<g style="opacity:0.2;">
				<path d="M168.32,242.11c-0.21,0-0.38-0.17-0.38-0.38v-5.98c0-0.21,0.17-0.38,0.38-0.38c0.21,0,0.38,0.17,0.38,0.38v5.98
					C168.7,241.94,168.53,242.11,168.32,242.11z"/>
			</g>
			<g style="opacity:0.2;">
				<path d="M171.01,243.66c-0.21,0-0.38-0.17-0.38-0.38v-5.98c0-0.21,0.17-0.38,0.38-0.38s0.38,0.17,0.38,0.38v5.98
					C171.38,243.49,171.22,243.66,171.01,243.66z"/>
			</g>
			<g style="opacity:0.2;">
				<path d="M173.69,245.21c-0.21,0-0.38-0.17-0.38-0.38v-5.98c0-0.21,0.17-0.38,0.38-0.38c0.21,0,0.38,0.17,0.38,0.38v5.98
					C174.07,245.04,173.9,245.21,173.69,245.21z"/>
			</g>
			<g id="XMLID_49_" style="opacity:0.2;">
				<path d="M176.38,246.76c-0.21,0-0.38-0.17-0.38-0.38v-5.98c0-0.21,0.17-0.38,0.38-0.38s0.38,0.17,0.38,0.38v5.98
					C176.75,246.59,176.59,246.76,176.38,246.76z"/>
			</g>
		</g>
		<g id="XMLID_18802_">
			<polygon style="fill:#27DEBF;" points="148.76,172.63 152.21,170.63 179.83,186.58 179.83,190.57 			"/>
		</g>
		<g>
			<polygon style="fill:#27DEBF;" points="148.76,220.47 150.43,221.43 150.43,197.51 153.84,199.48 153.84,195.5 155.66,196.55 
				155.66,192.56 172.93,202.53 172.93,206.52 174.78,207.59 174.78,211.58 178.15,213.52 178.15,237.44 179.83,238.41 
				179.83,190.57 148.76,172.63 			"/>
			<g id="XMLID_51_" style="opacity:0.4;">
				<polygon style="fill:#FFFFFF;" points="148.76,220.47 150.43,221.43 150.43,197.51 153.84,199.48 153.84,195.5 155.66,196.55 
					155.66,192.56 172.93,202.53 172.93,206.52 174.78,207.59 174.78,211.58 178.15,213.52 178.15,237.44 179.83,238.41 
					179.83,190.57 148.76,172.63 				"/>
			</g>
		</g>
		<g>
			<g id="XMLID_18800_">
				<path style="fill:#27DEBF;" d="M176.38,201.89c-0.09,0-0.17-0.02-0.25-0.07l-24.17-13.95c-0.24-0.14-0.32-0.44-0.18-0.68
					c0.14-0.24,0.44-0.32,0.68-0.18l24.17,13.95c0.24,0.14,0.32,0.44,0.18,0.68C176.72,201.8,176.55,201.89,176.38,201.89z"/>
			</g>
			<g id="XMLID_58_" style="opacity:0.6;">
				<path style="fill:#FFFFFF;" d="M176.38,201.89c-0.09,0-0.17-0.02-0.25-0.07l-24.17-13.95c-0.24-0.14-0.32-0.44-0.18-0.68
					c0.14-0.24,0.44-0.32,0.68-0.18l24.17,13.95c0.24,0.14,0.32,0.44,0.18,0.68C176.72,201.8,176.55,201.89,176.38,201.89z"/>
			</g>
		</g>
		<g id="XMLID_18758_">
			<polygon style="fill:#27DEBF;" points="148.76,132.76 152.21,130.77 180.57,147.14 179.83,150.7 			"/>
		</g>
		<g id="XMLID_18762_">
			<polygon style="fill:#27DEBF;" points="148.76,172.63 150.43,173.59 150.43,157.64 153.84,159.61 153.84,155.63 155.66,156.68 
				155.66,152.69 172.93,162.66 172.93,166.65 174.78,167.72 174.78,171.71 178.15,173.65 178.15,189.6 179.83,190.57 179.83,150.7 
				148.76,132.76 			"/>
		</g>
		<g id="XMLID_61_" style="opacity:0.4;">
			<polygon style="fill:#FFFFFF;" points="148.76,172.63 150.43,173.59 150.43,157.64 153.84,159.61 153.84,155.63 155.66,156.68 
				155.66,152.69 172.93,162.66 172.93,166.65 174.78,167.72 174.78,171.71 178.15,173.65 178.15,189.6 179.83,190.57 179.83,150.7 
				148.76,132.76 			"/>
		</g>
		<g>
			<g id="XMLID_18767_">
				<path style="fill:#27DEBF;" d="M176.38,162.02c-0.09,0-0.17-0.02-0.25-0.07L151.96,148c-0.24-0.14-0.32-0.44-0.18-0.68
					c0.14-0.24,0.44-0.32,0.68-0.18l24.17,13.95c0.24,0.14,0.32,0.44,0.18,0.68C176.72,161.93,176.55,162.02,176.38,162.02z"/>
			</g>
			<g id="XMLID_68_" style="opacity:0.6;">
				<path style="fill:#FFFFFF;" d="M176.38,162.02c-0.09,0-0.17-0.02-0.25-0.07L151.96,148c-0.24-0.14-0.32-0.44-0.18-0.68
					c0.14-0.24,0.44-0.32,0.68-0.18l24.17,13.95c0.24,0.14,0.32,0.44,0.18,0.68C176.72,161.93,176.55,162.02,176.38,162.02z"/>
			</g>
		</g>
		<g>
			<g id="XMLID_60_">
				<path style="fill:#27DEBF;" d="M152.21,184.81c-0.21,0-0.38-0.17-0.38-0.38v-5.98c0-0.21,0.17-0.38,0.38-0.38
					c0.21,0,0.38,0.17,0.38,0.38v5.98C152.59,184.64,152.42,184.81,152.21,184.81z"/>
			</g>
			<g>
				<path style="fill:#27DEBF;" d="M154.9,186.36c-0.21,0-0.38-0.17-0.38-0.38V180c0-0.21,0.17-0.38,0.38-0.38s0.38,0.17,0.38,0.38
					v5.98C155.27,186.19,155.1,186.36,154.9,186.36z"/>
			</g>
			<g>
				<path style="fill:#27DEBF;" d="M157.58,187.91c-0.21,0-0.38-0.17-0.38-0.38v-5.98c0-0.21,0.17-0.38,0.38-0.38
					c0.21,0,0.38,0.17,0.38,0.38v5.98C157.96,187.74,157.79,187.91,157.58,187.91z"/>
			</g>
			<g>
				<path style="fill:#27DEBF;" d="M160.27,189.46c-0.21,0-0.38-0.17-0.38-0.38v-5.98c0-0.21,0.17-0.38,0.38-0.38
					s0.38,0.17,0.38,0.38v5.98C160.64,189.29,160.47,189.46,160.27,189.46z"/>
			</g>
			<g>
				<path style="fill:#27DEBF;" d="M162.95,191.01c-0.21,0-0.38-0.17-0.38-0.38v-5.98c0-0.21,0.17-0.38,0.38-0.38
					c0.21,0,0.38,0.17,0.38,0.38v5.98C163.33,190.84,163.16,191.01,162.95,191.01z"/>
			</g>
			<g>
				<path style="fill:#27DEBF;" d="M165.64,192.56c-0.21,0-0.38-0.17-0.38-0.38v-5.98c0-0.21,0.17-0.38,0.38-0.38
					s0.38,0.17,0.38,0.38v5.98C166.01,192.39,165.84,192.56,165.64,192.56z"/>
			</g>
			<g>
				<path style="fill:#27DEBF;" d="M168.32,194.11c-0.21,0-0.38-0.17-0.38-0.38v-5.98c0-0.21,0.17-0.38,0.38-0.38
					c0.21,0,0.38,0.17,0.38,0.38v5.98C168.7,193.94,168.53,194.11,168.32,194.11z"/>
			</g>
			<g>
				<path style="fill:#27DEBF;" d="M171.01,195.66c-0.21,0-0.38-0.17-0.38-0.38v-5.98c0-0.21,0.17-0.38,0.38-0.38
					s0.38,0.17,0.38,0.38v5.98C171.38,195.49,171.22,195.66,171.01,195.66z"/>
			</g>
			<g>
				<path style="fill:#27DEBF;" d="M173.69,197.21c-0.21,0-0.38-0.17-0.38-0.38v-5.98c0-0.21,0.17-0.38,0.38-0.38
					c0.21,0,0.38,0.17,0.38,0.38v5.98C174.07,197.04,173.9,197.21,173.69,197.21z"/>
			</g>
			<g id="XMLID_59_">
				<path style="fill:#27DEBF;" d="M176.38,198.76c-0.21,0-0.38-0.17-0.38-0.38v-5.98c0-0.21,0.17-0.38,0.38-0.38
					s0.38,0.17,0.38,0.38v5.98C176.75,198.59,176.59,198.76,176.38,198.76z"/>
			</g>
			<g id="XMLID_46_" style="opacity:0.2;">
				<path d="M152.21,184.81c-0.21,0-0.38-0.17-0.38-0.38v-5.98c0-0.21,0.17-0.38,0.38-0.38c0.21,0,0.38,0.17,0.38,0.38v5.98
					C152.59,184.64,152.42,184.81,152.21,184.81z"/>
			</g>
			<g style="opacity:0.2;">
				<path d="M154.9,186.36c-0.21,0-0.38-0.17-0.38-0.38V180c0-0.21,0.17-0.38,0.38-0.38s0.38,0.17,0.38,0.38v5.98
					C155.27,186.19,155.1,186.36,154.9,186.36z"/>
			</g>
			<g style="opacity:0.2;">
				<path d="M157.58,187.91c-0.21,0-0.38-0.17-0.38-0.38v-5.98c0-0.21,0.17-0.38,0.38-0.38c0.21,0,0.38,0.17,0.38,0.38v5.98
					C157.96,187.74,157.79,187.91,157.58,187.91z"/>
			</g>
			<g style="opacity:0.2;">
				<path d="M160.27,189.46c-0.21,0-0.38-0.17-0.38-0.38v-5.98c0-0.21,0.17-0.38,0.38-0.38s0.38,0.17,0.38,0.38v5.98
					C160.64,189.29,160.47,189.46,160.27,189.46z"/>
			</g>
			<g style="opacity:0.2;">
				<path d="M162.95,191.01c-0.21,0-0.38-0.17-0.38-0.38v-5.98c0-0.21,0.17-0.38,0.38-0.38c0.21,0,0.38,0.17,0.38,0.38v5.98
					C163.33,190.84,163.16,191.01,162.95,191.01z"/>
			</g>
			<g style="opacity:0.2;">
				<path d="M165.64,192.56c-0.21,0-0.38-0.17-0.38-0.38v-5.98c0-0.21,0.17-0.38,0.38-0.38s0.38,0.17,0.38,0.38v5.98
					C166.01,192.39,165.84,192.56,165.64,192.56z"/>
			</g>
			<g style="opacity:0.2;">
				<path d="M168.32,194.11c-0.21,0-0.38-0.17-0.38-0.38v-5.98c0-0.21,0.17-0.38,0.38-0.38c0.21,0,0.38,0.17,0.38,0.38v5.98
					C168.7,193.94,168.53,194.11,168.32,194.11z"/>
			</g>
			<g style="opacity:0.2;">
				<path d="M171.01,195.66c-0.21,0-0.38-0.17-0.38-0.38v-5.98c0-0.21,0.17-0.38,0.38-0.38s0.38,0.17,0.38,0.38v5.98
					C171.38,195.49,171.22,195.66,171.01,195.66z"/>
			</g>
			<g style="opacity:0.2;">
				<path d="M173.69,197.21c-0.21,0-0.38-0.17-0.38-0.38v-5.98c0-0.21,0.17-0.38,0.38-0.38c0.21,0,0.38,0.17,0.38,0.38v5.98
					C174.07,197.04,173.9,197.21,173.69,197.21z"/>
			</g>
			<g id="XMLID_31_" style="opacity:0.2;">
				<path d="M176.38,198.76c-0.21,0-0.38-0.17-0.38-0.38v-5.98c0-0.21,0.17-0.38,0.38-0.38s0.38,0.17,0.38,0.38v5.98
					C176.75,198.59,176.59,198.76,176.38,198.76z"/>
			</g>
		</g>
		<g>
			<g id="XMLID_70_">
				<path style="fill:#27DEBF;" d="M152.21,144.81c-0.21,0-0.38-0.17-0.38-0.38v-5.98c0-0.21,0.17-0.38,0.38-0.38
					c0.21,0,0.38,0.17,0.38,0.38v5.98C152.59,144.64,152.42,144.81,152.21,144.81z"/>
			</g>
			<g>
				<path style="fill:#27DEBF;" d="M154.9,146.36c-0.21,0-0.38-0.17-0.38-0.38V140c0-0.21,0.17-0.38,0.38-0.38s0.38,0.17,0.38,0.38
					v5.98C155.27,146.19,155.1,146.36,154.9,146.36z"/>
			</g>
			<g>
				<path style="fill:#27DEBF;" d="M157.58,147.91c-0.21,0-0.38-0.17-0.38-0.38v-5.98c0-0.21,0.17-0.38,0.38-0.38
					c0.21,0,0.38,0.17,0.38,0.38v5.98C157.96,147.74,157.79,147.91,157.58,147.91z"/>
			</g>
			<g>
				<path style="fill:#27DEBF;" d="M160.27,149.46c-0.21,0-0.38-0.17-0.38-0.38v-5.98c0-0.21,0.17-0.38,0.38-0.38
					s0.38,0.17,0.38,0.38v5.98C160.64,149.29,160.47,149.46,160.27,149.46z"/>
			</g>
			<g>
				<path style="fill:#27DEBF;" d="M162.95,151.01c-0.21,0-0.38-0.17-0.38-0.38v-5.98c0-0.21,0.17-0.38,0.38-0.38
					c0.21,0,0.38,0.17,0.38,0.38v5.98C163.33,150.84,163.16,151.01,162.95,151.01z"/>
			</g>
			<g>
				<path style="fill:#27DEBF;" d="M165.64,152.56c-0.21,0-0.38-0.17-0.38-0.38v-5.98c0-0.21,0.17-0.38,0.38-0.38
					s0.38,0.17,0.38,0.38v5.98C166.01,152.39,165.84,152.56,165.64,152.56z"/>
			</g>
			<g>
				<path style="fill:#27DEBF;" d="M168.32,154.11c-0.21,0-0.38-0.17-0.38-0.38v-5.98c0-0.21,0.17-0.38,0.38-0.38
					c0.21,0,0.38,0.17,0.38,0.38v5.98C168.7,153.94,168.53,154.11,168.32,154.11z"/>
			</g>
			<g>
				<path style="fill:#27DEBF;" d="M171.01,155.66c-0.21,0-0.38-0.17-0.38-0.38v-5.98c0-0.21,0.17-0.38,0.38-0.38
					s0.38,0.17,0.38,0.38v5.98C171.38,155.49,171.22,155.66,171.01,155.66z"/>
			</g>
			<g>
				<path style="fill:#27DEBF;" d="M173.69,157.21c-0.21,0-0.38-0.17-0.38-0.38v-5.98c0-0.21,0.17-0.38,0.38-0.38
					c0.21,0,0.38,0.17,0.38,0.38v5.98C174.07,157.04,173.9,157.21,173.69,157.21z"/>
			</g>
			<g id="XMLID_69_">
				<path style="fill:#27DEBF;" d="M176.38,158.76c-0.21,0-0.38-0.17-0.38-0.38v-5.98c0-0.21,0.17-0.38,0.38-0.38
					s0.38,0.17,0.38,0.38v5.98C176.75,158.59,176.59,158.76,176.38,158.76z"/>
			</g>
			<g id="XMLID_48_" style="opacity:0.2;">
				<path d="M152.21,144.81c-0.21,0-0.38-0.17-0.38-0.38v-5.98c0-0.21,0.17-0.38,0.38-0.38c0.21,0,0.38,0.17,0.38,0.38v5.98
					C152.59,144.64,152.42,144.81,152.21,144.81z"/>
			</g>
			<g style="opacity:0.2;">
				<path d="M154.9,146.36c-0.21,0-0.38-0.17-0.38-0.38V140c0-0.21,0.17-0.38,0.38-0.38s0.38,0.17,0.38,0.38v5.98
					C155.27,146.19,155.1,146.36,154.9,146.36z"/>
			</g>
			<g style="opacity:0.2;">
				<path d="M157.58,147.91c-0.21,0-0.38-0.17-0.38-0.38v-5.98c0-0.21,0.17-0.38,0.38-0.38c0.21,0,0.38,0.17,0.38,0.38v5.98
					C157.96,147.74,157.79,147.91,157.58,147.91z"/>
			</g>
			<g style="opacity:0.2;">
				<path d="M160.27,149.46c-0.21,0-0.38-0.17-0.38-0.38v-5.98c0-0.21,0.17-0.38,0.38-0.38s0.38,0.17,0.38,0.38v5.98
					C160.64,149.29,160.47,149.46,160.27,149.46z"/>
			</g>
			<g style="opacity:0.2;">
				<path d="M162.95,151.01c-0.21,0-0.38-0.17-0.38-0.38v-5.98c0-0.21,0.17-0.38,0.38-0.38c0.21,0,0.38,0.17,0.38,0.38v5.98
					C163.33,150.84,163.16,151.01,162.95,151.01z"/>
			</g>
			<g style="opacity:0.2;">
				<path d="M165.64,152.56c-0.21,0-0.38-0.17-0.38-0.38v-5.98c0-0.21,0.17-0.38,0.38-0.38s0.38,0.17,0.38,0.38v5.98
					C166.01,152.39,165.84,152.56,165.64,152.56z"/>
			</g>
			<g style="opacity:0.2;">
				<path d="M168.32,154.11c-0.21,0-0.38-0.17-0.38-0.38v-5.98c0-0.21,0.17-0.38,0.38-0.38c0.21,0,0.38,0.17,0.38,0.38v5.98
					C168.7,153.94,168.53,154.11,168.32,154.11z"/>
			</g>
			<g style="opacity:0.2;">
				<path d="M171.01,155.66c-0.21,0-0.38-0.17-0.38-0.38v-5.98c0-0.21,0.17-0.38,0.38-0.38s0.38,0.17,0.38,0.38v5.98
					C171.38,155.49,171.22,155.66,171.01,155.66z"/>
			</g>
			<g style="opacity:0.2;">
				<path d="M173.69,157.21c-0.21,0-0.38-0.17-0.38-0.38v-5.98c0-0.21,0.17-0.38,0.38-0.38c0.21,0,0.38,0.17,0.38,0.38v5.98
					C174.07,157.04,173.9,157.21,173.69,157.21z"/>
			</g>
			<g id="XMLID_47_" style="opacity:0.2;">
				<path d="M176.38,158.76c-0.21,0-0.38-0.17-0.38-0.38v-5.98c0-0.21,0.17-0.38,0.38-0.38s0.38,0.17,0.38,0.38v5.98
					C176.75,158.59,176.59,158.76,176.38,158.76z"/>
			</g>
		</g>
		<g>
			<g>
				<g>
					<g id="XMLID_18850_">
						<polygon style="fill:#27DEBF;" points="150.43,333.06 153.84,331.04 153.84,295.17 150.43,297.18 						"/>
					</g>
					<g id="XMLID_10_" style="opacity:0.3;">
						<polygon points="150.43,333.06 153.84,331.04 153.84,295.17 150.43,297.18 						"/>
					</g>
				</g>
				<g>
					<g id="XMLID_18849_">
						<polygon style="fill:#27DEBF;" points="153.84,299.15 157.35,297.2 157.35,295.25 155.66,296.22 153.84,295.17 						"/>
					</g>
					<g id="XMLID_11_" style="opacity:0.3;">
						<polygon points="153.84,299.15 157.35,297.2 157.35,295.25 155.66,296.22 153.84,295.17 						"/>
					</g>
				</g>
				<g>
					<g id="XMLID_18848_">
						<polygon style="fill:#27DEBF;" points="155.66,292.23 155.66,296.22 159.12,294.23 						"/>
					</g>
					<g id="XMLID_12_" style="opacity:0.3;">
						<polygon points="155.66,292.23 155.66,296.22 159.12,294.23 						"/>
					</g>
				</g>
			</g>
			<g id="XMLID_18847_">
				<polygon style="fill:#27DEBF;" points="148.76,272.3 152.21,270.31 179.83,286.25 179.83,290.24 				"/>
			</g>
			<g>
				<g id="XMLID_18846_">
					<polygon style="fill:#27DEBF;" points="148.76,332.1 150.43,333.06 150.43,297.18 153.84,299.15 153.84,295.17 155.66,296.22 
						155.66,292.23 172.93,302.2 172.93,306.19 174.78,307.26 174.78,311.25 178.15,313.19 178.15,349.07 179.83,350.04 
						179.83,290.24 148.76,272.3 					"/>
				</g>
				<g id="XMLID_8_" style="opacity:0.4;">
					<polygon style="fill:#FFFFFF;" points="148.76,332.1 150.43,333.06 150.43,297.18 153.84,299.15 153.84,295.17 155.66,296.22 
						155.66,292.23 172.93,302.2 172.93,306.19 174.78,307.26 174.78,311.25 178.15,313.19 178.15,349.07 179.83,350.04 
						179.83,290.24 148.76,272.3 					"/>
				</g>
			</g>
			<g>
				<g id="XMLID_18845_">
					<path style="fill:#27DEBF;" d="M176.38,301.56c-0.09,0-0.17-0.02-0.25-0.07l-24.17-13.95c-0.24-0.14-0.32-0.44-0.18-0.68
						c0.14-0.24,0.44-0.32,0.68-0.18l24.17,13.95c0.24,0.14,0.32,0.44,0.18,0.68C176.72,301.47,176.55,301.56,176.38,301.56z"/>
				</g>
				<g id="XMLID_29_" style="opacity:0.6;">
					<path style="fill:#FFFFFF;" d="M176.38,301.56c-0.09,0-0.17-0.02-0.25-0.07l-24.17-13.95c-0.24-0.14-0.32-0.44-0.18-0.68
						c0.14-0.24,0.44-0.32,0.68-0.18l24.17,13.95c0.24,0.14,0.32,0.44,0.18,0.68C176.72,301.47,176.55,301.56,176.38,301.56z"/>
				</g>
			</g>
			<g>
				<g id="XMLID_18830_">
					<g id="XMLID_35_">
						<path style="fill:#27DEBF;" d="M152.21,284.63c-0.21,0-0.38-0.17-0.38-0.38v-5.98c0-0.21,0.17-0.38,0.38-0.38
							c0.21,0,0.38,0.17,0.38,0.38v5.98C152.59,284.47,152.42,284.63,152.21,284.63z"/>
					</g>
					<g>
						<path style="fill:#27DEBF;" d="M154.9,286.19c-0.21,0-0.38-0.17-0.38-0.38v-5.98c0-0.21,0.17-0.38,0.38-0.38
							s0.38,0.17,0.38,0.38v5.98C155.27,286.02,155.1,286.19,154.9,286.19z"/>
					</g>
					<g>
						<path style="fill:#27DEBF;" d="M157.58,287.74c-0.21,0-0.38-0.17-0.38-0.38v-5.98c0-0.21,0.17-0.38,0.38-0.38
							c0.21,0,0.38,0.17,0.38,0.38v5.98C157.96,287.57,157.79,287.74,157.58,287.74z"/>
					</g>
					<g>
						<path style="fill:#27DEBF;" d="M160.27,289.29c-0.21,0-0.38-0.17-0.38-0.38v-5.98c0-0.21,0.17-0.38,0.38-0.38
							s0.38,0.17,0.38,0.38v5.98C160.64,289.12,160.47,289.29,160.27,289.29z"/>
					</g>
					<g>
						<path style="fill:#27DEBF;" d="M162.95,290.84c-0.21,0-0.38-0.17-0.38-0.38v-5.98c0-0.21,0.17-0.38,0.38-0.38
							c0.21,0,0.38,0.17,0.38,0.38v5.98C163.33,290.67,163.16,290.84,162.95,290.84z"/>
					</g>
					<g>
						<path style="fill:#27DEBF;" d="M165.64,292.39c-0.21,0-0.38-0.17-0.38-0.38v-5.98c0-0.21,0.17-0.38,0.38-0.38
							s0.38,0.17,0.38,0.38v5.98C166.01,292.22,165.84,292.39,165.64,292.39z"/>
					</g>
					<g>
						<path style="fill:#27DEBF;" d="M168.32,293.94c-0.21,0-0.38-0.17-0.38-0.38v-5.98c0-0.21,0.17-0.38,0.38-0.38
							c0.21,0,0.38,0.17,0.38,0.38v5.98C168.7,293.77,168.53,293.94,168.32,293.94z"/>
					</g>
					<g>
						<path style="fill:#27DEBF;" d="M171.01,295.49c-0.21,0-0.38-0.17-0.38-0.38v-5.98c0-0.21,0.17-0.38,0.38-0.38
							s0.38,0.17,0.38,0.38v5.98C171.38,295.32,171.22,295.49,171.01,295.49z"/>
					</g>
					<g>
						<path style="fill:#27DEBF;" d="M173.69,297.04c-0.21,0-0.38-0.17-0.38-0.38v-5.98c0-0.21,0.17-0.38,0.38-0.38
							c0.21,0,0.38,0.17,0.38,0.38v5.98C174.07,296.87,173.9,297.04,173.69,297.04z"/>
					</g>
					<g id="XMLID_34_">
						<path style="fill:#27DEBF;" d="M176.38,298.59c-0.21,0-0.38-0.17-0.38-0.38v-5.98c0-0.21,0.17-0.38,0.38-0.38
							s0.38,0.17,0.38,0.38v5.98C176.75,298.42,176.59,298.59,176.38,298.59z"/>
					</g>
				</g>
				<g id="XMLID_30_" style="opacity:0.2;">
					<g id="XMLID_45_">
						<path d="M152.21,284.63c-0.21,0-0.38-0.17-0.38-0.38v-5.98c0-0.21,0.17-0.38,0.38-0.38c0.21,0,0.38,0.17,0.38,0.38v5.98
							C152.59,284.47,152.42,284.63,152.21,284.63z"/>
					</g>
					<g>
						<path d="M154.9,286.19c-0.21,0-0.38-0.17-0.38-0.38v-5.98c0-0.21,0.17-0.38,0.38-0.38s0.38,0.17,0.38,0.38v5.98
							C155.27,286.02,155.1,286.19,154.9,286.19z"/>
					</g>
					<g>
						<path d="M157.58,287.74c-0.21,0-0.38-0.17-0.38-0.38v-5.98c0-0.21,0.17-0.38,0.38-0.38c0.21,0,0.38,0.17,0.38,0.38v5.98
							C157.96,287.57,157.79,287.74,157.58,287.74z"/>
					</g>
					<g>
						<path d="M160.27,289.29c-0.21,0-0.38-0.17-0.38-0.38v-5.98c0-0.21,0.17-0.38,0.38-0.38s0.38,0.17,0.38,0.38v5.98
							C160.64,289.12,160.47,289.29,160.27,289.29z"/>
					</g>
					<g>
						<path d="M162.95,290.84c-0.21,0-0.38-0.17-0.38-0.38v-5.98c0-0.21,0.17-0.38,0.38-0.38c0.21,0,0.38,0.17,0.38,0.38v5.98
							C163.33,290.67,163.16,290.84,162.95,290.84z"/>
					</g>
					<g>
						<path d="M165.64,292.39c-0.21,0-0.38-0.17-0.38-0.38v-5.98c0-0.21,0.17-0.38,0.38-0.38s0.38,0.17,0.38,0.38v5.98
							C166.01,292.22,165.84,292.39,165.64,292.39z"/>
					</g>
					<g>
						<path d="M168.32,293.94c-0.21,0-0.38-0.17-0.38-0.38v-5.98c0-0.21,0.17-0.38,0.38-0.38c0.21,0,0.38,0.17,0.38,0.38v5.98
							C168.7,293.77,168.53,293.94,168.32,293.94z"/>
					</g>
					<g>
						<path d="M171.01,295.49c-0.21,0-0.38-0.17-0.38-0.38v-5.98c0-0.21,0.17-0.38,0.38-0.38s0.38,0.17,0.38,0.38v5.98
							C171.38,295.32,171.22,295.49,171.01,295.49z"/>
					</g>
					<g>
						<path d="M173.69,297.04c-0.21,0-0.38-0.17-0.38-0.38v-5.98c0-0.21,0.17-0.38,0.38-0.38c0.21,0,0.38,0.17,0.38,0.38v5.98
							C174.07,296.87,173.9,297.04,173.69,297.04z"/>
					</g>
					<g id="XMLID_44_">
						<path d="M176.38,298.59c-0.21,0-0.38-0.17-0.38-0.38v-5.98c0-0.21,0.17-0.38,0.38-0.38s0.38,0.17,0.38,0.38v5.98
							C176.75,298.42,176.59,298.59,176.38,298.59z"/>
					</g>
				</g>
			</g>
		</g>
	</g>
	<g id="XMLID_18755_">
		<path style="fill:#27DEBF;" d="M179.83,147.58v249.46c0,0.47,0.33,1.04,0.74,1.27l2.72,1.57l3.45-1.99V147.58
			c0-0.47-0.33-1.04-0.74-1.27l-1.98-1.14c-0.4-0.23-1.07-0.23-1.47,0l-1.98,1.14C180.16,146.54,179.83,147.11,179.83,147.58z"/>
	</g>
	<g id="XMLID_9_" style="opacity:0.2;">
		<path d="M179.83,147.58v249.46c0,0.47,0.33,1.04,0.74,1.27l2.72,1.57l3.45-1.99V147.58c0-0.47-0.33-1.04-0.74-1.27l-1.98-1.14
			c-0.4-0.23-1.07-0.23-1.47,0l-1.98,1.14C180.16,146.54,179.83,147.11,179.83,147.58z"/>
	</g>
	<path style="fill:#27DEBF;" d="M183.29,149.56l0,249.46c0,0.47-0.33,0.66-0.74,0.43l-1.98-1.14c-0.41-0.23-0.74-0.81-0.74-1.27
		V147.57c0-0.47,0.33-0.66,0.74-0.43l1.98,1.14C182.96,148.52,183.29,149.09,183.29,149.56z"/>
	<path style="opacity:0.3;fill:#FFFFFF;" d="M183.29,149.56l0,249.46c0,0.47-0.33,0.66-0.74,0.43l-1.98-1.14
		c-0.41-0.23-0.74-0.81-0.74-1.27V147.57c0-0.47,0.33-0.66,0.74-0.43l1.98,1.14C182.96,148.52,183.29,149.09,183.29,149.56z"/>
	<g>
		<path style="fill:#27DEBF;" d="M182.55,351.61l-5.43-3.14c-0.4-0.23-0.74-0.04-0.74,0.42l0,46.99l6.91,3.99l0-46.99
			C183.29,352.42,182.96,351.85,182.55,351.61z"/>
		<path style="opacity:0.3;fill:#FFFFFF;" d="M182.55,351.61l-5.43-3.14c-0.4-0.23-0.74-0.04-0.74,0.42l0,46.99l6.91,3.99l0-46.99
			C183.29,352.42,182.96,351.85,182.55,351.61z"/>
	</g>
	<g>
		<g id="XMLID_18677_">
			<g id="XMLID_18670_">
				<polygon style="fill:#27DEBF;" points="179.83,377.95 148.76,360.01 148.76,356.02 179.83,373.97 				"/>
			</g>
			<g id="XMLID_18671_">
				<g id="XMLID_18672_">
					<path style="fill:#27DEBF;" d="M178.16,393.39c-0.42,0-0.84-0.17-1.13-0.52l-27.67-31.87c-0.54-0.63-0.48-1.57,0.15-2.12
						c0.62-0.54,1.57-0.48,2.12,0.15l27.67,31.87c0.54,0.63,0.48,1.57-0.15,2.12C178.85,393.27,178.5,393.39,178.16,393.39z"/>
				</g>
				<g id="XMLID_18674_">
					<path style="fill:#27DEBF;" d="M150.46,377.47c-0.83,0-1.5-0.67-1.5-1.5c0-0.83,0.67-1.5,1.5-1.5l27.69-0.03c0,0,0,0,0,0
						c0.83,0,1.5,0.67,1.5,1.5c0,0.83-0.67,1.5-1.5,1.5L150.46,377.47L150.46,377.47z"/>
				</g>
				<g id="XMLID_18676_">
					<path style="fill:#27DEBF;" d="M178.16,374.62c-0.42,0-0.84-0.17-1.13-0.52l-27.67-31.87c-0.54-0.63-0.48-1.57,0.15-2.12
						c0.62-0.54,1.57-0.48,2.12,0.15l27.67,31.87c0.54,0.63,0.48,1.57-0.15,2.12C178.85,374.5,178.5,374.62,178.16,374.62z"/>
				</g>
				<g id="XMLID_18675_">
					<path style="fill:#27DEBF;" d="M150.46,358.7c-0.83,0-1.5-0.67-1.5-1.5c0-0.83,0.67-1.5,1.5-1.5l27.69-0.03c0,0,0,0,0,0
						c0.83,0,1.5,0.67,1.5,1.5c0,0.83-0.67,1.5-1.5,1.5L150.46,358.7L150.46,358.7z"/>
				</g>
			</g>
		</g>
		<g id="XMLID_22_" style="opacity:0.3;">
			<g id="XMLID_28_">
				<polygon style="fill:#FFFFFF;" points="179.83,377.95 148.76,360.01 148.76,356.02 179.83,373.97 				"/>
			</g>
			<g id="XMLID_23_">
				<g id="XMLID_27_">
					<path style="fill:#FFFFFF;" d="M178.16,393.39c-0.42,0-0.84-0.17-1.13-0.52l-27.67-31.87c-0.54-0.63-0.48-1.57,0.15-2.12
						c0.62-0.54,1.57-0.48,2.12,0.15l27.67,31.87c0.54,0.63,0.48,1.57-0.15,2.12C178.85,393.27,178.5,393.39,178.16,393.39z"/>
				</g>
				<g id="XMLID_26_">
					<path style="fill:#FFFFFF;" d="M150.46,377.47c-0.83,0-1.5-0.67-1.5-1.5c0-0.83,0.67-1.5,1.5-1.5l27.69-0.03c0,0,0,0,0,0
						c0.83,0,1.5,0.67,1.5,1.5c0,0.83-0.67,1.5-1.5,1.5L150.46,377.47L150.46,377.47z"/>
				</g>
				<g id="XMLID_25_">
					<path style="fill:#FFFFFF;" d="M178.16,374.62c-0.42,0-0.84-0.17-1.13-0.52l-27.67-31.87c-0.54-0.63-0.48-1.57,0.15-2.12
						c0.62-0.54,1.57-0.48,2.12,0.15l27.67,31.87c0.54,0.63,0.48,1.57-0.15,2.12C178.85,374.5,178.5,374.62,178.16,374.62z"/>
				</g>
				<g id="XMLID_24_">
					<path style="fill:#FFFFFF;" d="M150.46,358.7c-0.83,0-1.5-0.67-1.5-1.5c0-0.83,0.67-1.5,1.5-1.5l27.69-0.03c0,0,0,0,0,0
						c0.83,0,1.5,0.67,1.5,1.5c0,0.83-0.67,1.5-1.5,1.5L150.46,358.7L150.46,358.7z"/>
				</g>
			</g>
		</g>
	</g>
	<g id="XMLID_18678_">
		<g id="XMLID_18537_">
			<polygon style="fill:#455A64;" points="178.15,349.07 140.67,371.27 112.93,355.26 178.15,316.67 			"/>
		</g>
		<g id="XMLID_18222_">
			<polygon style="fill:#263238;" points="140.67,371.27 140.67,375.26 178.15,352.98 178.15,349.08 			"/>
		</g>
		<g id="XMLID_18542_">
			<polygon style="fill:#455A64;" points="140.67,375.26 112.93,359.24 112.93,355.26 140.67,371.27 			"/>
		</g>
	</g>
	<g id="XMLID_18983_">
		<path style="fill:#37474F;" d="M99.21,296.52c-0.33,0-0.66-0.17-0.85-0.47c-0.29-0.47-0.15-1.09,0.32-1.38
			c46.09-28.62,85.57-128.24,85.57-145.85c0-0.55,0.45-1,1-1c0.55,0,1,0.45,1,1c0,9.02-10.19,38.89-25.36,68.98
			c-11.12,22.07-33.86,61.61-61.15,78.56C99.58,296.47,99.39,296.52,99.21,296.52z"/>
	</g>
	<g id="XMLID_18954_">
		<path style="fill:#37474F;" d="M264.47,293.28c-4.53,0-9.12-1.33-13.74-4c-37.26-21.51-66.46-124.36-66.46-140.17
			c0-0.55,0.45-1,1-1c0.55,0,1,0.45,1,1c0,7.44,7.42,37.19,19.04,66.86c10.34,26.39,26.78,60.24,46.43,71.58
			c8.33,4.81,16.54,4.95,24.38,0.42c25.23-14.57,47.43-76.03,61.6-125.02c15.82-54.66,25.85-108.82,25.85-117.04c0-0.55,0.45-1,1-1
			c0.55,0,1,0.45,1,1c0,8.55-9.79,61.85-25.92,117.6c-14.28,49.35-36.71,111.3-62.52,126.2
			C272.97,292.08,268.75,293.28,264.47,293.28z"/>
	</g>
	<g id="XMLID_19017_">
		<path style="fill:#37474F;" d="M70.19,279.77c-0.29,0-0.57-0.12-0.77-0.36c-0.35-0.43-0.29-1.06,0.13-1.41
			c43.04-35.57,76.48-123.87,76.48-139.26c0-0.55,0.45-1,1-1c0.55,0,1,0.45,1,1c0,15.58-33.76,104.89-77.2,140.8
			C70.64,279.69,70.42,279.77,70.19,279.77z"/>
	</g>
</g>
</svg>
