<?xml version="1.0" encoding="utf-8"?>
<!-- Generator: Adobe Illustrator 22.1.0, SVG Export Plug-In . SVG Version: 6.00 Build 0)  -->
<svg version="1.1" xmlns="http://www.w3.org/2000/svg" xmlns:xlink="http://www.w3.org/1999/xlink" x="0px" y="0px"
	 viewBox="0 0 500 500" style="enable-background:new 0 0 500 500;" xml:space="preserve">
<g id="Floor">
	<path id="Floor_17_" style="fill:#F0F0F0;" d="M81.86,441.01c91.22,48.72,239.11,48.72,330.32,0c91.22-48.72,91.22-127.71,0-176.43
		c-91.22-48.72-239.11-48.72-330.33,0C-9.36,313.29-9.36,392.29,81.86,441.01z"/>
</g>
<g id="Shadows">
	<ellipse id="Shadow_23_" style="fill:#E0E0E0;" cx="415.59" cy="374.7" rx="39.87" ry="23.02"/>
	<ellipse id="Shadow_24_" style="fill:#E0E0E0;" cx="169.49" cy="378.8" rx="39.87" ry="23.02"/>
</g>
<g id="Envelope">
	<g id="XMLID_2837_">
		<g id="Letter_1_">
			<g id="XMLID_3678_">
				<g id="XMLID_3679_">
					<path id="XMLID_3680_" style="fill:#27DEBF;" d="M37.65,221.86c0-2.24,1.58-4.97,3.52-6.1l180.03-103.94
						c1.94-1.12,5.09-1.12,7.04,0l3.97,2.29c1.94,1.12,3.52,3.85,3.52,6.1v138c0,2.23-1.58,4.98-3.52,6.1L52.17,368.24
						c-1.94,1.12-5.1,1.12-7.04,0l-3.97-2.29c-1.94-1.12-3.52-3.86-3.52-6.1L37.65,221.86z"/>
				</g>
			</g>
			<path id="XMLID_3682_" style="fill:#27DEBF;" d="M228.23,111.82l-88.94-44.6c-4.48-2.76-10.36-1.22-12.92,3.38l-87.7,147.79
				l4.65,2.68L232.8,114.52L228.23,111.82z"/>
			<path id="XMLID_3677_" style="opacity:0.1;" d="M228.23,111.82l-88.94-44.6c-4.48-2.76-10.36-1.22-12.92,3.38l-87.7,147.79
				l4.65,2.68L232.8,114.52L228.23,111.82z"/>
			<path id="XMLID_3676_" style="opacity:0.1;" d="M37.64,221.85v137.99c0,2.25,1.58,4.98,3.53,6.09l3.96,2.3
				c0.3,0.17,0.62,0.32,0.97,0.43c0.45,0.15,0.93,0.27,1.45,0.33c0.92,0.12,1.88,0.08,2.78-0.1c0.23-0.05,0.47-0.12,0.68-0.18
				c0.15-0.05,0.28-0.1,0.42-0.17c-0.65,0.23-1.22,0.2-1.68-0.03c-0.67-0.35-1.08-1.15-1.08-2.31V228.21c0-1.45,0.73-2.55,1.83-3
				l-1.83-1.07l-9.99-5.76C38.04,219.49,37.64,220.74,37.64,221.85z"/>
			<path id="XMLID_3691_" style="opacity:0.1;" d="M234.89,117.1l-81.13,129.83l-3.99-0.78c-6.25-1.22-12.64,1.3-16.38,6.45
				l-4.92,6.78L50.5,225.21l-7.17-4.14l189.48-106.55C233.69,115.24,234.38,116.1,234.89,117.1z"/>
		</g>
		<path id="XMLID_3683_" style="fill:#27DEBF;" d="M232.8,114.52c-0.21-0.19-0.83-0.55-1.53-0.94L143.95,69.9
			c-4.48-2.76-10.36-1.22-12.92,3.38l-87.7,147.79L232.8,114.52z"/>
		<path id="XMLID_3687_" style="opacity:0.2;" d="M234.06,262.59c0.97-1.27,1.63-2.89,1.65-4.31l-81.96-11.35L234.06,262.59z"/>
		<path id="XMLID_3219_" style="opacity:0.2;" d="M128.47,259.38L49.43,368.29c-0.48-0.41-0.76-1.12-0.76-2.08v-1.5L128.47,259.38z"
			/>
	</g>
</g>
<g id="Clouds">
	<path id="XMLID_4026_" style="fill:#EBEBEB;" d="M405.55,43.49l6.95,4.01c-0.03-0.31-0.06-0.62-0.06-0.92v-2.01
		c0-3.58,2.52-5.04,5.62-3.24c1.26,0.73,2.41,1.88,3.35,3.22c0.51-4.51,4.04-6.19,8.34-3.71c4.64,2.68,8.41,9.2,8.41,14.56v3.01
		c0,1.39-0.26,2.56-0.71,3.49l5.77,3.33c1.72,0.99,3.12,3.41,3.12,5.4c0,1.99-1.4,2.79-3.12,1.8l-37.67-21.75
		c-1.72-0.99-3.12-3.41-3.12-5.4C402.44,43.3,403.83,42.5,405.55,43.49z"/>
	<path id="XMLID_3811_" style="fill:#EBEBEB;" d="M375.8,63.74l5.25,3.03c-0.03-0.23-0.04-0.47-0.04-0.69v-1.52
		c0-2.7,1.9-3.8,4.24-2.45c0.95,0.55,1.82,1.42,2.53,2.43c0.38-3.4,3.05-4.67,6.29-2.8c3.5,2.02,6.35,6.94,6.35,10.99v2.27
		c0,1.05-0.19,1.93-0.54,2.63l4.36,2.52c1.3,0.75,2.35,2.57,2.35,4.07s-1.05,2.11-2.35,1.36L375.8,69.18
		c-1.3-0.75-2.35-2.57-2.35-4.07C373.45,63.6,374.51,62.99,375.8,63.74z"/>
</g>
<g id="Character_2">
	<g id="Character_9_">
		<g id="XMLID_3546_">
			<path id="XMLID_3565_" style="fill:#FFA8A7;" d="M395.11,219.17c12.23-10.5,23.66-34.45,20.4-41.92
				c-5.64-0.29-9.75,1.85-13.38,8.51c0,0-10.28,20.01-16.05,25.89c-4.67,4.76-10.32,8.89-18.01,11.22c-0.95,0.29-3.57,0.2-4.52-0.09
				c-2.55-0.78-3.97-0.11-6.43-0.23c-1.93-0.09-2.93-0.72-3.15-0.3c-0.28,0.54-0.36,1.87,1.09,2.77c0.73,0.46,1.42,0.65,2.92,1.1
				c0,0-2.49,0.88-6.19,0.99c-5.01,0.15-7.12,1.8-2.76,6.47c2.15,2.3,7.84,3.7,15.56,1.62c2.6-0.7,6.52-2.43,9.65-3.79
				C384.38,227.04,390.96,222.57,395.11,219.17z"/>
		</g>
		<g id="XMLID_3430_">
			<path id="XMLID_3509_" style="fill:#263238;" d="M434.35,365.63v-1.25c-0.49,1.47-2.79,7.81-6.27,10.98
				c-2.77,2.52-6.54,5.44-7.5,8.25c-1,2.93,5.25,3.91,7.84,3.45c3-0.53,6.89-2.24,9.01-4.84c1.49-1.83,2.43-3.99,3.5-5.43
				c1.06-1.44,3.51-3.04,4.09-4.71c0.32-0.91-0.06-2.92-0.5-4.61c-0.41-1.55-0.85-3.26-1.38-3.11c0,0.19,0,0.96,0,0.96
				c-0.64,0.71-2.4,1.41-4.39,1.48C437.45,366.86,434.34,366.61,434.35,365.63z"/>
			<path id="XMLID_3508_" style="fill:#FFA8A7;" d="M425.57,377.58c0.86-0.77,1.72-1.51,2.51-2.23c2.43-2.22,4.29-5.98,5.35-8.55
				c0.61-1.47,0.92-3.03,0.92-4.62v-5h8.77v8.14v0v0v0.22l-0.04,0.02c-0.42,1.82-4.45,6.67-6.74,9.84
				c-1.53,2.12-4.45,4.82-7.93,5.28C425.11,381.12,423.43,380.08,425.57,377.58z"/>
			<path id="XMLID_3507_" style="fill:#263238;" d="M400.12,356.98v-1.25c-0.49,1.47-2.79,7.81-6.27,10.98
				c-2.77,2.52-6.54,5.44-7.5,8.25c-1,2.93,5.25,3.91,7.84,3.45c3-0.53,6.89-2.24,9.01-4.84c1.49-1.83,2.43-3.99,3.5-5.43
				c1.06-1.44,3.51-3.04,4.09-4.71c0.32-0.91-0.06-2.92-0.5-4.61c-0.41-1.55-0.85-3.26-1.38-3.11c0,0.19,0,0.96,0,0.96
				c-0.64,0.71-2.4,1.41-4.39,1.48C403.23,358.21,400.11,357.96,400.12,356.98z"/>
			<path id="XMLID_3506_" style="fill:#FFA8A7;" d="M391.35,368.93c0.86-0.77,1.72-1.51,2.51-2.23c2.43-2.22,4.29-5.98,5.35-8.55
				c0.61-1.47,0.92-3.03,0.92-4.62v-5h8.77v8.14v0v0v0.22l-0.04,0.02c-0.42,1.82-4.45,6.67-6.74,9.84
				c-1.53,2.12-4.45,4.82-7.93,5.28C390.89,372.47,389.2,371.43,391.35,368.93z"/>
			<path id="XMLID_3432_" style="fill:#27DEBF;" d="M441.38,229.27c6.8,14.86-0.25,67.19-0.25,67.19c0.2,2.41,2.96,7.16,3.99,17.77
				c1.21,12.54-1.9,44.02-1.9,44.02s-4.06,2.66-8.87,0.35c0,0-8.36-47.41-9.93-59.88c-1.37-10.88-4.01-34.8-4.01-34.8l-7.49,34.74
				c0,0,1.92,6.09,2.37,10.74c0.71,7.33-6.39,41.47-6.39,41.47s-3.03,1.11-8.77,0.26c0,0-2.51-45.3-3.18-54.14
				c-1.11-14.83,2.83-61.12,5.55-69.9L441.38,229.27z"/>
			<path id="XMLID_3431_" style="opacity:0.15;" d="M420.41,263.92l-2.21-13.8c0,0-9.34-1.94-13.58-5.92c0,0,4.45,5.53,11.05,7.34
				l2.48,10.62l-4.34,32.17L420.41,263.92z"/>
		</g>
		<g id="XMLID_3408_">
			<path id="XMLID_3428_" style="fill:#F0F0F0;" d="M429.38,177.65L429.38,177.65c8.72,0.6,9.33,4.81,11.51,9.42
				c1.66,3.51,1.68,7.57,0.41,11.24l-6.08,17.58c0,0,2.85,6.88,6.15,13.38c-15.25,8.51-34.29,4.04-38.88-2.17
				c-0.19-1.32,0.98-11.62,1.71-18.35c-2.69-6.74-3.39-11.01-2.26-15.46c2.1-8.27,10.27-16.32,13.88-16.03L429.38,177.65z"/>
			<g id="XMLID_3412_">
				<g id="XMLID_3510_">
					<path id="XMLID_3511_" style="fill:#263238;" d="M402.17,175.17h31.81c3.99,0,7.22-3.23,7.22-7.22V152.6
						c0-9.9-8.02-17.92-17.92-17.92h-3.19c-9.9,0-17.92,8.02-17.92,17.92V175.17z"/>
				</g>
				<path id="XMLID_3427_" style="fill:#263238;" d="M438.6,137l-2.64,4.24c1.17,0.78,2.71,0.47,3.44-0.7
					C440.13,139.36,439.77,137.78,438.6,137z"/>
				<path id="XMLID_3557_" style="fill:#263238;" d="M442.24,140.88l-4.94,0.74c0.16,1.4,1.4,2.37,2.77,2.16
					C441.43,143.57,442.4,142.28,442.24,140.88z"/>
				<g id="XMLID_3425_">
					<path id="XMLID_3426_" style="fill:#FFA8A7;" d="M409.58,142.57c-2.06,1.22-4.61,6.4-4.36,17.27c0.21,9.21,3.2,11.49,4.7,12.14
						c1.5,0.66,4.39,0.26,7.2-0.21v5.53c0,0-3.89,4.51-3.64,7.05c0.24,2.54,5.61,3.13,9.25,0.66c3.64-2.48,5.97-6.25,5.97-6.25
						V165.4c0,0,1.9,2.53,5,0.47c3.1-2.06,3.22-7.16,1.42-9c-1.8-1.83-5.69-1.25-6.42,1.28c0,0-4.48,0.16-10.45-3.12
						C412.27,151.76,409.98,146.14,409.58,142.57z"/>
				</g>
				<g id="XMLID_3423_">
					<path id="XMLID_3424_" style="fill:#263238;" d="M416.54,157.53c-0.03,0.66,0.46,1.23,1.1,1.26c0.64,0.03,1.18-0.48,1.22-1.15
						c0.03-0.66-0.46-1.23-1.1-1.26C417.12,156.35,416.57,156.87,416.54,157.53z"/>
				</g>
				<g id="XMLID_3421_">
					<path id="XMLID_3422_" style="fill:#F28F8F;" d="M415.2,165.34l-2.69,0.86c0.22,0.77,1.01,1.2,1.75,0.97
						C415,166.93,415.42,166.11,415.2,165.34z"/>
				</g>
				<g id="XMLID_3419_">
					<path id="XMLID_3420_" style="fill:#263238;" d="M407.04,153.97l2.34-1.62c-0.43-0.67-1.3-0.85-1.95-0.4
						C406.79,152.4,406.61,153.3,407.04,153.97z"/>
				</g>
				<g id="XMLID_3417_">
					<path id="XMLID_3418_" style="fill:#263238;" d="M407.58,156.69c-0.03,0.66,0.46,1.23,1.1,1.26c0.64,0.03,1.18-0.48,1.22-1.15
						c0.03-0.66-0.46-1.23-1.1-1.26C408.16,155.51,407.61,156.03,407.58,156.69z"/>
				</g>
				<g id="XMLID_3415_">
					<polygon id="XMLID_3416_" style="fill:#F28F8F;" points="413.24,156.03 413.06,163 409.39,161.87 					"/>
				</g>
				<g id="XMLID_3413_">
					<path id="XMLID_3414_" style="fill:#F28F8F;" d="M417.12,171.78c2.96-0.39,9.06-2.14,10.01-4.55c0,0-0.32,1.51-2.14,3.07
						c-1.82,1.56-7.87,3.32-7.87,3.32V171.78z"/>
				</g>
			</g>
			<path id="XMLID_3411_" style="fill:#E6E6E6;" d="M425.48,230.92c5.01-1.19,8.19-6.25,6.86-11.23c-0.05-0.19-0.1-0.35-0.16-0.48
				c-0.98-2.36-3.09-2.05-3.09-2.05l0,0c1.98-1.31,3.35-3.36,3.81-5.68l1.85-11.02c0,0,0.41-2.44-0.47-5.34l6.13-7.09
				c0,0,0.44,0.31,1.13,0.79c0.96,3.07,0.81,6.42-0.25,9.5l-6.08,17.58c0,0,2.85,6.88,6.15,13.38c-11.24,6.27-24.53,5.49-32.59,2.16
				C415.15,232.41,421.05,231.96,425.48,230.92z"/>
			<g id="XMLID_3409_">
				<path id="XMLID_3410_" style="fill:#FFA8A7;" d="M456.99,221.41c-7.92-32.37-13.77-43.16-23.39-43.03
					c-2.81,3.36-2.03,13.49,2.41,19.65c0,0,9.89,20.87,11.47,28.29c1.39,6.52,2.96,14.72,2.86,20.33c-0.02,0.99-0.43,1.94-1.1,2.67
					c-1.81,1.96-1.81,3.54-2.98,5.7c-0.92,1.7-1.92,2.33-1.63,2.71c0.37,0.49,1.53,1.13,2.97,0.22c0.73-0.46,1.2-1,2.25-2.16
					c0,0-0.29,2.63-1.79,6c-2.03,4.58-1.54,6.92,4.65,5.28c3.87-1.02,6.31-4.25,6.89-13.56c0.17-2.68,0.42-6.91,0.1-10.3
					C458.86,234.38,458.26,226.62,456.99,221.41z"/>
			</g>
		</g>
	</g>
</g>
<g id="Character_1">
	<g id="XMLID_3429_">
		<g id="XMLID_3221_">
			<g id="Character_boy_3_">
				<g id="XMLID_3296_">
					<g id="XMLID_3298_">
						<path id="XMLID_3299_" style="fill:#B16668;" d="M233.6,199.07c-1.52,1.26-3.26,1.9-5.26,3.85c-1.76,1.71-2.52,2.39-4.65,3.23
							c-2.31,0.91-4.48,0.64-10.88-0.38c-7.83-1.25-11.2-2.57-14.58-5.45c-3.95-3.37-12.79-13.54-17.06-17.53
							c-4.52-4.22-10.73-2.59-10.73-2.59s2.56,9.16,8.48,17.58c3.42,4.87,9.81,9.53,12.71,11.94c4.63,3.85,7.09,5.37,17.25,6.14
							c7.67,0.58,8.69,0.76,14.96,0.58c2.27-0.07,3.68-0.09,7.4-0.4c1.84-0.15,3.34-0.38,4.77-0.83c1.82-0.57,3.4-0.91,4.98-1.97
							c2-1.34,3.71-3.15,4.74-5.33c0.57-1.2,0.92-2.51,0.88-3.83c-0.04-1.32-0.49-2.65-1.38-3.63c-0.18-0.2-0.39-0.39-0.64-0.47
							c-0.46-0.15-0.95,0.08-1.38,0.3c-2.41,1.23-4.82,2.93-7.34,3.9c-2.13,0.82-3.74,1.1-3.58,0.68c0.16-0.43,1.44-0.82,2.76-2.31
							c1.26-1.42,1.65-3.56,0.8-4.21C234.98,197.67,235.13,197.81,233.6,199.07z"/>
					</g>
					<path id="XMLID_3297_" style="fill:#455A64;" d="M168.61,180.16c0,0,3.82-1.98,7.77-0.84c3.95,1.14,7.12,3.72,10.89,7.77
						c3.77,4.05,10.13,10.59,10.13,10.59s-3.13,7.93-10.17,10.75l-14.76-13.65L168.61,180.16z"/>
				</g>
				<g id="Character_boy_4_">
					<g id="XMLID_3232_">
						
							<rect id="XMLID_3295_" x="146.93" y="361.37" transform="matrix(-1 -1.224647e-16 1.224647e-16 -1 302.804 738.0491)" style="fill:#B16668;" width="8.95" height="15.32"/>
						<polygon id="XMLID_3282_" style="fill:#B16668;" points="171.69,365.22 180.63,365.53 181.08,349.32 171.69,349.01 						"/>
						<path id="XMLID_3278_" style="fill:#37474F;" d="M143.12,246.99c0,8.54,1.51,58.24,1.51,58.24
							c-0.21,2.46-2.58,6.83-2.76,15.69c-0.27,12.84,4.68,48.11,4.68,48.11s4.34,2.54,9.96,0.2c0,0,4.06-47.8,5.66-60.51
							c1.4-11.09,3.77-41.23,3.77-41.23l4.21,36.22c0,0-1.65,6.62-1.11,14.22c0.42,5.88,2.07,42.29,2.07,42.29s4.21,2.86,10.33,0.79
							c0,0,6.31-51.9,6.41-57.3c0.12-6.15-2.34-68.94-2.34-68.94L143.12,246.99z"/>
						<path id="XMLID_3277_" style="fill:#F0F0F0;" d="M149,184.13c-1.97,0.88-3.52,2.48-4.31,4.49c-0.7,1.79-1.31,4.32-1.31,7.73
							v17.53l-0.26,33.1c12.84,6.77,29.17,7.22,42.87-2.78c0,0-0.76-42.61-0.76-49.58c0-0.32-0.01-0.63-0.02-0.96
							c-0.5-9.96-10.3-16.79-19.95-14.3l-8.11,2.09L149,184.13L149,184.13z"/>
						<g id="XMLID_3245_">
							<g id="XMLID_3255_">
								
									<ellipse id="XMLID_3262_" transform="matrix(0.2298 -0.9732 0.9732 0.2298 -15.0113 284.0807)" style="fill:#263238;" cx="171.97" cy="151.52" rx="12.3" ry="12.3"/>
								<path id="XMLID_3261_" style="fill:#263238;" d="M150.71,160.27c0,0,1.99,9.36,2.79,10.9c0.8,1.54,2.45,1.98,2.45,1.98
									l-0.14-6.59L150.71,160.27z"/>
								<path id="XMLID_3260_" style="fill:#263238;" d="M153.21,146.86c0,0-2.15-0.37-3.82,1.34c-1.64,1.68-0.72,6.93,1.32,12.07
									l3.75,0.43L153.21,146.86z"/>
								<path id="XMLID_3259_" style="fill:#B16668;" d="M155.59,160.7c-0.75,0.45-1.83-1-2.75-1.97c-0.93-0.97-3.96-2.3-5.47,0.89
									c-1.54,3.25,1.33,7.53,3.72,8.28c4.11,1.29,4.73-1.35,4.73-1.35l0.3,15.28l0,0c5.11,6.55,19.3,6,13.39-0.85l-0.01-4.51
									c0,0,3.72,0.57,5.54,0.28c3.02-0.47,4.93-2.85,5.84-6.13c1.47-5.26,2.03-9.5,0.78-19.84c-1.37-11.33-14.55-11.45-21.67-6.97
									C152.88,148.31,155.59,160.7,155.59,160.7z"/>
								<path id="XMLID_3258_" style="fill:#263238;" d="M155.59,161.97c-0.38,0.01-1.82-2.38-2.75-3.23
									c-1.3-1.18,0.38-11.88,0.38-11.88s-1.25-2.66,1.25-5.41c1.78-1.96,3.71-3.19,8.84-3.47c3-0.16,7.8,0.31,10.5,0.49
									c5.06,0.34,6.93-0.9,9.84-1.72c2.23-0.62,2.48,7.41-3.14,10.07c0,0-1.83,1.18-6.65,1.77c-4.82,0.59-12.32-0.11-13.34-0.25
									c-1.4-0.19-1.69,1.16-2.45,4.86C157.41,156.44,156.87,161.94,155.59,161.97z"/>
								<path id="XMLID_3257_" style="fill:#263238;" d="M153.22,147.69l-4.55-2.44c0.65-1.3,2.19-1.81,3.44-1.14
									C153.37,144.78,153.87,146.38,153.22,147.69z"/>
								<path id="XMLID_3256_" style="fill:#9A4A4D;" d="M169.49,176.48c0,0-6.75-1.36-9.11-2.61c-1.58-0.84-2.88-2.29-3.26-3.23
									c0,0,0.44,2,1.85,3.81c1.73,2.21,10.52,3.83,10.52,3.83L169.49,176.48z"/>
							</g>
							<g id="XMLID_3246_">
								<path id="XMLID_3254_" style="fill:#263238;" d="M169.16,159.01c0,0.78-0.61,1.4-1.35,1.4c-0.75,0-1.35-0.63-1.35-1.41
									c0-0.78,0.61-1.4,1.35-1.4C168.56,157.61,169.16,158.24,169.16,159.01z"/>
								<path id="XMLID_3253_" style="fill:#263238;" d="M167.73,153.91l-2.89,1.6c-0.43-0.83-0.12-1.86,0.67-2.3
									C166.31,152.76,167.3,153.08,167.73,153.91z"/>
								<path id="XMLID_3252_" style="fill:#9A4A4D;" d="M168.88,168.36l3.09,1.16c-0.31,0.88-1.24,1.34-2.1,1.02
									C169.02,170.22,168.58,169.24,168.88,168.36z"/>
								<path id="XMLID_3251_" style="fill:#263238;" d="M180.83,155.03l-2.64-2.03c0.54-0.76,1.56-0.91,2.29-0.35
									C181.22,153.21,181.37,154.28,180.83,155.03z"/>
								<path id="XMLID_3250_" style="fill:#263238;" d="M180.02,158.63c0,0.78-0.61,1.4-1.35,1.4c-0.75,0-1.35-0.63-1.35-1.41
									c0-0.78,0.61-1.4,1.35-1.4C179.41,157.22,180.02,157.85,180.02,158.63z"/>
								<polygon id="XMLID_3249_" style="fill:#9A4A4D;" points="173.13,157.35 173.57,165.48 177.82,164.03 								"/>
							</g>
						</g>
						<path id="XMLID_3244_" style="fill:#263238;" d="M155.88,372.27v-1.28c0.86,0.37,2.85,7.96,6.4,11.2
							c2.82,2.57,6.67,5.55,7.65,8.42c1.02,2.98-5.36,4.63-8,4.17c-3.06-0.54-8.37-2.7-9.71-4.7c-1.33-2-1.96-4.95-3.04-6.42
							c-1.08-1.47-3.58-3.1-4.17-4.8c-0.32-0.93,0.06-2.97,0.51-4.7c0.41-1.58,0.86-3.32,1.4-3.17c0,0.19,0,0.98,0,0.98
							c0.65,0.72,2.45,1.43,4.47,1.51C152.71,373.52,155.89,373.27,155.88,372.27z"/>
						<path id="XMLID_3243_" style="fill:#263238;" d="M180.73,362.77c0.46,0.02,0.84,0.67,1.87,1.78c1.24,1.34,3.26,2.79,5.26,3.79
							c3.35,1.68,9.86,4.26,12.81,5.59c1.84,0.83,1.76,3.05-0.15,4.32c-1.9,1.27-6.5,2.18-12.02,0.94c-3.01-0.67-6.92-3.45-9.4-3.3
							c-2.48,0.15-7.11,0.11-8.94-1.15c-1.83-1.26-1.1-3.95-0.58-6.27c0.56-2.52,1.27-6.46,2.11-6.29v0.87
							c1.08,1.63,6.63,2.29,8.99,1.09L180.73,362.77z"/>
						<path id="XMLID_3242_" style="fill:#263238;" d="M165.94,267.47c0,0,7.15-2.01,12.46-7.14c0,0-2.4,4.5-9.55,8.69l0.95,31.63
							L165.94,267.47z"/>
					</g>
				</g>
			</g>
		</g>
		<g id="XMLID_626_">
			<g id="XMLID_2909_">
				<path id="XMLID_3082_" style="fill:#FAFAFA;" d="M340.42,77.92c-0.15-1.12-1.06-1.53-2.14-0.9l-117.53,67.87
					c-0.59,0.34-1.13,0.94-1.53,1.62l-4.06-2.35c0.4-0.68,0.93-1.27,1.53-1.61l117.53-67.87c1.19-0.69,3.07-0.73,4.19-0.08
					C339.44,75.2,340.29,76.62,340.42,77.92z"/>
				<path id="XMLID_3085_" style="fill:#E0E0E0;" d="M220.34,360.85c-0.08,0.04-0.73,0.26-1.28,0.32c-0.9,0.1-1.84-0.04-2.52-0.43
					c-1.12-0.65-2.03-2.29-2.03-3.67V146.3c0-0.09,0-0.17,0.01-0.26c0.02-0.18,0.05-0.36,0.09-0.54c0.11-0.45,0.3-0.91,0.54-1.34
					l4.06,2.35c-0.39,0.68-0.63,1.44-0.63,2.13V359.4c0,0.98,0.49,1.55,1.19,1.55c0.09,0,0.19-0.01,0.28-0.03
					C220.15,360.9,220.25,360.89,220.34,360.85z"/>
				<path id="XMLID_2908_" style="fill:#FAFAFA;" d="M218.59,148.65c0,22.4,0,188.36,0,210.76c0,1.38,0.97,1.94,2.17,1.25
					l117.53-67.87c1.2-0.69,2.17-2.37,2.17-3.75l0-210.76c0-1.38-0.97-1.94-2.17-1.25L220.75,144.9
					C219.55,145.59,218.59,147.26,218.59,148.65z"/>
			</g>
			<g id="XMLID_2950_">
				<g id="XMLID_2922_">
					<path id="XMLID_627_" style="fill:#27DEBF;" d="M240.86,175.76c-0.16-0.16-0.24-0.5-0.24-1.02v-21.15
						c0-0.52,0.08-0.96,0.24-1.32c0.16-0.36,0.43-0.64,0.8-0.85l1.74-1c0.39-0.22,0.66-0.25,0.81-0.09
						c0.15,0.16,0.23,0.51,0.23,1.06v21.15c0,0.52-0.08,0.95-0.23,1.29c-0.15,0.34-0.42,0.62-0.81,0.84l-1.74,1
						C241.29,175.88,241.02,175.91,240.86,175.76z"/>
					<path id="XMLID_2927_" style="fill:#27DEBF;" d="M247.62,171.85c-0.16-0.16-0.24-0.5-0.24-1.02v-21.19
						c0-0.52,0.08-0.96,0.24-1.3c0.16-0.34,0.44-0.63,0.82-0.85l1.44-0.83c0.26-0.15,0.46-0.21,0.59-0.18
						c0.13,0.03,0.27,0.16,0.43,0.38l6.49,10.34V143.9c0-0.52,0.08-0.96,0.24-1.32c0.16-0.36,0.43-0.64,0.8-0.85l1.74-1
						c0.39-0.22,0.66-0.25,0.81-0.09c0.15,0.16,0.23,0.51,0.23,1.06v21.15c0,0.52-0.08,0.96-0.23,1.29
						c-0.15,0.34-0.42,0.62-0.81,0.84l-1.46,0.84c-0.25,0.14-0.44,0.2-0.57,0.17c-0.13-0.03-0.27-0.16-0.43-0.38l-6.51-10.29v13.3
						c0,0.52-0.08,0.95-0.23,1.29c-0.15,0.34-0.42,0.62-0.81,0.84l-1.74,1C248.05,171.98,247.78,172.01,247.62,171.85z"/>
					<path id="XMLID_2935_" style="fill:#27DEBF;" d="M269.99,159.1c-0.12-0.07-0.24-0.28-0.35-0.62l-5.86-18.66
						c-0.05-0.19-0.07-0.36-0.07-0.53c0-0.4,0.14-0.69,0.42-0.85l2.78-1.6c0.22-0.12,0.38-0.15,0.5-0.07
						c0.12,0.08,0.21,0.23,0.27,0.45l3.71,13.16l3.71-17.44c0.12-0.62,0.39-1.04,0.79-1.28l2.78-1.6c0.28-0.16,0.42-0.04,0.42,0.37
						c0,0.17-0.02,0.37-0.07,0.61l-5.84,25.42c-0.11,0.47-0.23,0.81-0.36,1.03c-0.13,0.22-0.32,0.4-0.57,0.54l-1.69,0.98
						C270.3,159.13,270.11,159.17,269.99,159.1z"/>
					<path id="XMLID_2937_" style="fill:#27DEBF;" d="M281.82,152.11c-0.16-0.16-0.24-0.5-0.24-1.02v-21.15
						c0-0.52,0.08-0.96,0.24-1.32c0.16-0.36,0.43-0.64,0.8-0.85l1.74-1c0.39-0.22,0.66-0.25,0.81-0.09
						c0.15,0.16,0.23,0.51,0.23,1.06v21.15c0,0.52-0.08,0.95-0.23,1.29c-0.15,0.34-0.42,0.62-0.81,0.84l-1.74,1
						C282.25,152.23,281.98,152.26,281.82,152.11z"/>
					<path id="XMLID_2939_" style="fill:#27DEBF;" d="M292.43,145.98c-0.16-0.16-0.24-0.5-0.24-1.02v-18.37l-3.8,2.19
						c-0.37,0.21-0.63,0.25-0.76,0.1c-0.14-0.15-0.21-0.49-0.21-1.04v-1.32c0-0.55,0.07-0.98,0.21-1.3c0.14-0.32,0.39-0.58,0.76-0.8
						l11.45-6.61c0.37-0.21,0.63-0.24,0.78-0.09c0.15,0.15,0.22,0.5,0.22,1.05v1.32c0,0.52-0.07,0.95-0.22,1.27
						c-0.15,0.32-0.41,0.59-0.78,0.8l-3.8,2.19v18.37c0,0.52-0.08,0.96-0.24,1.3c-0.16,0.34-0.44,0.63-0.82,0.85l-1.71,0.99
						C292.86,146.1,292.59,146.14,292.43,145.98z"/>
					<path id="XMLID_2945_" style="fill:#27DEBF;" d="M303.09,139.83c-0.16-0.16-0.24-0.5-0.24-1.02v-21.15
						c0-0.52,0.08-0.96,0.24-1.32c0.16-0.36,0.43-0.64,0.8-0.85l9.62-5.55c0.37-0.21,0.62-0.25,0.76-0.1
						c0.14,0.15,0.21,0.49,0.21,1.04v1.32c0,0.55-0.07,0.98-0.21,1.3c-0.14,0.32-0.39,0.58-0.76,0.8l-6.84,3.95v5.64l4.77-2.76
						c0.37-0.21,0.62-0.25,0.76-0.1c0.14,0.15,0.21,0.49,0.21,1.04v1.25c0,0.55-0.07,0.98-0.21,1.3c-0.14,0.32-0.39,0.58-0.76,0.8
						l-4.77,2.76v5.67l6.81-3.93c0.37-0.21,0.63-0.24,0.76-0.08c0.14,0.16,0.21,0.51,0.21,1.06v1.28c0,0.55-0.07,0.97-0.21,1.28
						c-0.14,0.31-0.39,0.57-0.76,0.78l-9.59,5.54C303.52,139.96,303.25,139.98,303.09,139.83z"/>
				</g>
				<g id="XMLID_625_">
					<path id="XMLID_616_" style="fill:#E0E0E0;" d="M241.06,193.63l76.91-44.41c1.2-0.69,2.16-0.13,2.16,1.25l0,2.04
						c0,1.38-0.97,3.06-2.17,3.75l-76.91,44.4c-1.2,0.69-2.16,0.13-2.16-1.25v-2.04C238.89,196,239.86,194.32,241.06,193.63z"/>
					<path id="XMLID_618_" style="fill:#E6E6E6;" d="M253.25,208.79l52.54-30.33c1.2-0.69,2.16-0.13,2.16,1.25l0,2.04
						c0,1.38-0.97,3.06-2.17,3.75l-52.54,30.33c-1.2,0.69-2.17,0.13-2.17-1.25v-2.04C251.08,211.16,252.05,209.48,253.25,208.79z"/>
					<path id="XMLID_619_" style="fill:#E6E6E6;" d="M253.25,223.05l52.54-30.33c1.2-0.69,2.16-0.13,2.16,1.25l0,2.04
						c0,1.38-0.97,3.06-2.17,3.75l-52.54,30.33c-1.2,0.69-2.17,0.13-2.17-1.25v-2.04C251.08,225.42,252.05,223.74,253.25,223.05z"/>
					<path id="XMLID_620_" style="fill:#E6E6E6;" d="M253.25,237.32l52.54-30.33c1.2-0.69,2.16-0.13,2.16,1.25l0,2.04
						c0,1.38-0.97,3.06-2.17,3.75l-52.54,30.33c-1.2,0.69-2.17,0.13-2.17-1.25v-2.04C251.08,239.69,252.05,238.01,253.25,237.32z"/>
				</g>
				<g id="XMLID_617_">
					<path id="XMLID_624_" style="fill:#E0E0E0;" d="M241.06,266.85l76.91-44.41c1.2-0.69,2.16-0.13,2.16,1.25l0,2.04
						c0,1.38-0.97,3.06-2.17,3.75l-76.91,44.4c-1.2,0.69-2.16,0.13-2.16-1.25v-2.04C238.89,269.22,239.86,267.54,241.06,266.85z"/>
					<path id="XMLID_623_" style="fill:#E6E6E6;" d="M253.25,282.07l52.54-30.33c1.2-0.69,2.16-0.13,2.16,1.25l0,2.04
						c0,1.38-0.97,3.06-2.17,3.75l-52.54,30.33c-1.2,0.69-2.17,0.13-2.17-1.25v-2.04C251.08,284.44,252.05,282.76,253.25,282.07z"/>
					<path id="XMLID_622_" style="fill:#E6E6E6;" d="M253.25,296.33l52.54-30.33c1.2-0.69,2.16-0.13,2.16,1.25l0,2.04
						c0,1.38-0.97,3.06-2.17,3.75l-52.54,30.33c-1.2,0.69-2.17,0.13-2.17-1.25v-2.04C251.08,298.7,252.05,297.02,253.25,296.33z"/>
					<path id="XMLID_621_" style="fill:#E6E6E6;" d="M253.25,310.6l52.54-30.33c1.2-0.69,2.16-0.13,2.16,1.25l0,2.04
						c0,1.38-0.97,3.06-2.17,3.75l-52.54,30.33c-1.2,0.69-2.17,0.13-2.17-1.25v-2.04C251.08,312.97,252.05,311.29,253.25,310.6z"/>
				</g>
			</g>
		</g>
		<g id="XMLID_3213_">
			<g id="XMLID_3217_">
				<path id="XMLID_3218_" style="fill:#B16668;" d="M213.07,221.56c-1.68,1.03-3.5,1.43-5.75,3.08c-1.99,1.45-2.86,1.46-5.09,2
					c-2.41,0.58-21.52-5.07-24.86-7.99c-5.2-4.54-14.41-20.91-17.85-24.85c-2.83-3.24-6.76-7.63-10.25-7.65
					c-5.77,1.75-4.46,10.33,0.36,18.05c3.99,6.39,12.21,19.14,20.8,24.77c4.16,2.73,24.5,7.54,30.87,7.96
					c1.94,0.13,5.36,0.96,8.4,1.16c4.2,0.27,6.99-0.66,8.7-1.49c2.16-1.05,4.11-2.6,5.43-4.61c0.73-1.11,1.26-2.36,1.41-3.67
					c0.15-1.31-0.12-2.7-0.86-3.79c-0.15-0.22-0.33-0.44-0.57-0.55c-0.44-0.21-0.95-0.06-1.41,0.1c-2.56,0.89-5.18,2.23-7.81,2.84
					c-2.22,0.52-3.86,0.57-3.64,0.17c0.22-0.4,1.54-0.61,3.05-1.9c0.18-0.15,0.36-0.32,0.52-0.5l0-3.99
					C214.25,220.79,213.86,221.08,213.07,221.56z"/>
			</g>
			<g id="XMLID_3214_">
				<g id="XMLID_3215_">
					<path id="XMLID_3216_" style="fill:#455A64;" d="M148.91,184.14c-4.26,2.09-5.99,5.27-4.1,12.35
						c1.7,6.36,8.22,17.21,13.35,22.51c0,0,8.78-4.16,13.45-9.56c-4.63-7.08-6.85-11.24-11.2-17.22S151.51,183.42,148.91,184.14z"/>
				</g>
			</g>
		</g>
	</g>
</g>
</svg>
