<?xml version="1.0" encoding="utf-8"?>
<!-- Generator: Adobe Illustrator 22.1.0, SVG Export Plug-In . SVG Version: 6.00 Build 0)  -->
<svg version="1.1" xmlns="http://www.w3.org/2000/svg" xmlns:xlink="http://www.w3.org/1999/xlink" x="0px" y="0px"
	 viewBox="0 0 500 500" style="enable-background:new 0 0 500 500;" xml:space="preserve">
<g id="Plants_1_">
	<g id="Plants_2_">
		<g id="XMLID_1520_">
			<path id="XMLID_1528_" style="fill:#27DEBF;" d="M102.38,309.15c-3.01-0.5-5.68-2.67-6.97-5.41c-1.78-3.8-1.32-8.3,0.07-12.26
				c1.19-3.41,3.03-7.21,1.35-10.41c-0.98-1.86-2.91-2.96-4.5-4.32c-2.47-2.12-4.25-5.29-3.93-8.53c0.33-3.33,2.72-6.02,4.82-8.63
				c2.1-2.6,4.12-5.77,3.52-9.06c-0.58-3.21-1.39-6.72,1.17-9.41c3.04-3.2,8.4-2.03,11.06,0.91c3.03,3.35,4.67,7.98,8.56,10.54
				c1.48,0.97,3.19,1.55,4.81,2.27c4.01,1.79,7.92,5.22,7.89,9.62c-0.02,3.27-2.24,6.28-1.99,9.54c0.29,3.64,3.51,6.32,4.75,9.76
				c2.69,7.5-4.53,11.45-9.62,15.08c-3.09,2.2-6.33,4.21-9.62,6.11c-3.23,1.87-6.63,4.54-10.52,4.3
				C102.94,309.22,102.66,309.19,102.38,309.15z"/>
			<path id="XMLID_1524_" style="opacity:0.3;" d="M102.38,309.15c-3.01-0.5-5.68-2.67-6.97-5.41c-1.78-3.8-1.32-8.3,0.07-12.26
				c1.19-3.41,3.03-7.21,1.35-10.41c-0.98-1.86-2.91-2.96-4.5-4.32c-2.47-2.12-4.25-5.29-3.93-8.53c0.33-3.33,2.72-6.02,4.82-8.63
				c2.1-2.6,4.12-5.77,3.52-9.06c-0.58-3.21-1.39-6.72,1.17-9.41c3.04-3.2,8.4-2.03,11.06,0.91c3.03,3.35,4.67,7.98,8.56,10.54
				c1.48,0.97,3.19,1.55,4.81,2.27c4.01,1.79,7.92,5.22,7.89,9.62c-0.02,3.27-2.24,6.28-1.99,9.54c0.29,3.64,3.51,6.32,4.75,9.76
				c2.69,7.5-4.53,11.45-9.62,15.08c-3.09,2.2-6.33,4.21-9.62,6.11c-3.23,1.87-6.63,4.54-10.52,4.3
				C102.94,309.22,102.66,309.19,102.38,309.15z"/>
			<path id="XMLID_1521_" style="fill:#FFFFFF;" d="M110.8,307.16c3.79-8.25,4.9-16.85,4.57-24.94c0.05-0.14,0.05-0.3-0.02-0.44
				c-0.12-2.54-0.38-5.02-0.75-7.42c4.34-7.17,9.93-11.67,10-11.7c0.31-0.12,0.47-0.47,0.35-0.78c-0.12-0.31-0.47-0.47-0.78-0.35
				c-0.3,0.11-5.56,4.39-9.85,11.15c-2.75-15.73-9.71-27.68-9.83-27.88c-0.17-0.28-0.54-0.38-0.83-0.21
				c-0.29,0.17-0.38,0.54-0.21,0.82c0.13,0.22,9.05,15.54,10.56,34.23c-5.16-7.07-15.47-11.23-15.95-11.42
				c-0.31-0.12-0.66,0.03-0.78,0.34c-0.09,0.23-0.03,0.49,0.14,0.66c0.05,0.05,0.12,0.1,0.2,0.13c0.12,0.05,12.23,4.93,16.54,12.77
				c0.35,7.97-0.74,16.44-4.46,24.54c-0.11,0.24-0.05,0.51,0.13,0.68c0.05,0.05,0.1,0.08,0.17,0.11
				C110.3,307.59,110.66,307.46,110.8,307.16z"/>
		</g>
		<g id="XMLID_1529_">
			<path id="XMLID_1549_" style="fill:#27DEBF;" d="M102.87,307.68c0,0-3.02-10-9.66-19.42c-7.01-9.94-18.64-18.6-28.43-19.03
				c-9.79-0.43-12.73,6.6-9.7,12.51c2.61,5.1,10.38,8.39,16.5,12.2c6.12,3.81,17.97,13.5,22.56,24l5.43-0.31L102.87,307.68z"/>
			<path id="XMLID_1547_" style="opacity:0.1;" d="M102.87,307.68c0,0-3.02-10-9.66-19.42c-7.01-9.94-18.64-18.6-28.43-19.03
				c-9.79-0.43-12.73,6.6-9.7,12.51c2.61,5.1,10.38,8.39,16.5,12.2c6.12,3.81,17.97,13.5,22.56,24l5.43-0.31L102.87,307.68z"/>
			<path id="XMLID_1539_" style="fill:#FFFFFF;" d="M98.06,311.76c-0.31,0.07-0.63-0.11-0.72-0.43
				c-7.39-26.97-37.58-35.9-37.89-35.99c-0.32-0.09-0.5-0.42-0.41-0.74c0.09-0.32,0.42-0.51,0.74-0.41
				c0.31,0.09,31.15,9.22,38.71,36.83c0.09,0.32-0.1,0.65-0.42,0.74C98.07,311.75,98.07,311.76,98.06,311.76z"/>
		</g>
	</g>
</g>
<g id="Floor">
	<ellipse id="Floor_3_" style="fill:#27DEBF;" cx="250" cy="358.96" rx="203.07" ry="94.52"/>
	<ellipse id="Floor_2_" style="opacity:0.3;" cx="250" cy="358.96" rx="203.07" ry="94.52"/>
</g>
<g id="Clouds">
	<g id="XMLID_2285_">
		<g id="XMLID_2138_">
			<path id="XMLID_2141_" style="fill:#EBEBEB;" d="M142.04,79.72l-6.46,3.73c0.03-0.29,0.05-0.58,0.05-0.86v-1.87
				c0-3.33-2.34-4.68-5.23-3.02c-1.17,0.67-2.24,1.74-3.12,3c-0.47-4.19-3.76-5.75-7.75-3.45c-4.32,2.49-7.82,8.56-7.82,13.54v2.8
				c0,1.29,0.24,2.38,0.66,3.25l-5.37,3.1c-1.6,0.92-2.9,3.17-2.9,5.02s1.3,2.6,2.9,1.67l35.03-20.23c1.6-0.92,2.9-3.17,2.9-5.02
				C144.93,79.55,143.64,78.8,142.04,79.72z"/>
		</g>
		<g id="XMLID_2136_">
			<path id="XMLID_2137_" style="fill:#EBEBEB;" d="M99.3,62.55l-3.57,1.37v-7.86c0-6.23-4.97-7.72-10.36-4.61l0,0
				c-5.39,3.11-9.77,10.69-9.77,16.92v1.14c-1.22-0.49-2.8-0.3-4.53,0.7l0,0c-3.88,2.24-7.03,7.69-7.03,12.17v0.52l-4.97,2.87
				c-2.56,1.48-4.63,5.06-4.63,8.02c0,2.95,2.07,4.15,4.63,2.67L99.3,73.24c2.56-1.48,4.63-5.06,4.63-8.02
				C103.93,62.27,101.86,61.07,99.3,62.55z"/>
		</g>
	</g>
</g>
<g id="Shadow">
	<ellipse id="Shadow_6_" style="opacity:0.05;" cx="252.07" cy="347.7" rx="98.16" ry="49.68"/>
</g>
<g id="Flowers">
	<g id="Flowers_4_">
		<g id="XMLID_83_">
			<path id="XMLID_85_" style="fill:#FAFAFA;" d="M110.05,377.2c0,0-1.33-2.7-3.52-3.01c0,0-1.98,1.52-2.17,3.88
				c0,0-2.56-0.72-4.79,1.18c0,0,0.59,2.68,3.04,3.51c0,0-1.01,2.5,0.16,4.99c0,0,4.21,0.31,5.7-3.2c0,0,1.56,2.33,5.85,1.52
				c0,0,1.25-2.92-1.56-5.11c0,0,2.65-1.53,2.34-4.08C115.11,376.88,113.02,375.93,110.05,377.2z"/>
			<path id="XMLID_84_" style="fill:#E87251;" d="M107.65,378.79c-2.16,0.13-2.95,1.87-2.99,2.54c0,0,0.25,1.62,3.07,1.43
				c2.82-0.19,2.99-1.88,2.99-1.88S110.29,378.63,107.65,378.79z"/>
		</g>
		<g id="XMLID_80_">
			<path id="XMLID_82_" style="fill:#FAFAFA;" d="M90.27,362.08c0,0-0.46-2.34-2.07-3.04c0,0-1.83,0.75-2.47,2.52
				c0,0-1.81-1.08-3.91-0.09c0,0-0.1,2.18,1.6,3.32c0,0-1.3,1.7-0.92,3.86c0,0,3.16,1.11,5.03-1.27c0,0,0.71,2.11,4.17,2.38
				c0,0,1.56-1.98-0.14-4.24c0,0,2.35-0.62,2.64-2.64C94.21,362.89,92.81,361.72,90.27,362.08z"/>
			<path id="XMLID_81_" style="fill:#E87251;" d="M88.11,362.8c-1.68-0.35-2.65,0.82-2.82,1.33c0,0-0.15,1.29,2.05,1.74
				c2.2,0.44,2.68-0.82,2.68-0.82S90.16,363.23,88.11,362.8z"/>
		</g>
		<path id="XMLID_79_" style="fill:#FAFAFA;" d="M103.05,364.41c0,0-0.83-2.41-2.41-1.58c-1.58,0.83-1.03,2.34,0.34,2.69
			c0,0-2.96,0.96-2.14,2.55c0.83,1.58,3.38-0.07,3.93-0.9c0,0,0.55,2.43,2.62,1.56c2.07-0.87,0-2.94,0-2.94s3.17-1.23,1.45-2.68
			C105.12,361.65,103.05,364.41,103.05,364.41z"/>
		<path id="XMLID_78_" style="fill:#FAFAFA;" d="M89.74,380.35c0,0-2.05-2.7-0.49-3.36c1.56-0.66,2.21,1.68,2.21,1.68
			s1.56-1.84,2.29-0.53c0.74,1.31-1.15,2.7-1.15,2.7s2.13,1.15,0.9,2.29c-1.23,1.15-2.7-0.66-2.7-0.66s-0.84,2.05-2.14,1.47
			C87.36,383.38,88.18,381.01,89.74,380.35z"/>
	</g>
	<g id="Flowers_3_">
		<g id="XMLID_75_">
			<path id="XMLID_77_" style="fill:#FAFAFA;" d="M401.59,375.78c0,0-0.28-3.97-3.4-4.39c0,0-2.55-0.43-3.97,3.54
				c0,0-3.12-1.56-7.37,0.85c0,0-0.71,3.68,3.4,5.1c0,0-2.41,1.84-1.28,6.23c0,0,6.38,2.13,7.93-1.84c0,0,0.57,3.54,6.8,3.54
				c0,0,2.69-3.4,0-7.08c0,0,4.39-0.14,5.1-3.4C408.82,378.33,405.84,373.37,401.59,375.78z"/>
			<path id="XMLID_76_" style="fill:#E87251;" d="M397.76,376.41c-3.04-0.27-4.51,1.99-4.71,2.92c0,0,0,2.31,3.98,2.65
				c3.97,0.34,4.58-1.99,4.58-1.99S401.47,376.74,397.76,376.41z"/>
		</g>
		<g id="XMLID_72_">
			<path id="XMLID_74_" style="fill:#FAFAFA;" d="M421.36,367.63c0,0-1.4-2.82-3.68-3.15c0,0-2.07,1.59-2.27,4.06
				c0,0-2.67-0.76-5.01,1.23c0,0,0.62,2.8,3.18,3.67c0,0-1.06,2.61,0.16,5.23c0,0,4.41,0.33,5.96-3.35c0,0,1.63,2.44,6.12,1.59
				c0,0,1.31-3.06-1.63-5.34c0,0,2.78-1.6,2.45-4.27C426.64,367.29,424.46,366.3,421.36,367.63z"/>
			<path id="XMLID_73_" style="fill:#E87251;" d="M418.85,369.29c-2.26,0.14-3.08,1.96-3.13,2.66c0,0,0.26,1.69,3.21,1.5
				c2.95-0.19,3.13-1.97,3.13-1.97S421.61,369.12,418.85,369.29z"/>
		</g>
		<path id="XMLID_71_" style="fill:#FAFAFA;" d="M400.19,363.04c0,0-0.86-2.52-2.52-1.66c-1.66,0.86-1.08,2.45,0.36,2.81
			c0,0-3.1,1.01-2.23,2.67c0.86,1.66,3.53-0.07,4.11-0.94c0,0,0.58,2.54,2.74,1.63c2.16-0.91,0-3.08,0-3.08s3.32-1.29,1.51-2.8
			C402.35,360.16,400.19,363.04,400.19,363.04z"/>
		<path id="XMLID_70_" style="fill:#FAFAFA;" d="M419.51,387.17c0,0,0.25-2.65-1.61-2.55c-1.87,0.1-2,1.79-0.83,2.71
			c0,0-3.24-0.36-3.14,1.51c0.1,1.87,3.25,1.39,4.13,0.84c0,0-0.52,2.55,1.82,2.62c2.34,0.07,1.27-2.8,1.27-2.8s3.55,0.19,2.54-1.93
			C422.67,385.44,419.51,387.17,419.51,387.17z"/>
		<path id="XMLID_69_" style="fill:#FAFAFA;" d="M378.05,385.65c0,0-2.14-2.83-0.51-3.51c1.63-0.69,2.31,1.76,2.31,1.76
			s1.63-1.93,2.4-0.56c0.77,1.37-1.2,2.83-1.2,2.83s2.23,1.2,0.94,2.4c-1.29,1.2-2.83-0.69-2.83-0.69s-0.88,2.14-2.24,1.54
			C375.56,388.82,376.42,386.33,378.05,385.65z"/>
	</g>
</g>
<g id="Butterfly">
	<g id="Butterfly_2_">
		<g id="XMLID_47_">
			<path id="XMLID_49_" style="fill:#27DEBF;" d="M364.8,164.36c4-2.71,11.05-12.66,12.19-18.32c1.13-5.66,0.13-8-4.2-6.67
				c-4.54,1.4-11.62,6.29-12.33,10.39c-0.71,4.1-1.98,14.51-1.98,14.08c0-0.42-3.04-9.01-7.3-9.24c-4.27-0.23-7.55,5.68-3.17,9.76
				C352.4,168.44,358.12,169.48,364.8,164.36z"/>
			<path id="XMLID_48_" style="opacity:0.1;" d="M364.8,164.36c4-2.71,11.05-12.66,12.19-18.32c1.13-5.66,0.13-8-4.2-6.67
				c-4.54,1.4-11.62,6.29-12.33,10.39c-0.71,4.1-1.98,14.51-1.98,14.08c0-0.42-3.04-9.01-7.3-9.24c-4.27-0.23-7.55,5.68-3.17,9.76
				C352.4,168.44,358.12,169.48,364.8,164.36z"/>
		</g>
		<g id="XMLID_45_">
			<path id="XMLID_46_" style="fill:#455A64;" d="M370.12,162.69c-0.12,0-0.22-0.09-0.23-0.22c-0.01-0.13,0.09-0.24,0.22-0.25
				c0.05,0,5.37-0.39,7.11-4.05c0.6-1.26,0.29-2.2-0.2-2.67c-0.43-0.42-1.04-0.52-1.54-0.25c-0.43,0.23-0.71,0.65-0.7,1.09
				c0,0.23,0.1,0.56,0.31,0.76c0.11,0.11,0.24,0.16,0.39,0.16c0,0,0.01,0,0.02,0c0.13,0,0.23,0.1,0.23,0.23
				c0,0.13-0.1,0.23-0.23,0.24c-0.01,0-0.01,0-0.02,0c-0.27,0-0.51-0.1-0.71-0.29c-0.33-0.31-0.45-0.78-0.46-1.08
				c-0.01-0.62,0.35-1.2,0.95-1.51c0.68-0.35,1.5-0.23,2.08,0.33c0.6,0.58,1,1.73,0.3,3.21c-1.86,3.92-7.27,4.3-7.5,4.32
				C370.13,162.69,370.12,162.69,370.12,162.69z"/>
		</g>
		<path id="XMLID_44_" style="fill:#455A64;" d="M371.36,163.12c0.18,0.93-0.43,1.83-1.36,2.01c-0.93,0.18-1.83-0.43-2.01-1.36
			c-0.18-0.93,0.43-1.83,1.36-2.01C370.29,161.58,371.18,162.19,371.36,163.12z"/>
		<path id="XMLID_43_" style="fill:#455A64;" d="M368.37,163.84c-0.82-0.69-6.2,3.68-5.28,4.82
			C364.01,169.79,369.7,164.99,368.37,163.84z"/>
		<g id="XMLID_31_">
			<path id="XMLID_42_" style="fill:#27DEBF;" d="M353.47,170.83c0,0-9.58,1.64-11.29-3.01c-1.71-4.65,1.13-8.71,4.8-9.44
				c3.67-0.73,10.86,4.75,10.86,4.75s-8.05-7.68-2.23-17.04c3.28-5.27,9.91-11.55,12.35-7.88c2.45,3.67,0.36,19.87-1.6,25.69
				c-0.68,0.42-1.95,1.06-2.74,2.4C361.52,168.2,358.55,169.88,353.47,170.83z"/>
			<path id="XMLID_41_" style="opacity:0.2;fill:#FFFFFF;" d="M353.47,170.83c0,0-9.58,1.64-11.29-3.01
				c-1.71-4.65,1.13-8.71,4.8-9.44c3.67-0.73,10.86,4.75,10.86,4.75s-8.05-7.68-2.23-17.04c3.28-5.27,9.91-11.55,12.35-7.88
				c2.45,3.67,0.36,19.87-1.6,25.69c-0.68,0.42-1.95,1.06-2.74,2.4C361.52,168.2,358.55,169.88,353.47,170.83z"/>
			<g id="XMLID_36_">
				<path id="XMLID_40_" style="opacity:0.7;fill:#FFFFFF;" d="M366.51,138.98c-2.98-0.79-9.09,6.27-10.4,8.95
					c-1.48,3.04-2.15,6.65-0.55,9.97c0,0-0.4-4.65,2.39-5.99c0,0-0.04-4.75,4.78-5.01c0,0,2.27-4.77,5.23-3.37
					C367.96,143.52,368.04,139.39,366.51,138.98z"/>
				<path id="XMLID_39_" style="opacity:0.7;fill:#FFFFFF;" d="M365.78,162.41c0.5-0.65,2.52-15.71,2.18-17.09
					c-0.34-1.38-4.23-0.58-4.43,2.03C363.37,149.5,365.01,163.42,365.78,162.41z"/>
				<path id="XMLID_38_" style="opacity:0.7;fill:#FFFFFF;" d="M364.48,163.81c0.35-0.5-1.55-14.71-1.9-15.65
					c-0.49-1.34-4.33,1.43-3.76,4.4C359.3,155.04,363.96,164.55,364.48,163.81z"/>
				<path id="XMLID_37_" style="opacity:0.7;fill:#FFFFFF;" d="M363.36,165.16c0.09-0.59-1.96-4.03-3.48-7.65
					c-1.07-2.55-1.53-3.86-1.9-4.1c-0.73-0.46-2.4,2.58-1.24,5.88C357.9,162.6,363.36,165.76,363.36,165.16z"/>
			</g>
			<g id="XMLID_32_">
				<path id="XMLID_35_" style="opacity:0.7;fill:#FFFFFF;" d="M361.29,165.9c0,0-7.89-4.89-9.53-4.89c-2.19,0-5.54,2.1-3.59,3.3
					C350.11,165.5,361.27,166.32,361.29,165.9z"/>
				<path id="XMLID_34_" style="opacity:0.7;fill:#FFFFFF;" d="M361.58,166.82c0,0.37-3.61,2.61-8.92,3.04
					c-6.18,0.5-8.25-0.79-9.21-1.81c-1.15-1.21,1.96-3.8,3.85-3.11c2.14,0.78,5.5,1.31,8.99,1.46
					C359.79,166.54,361.76,166.19,361.58,166.82z"/>
				<path id="XMLID_33_" style="opacity:0.7;fill:#FFFFFF;" d="M351.74,160.3c-1.63-0.09-3.54,0.71-4.4,1.81
					c-0.72,0.92-0.31,1.53-1.6,1.92c-1.51,0.45-2.53,1.12-3.11,2.67c-0.14-0.34-0.9-3.87,1.95-6.08
					C347.42,158.4,350.26,159.7,351.74,160.3z"/>
			</g>
		</g>
	</g>
</g>
<g id="Character">
	<g id="Character_2_">
		<path id="XMLID_30_" style="fill:#263238;" d="M300.13,202.8c-1.08-1.15-2.41-2.04-3.47-3.21c-1.51-1.67-2.41-3.87-2.5-6.12
			c-0.1-2.49,0.74-4.93,0.77-7.42c0.04-4.3-2.64-8.52-6.55-10.31c-2.91-1.33-5.96-1.76-8.57-3.78c-6.61-5.12-3.86-13.42-2.47-20.42
			c0,0,0,0,0-0.01c0.07-0.34,0.13-0.67,0.19-1.01c0,0,0,0,0,0c0.35-1.94,0.56-3.93,0.57-5.97l0,0
			c0.16-19.19-15.26-34.87-34.45-35.03l-3.04-0.03c-5.14-0.04-10.03,1.04-14.43,3.01l0,0c0,0,0,0-0.01,0
			c-0.56,0.25-1.11,0.51-1.65,0.79c-0.1,0.05-0.21,0.1-0.31,0.16c-0.58,0.3-1.14,0.62-1.7,0.95c-0.01,0-0.01,0.01-0.02,0.01
			c-0.58,0.34-1.14,0.71-1.69,1.09c-0.02,0.01-0.03,0.02-0.05,0.03c-6.36,4.34-11.2,10.74-13.57,18.25
			c-4.38,12.09-5.64,29.93-0.84,46.17c2.98,10.07,9.56,18.81,16.43,25.39c17.55,16.84,57.69,19.24,71.15,15
			C301.64,217.91,306.66,209.72,300.13,202.8z"/>
		<g id="XMLID_21_">
			<path id="XMLID_29_" style="fill:#EEB1AB;" d="M200.67,354.5c11.46,5.89,15.46,9.59,27.92,14.96
				c18.99,8.18,44.3,13.28,58.75,10.55l-31.39-28.01c0,0-42.76-12.08-47.18-15.15c-3.69-2.57-4.37-9.69-9.29-10.49
				c-5.67-0.91-9.42,2.37-12.75,5.92c-3.15,3.36-7.47,5.1-16.02,2.85c-8.55-2.25-16.9-5.75-20.16-3.87
				c-3.26,1.89-0.8,4.33,14.28,9.96c8.67,3.24,19.58,7.28,26.72,9.12c4.53,1.17,13.23,6.58,17.4,8.72"/>
			<g id="XMLID_25_">
				<g id="XMLID_26_">
					<path id="XMLID_28_" style="fill:#37474F;" d="M146.48,332.72c-1.78-2.05,2.9-8.14,11.99-9.86c7.16-1.36,12.33-0.5,17.13,0.77
						c4.8,1.27,11.05,0.99,14.84-1.13c6.89-3.85,9.32-3.3,9.29,1.32c0,0,1.34,5.07-4.53,7.68
						C189.32,334.12,160.36,335.79,146.48,332.72z"/>
					<path id="XMLID_27_" style="fill:#455A64;" d="M205.47,336.22c-2.66,5.46-9.84,4.44-15.89,3.76
						c-5.68-0.64-26.52-4.57-28.92-0.36c-5.73-1.73-11.44-4.39-14.19-6.9c0,0,1.05-5.75,12.81-3.84c7.7,1.25,21.61,1.16,25.83,0.31
						c5.54-1.11,12.77-6.75,18.75-4.86C206.64,327.62,205.87,331.09,205.47,336.22z"/>
				</g>
			</g>
			<path id="XMLID_24_" style="fill:#EEB1AB;" d="M336.21,334.12c-2.02-6.55-15.99-20.5-29.27-30.04
				c-13.28-9.56-34.52-25.59-34.52-25.59l-0.01,0.01c0,0,0-0.01,0-0.01l-61.02-12.68c-1.45,8.78-16.45,33.01-15.16,46.02
				c1.25,12.62,2.2,27.21,24.66,41.4c13.62,8.61,22.08,13.58,32.16,17.94c10.94,4.73,29.3,12.96,43.95,6.31
				c8.44-3.83,12.45-12.15,9.72-19.57c0.01,0,0.01,0,0.02,0c1.5,0.03,3,0,4.38-0.09c1.62-0.07,3.09-0.2,4.25-0.29
				c4.2-0.33,8.43-1.04,12.25-2.81C336.18,350.8,339.15,343.59,336.21,334.12z"/>
			<path id="XMLID_23_" style="fill:#E58D83;" d="M268.16,372.78c-8.52-0.23-24.73-4.88-32.23-15.5c-8.08-11.44,4.63-3.61,4.63-3.61
				S258.98,368.95,268.16,372.78z"/>
			<path id="XMLID_22_" style="fill:#E58D83;" d="M311.12,357.83c-1.38,0.09-2.88,0.12-4.38,0.09
				c-9.1-16.15-47.25-41.63-49.65-43.39c-0.07-0.06-0.12-0.1-0.12-0.1c0.07-0.12,0.16-0.18,0.25-0.3l1.49-2.49l0.02,0
				c2.24-5.74,4.95-10,4.95-10c-0.55,4.02-1.95,8.45-2.98,11.4c5.64,4.34,26.78,19.62,33.14,24.81
				C300.5,343.31,307.47,349.67,311.12,357.83z"/>
		</g>
		<path id="XMLID_20_" style="fill:#EEB1AB;" d="M257.45,183.92c12.92-1.59,16.42,10.55,12.9,24.35
			c6.35,11.51,3.84,24.63-2.06,29.46l-2.12,20.03c0,0,6.2,19.18,6.23,20.73c0,0-4.32,16.5-32.17,20.88
			c-18.88,2.97-28.89-33.84-28.85-33.56c-3.33-18.39-13.79-50.34-13.7-57.24c0.07-5.98,0.66-15.58,11.89-20.56l16.66-1.72
			l21.61-1.57L257.45,183.92z"/>
		<g id="XMLID_17_">
			<path id="XMLID_19_" style="fill:#EEB1AB;" d="M361.9,183.93c-1.37-2.75-6.29,0.49-11.43,3.95c-4.73,3.19-13.88,9.31-14.74,8.39
				c-0.86-0.92-0.89-5.22-2.51-7.81c-1.58-2.53-5.01-2.97-4.64-0.51c0.21,1.41,0.01,6.22,0.04,8.41c0.02,2.19-0.32,8.27-2.55,12.53
				c-2.89,5.53-18.41,20.34-27.84,28.91c-5-10.35-17.21-35.47-21.18-42.35c-5.03-8.74-9.72-12.91-19.6-11.52l4.43,38.83
				c0,0,21.37,39.04,31.74,44.08c5.55,2.7,12.21-3.01,16.19-7.06c0,0,0-0.01,0.01-0.01c7.41-6.72,19.06-22.7,23.99-28.74
				c5.47-6.7,6.31-7.31,12.75-10.12c4.49-1.96,9.59-5.18,8.92-10.98c-0.04-0.37-0.11-0.75-0.08-1.12c0.05-0.53,0.32-1.01,0.47-1.52
				c0.41-1.38-0.04-2.98-1.13-3.92c-0.27-0.23-0.57-0.44-0.73-0.75c-0.36-0.7,0.17-1.5,0.36-2.26c0.33-1.26-0.4-2.71-1.61-3.2
				c-0.36-0.15-0.77-0.22-1.06-0.49c-1.12-1.03,4.96-5.33,5.54-5.86C360.59,187.71,362.84,185.82,361.9,183.93z"/>
			<path id="XMLID_18_" style="fill:#E58D83;" d="M336.95,200.82c0,0,3.39,8.07-0.46,13.66c0,0,2.91-2.27,3.85-5.59
				c0,0-0.28,4.16,3.41,4.45c0,0-1.01,4.78,3.99,5.26c0,0-3.45-2.66-2.16-6c0,0-4.63-0.67-3.6-5.56c0,0-3.09-1.07-2.12-4.62
				c0.71-2.57,7.86-5.03,8.62-5.95C348.37,195.07,336.95,200.82,336.95,200.82z"/>
		</g>
		<g id="XMLID_7_">
			<path id="XMLID_16_" style="fill:#EEB1AB;" d="M262.65,128.7c3.78,2.56,11,9.92,9.65,26.87c-1.39,17.52-7.43,21.5-10.37,22.57
				c-2.93,1.07-8.39-0.02-13.69-1.24l-0.49,7.96c0,0,4.28,4.59,4.56,7.52c0.47,4.84-8.28,5.23-15.24,2.35
				c-7.75-3.21-10.85-8.31-10.85-8.31l0.81-25.02c0,0-5.03,3.24-9.23,0.08c-5.68-4.27-5.73-11.79-2.08-15.06
				c3.65-3.28,10.99-1.72,12.07,3.19c0,0,7.16,2.29,18.91-3.25C258.47,140.81,261.99,131.56,262.65,128.7z"/>
			<g id="XMLID_9_">
				<path id="XMLID_15_" style="fill:#263238;" d="M249.66,141.36l-4.76,2.56c-0.68-1.37-0.17-3.05,1.14-3.75
					C247.36,139.46,248.98,140,249.66,141.36z"/>
				<path id="XMLID_14_" style="fill:#263238;" d="M270.44,144.55l-5.02-1.99c0.6-1.4,2.22-2.09,3.6-1.55
					C270.41,141.57,271.05,143.15,270.44,144.55z"/>
				<path id="XMLID_13_" style="fill:#E58D83;" d="M252.03,164.68l5.95,2.31c-0.61,1.71-2.44,2.57-4.08,1.93
					C252.26,168.28,251.42,166.38,252.03,164.68z"/>
				<path id="XMLID_12_" style="fill:#263238;" d="M269.19,150.61c-0.01,1.27-1.02,2.28-2.24,2.26c-1.22-0.02-2.2-1.06-2.18-2.33
					c0.01-1.27,1.01-2.28,2.23-2.26C268.23,148.3,269.2,149.35,269.19,150.61z"/>
				<path id="XMLID_11_" style="fill:#263238;" d="M251.72,150.52c-0.01,1.27-1.02,2.28-2.24,2.26c-1.22-0.02-2.2-1.06-2.18-2.33
					c0.01-1.27,1.01-2.28,2.23-2.26C250.76,148.21,251.74,149.25,251.72,150.52z"/>
				<polygon id="XMLID_10_" style="fill:#E58D83;" points="258.78,148.04 258.32,161.34 265.44,159.6 				"/>
			</g>
			<path id="XMLID_8_" style="fill:#E58D83;" d="M248.24,176.9c-4.44-0.78-13.2-4.04-14.99-7.16c0,0-0.05,2.05,2.71,5.02
				c2.76,2.96,12.08,5.56,12.08,5.56L248.24,176.9z"/>
		</g>
		<g id="XMLID_3_">
			<path id="XMLID_6_" style="fill:#27DEBF;" d="M314.27,304.1c-9.52-8.2-19.49-15.9-29.61-23.35
				c-18.46-13.57-17.64-24.46-17.64-24.46l1.66-17.44c10.21-12.5,6.55-23.38,2.66-30.86c-5.79-11.13-15.38-23.98-15.38-23.98
				l-7.13,0.62c4.1,4.7,7.4,10.82,9.72,15.93c2.23,4.91,0.74,10.45-4.62,11.13l-5.69,0.72c-7.56,0.96-13.83-3.12-17.63-9.73
				c-4.75-8.25-9.42-15.87-9.42-15.87l-7.89,0.82c0,0,8.3,18.11,1.73,34.09c-5.62,13.68-11.86,16.66-11.86,16.66l8.22,27.43
				c-1.77,5.86-6.47,10.11-9.27,15.66c-2.99,5.91-6.47,11.7-7.77,19.51c-2.35,14.14,0.03,26.69,5.98,39.48
				c2.11,4.54,5.36,11.42,7.14,17.27c3.29,10.77,3.49,16.34,3.42,22.49c8.78,0.6,16.4-1.18,23.41-5.26
				c4.77-2.77,7.13-5.85,11.14-9.64c3.26-3.07,6.32-5.66,10.24-7.81c8.69-4.76,18.92-2.27,28.07-5.34c2.97-1,5.72-2.67,7.96-4.86
				c4.63-4.52,6.91-10.88,10.62-16.17c2.67-3.82,6.16-7.12,10.33-9.21c2.83-1.41,5.97-2.24,9.14-2.29c2.27-0.04,5.3,0.35,7.47,0.75
				C325.23,314.33,319.18,308.33,314.27,304.1z"/>
			<path id="XMLID_5_" style="opacity:0.5;fill:#FFFFFF;" d="M314.27,304.1c-9.52-8.2-19.49-15.9-29.61-23.35
				c-18.46-13.57-17.64-24.46-17.64-24.46l1.66-17.44c10.21-12.5,6.55-23.38,2.66-30.86c-5.79-11.13-15.38-23.98-15.38-23.98
				l-7.13,0.62c4.1,4.7,7.4,10.82,9.72,15.93c2.23,4.91,0.74,10.45-4.62,11.13l-5.69,0.72c-7.56,0.96-13.83-3.12-17.63-9.73
				c-4.75-8.25-9.42-15.87-9.42-15.87l-7.89,0.82c0,0,8.3,18.11,1.73,34.09c-5.62,13.68-11.86,16.66-11.86,16.66l8.22,27.43
				c-1.77,5.86-6.47,10.11-9.27,15.66c-2.99,5.91-6.47,11.7-7.77,19.51c-2.35,14.14,0.03,26.69,5.98,39.48
				c2.11,4.54,5.36,11.42,7.14,17.27c3.29,10.77,3.49,16.34,3.42,22.49c8.78,0.6,16.4-1.18,23.41-5.26
				c4.77-2.77,7.13-5.85,11.14-9.64c3.26-3.07,6.32-5.66,10.24-7.81c8.69-4.76,18.92-2.27,28.07-5.34c2.97-1,5.72-2.67,7.96-4.86
				c4.63-4.52,6.91-10.88,10.62-16.17c2.67-3.82,6.16-7.12,10.33-9.21c2.83-1.41,5.97-2.24,9.14-2.29c2.27-0.04,5.3,0.35,7.47,0.75
				C325.23,314.33,319.18,308.33,314.27,304.1z"/>
			<path id="XMLID_4_" style="opacity:0.05;" d="M270.49,354.14c-0.09-0.02-0.17-0.04-0.26-0.06c-19.05-3.58-31.19,6.51-42.45,0.22
				c-8.47-4.73-17.88-13.08-20.07-36.43c-2.12-22.62,7.55-39.96,9.06-48.23c1.51-8.27-4.92-25.2-4.13-31.53
				c0.69-5.58,6.76-14.77,4.92-29.71c-0.03,4.32-0.71,8.89-2.52,13.31c-5.62,13.68-11.86,16.66-11.86,16.66l8.22,27.43
				c-1.77,5.86-6.47,10.11-9.27,15.66c-2.99,5.91-6.47,11.7-7.77,19.51c-2.35,14.14,0.03,26.69,5.98,39.48
				c2.11,4.54,5.36,11.42,7.14,17.27c3.29,10.77,3.49,16.34,3.42,22.49c8.78,0.6,16.4-1.18,23.41-5.26
				c4.77-2.77,7.13-5.85,11.14-9.64c3.26-3.07,6.32-5.66,10.24-7.81C260.31,354.98,265.38,354.5,270.49,354.14z"/>
		</g>
		<g id="XMLID_1_">
			<path id="XMLID_2_" style="fill:#EEB1AB;" d="M179.55,277.04c-1.27-3.2-1.9-6.67-1.4-10.08c6.2-41.98,8.45-63.94,17.47-73.71
				c4.67-5.05,16.13-5.39,16.13-5.39c0.7,12.44-0.33,22.3-1.7,32.96c0,0-5.2,27.02-8.66,49.27c2.94,9.45,9.29,27.84,14.74,36.47
				c0.98,1.55,2.58,2.65,4.46,3.06c4.99,1.1,6.5,3.55,10.57,5.66c3.19,1.65,5.52,1.55,5.39,2.46c-0.17,1.16-1.57,3.41-4.92,3.55
				c-1.69,0.07-3.01-0.26-5.93-0.93c0,0,2.98,3.78,8.77,7.42c7.84,4.94,9.2,9.11-3.02,13.25c-7.65,2.59-15.9,0.79-25.72-13.09
				c-2.83-4-9.22-13.96-12.21-19.42C186.22,295.17,182.81,285.24,179.55,277.04z"/>
		</g>
	</g>
</g>
</svg>
