<?xml version="1.0" encoding="utf-8"?>
<!-- Generator: Adobe Illustrator 22.1.0, SVG Export Plug-In . SVG Version: 6.00 Build 0)  -->
<svg version="1.1" id="Layer_1" xmlns="http://www.w3.org/2000/svg" xmlns:xlink="http://www.w3.org/1999/xlink" x="0px" y="0px"
	 viewBox="0 0 425.2 425.2" style="enable-background:new 0 0 425.2 425.2;" xml:space="preserve">
<g>
	<path d="M325.7,425.2c-75.1,0-150.2,0-225.3,0c-2.3-0.3-4.6-0.7-6.9-1C39.8,416.5,1,372.1,1,318c-0.1-69.8-0.1-139.7,0.1-209.5
		c0-7.9,0.9-16,2.5-23.8C12.9,39.9,52.2,5.3,97.9,1.9c13.7-1,27.6-0.7,41.4-0.7c59.3-0.1,118.7-0.1,178,0
		c49.4,0.1,91,31.7,104.1,79.1c1.7,6.1,2.5,12.4,3.8,18.6c0,76.2,0,152.4,0,228.6c-0.3,1.2-0.6,2.3-0.8,3.5
		c-5.1,43.1-35.7,78.8-77.7,90.2C339.8,423,332.7,423.9,325.7,425.2z M344.1,133.6c-9.4,2.5-18.6,4.9-27.9,7.4
		c-0.1-0.4-0.2-0.8-0.3-1.2c13.8-12.2,19.3-19.5,20.7-27c-8.1,3.1-16.6,6.3-25,9.6c-5.1,2-9,1.2-13.6-2.6
		c-32-26.4-80.5-8.4-87.6,32.4c-1.1,6.6-0.2,13.6-0.2,20.7c-13.8-0.6-27.2-3.2-40.2-7.5c-28-9.3-51.5-25.4-70.9-48.1
		c-7.2,12.3-9,25-6.1,38.3c2.9,13.4,10.5,24,21.6,32.2c-0.2,0.4-0.5,0.9-0.7,1.3c-7.3-2-14.6-4-22.4-6.2c1.9,26.9,16,43.9,41.5,52.1
		c0,0.4-0.1,0.7-0.1,1.1c-7.5,0-15,0-22.9,0c3.9,11.2,10.3,19.8,19.3,26.4c8.9,6.6,19.1,9.8,31.2,10.6
		c-23.9,17.9-49.8,24.6-79.1,22.2c1.7,1.2,2.6,2,3.7,2.5c48.3,26.7,98.3,29.8,147.6,5.6c56.4-27.7,83.2-75.8,85.3-138.1
		c0.1-3.8,0.9-6.2,4.1-8.6C330.8,150.4,338,142.5,344.1,133.6z"/>
</g>
</svg>
