<?xml version="1.0" encoding="utf-8"?>
<!-- Generator: Adobe Illustrator 22.1.0, SVG Export Plug-In . SVG Version: 6.00 Build 0)  -->
<svg version="1.1" id="Layer_1" xmlns="http://www.w3.org/2000/svg" xmlns:xlink="http://www.w3.org/1999/xlink" x="0px" y="0px"
	 viewBox="0 0 425.2 425.2" style="enable-background:new 0 0 425.2 425.2;" xml:space="preserve">
<g>
	<path d="M-0.1,328c0-77,0-153.9,0-230.9c0.3-0.9,0.6-1.8,0.7-2.7c2.7-23.1,12-43.3,28-60.3c21.4-22.7,48-34,79.2-34.1
		C177.5,0,247.3,0,317,0c3.5,0,6.9,0.2,10.4,0.5c54.5,4.6,97.4,50.2,97.7,105c0.4,71.7,0.3,143.4,0,215
		c-0.2,46.6-33,88.3-78.1,100.5c-7,1.9-14.3,2.8-21.5,4.2c-75.3,0-150.6,0-225.9,0c-0.9-0.2-1.8-0.6-2.8-0.7
		c-45.3-5.7-75.8-30.1-91.5-72.8C2.6,344.2,1.6,335.9-0.1,328z M79.6,344.9c1.6-0.4,2.4-0.6,3.2-0.8c21.9-6.9,43.7-13.9,65.6-20.8
		c1.7-0.5,4.2-0.5,5.8,0.3c26.3,13.5,53.9,17.5,83,12.8c74.3-12,122.9-87,103.6-159.7c-17.4-65.6-81-106-148.7-94.6
		C108.9,96,61.2,185.6,96,262.3c2.2,5,6.1,9.9,6.3,14.9c0.2,5.1-3.2,10.4-5,15.7C91.4,310,85.6,327.1,79.6,344.9z"/>
	<path d="M112.6,313.2c3.9-11.5,7.4-22.6,11.5-33.3c1.8-4.8,1.3-8.3-1.5-12.8c-42.2-65.5-2.1-153.6,75.1-165.1
		c61.1-9.1,116.5,31.5,126,92.4c8.4,54-28.7,108-82.6,120.3c-29.6,6.8-57.6,2.6-83.8-13.1c-1.4-0.8-3.7-1.1-5.3-0.7
		c-11.5,3.5-22.9,7.2-34.4,10.9C116.1,312.2,114.7,312.6,112.6,313.2z M175,150.8c-7-0.6-9.7,0.4-14,5c-8.4,8.8-11.3,19.4-9.3,31.3
		c2,11.5,8.4,20.8,15,30.1c17.7,25.2,40.8,42.7,70.8,50.9c13.8,3.8,25.6,1.5,36.3-7.5c6.1-5.1,7-12,6.8-19.2c0-1.2-1.3-2.9-2.4-3.4
		c-8.5-4.3-17.1-8.4-25.7-12.5c-3.4-1.6-5.9-0.6-8.1,2.5c-2.7,3.8-5.9,7.3-8.8,11c-1.8,2.3-4,2.6-6.7,1.5
		c-18.7-7.7-33.1-20.2-43.6-37.4c-1.5-2.5-1.7-4.5,0.5-6.7c1.6-1.6,3-3.3,4.4-5c3.8-4.4,5.3-8.9,2.3-14.7c-3.1-6-5.5-12.4-7.9-18.7
		C182.6,153.2,180.3,149.5,175,150.8z"/>
</g>
</svg>
